<svg width="24px" height="24px" viewBox="0 0 24 24" fill="none" xmlns="http://www.w3.org/2000/svg">
<path fill-rule="evenodd" clip-rule="evenodd" d="M4.7718 11.2627L4.08306 8.49569C3.3518 5.55786 5.34306 2.63911 8.33486 2.2635L8.88149 2.19487C10.9511 1.93504 13.0448 1.93504 15.1144 2.19487L15.661 2.2635C18.6528 2.63911 20.6441 5.55786 19.9128 8.49569L19.2241 11.2627C20.908 10.8826 22.503 12.5534 21.8442 14.3178C21.1222 16.2517 19.7651 17.8149 18.064 18.8052L18.9271 20.5389C19.1753 21.0376 18.9741 21.6439 18.4776 21.8932C17.9812 22.1425 17.3775 21.9404 17.1292 21.4418L16.2172 19.6096C15.4169 19.8521 14.5732 19.9809 13.7079 19.9809H10.2884C9.42293 19.9809 8.5792 19.8521 7.77885 19.6096L6.86673 21.4418C6.6185 21.9404 6.01481 22.1425 5.51835 21.8932C5.02189 21.6439 4.82066 21.0376 5.06889 20.5389L5.93206 18.8051C4.23102 17.8148 2.87402 16.2516 2.15201 14.3178C1.49328 12.5535 3.08798 10.8828 4.7718 11.2627ZM9.13081 4.19811C11.0348 3.95907 12.9611 3.95907 14.8651 4.19811L15.4117 4.26674C17.2068 4.4921 18.4015 6.24335 17.9628 8.00606L16.8855 12.3342C13.7636 13.6692 10.2322 13.6691 7.11038 12.334L6.0331 8.00606C5.59434 6.24335 6.7891 4.4921 8.58418 4.26674L9.13081 4.19811ZM4.03408 13.609C3.94609 13.3733 4.19143 13.1515 4.41558 13.264L5.51849 13.8179C9.5975 15.8663 14.3987 15.8663 18.4777 13.8179L19.5806 13.264C19.8048 13.1515 20.0501 13.3733 19.9621 13.609C18.9845 16.2274 16.4922 17.9621 13.7079 17.9621H10.2884C7.50401 17.9621 5.01173 16.2274 4.03408 13.609Z" fill="#fff"/>
</svg>
