<svg width="24px" height="24px" viewBox="0 0 24 24" fill="none" xmlns="http://www.w3.org/2000/svg">
<path fill-rule="evenodd" clip-rule="evenodd" d="M19.4999 5.15093C14.9112 2.28302 9.08879 2.28302 4.50014 5.15093C3.56692 5.73419 3 6.75706 3 7.85756V9.64277C3 10.1951 3.44772 10.6428 4 10.6428L7 10.6428V15.6428H4C3.44772 15.6428 3 16.0905 3 16.6428C3 17.195 3.44772 17.6428 4 17.6428H20C20.5523 17.6428 21 17.195 21 16.6428C21 16.0905 20.5523 15.6428 20 15.6428H17V10.6428L20 10.6428C20.5523 10.6428 21 10.1951 21 9.64277V7.85756C21 6.75706 20.4331 5.73419 19.4999 5.15093ZM9 15.6428H11V10.6428H9V15.6428ZM13 15.6428V10.6428H15V15.6428H13ZM5.56014 6.84693C9.50025 4.38436 14.4997 4.38436 18.4399 6.84693C18.7883 7.06471 19 7.44664 19 7.85756V8.64277H5V7.85756C5 7.44664 5.21168 7.06471 5.56014 6.84693Z" fill="#fff"/>
<path d="M4 20.6428C4 20.0905 4.44772 19.6428 5 19.6428H19C19.5523 19.6428 20 20.0905 20 20.6428C20 21.195 19.5523 21.6428 19 21.6428H5C4.44772 21.6428 4 21.195 4 20.6428Z" fill="#fff"/>
</svg>
