<svg width="24px" height="24px" viewBox="0 0 24 24" fill="none" xmlns="http://www.w3.org/2000/svg">
<path fill-rule="evenodd" clip-rule="evenodd" d="M14.1893 2.60561C12.7604 2.18225 11.2395 2.18225 9.81066 2.60561C7.01297 3.43455 5.09373 6.00493 5.09373 8.92285V11.6948C5.09373 12.1768 4.99829 12.6539 4.81292 13.0988L4.63261 13.5316C4.39386 14.1046 4.29705 14.7684 4.45055 15.4023C4.61088 16.0644 5.04065 16.6565 5.75252 16.9824C6.30871 17.237 7.04018 17.4814 8 17.6668V17.9999C8 20.209 9.79086 21.9999 12 21.9999C14.2091 21.9999 16 20.209 16 17.9999V17.6668C17.2845 17.4187 18.1607 17.0648 18.7548 16.7217C19.8833 16.0698 19.8926 14.7922 19.5506 13.9713L19.4692 13.776C19.0976 12.8841 18.9062 11.9274 18.9062 10.9612V8.92285C18.9062 6.00493 16.987 3.43455 14.1893 2.60561ZM11.9693 17.9999C11.9795 17.9999 11.9897 17.9999 12 17.9999C12.0102 17.9999 12.0204 17.9999 12.0307 17.9999H14C14 19.1044 13.1046 19.9999 12 19.9999C10.8954 19.9999 10 19.1044 10 17.9999H11.9693ZM12.0297 15.9999C15.4566 15.9964 17.0714 15.3824 17.748 14.9936C17.7551 14.9586 17.7573 14.8676 17.7044 14.7406L17.623 14.5452C17.1498 13.4096 16.9062 12.1915 16.9062 10.9612V8.92285C16.9062 6.89066 15.5696 5.10052 13.6211 4.5232C12.5631 4.20971 11.4369 4.20971 10.3788 4.5232C8.43038 5.10052 7.09373 6.89066 7.09373 8.92285V11.6948C7.09373 12.4408 6.946 13.1794 6.65907 13.8681L6.47876 14.3008C6.36891 14.5644 6.36021 14.7905 6.39437 14.9316C6.4217 15.0444 6.47278 15.1125 6.58502 15.1639C7.40609 15.5398 9.01542 15.9968 11.9703 15.9999H12.0297Z" fill="#fff"/>
</svg>
