<svg width="24px" height="24px" viewBox="0 0 24 24" fill="none" xmlns="http://www.w3.org/2000/svg">
<path d="M7 2C4.23858 2 2 4.23858 2 7V17C2 19.7614 4.23858 22 7 22H17C19.7614 22 22 19.7614 22 17V12C22 11.4477 21.5523 11 21 11C20.4477 11 20 11.4477 20 12V17C20 18.6569 18.6569 20 17 20H7C5.34315 20 4 18.6569 4 17V7C4 5.34315 5.34315 4 7 4H12C12.5523 4 13 3.55228 13 3C13 2.44772 12.5523 2 12 2H7Z" fill="#fff"/>
<path fill-rule="evenodd" clip-rule="evenodd" d="M20.2071 3.79312C18.9882 2.57417 17.0119 2.57417 15.7929 3.79312L8.68463 10.9014C8.30015 11.2859 8.0274 11.7676 7.89552 12.2951L7.02988 15.7577C6.94468 16.0985 7.04453 16.459 7.29291 16.7073C7.54129 16.9557 7.90178 17.0556 8.24256 16.9704L11.7051 16.1047C12.2326 15.9729 12.7144 15.7001 13.0988 15.3156L20.2071 8.20733C21.4261 6.98838 21.4261 5.01207 20.2071 3.79312ZM17.2071 5.20733C17.645 4.76943 18.355 4.76943 18.7929 5.20733C19.2308 5.64524 19.2308 6.35522 18.7929 6.79312L11.6846 13.9014C11.5565 14.0296 11.3959 14.1205 11.2201 14.1644L9.37439 14.6259L9.83581 12.7802C9.87976 12.6044 9.97068 12.4438 10.0988 12.3156L17.2071 5.20733Z" fill="#fff"/>
</svg>
