<svg width="24px" height="24px" viewBox="0 0 24 24" fill="none" xmlns="http://www.w3.org/2000/svg">
<path d="M8 12C7.44772 12 7 12.4477 7 13C7 13.5523 7.44772 14 8 14H16C16.5523 14 17 13.5523 17 13C17 12.4477 16.5523 12 16 12H8Z" fill="#fff"/>
<path d="M7 17C7 16.4477 7.44772 16 8 16H12C12.5523 16 13 16.4477 13 17C13 17.5523 12.5523 18 12 18H8C7.44772 18 7 17.5523 7 17Z" fill="#fff"/>
<path fill-rule="evenodd" clip-rule="evenodd" d="M8 3C8 2.44772 7.55228 2 7 2C6.44772 2 6 2.44772 6 3V4.10002C3.71776 4.56329 2 6.58104 2 9V17C2 19.7614 4.23858 22 7 22H17C19.7614 22 22 19.7614 22 17V9C22 6.58104 20.2822 4.56329 18 4.10002V3C18 2.44772 17.5523 2 17 2C16.4477 2 16 2.44772 16 3V4H8V3ZM20 10H4V17C4 18.6569 5.34315 20 7 20H17C18.6569 20 20 18.6569 20 17V10ZM4.17071 8C4.58254 6.83481 5.69378 6 7 6H17C18.3062 6 19.4175 6.83481 19.8293 8H4.17071Z" fill="#fff"/>
</svg>
