<svg width="24px" height="24px" viewBox="0 0 24 24" fill="none" xmlns="http://www.w3.org/2000/svg">
<path fill-rule="evenodd" clip-rule="evenodd" d="M12 3.05051C11.3647 2.40223 10.4793 2 9.5 2C7.567 2 6 3.567 6 5.5C6 6.47934 6.40223 7.36474 7.05051 8H6.5C4.567 8 3 9.567 3 11.5C3 12.8962 3.81753 14.1015 5 14.6632V17C5 19.7614 7.23858 22 10 22H14C16.7614 22 19 19.7614 19 17V14.6632C20.1825 14.1015 21 12.8962 21 11.5C21 9.567 19.433 8 17.5 8H16.9495C17.5978 7.36474 18 6.47934 18 5.5C18 3.567 16.433 2 14.5 2C13.5207 2 12.6353 2.40223 12 3.05051ZM9.5 4C8.67157 4 8 4.67157 8 5.5C8 6.32843 8.67157 7 9.5 7C10.3284 7 11 6.32843 11 5.5C11 4.67157 10.3284 4 9.5 4ZM13 5.5C13 6.32843 13.6716 7 14.5 7C15.3284 7 16 6.32843 16 5.5C16 4.67157 15.3284 4 14.5 4C13.6716 4 13 4.67157 13 5.5ZM11 10H6.5C5.67157 10 5 10.6716 5 11.5C5 12.3284 5.67157 13 6.5 13H11V10ZM13 10H17.5C18.3284 10 19 10.6716 19 11.5C19 12.3284 18.3284 13 17.5 13H13V10ZM11 15H7V17C7 18.6569 8.34315 20 10 20H11V15ZM13 20V15H17V17C17 18.6569 15.6569 20 14 20H13Z" fill="#fff"/>
</svg>
