<svg width="24px" height="24px" viewBox="0 0 24 24" fill="none" xmlns="http://www.w3.org/2000/svg">
<path fill-rule="evenodd" clip-rule="evenodd" d="M7.60555 3C4.50969 3 2 5.50969 2 8.60555V9.65685C2 11.4224 2.70135 13.1156 3.94975 14.364L9.87868 20.2929C11.0503 21.4645 12.9497 21.4645 14.1213 20.2929L20.0503 14.364C21.2987 13.1156 22 11.4224 22 9.65685V8.60555C22 5.50969 19.4903 3 16.3944 3C15.2878 3 14.2059 3.32758 13.285 3.94145L12 4.79815L10.715 3.94145C9.79414 3.32758 8.71223 3 7.60555 3ZM4 8.60555C4 6.61426 5.61426 5 7.60555 5C8.31738 5 9.01328 5.2107 9.60555 5.60555L10.7108 6.34241L9.10565 9.55279C8.88952 9.98506 9.01345 10.51 9.40008 10.8L12.8235 13.3675L11.063 18.6488L5.36396 12.9497C4.49063 12.0764 4 10.8919 4 9.65685V8.60555ZM13.2884 18.2974L18.636 12.9497C19.5094 12.0764 20 10.8919 20 9.65685V8.60555C20 6.61426 18.3857 5 16.3944 5C15.6826 5 14.9867 5.2107 14.3944 5.60555L12.7758 6.68466L11.2677 9.70075L14.6001 12.2C14.9444 12.4583 15.0849 12.9079 14.9488 13.3162L13.2884 18.2974Z" fill="#fff"/>
</svg>
