<svg width="24px" height="24px" viewBox="0 0 24 24" fill="none" xmlns="http://www.w3.org/2000/svg">
<path fill-rule="evenodd" clip-rule="evenodd" d="M15.1035 4.18158C13.285 2.74188 10.715 2.74188 8.89648 4.18158L4.89648 7.34825C3.69857 8.2966 3 9.74061 3 11.2685V16.0001C3 18.7615 5.23858 21.0001 8 21.0001H16C18.7614 21.0001 21 18.7615 21 16.0001V11.2685C21 9.74061 20.3014 8.2966 19.1035 7.34824L15.1035 4.18158ZM10.1379 5.74967C11.229 4.88585 12.771 4.88585 13.8621 5.74967L17.8621 8.91634C18.5809 9.48535 19 10.3518 19 11.2685V16.0001C19 17.6569 17.6569 19.0001 16 19.0001V18C16 15.7909 14.2091 14 12 14C9.79086 14 8 15.7909 8 18V19.0001C6.34315 19.0001 5 17.6569 5 16.0001V11.2685C5 10.3518 5.41914 9.48535 6.13789 8.91634L10.1379 5.74967ZM10 18C10 16.8954 10.8954 16 12 16C13.1046 16 14 16.8954 14 18V19H10V18Z" fill="#fff"/>
</svg>
