<svg width="24px" height="24px" viewBox="0 0 24 24" fill="none" xmlns="http://www.w3.org/2000/svg">
<path fill-rule="evenodd" clip-rule="evenodd" d="M9.47214 2C7.57828 2 5.84696 3.07001 5 4.76393L2.31672 10.1305C2.10844 10.5471 2 11.0064 2 11.4721V17C2 19.7614 4.23858 22 7 22H17C19.7614 22 22 19.7614 22 17V11.4721C22 11.0064 21.8916 10.5471 21.6833 10.1305L19 4.76393C18.153 3.07001 16.4217 2 14.5279 2H9.47214ZM19.882 11L17.2111 5.65836C16.703 4.64201 15.6642 4 14.5279 4H9.47214C8.33582 4 7.29703 4.64201 6.78885 5.65836L4.11803 11H5.5C7.433 11 9 12.567 9 14.5C9 15.3284 9.67157 16 10.5 16H13.5C14.3284 16 15 15.3284 15 14.5C15 12.567 16.567 11 18.5 11H19.882ZM4 13H5.5C6.32843 13 7 13.6716 7 14.5C7 16.433 8.567 18 10.5 18H13.5C15.433 18 17 16.433 17 14.5C17 13.6716 17.6716 13 18.5 13H20V17C20 18.6569 18.6569 20 17 20H7C5.34315 20 4 18.6569 4 17V13Z" fill="#fff"/>
</svg>
