<svg width="24px" height="24px" viewBox="0 0 24 24" fill="none" xmlns="http://www.w3.org/2000/svg">
<path fill-rule="evenodd" clip-rule="evenodd" d="M6.08376 6.08376C6.51413 3.75992 8.55154 2 11 2H13C15.4485 2 17.4859 3.75992 17.9162 6.08376C20.2401 6.51413 22 8.55154 22 11V13C22 15.4485 20.2401 17.4859 17.9162 17.9162C17.4859 20.2401 15.4485 22 13 22H11C8.55154 22 6.51413 20.2401 6.08376 17.9162C3.75992 17.4859 2 15.4485 2 13V11C2 8.55154 3.75992 6.51413 6.08376 6.08376ZM8.17071 6C8.58254 4.83481 9.69378 4 11 4H13C14.3062 4 15.4175 4.83481 15.8293 6H8.17071ZM6 13V15.8293C4.83481 15.4175 4 14.3062 4 13V11C4 9.34315 5.34315 8 7 8H17C18.6569 8 20 9.34315 20 11V13C20 14.3062 19.1652 15.4175 18 15.8293V13C18 12.4477 17.5523 12 17 12H7C6.44772 12 6 12.4477 6 13ZM8 14V17C8 18.6569 9.34315 20 11 20H13C14.6569 20 16 18.6569 16 17V14H8Z" fill="#fff"/>
</svg>
