<svg width="24px" height="24px" viewBox="0 0 24 24" fill="none" xmlns="http://www.w3.org/2000/svg">
<path d="M7.86252 1.99996C7.06713 1.99952 6.47647 1.99921 5.96482 2.1363C4.58445 2.50617 3.50626 3.58436 3.13639 4.96473C2.9993 5.47638 2.99962 6.06704 3.00005 6.86243L3.0001 7C3.0001 7.55229 3.44781 8 4.0001 8C4.55238 8 5.0001 7.55229 5.0001 7C5.0001 6.00565 5.00869 5.70464 5.06824 5.48237C5.25318 4.79218 5.79227 4.25309 6.48246 4.06815C6.70474 4.00859 7.00574 4.00001 8.0001 4.00001H9.0001C9.55238 4.00001 10.0001 3.55229 10.0001 3C10.0001 2.44772 9.55238 2 9.0001 2L7.86252 1.99996Z" fill="#fff"/>
<path d="M16 4.00001C16.9944 4.00001 17.2954 4.00859 17.5176 4.06815C18.2078 4.25309 18.7469 4.79218 18.9319 5.48237C18.9914 5.70464 19 6.00565 19 7C19 7.55229 19.4477 8 20 8C20.5523 8 21 7.55229 21 7L21 6.86242C21.0005 6.06704 21.0008 5.47638 20.8637 4.96473C20.4938 3.58436 19.4156 2.50617 18.0353 2.1363C17.5236 1.99921 16.933 1.99952 16.1376 1.99996L15 2C14.4477 2 14 2.44772 14 3C14 3.55229 14.4477 4.00001 15 4.00001H16Z" fill="#fff"/>
<path fill-rule="evenodd" clip-rule="evenodd" d="M21 14L18 14L18 13.8843C18.0002 13.0666 18.0003 12.5094 17.9039 12.0246C17.5094 10.0411 15.9589 8.49061 13.9754 8.09608C13.4906 7.99965 12.9333 7.99978 12.1157 7.99999H11.8842C11.0666 7.99978 10.5093 7.99965 10.0245 8.09608C8.04106 8.49061 6.49057 10.0411 6.09604 12.0246C5.9996 12.5094 5.99974 13.0666 5.99994 13.8842L5.99996 14L3 14C2.44772 14 2 14.4477 2 15C2 15.5523 2.44772 16 3 16L3 16.046C2.99998 16.9415 2.99997 17.6805 3.05432 18.2802C3.11085 18.9039 3.23242 19.4744 3.5359 20C3.88697 20.6081 4.39192 21.113 5 21.4641C5.52564 21.7676 6.09615 21.8892 6.71983 21.9457C7.31948 22 8.05838 22 8.95376 22H9C9.55229 22 10 21.5523 10 21C10 20.4477 9.55229 20 9 20C8.04698 20 7.39908 19.999 6.90036 19.9538C6.41539 19.9099 6.17051 19.8305 6 19.7321C5.69596 19.5565 5.44349 19.304 5.26795 19C5.16951 18.8295 5.09011 18.5846 5.04616 18.0996C5.00096 17.6009 5 16.953 5 16H6.99654C6.99768 16 6.99882 16 6.99996 16L17 16C17.0012 16 17.0024 16 17.0037 16H19C19 16.953 18.999 17.6009 18.9538 18.0996C18.9099 18.5846 18.8305 18.8295 18.7321 19C18.5565 19.304 18.304 19.5565 18 19.7321C17.8295 19.8305 17.5846 19.9099 17.0996 19.9538C16.6009 19.999 15.953 20 15 20C14.4477 20 14 20.4477 14 21C14 21.5523 14.4477 22 15 22H15.046C15.9414 22 16.6805 22 17.2802 21.9457C17.9039 21.8892 18.4744 21.7676 19 21.4641C19.6081 21.113 20.113 20.6081 20.4641 20C20.7676 19.4744 20.8892 18.9039 20.9457 18.2802C21 17.6805 21 16.9416 21 16.0463V16C21.5523 16 22 15.5523 22 15C22 14.4477 21.5523 14 21 14ZM7.99996 14H16C16 13.0228 15.9951 12.6802 15.9423 12.4147C15.7056 11.2247 14.7753 10.2944 13.5852 10.0577C13.3198 10.0049 12.9772 10 12 10C11.0227 10 10.6801 10.0049 10.4147 10.0577C9.22462 10.2944 8.29433 11.2247 8.05761 12.4147C8.00481 12.6802 7.99996 13.0228 7.99996 14Z" fill="#fff"/>
</svg>
