<svg width="24px" height="24px" viewBox="0 0 24 24" fill="none" xmlns="http://www.w3.org/2000/svg">
<path fill-rule="evenodd" clip-rule="evenodd" d="M7.00736 9C7.06641 8.02766 7.47882 7.10697 8.17157 6.41422L10.6017 3.9841C12.2248 2.36102 15 3.51055 15 5.80594C15 6.01659 14.9742 6.22645 14.9231 6.43082L14.2808 9.00001H17.5109C19.4379 9.00001 21 10.5621 21 12.4891C21 12.9616 20.904 13.4292 20.7179 13.8635L18.9581 17.9696C18.1702 19.808 16.3626 21 14.3624 21H8L7.99605 21H4C3.44772 21 3 20.5523 3 20V10C3 9.44772 3.44772 9 4 9H7.00736ZM12.0159 5.39831C12.3791 5.03516 13 5.29236 13 5.80594C13 5.85307 12.9942 5.90002 12.9828 5.94575L12.0299 9.75747C11.9552 10.0562 12.0223 10.3727 12.2118 10.6154C12.4013 10.8581 12.6921 11 13 11H17.5109C18.3333 11 19 11.6667 19 12.4891C19 12.6908 18.959 12.8903 18.8796 13.0757L17.1199 17.1818C16.6471 18.2848 15.5625 19 14.3624 19H9V9.24265C9 8.71222 9.21071 8.20351 9.58579 7.82844L12.0159 5.39831ZM7 11H5V19H7V11Z" fill="#fff"/>
</svg>
