<svg width="48px" height="48px" viewBox="0 0 48 48" xmlns="http://www.w3.org/2000/svg" xmlns:xlink="http://www.w3.org/1999/xlink">
  <defs>
    <linearGradient id="linear-gradient" x1="0.5" x2="0.5" y2="1" gradientUnits="objectBoundingBox">
      <stop offset="0" stop-color="#8f5bff"/>
      <stop offset="1" stop-color="#1600c8"/>
    </linearGradient>
    <clipPath id="clip-Basket">
      <rect width="48" height="48"/>
    </clipPath>
  </defs>
  <g id="Basket" clip-path="url(#clip-Basket)">
    <rect width="48" height="48" fill="rgba(255,255,255,0)"/>
    <g id="Basket-2" data-name="Basket" transform="translate(8 8)">
      <g id="Icon" transform="translate(6)" stroke-miterlimit="10" fill="url(#linear-gradient)">
        <path d="M10,20A10,10,0,1,1,20,10,10.011,10.011,0,0,1,10,20ZM10,4a6,6,0,1,0,6,6A6.007,6.007,0,0,0,10,4Z" stroke="none"/>
        <path d="M 9.999899864196777 19.49979972839355 C 15.23816013336182 19.49979972839355 19.49979972839355 15.23816013336182 19.49979972839355 9.999899864196777 C 19.49979972839355 4.761640071868896 15.23816013336182 0.4999998509883881 9.999899864196777 0.4999998509883881 C 4.761640071868896 0.4999998509883881 0.4999998509883881 4.761640071868896 0.4999998509883881 9.999899864196777 C 0.4999998509883881 15.23816013336182 4.761640071868896 19.49979972839355 9.999899864196777 19.49979972839355 M 9.999899864196777 3.499599933624268 C 13.58417987823486 3.499599933624268 16.50020027160645 6.415619850158691 16.50020027160645 9.999899864196777 C 16.50020027160645 13.58417987823486 13.58417987823486 16.50020027160645 9.999899864196777 16.50020027160645 C 6.415619850158691 16.50020027160645 3.499599933624268 13.58417987823486 3.499599933624268 9.999899864196777 C 3.499599933624268 6.415619850158691 6.415619850158691 3.499599933624268 9.999899864196777 3.499599933624268 M 9.999899864196777 19.99979972839355 C 4.485939979553223 19.99979972839355 -1.358032193365943e-07 15.51385974884033 -1.358032193365943e-07 9.999899864196777 C -1.358032193365943e-07 4.485939979553223 4.485939979553223 -1.358032193365943e-07 9.999899864196777 -1.358032193365943e-07 C 15.51385974884033 -1.358032193365943e-07 19.99979972839355 4.485939979553223 19.99979972839355 9.999899864196777 C 19.99979972839355 15.51385974884033 15.51385974884033 19.99979972839355 9.999899864196777 19.99979972839355 Z M 9.999899864196777 3.999599933624268 C 6.691319942474365 3.999599933624268 3.999599933624268 6.691319942474365 3.999599933624268 9.999899864196777 C 3.999599933624268 13.30848026275635 6.691319942474365 16.00020027160645 9.999899864196777 16.00020027160645 C 13.30848026275635 16.00020027160645 16.00020027160645 13.30848026275635 16.00020027160645 9.999899864196777 C 16.00020027160645 6.691319942474365 13.30848026275635 3.999599933624268 9.999899864196777 3.999599933624268 Z" stroke="none" fill="rgba(255,255,255,0.3)"/>
      </g>
      <g id="Icon-2" data-name="Icon" transform="translate(0 10)" fill="rgba(136,125,255,0.7)" stroke-miterlimit="10">
        <path d="M1.835,1.819A2,2,0,0,1,3.826,0H28.174a2,2,0,0,1,1.992,1.819l1.636,18A2,2,0,0,1,29.81,22H2.19A2,2,0,0,1,.2,19.819Z" stroke="none"/>
        <path d="M 3.82642936706543 0.5 C 3.045499801635742 0.5 2.403289794921875 1.086479187011719 2.332590103149414 1.864200592041016 L 0.6962299346923828 19.86420059204102 C 0.6576004028320313 20.28903961181641 0.7947597503662109 20.69650077819824 1.082429885864258 21.01151084899902 C 1.370100021362305 21.3265209197998 1.763460159301758 21.5 2.190059661865234 21.5 L 29.8099308013916 21.5 C 30.23653030395508 21.5 30.6298999786377 21.3265209197998 30.91757011413574 21.01149940490723 C 31.20524024963379 20.69650077819824 31.34239959716797 20.28903961181641 31.30377006530762 19.86420059204102 L 29.66740989685059 1.864200592041016 C 29.59671020507813 1.086479187011719 28.95450019836426 0.5 28.17357063293457 0.5 L 3.82642936706543 0.5 M 3.82642936706543 0 L 28.17357063293457 0 C 29.20797920227051 0 30.07171058654785 0.7887706756591797 30.16535949707031 1.818929672241211 L 31.80171966552734 19.81892967224121 C 31.90819931030273 20.99015998840332 30.98600006103516 22 29.8099308013916 22 L 2.190059661865234 22 C 1.013999938964844 22 0.09180068969726563 20.99015998840332 0.1982803344726563 19.81892967224121 L 1.834640502929688 1.818929672241211 C 1.928289413452148 0.7887706756591797 2.792020797729492 0 3.82642936706543 0 Z" stroke="none" fill="rgba(255,255,255,0.3)"/>
      </g>
      <path id="Icon-3" data-name="Icon" d="M15,2.5A2.5,2.5,0,1,1,17.5,5,2.5,2.5,0,0,1,15,2.5ZM0,2.5A2.5,2.5,0,1,1,2.5,5,2.5,2.5,0,0,1,0,2.5Z" transform="translate(6 15)" fill="#fff"/>
    </g>
  </g>
</svg>
