<svg width="48px" height="48px" viewBox="0 0 48 48" xmlns="http://www.w3.org/2000/svg" xmlns:xlink="http://www.w3.org/1999/xlink">
  <defs>
    <linearGradient id="linear-gradient" x1="0.5" x2="0.5" y2="1" gradientUnits="objectBoundingBox">
      <stop offset="0" stop-color="#ff0069"/>
      <stop offset="1" stop-color="#b3002b"/>
    </linearGradient>
    <clipPath id="clip-Camera">
      <rect width="48" height="48"/>
    </clipPath>
  </defs>
  <g id="Camera" clip-path="url(#clip-Camera)">
    <rect width="48" height="48" fill="rgba(255,255,255,0)"/>
    <g id="Camera-2" data-name="Camera" transform="translate(8 12)">
      <g id="Icon" transform="translate(5)" stroke="rgba(255,255,255,0.3)" stroke-miterlimit="10" stroke-width="0.5" fill="url(#linear-gradient)">
        <rect width="22" height="22" rx="2" stroke="none"/>
        <rect x="0.25" y="0.25" width="21.5" height="21.5" rx="1.75" fill="none"/>
      </g>
      <g id="Icon-2" data-name="Icon" transform="translate(0 4)" fill="rgba(255,125,148,0.6)" stroke-miterlimit="10">
        <path d="M4,0H28a4,4,0,0,1,4,4V17a4,4,0,0,1-4,4H4a4,4,0,0,1-4-4V4A4,4,0,0,1,4,0Z" stroke="none"/>
        <path d="M 4 0.5 C 2.070089340209961 0.5 0.5 2.070089340209961 0.5 4 L 0.5 17 C 0.5 18.92991065979004 2.070089340209961 20.5 4 20.5 L 28 20.5 C 29.92991065979004 20.5 31.5 18.92991065979004 31.5 17 L 31.5 4 C 31.5 2.070089340209961 29.92991065979004 0.5 28 0.5 L 4 0.5 M 4 0 L 28 0 C 30.20914077758789 0 32 1.790859222412109 32 4 L 32 17 C 32 19.20914077758789 30.20914077758789 21 28 21 L 4 21 C 1.790859222412109 21 0 19.20914077758789 0 17 L 0 4 C 0 1.790859222412109 1.790859222412109 0 4 0 Z" stroke="none" fill="rgba(255,255,255,0.3)"/>
      </g>
      <path id="Icon-3" data-name="Icon" d="M6,12a6,6,0,1,1,6-6A6.007,6.007,0,0,1,6,12ZM6,2a4,4,0,1,0,4,4A4.005,4.005,0,0,0,6,2Z" transform="translate(10 8)" fill="#fff"/>
    </g>
  </g>
</svg>
