<svg width="48px" height="48px" viewBox="0 0 48 48" xmlns="http://www.w3.org/2000/svg" xmlns:xlink="http://www.w3.org/1999/xlink">
  <defs>
    <linearGradient id="linear-gradient" x1="0.5" x2="0.5" y2="1" gradientUnits="objectBoundingBox">
      <stop offset="0" stop-color="#00a3ff"/>
      <stop offset="1" stop-color="#005db3"/>
    </linearGradient>
    <clipPath id="clip-Chat">
      <rect width="48" height="48"/>
    </clipPath>
  </defs>
  <g id="Chat" clip-path="url(#clip-Chat)">
    <rect width="48" height="48" fill="rgba(255,255,255,0)"/>
    <g id="Chat-2" data-name="Chat" transform="translate(4 9)">
      <g id="Icon" transform="translate(40 8)" stroke-miterlimit="10" fill="url(#linear-gradient)">
        <path d="M-8.219,20.917C-3.356,19.141,0,15.368,0,11,0,4.925-6.492,0-14.5,0S-29,4.925-29,11s6.492,11,14.5,11a19.225,19.225,0,0,0,2.014-.105A24.116,24.116,0,0,0-5,24,8.509,8.509,0,0,1-8.219,20.917Z" stroke="none"/>
        <path d="M -7.021760940551758 23.17086029052734 C -7.587513446807861 22.65849685668945 -8.186092376708984 21.9903564453125 -8.654420852661133 21.16340065002441 L -8.945310592651367 20.64976119995117 L -8.390820503234863 20.44732093811035 C -6.047010898590088 19.59162139892578 -4.068000793457031 18.26395034790039 -2.667770862579346 16.60785102844238 C -1.249600768089294 14.93054103851318 -0.5000008344650269 12.99131107330322 -0.5000008344650269 10.99980068206787 C -0.5000008344650269 5.210190773010254 -6.780330657958984 0.5000006556510925 -14.49990081787109 0.5000006556510925 C -22.2194709777832 0.5000006556510925 -28.49980163574219 5.210190773010254 -28.49980163574219 10.99980068206787 C -28.49980163574219 16.7894115447998 -22.2194709777832 21.49960136413574 -14.49990081787109 21.49960136413574 C -13.84377098083496 21.49960136413574 -13.18369102478027 21.46508979797363 -12.53800106048584 21.39702987670898 L -12.38847064971924 21.38127136230469 L -12.25505065917969 21.45060157775879 C -10.53971195220947 22.34189033508301 -8.506931304931641 22.87302017211914 -7.021760940551758 23.17086029052734 M -5.000401020050049 24.00030136108398 C -5.000401020050049 24.00030136108398 -9.249910354614258 23.57554054260254 -12.48559093475342 21.8942813873291 C -13.14373111724854 21.96364974975586 -13.8165807723999 21.99960136413574 -14.49990081787109 21.99960136413574 C -22.50810050964355 21.99960136413574 -28.99980163574219 17.07480049133301 -28.99980163574219 10.99980068206787 C -28.99980163574219 4.924800872802734 -22.50810050964355 6.805419729971618e-07 -14.49990081787109 6.805419729971618e-07 C -6.491700649261475 6.805419729971618e-07 -8.178710686479462e-07 4.924800872802734 -8.178710686479462e-07 10.99980068206787 C -8.178710686479462e-07 15.36806106567383 -3.356090784072876 19.14146995544434 -8.219350814819336 20.91699981689453 C -7.055400848388672 22.97224998474121 -5.000401020050049 24.00030136108398 -5.000401020050049 24.00030136108398 Z" stroke="none" fill="rgba(255,255,255,0.3)"/>
      </g>
      <g id="Icon-2" data-name="Icon" transform="translate(0 0)" fill="rgba(125,204,255,0.2)" stroke-miterlimit="10">
        <path d="M8.4,22.565C3.4,20.536,0,16.566,0,12,0,5.373,7.163,0,16,0S32,5.373,32,12,24.836,24,16,24a21.252,21.252,0,0,1-3.25-.248A23.676,23.676,0,0,1,5,26,8.375,8.375,0,0,0,8.4,22.565Z" stroke="none"/>
        <path d="M 7.022593975067139 25.17085838317871 C 8.580513954162598 24.85844993591309 10.74136924743652 24.28890419006348 12.50872993469238 23.31465148925781 L 12.65807056427002 23.23233032226563 L 12.8265905380249 23.2584114074707 C 13.86359024047852 23.41892051696777 14.93135070800781 23.50030136108398 16.00020027160645 23.50030136108398 C 24.54704093933105 23.50030136108398 31.50040054321289 18.34115028381348 31.50040054321289 11.99970054626465 C 31.50040054321289 5.658740520477295 24.54704093933105 0.500000536441803 16.00020027160645 0.500000536441803 C 7.453360080718994 0.500000536441803 0.5000002980232239 5.658740520477295 0.5000002980232239 11.99970054626465 C 0.5000002980232239 16.20769119262695 3.6009202003479 20.07835960388184 8.592639923095703 22.10120010375977 L 9.088550567626953 22.30216979980469 L 8.854470252990723 22.78334045410156 C 8.365681648254395 23.78805732727051 7.672585010528564 24.58229637145996 7.022593975067139 25.17085838317871 M 5.000400066375732 26.00010108947754 C 5.000400066375732 26.00010108947754 7.290480136871338 24.85522079467773 8.404850006103516 22.56459999084473 C 3.399710178375244 20.53631973266602 2.716064386731887e-07 16.56587982177734 2.716064386731887e-07 11.99970054626465 C 2.716064386731887e-07 5.373000621795654 7.163100242614746 5.447387820822769e-07 16.00020027160645 5.447387820822769e-07 C 24.83640098571777 5.447387820822769e-07 32.00040054321289 5.373000621795654 32.00040054321289 11.99970054626465 C 32.00040054321289 18.62730026245117 24.83640098571777 24.00030136108398 16.00020027160645 24.00030136108398 C 14.88639068603516 24.00030136108398 13.79975032806396 23.91499137878418 12.7501106262207 23.75253105163574 C 9.486909866333008 25.55136108398438 5.000400066375732 26.00010108947754 5.000400066375732 26.00010108947754 Z" stroke="none" fill="rgba(255,255,255,0.3)"/>
      </g>
      <path id="Icon-3" data-name="Icon" d="M11,2.5A2.5,2.5,0,1,1,13.5,5,2.5,2.5,0,0,1,11,2.5ZM0,2.5A2.5,2.5,0,1,1,2.5,5,2.5,2.5,0,0,1,0,2.5Z" transform="translate(8 9)" fill="#fff"/>
    </g>
  </g>
</svg>
