<svg width="48px" height="48px" viewBox="0 0 48 48" xmlns="http://www.w3.org/2000/svg" xmlns:xlink="http://www.w3.org/1999/xlink">
  <defs>
    <linearGradient id="linear-gradient" x1="0.5" x2="0.5" y2="1" gradientUnits="objectBoundingBox">
      <stop offset="0" stop-color="#00ff3f"/>
      <stop offset="1" stop-color="#00b349"/>
    </linearGradient>
    <linearGradient id="linear-gradient-2" x1="0.5" x2="0.5" y2="1" gradientUnits="objectBoundingBox">
      <stop offset="0.001" stop-color="#6eff79" stop-opacity="0.161"/>
      <stop offset="1" stop-color="#14e11b" stop-opacity="0.161"/>
    </linearGradient>
    <clipPath id="clip-Like">
      <rect width="48" height="48"/>
    </clipPath>
  </defs>
  <g id="Like" clip-path="url(#clip-Like)">
    <rect width="48" height="48" fill="rgba(255,255,255,0)"/>
    <g id="Like-2" data-name="Like" transform="translate(5 9)">
      <g id="Icon" transform="translate(10 5)" stroke-miterlimit="10" fill="url(#linear-gradient)">
        <path d="M14.01,26S0,15.918,0,7.918A7.683,7.683,0,0,1,7.4,0,6.933,6.933,0,0,1,14.01,3.918,6.951,6.951,0,0,1,20.628,0C24.721,0,27.989,3.606,28,7.962,28.02,15.918,14.01,26,14.01,26Z" stroke="none"/>
        <path d="M 14.01030540466309 25.37848663330078 C 14.91880226135254 24.69916915893555 17.80346298217773 22.47902297973633 20.65842819213867 19.6118106842041 C 25.14215850830078 15.10883045196533 27.50788879394531 11.08073997497559 27.49986839294434 7.963019847869873 C 27.48927879333496 3.847899913787842 24.40646934509277 0.5 20.62777900695801 0.5 C 17.77828979492188 0.5 15.5316686630249 1.822520017623901 14.46396923065186 4.1284499168396 L 14.01024913787842 5.108369827270508 L 13.55652904510498 4.1284499168396 C 12.48882961273193 1.822520017623901 10.2466287612915 0.5 7.404859066009521 0.5 C 3.597599029541016 0.5 0.5001591444015503 3.827869892120361 0.5001591444015503 7.918369770050049 C 0.5001591444015503 11.0520601272583 2.868859052658081 15.09047031402588 7.350179195404053 19.59700965881348 C 10.20802116394043 22.47093200683594 13.10040760040283 24.69787979125977 14.01030540466309 25.37848663330078 M 14.01024913787842 26 C 14.01024913787842 26 0.0001591378822922707 15.91837024688721 0.0001591378822922707 7.918369770050049 C 0.0001591378822922707 3.562510013580322 3.312049150466919 -1.77635683940025e-15 7.404859066009521 -1.77635683940025e-15 C 10.29558944702148 -1.77635683940025e-15 12.8081693649292 1.32220995426178 14.01024913787842 3.918370008468628 C 15.21232891082764 1.32220995426178 17.73705863952637 -1.77635683940025e-15 20.62777900695801 -1.77635683940025e-15 C 24.72058868408203 -1.77635683940025e-15 27.9886589050293 3.605979919433594 27.99986839294434 7.961730003356934 C 28.02033996582031 15.91837024688721 14.01024913787842 26 14.01024913787842 26 Z" stroke="none" fill="rgba(255,255,255,0.3)"/>
      </g>
      <g id="Icon-2" data-name="Icon" stroke-miterlimit="10" fill="url(#linear-gradient-2)">
        <path d="M14.01,26S0,15.918,0,7.918A7.683,7.683,0,0,1,7.4,0,6.933,6.933,0,0,1,14.01,3.918,6.951,6.951,0,0,1,20.628,0C24.721,0,27.989,3.606,28,7.962,28.02,15.918,14.01,26,14.01,26Z" stroke="none"/>
        <path d="M 14.01030540466309 25.37848663330078 C 14.91880226135254 24.69916915893555 17.80346298217773 22.47902297973633 20.65842819213867 19.6118106842041 C 25.14215850830078 15.10883045196533 27.50788879394531 11.08073997497559 27.49986839294434 7.963019847869873 C 27.48927879333496 3.847899913787842 24.40646934509277 0.5 20.62777900695801 0.5 C 17.77828979492188 0.5 15.5316686630249 1.822520017623901 14.46396923065186 4.1284499168396 L 14.01024913787842 5.108369827270508 L 13.55652904510498 4.1284499168396 C 12.48882961273193 1.822520017623901 10.2466287612915 0.5 7.404859066009521 0.5 C 3.597599029541016 0.5 0.5001591444015503 3.827869892120361 0.5001591444015503 7.918369770050049 C 0.5001591444015503 11.0520601272583 2.868859052658081 15.09047031402588 7.350179195404053 19.59700965881348 C 10.20802116394043 22.47093200683594 13.10040760040283 24.69787979125977 14.01030540466309 25.37848663330078 M 14.01024913787842 26 C 14.01024913787842 26 0.0001591378822922707 15.91837024688721 0.0001591378822922707 7.918369770050049 C 0.0001591378822922707 3.562510013580322 3.312049150466919 -1.77635683940025e-15 7.404859066009521 -1.77635683940025e-15 C 10.29558944702148 -1.77635683940025e-15 12.8081693649292 1.32220995426178 14.01024913787842 3.918370008468628 C 15.21232891082764 1.32220995426178 17.73705863952637 -1.77635683940025e-15 20.62777900695801 -1.77635683940025e-15 C 24.72058868408203 -1.77635683940025e-15 27.9886589050293 3.605979919433594 27.99986839294434 7.961730003356934 C 28.02033996582031 15.91837024688721 14.01024913787842 26 14.01024913787842 26 Z" stroke="none" fill="rgba(255,255,255,0.3)"/>
      </g>
    </g>
  </g>
</svg>
