<svg width="48px" height="48px" viewBox="0 0 48 48" xmlns="http://www.w3.org/2000/svg" xmlns:xlink="http://www.w3.org/1999/xlink">
  <defs>
    <linearGradient id="linear-gradient" x1="0.5" x2="0.5" y2="1" gradientUnits="objectBoundingBox">
      <stop offset="0" stop-color="#f80"/>
      <stop offset="1" stop-color="#db2903"/>
    </linearGradient>
    <clipPath id="clip-Place">
      <rect width="48" height="48"/>
    </clipPath>
  </defs>
  <g id="Place" clip-path="url(#clip-Place)">
    <rect width="48" height="48" fill="rgba(255,255,255,0)"/>
    <g id="Place-2" data-name="Place" transform="translate(7 5)">
      <g id="Icon" transform="translate(0 23)" stroke-miterlimit="10" fill="url(#linear-gradient)">
        <path d="M1.1,12.257A2,2,0,0,0,2.954,15H34.046A2,2,0,0,0,35.9,12.257l-4.4-11A2,2,0,0,0,29.646,0H7.354A2,2,0,0,0,5.5,1.257Z" stroke="none"/>
        <path d="M 34.04592895507813 14.5 C 34.55173873901367 14.5 35.00447082519531 14.25977993011475 35.28804016113281 13.84094047546387 C 35.57160949707031 13.42210960388184 35.62649917602539 12.91254043579102 35.43864822387695 12.44291973114014 L 31.03865051269531 1.442919969558716 C 30.80953025817871 0.8701199889183044 30.26284980773926 0.5 29.64592933654785 0.5 L 7.35407018661499 0.5 C 6.737150192260742 0.5 6.190470218658447 0.8701199889183044 5.961349964141846 1.442919969558716 L 1.561349987983704 12.44291019439697 C 1.373499989509583 12.91254043579102 1.428400039672852 13.42210006713867 1.711959958076477 13.84094047546387 C 1.995530009269714 14.25977993011475 2.448260068893433 14.5 2.954070091247559 14.5 L 34.04592895507813 14.5 M 34.04592895507813 15 L 2.954070091247559 15 C 1.539139986038208 15 0.571619987487793 13.57094955444336 1.097110033035278 12.25722026824951 L 5.497109889984131 1.257220029830933 C 5.800839900970459 0.4979000091552734 6.53626012802124 -8.881784197001252e-16 7.35407018661499 -8.881784197001252e-16 L 29.64592933654785 -8.881784197001252e-16 C 30.4637393951416 -8.881784197001252e-16 31.19915962219238 0.4979000091552734 31.50288963317871 1.257220029830933 L 35.90288925170898 12.25722026824951 C 36.42837905883789 13.57094955444336 35.46086883544922 15 34.04592895507813 15 Z" stroke="none" fill="rgba(255,255,255,0.3)"/>
      </g>
      <g id="Icon-2" data-name="Icon" transform="translate(1 0)" fill="rgba(255,169,125,0.7)" stroke-miterlimit="10">
        <path d="M13,33.537a1,1,0,0,1-.642-.233l-.091-.086-.412-.446-.8-.881-.776-.867-.2-.225,0-.007h0L9.9,30.6l-.733-.845-.7-.83c-.253-.3-.474-.568-.677-.816l-.649-.8c-.323-.4-.632-.8-.92-1.174l-.578-.764-.55-.75c-.186-.259-.357-.5-.521-.735l-.493-.721C1.371,19.138,0,15.769,0,13.148a13.111,13.111,0,0,1,3.845-9.34,12.907,12.907,0,0,1,18.309,0A13.11,13.11,0,0,1,26,13.148c0,2.708-1.453,6.2-4.317,10.382l-.508.727c-.6.851-1.276,1.746-2,2.66l-.634.793-.133.163-.2.239-.676.815-.7.829L16.1,30.6q-.186.213-.377.428l-.775.865-.8.88-.412.445c-.017.018-.034.035-.052.051A1,1,0,0,1,13,33.537ZM13,7a6,6,0,1,0,6,6A6.006,6.006,0,0,0,13,7Z" stroke="none"/>
        <path d="M 13.00098037719727 33.03681564331055 C 13.12727069854736 33.03680801391602 13.24780082702637 32.98938751220703 13.34037017822266 32.90328598022461 L 13.34337043762207 32.90049743652344 L 13.34642028808594 32.89774703979492 C 13.35395431518555 32.89096832275391 13.36105155944824 32.88373565673828 13.36819267272949 32.87625503540039 L 13.77606010437012 32.43546676635742 L 14.57660007476807 31.55874824523926 L 15.34981060028076 30.69575691223145 C 15.47587013244629 30.55359649658203 15.60104084014893 30.4123477935791 15.72374057769775 30.27185821533203 L 16.45541000366211 29.43066024780273 L 17.15633964538574 28.60619735717773 L 17.82846069335938 27.79625701904297 C 17.89356994628906 27.71685791015625 17.95806121826172 27.63776779174805 18.02292060852051 27.55820655822754 L 18.15452194213867 27.39694976806641 L 18.78482055664063 26.60820770263672 C 19.50192070007324 25.70021820068359 20.1689510345459 24.81205749511719 20.76519966125488 23.97150802612305 L 21.27032089233398 23.2479076385498 C 24.07699012756348 19.15109825134277 25.50010108947754 15.75303745269775 25.50010108947754 13.14809703826904 C 25.50010108947754 9.738537788391113 24.18630981445313 6.547137260437012 21.80075073242188 4.161797523498535 C 19.43918037414551 1.800447344779968 16.31352996826172 0.4999973475933075 12.99960041046143 0.4999973475933075 C 9.68574047088623 0.4999973475933075 6.560260772705078 1.800447344779968 4.198910713195801 4.161777496337891 C 1.8136305809021 6.547067165374756 0.500000536441803 9.73847770690918 0.500000536441803 13.14809703826904 C 0.500000536441803 15.66803741455078 1.842180490493774 18.94258689880371 4.4869704246521 22.87737655639648 L 4.977830410003662 23.59488677978516 C 5.14076042175293 23.82889747619629 5.309720516204834 24.06730651855469 5.49177074432373 24.32017707824707 L 6.039368629455566 25.06674003601074 L 6.613060474395752 25.82541656494141 C 6.898660659790039 26.19782829284668 7.206120491027832 26.59041786193848 7.524440765380859 26.98924827575684 L 8.172270774841309 27.78802680969238 C 8.373410224914551 28.03432655334473 8.593390464782715 28.29964828491211 8.842910766601563 28.59693717956543 L 9.546287536621094 29.42517852783203 L 10.11859130859375 30.08536911010742 L 10.16632080078125 30.04336738586426 L 10.47309398651123 30.490478515625 C 10.53187942504883 30.5572681427002 10.59074974060059 30.62410163879395 10.64875030517578 30.68951797485352 L 11.42141056060791 31.55273818969727 L 12.22304058074951 32.43159866333008 L 12.62412738800049 32.86596298217773 L 12.69008541107178 32.92865371704102 C 12.7778263092041 32.99850845336914 12.88771629333496 33.03682708740234 13.00098037719727 33.03681564331055 M 12.99960041046143 6.500197410583496 C 16.58388137817383 6.500197410583496 19.49990081787109 9.415817260742188 19.49990081787109 12.99959754943848 C 19.49990081787109 16.58387756347656 16.58388137817383 19.49989700317383 12.99960041046143 19.49989700317383 C 9.415820121765137 19.49989700317383 6.500200748443604 16.58387756347656 6.500200748443604 12.99959754943848 C 6.500200748443604 9.415817260742188 9.415820121765137 6.500197410583496 12.99960041046143 6.500197410583496 M 13.00102043151855 33.53681564331055 C 12.76609039306641 33.53683853149414 12.538010597229 33.45400619506836 12.35880088806152 33.30359649658203 L 12.26790046691895 33.21719741821289 L 11.85570049285889 32.77079772949219 L 11.05200099945068 31.88969802856445 L 10.27620029449463 31.02299690246582 C 10.20968055725098 30.94797706604004 10.14366054534912 30.87297821044922 10.07787036895752 30.7982177734375 L 10.07317066192627 30.79136657714844 L 10.07242012023926 30.79202651977539 C 10.01453018188477 30.72625732421875 9.95681095123291 30.66068649291992 9.899100303649902 30.59549713134766 L 9.166500091552734 29.75039672851563 L 8.461800575256348 28.92059707641602 C 8.20896053314209 28.6193675994873 7.9875807762146 28.35235786437988 7.785000324249268 28.10429763793945 L 7.136100769042969 27.30419731140137 C 6.813170433044434 26.89961814880371 6.503710746765137 26.50445747375488 6.216300487518311 26.12969779968262 L 5.638500690460205 25.36559677124023 L 5.088600635528564 24.61589813232422 C 4.902280330657959 24.35712814331055 4.731830596923828 24.11660766601563 4.567500591278076 23.8805980682373 L 4.074300765991211 23.15969657897949 C 1.370790600776672 19.1375675201416 5.447387820822769e-07 15.76917743682861 5.447387820822769e-07 13.14809703826904 C 5.447387820822769e-07 9.604927062988281 1.3656405210495 6.287957191467285 3.845360517501831 3.808227300643921 C 6.301140308380127 1.352457404136658 9.552180290222168 -2.641601668074145e-06 12.99960041046143 -2.641601668074145e-06 C 16.44708061218262 -2.641601668074145e-06 19.69828033447266 1.352457404136658 22.1542911529541 3.808227300643921 C 24.63430023193359 6.288007259368896 26.00010108947754 9.604977607727051 26.00010108947754 13.14809703826904 C 26.00010108947754 15.85578727722168 24.54755020141602 19.34892654418945 21.68280029296875 23.53049659729004 L 21.17520141601563 24.25769805908203 C 20.57180976867676 25.10833740234375 19.89959144592285 26.00341796875 19.17720031738281 26.9180965423584 L 18.54360008239746 27.71099662780762 L 18.4102897644043 27.87434768676758 C 18.34530067443848 27.95406723022461 18.28050994873047 28.03352737426758 18.21510124206543 28.11329650878906 L 17.53919982910156 28.92779731750488 L 16.83450126647949 29.7566967010498 L 16.10099983215332 30.59999656677246 C 15.9768009185791 30.74219703674316 15.85080051422119 30.88439750671387 15.72390079498291 31.02749824523926 L 14.94900035858154 31.89239692687988 L 14.14530086517334 32.77260589599609 L 13.73310089111328 33.21809768676758 C 13.7160005569458 33.23609924316406 13.69890022277832 33.25319671630859 13.68090057373047 33.2693977355957 C 13.49552059173584 33.44182586669922 13.25407028198242 33.53679656982422 13.00102043151855 33.53681564331055 Z M 12.99960041046143 7.000197410583496 C 9.691520690917969 7.000197410583496 7.000200748443604 9.69151782989502 7.000200748443604 12.99959754943848 C 7.000200748443604 16.30817794799805 9.691520690917969 18.99989700317383 12.99960041046143 18.99989700317383 C 16.30817985534668 18.99989700317383 18.99990081787109 16.30817794799805 18.99990081787109 12.99959754943848 C 18.99990081787109 9.69151782989502 16.30817985534668 7.000197410583496 12.99960041046143 7.000197410583496 Z" stroke="none" fill="rgba(255,255,255,0.3)"/>
      </g>
    </g>
  </g>
</svg>
