<svg width="94.56px" height="94.56px" viewBox="0 -12.02 94.56 94.56" xmlns="http://www.w3.org/2000/svg">
  <g id="annoyed" transform="translate(-205.415 -315.87)">
    <path id="Path_156" data-name="Path 156" d="M206.838,350.637c.282-26.645,16.424-33.357,45.851-33.349,29.454.009,45.579,6.732,45.863,33.349.293,27.431-16.712,34.454-46.559,34.329C222.509,384.84,206.553,377.4,206.838,350.637Z" fill="#fdb991" fill-rule="evenodd"/>
    <path id="Path_157" data-name="Path 157" d="M206.838,350.637c.015-1.427.078-2.794.183-4.109,1.854,22.4,17.568,28.836,44.972,28.953,27.8.116,44.454-5.97,46.374-28.966.106,1.319.17,2.69.185,4.122.293,27.43-16.712,34.454-46.559,34.329C222.509,384.84,206.553,377.4,206.838,350.637Z" fill="#1a1818" fill-rule="evenodd" opacity="0.15"/>
    <path id="Path_158" data-name="Path 158" d="M205.419,350.626c.147-13.86,4.477-22.574,12.647-27.855,8.007-5.173,19.645-6.9,34.623-6.9s26.626,1.745,34.638,6.924c8.171,5.282,12.5,13.989,12.644,27.832.152,14.259-4.252,23.253-12.623,28.7-8.209,5.34-20.172,7.123-35.361,7.059-15.019-.064-26.635-2.02-34.535-7.421-8.051-5.5-12.18-14.429-12.033-28.337ZM219.6,325.163c-7.327,4.735-11.211,12.7-11.346,25.485-.137,12.853,3.57,21.028,10.8,25.968,7.377,5.042,18.481,6.871,32.945,6.932,14.658.061,26.122-1.606,33.8-6.6,7.519-4.892,11.473-13.126,11.332-26.3-.136-12.774-4.016-20.738-11.342-25.473-7.485-4.838-18.637-6.464-33.1-6.468C238.241,318.7,227.093,320.323,219.6,325.163Z" fill="#1a1818" fill-rule="evenodd"/>
    <path id="Path_159" data-name="Path 159" d="M231.981,351.746l-6.057,0a1.68,1.68,0,0,1-1.171-2.884,5.814,5.814,0,0,1,.471-.459,5.766,5.766,0,0,1,7.455,0,5.527,5.527,0,0,1,.568.567,1.675,1.675,0,0,1-.171,2.362A1.693,1.693,0,0,1,231.981,351.746Z" fill="#eb505e" fill-rule="evenodd"/>
    <path id="Path_160" data-name="Path 160" d="M279.464,351.747h-6.057a1.68,1.68,0,0,1-1.163-2.893,5.426,5.426,0,0,1,.462-.449,5.768,5.768,0,0,1,7.457,0,5.587,5.587,0,0,1,.568.56,1.68,1.68,0,0,1-1.267,2.781Z" fill="#eb505e" fill-rule="evenodd"/>
    <path id="Path_161" data-name="Path 161" d="M239.556,356.531a1.424,1.424,0,1,1,0-2.847h26.279a1.424,1.424,0,1,1,0,2.847Z" fill="#1a1818" fill-rule="evenodd"/>
    <path id="Path_162" data-name="Path 162" d="M222.509,342.565a1.423,1.423,0,1,1,0-2.846h12.882a1.423,1.423,0,1,1,0,2.846Z" fill="#1a1818" fill-rule="evenodd"/>
    <path id="Path_163" data-name="Path 163" d="M269.994,342.565a1.423,1.423,0,0,1,0-2.846h12.883a1.423,1.423,0,0,1,0,2.846Z" fill="#1a1818" fill-rule="evenodd"/>
  </g>
</svg>
