<svg width="94.56px" height="94.56px" viewBox="0 -12.02 94.56 94.56" xmlns="http://www.w3.org/2000/svg">
  <g id="embarrassed" transform="translate(-62.806 -315.87)">
    <path id="Path_176" data-name="Path 176" d="M64.228,350.637c.283-26.645,16.424-33.358,45.851-33.349,29.455.009,45.58,6.732,45.864,33.349.293,27.431-16.712,34.454-46.56,34.329C79.9,384.84,63.943,377.4,64.228,350.637Z" fill="#ecc3dc" fill-rule="evenodd"/>
    <path id="Path_177" data-name="Path 177" d="M64.228,350.637c.015-1.427.078-2.794.184-4.109,1.853,22.4,17.568,28.837,44.971,28.954,27.8.115,44.455-5.971,46.375-28.967.107,1.319.17,2.69.186,4.122.292,27.431-16.713,34.454-46.561,34.33C79.9,384.841,63.944,377.4,64.228,350.637Z" fill="#1a1818" fill-rule="evenodd" opacity="0.15"/>
    <path id="Path_178" data-name="Path 178" d="M62.81,350.626c.147-13.86,4.476-22.574,12.647-27.855,8.007-5.174,19.644-6.9,34.622-6.9s26.627,1.745,34.639,6.924c8.171,5.282,12.5,13.989,12.644,27.832.152,14.259-4.252,23.253-12.623,28.7-8.209,5.341-20.173,7.123-35.361,7.06-15.019-.065-26.635-2.021-34.536-7.421-8.05-5.5-12.18-14.43-12.032-28.338Zm14.182-25.463c-7.327,4.735-11.211,12.7-11.346,25.485-.137,12.854,3.57,21.028,10.8,25.969,7.377,5.041,18.482,6.87,32.946,6.931,14.658.062,26.121-1.606,33.8-6.6,7.519-4.892,11.473-13.126,11.332-26.3-.136-12.774-4.016-20.738-11.342-25.473-7.485-4.838-18.637-6.464-33.1-6.469C95.631,318.7,84.483,320.322,76.992,325.163Z" fill="#1a1818" fill-rule="evenodd"/>
    <g id="Group_46" data-name="Group 46">
      <path id="Path_179" data-name="Path 179" d="M86.341,345.348a6.225,6.225,0,1,0-6.225-6.225A6.237,6.237,0,0,0,86.341,345.348Z" fill="#1a1818" fill-rule="evenodd"/>
      <path id="Path_180" data-name="Path 180" d="M85.747,338.733a2,2,0,1,0-2-2A2,2,0,0,0,85.747,338.733Z" fill="#fff" fill-rule="evenodd"/>
      <path id="Path_181" data-name="Path 181" d="M83.649,342.052a1.24,1.24,0,1,0-1.241-1.241A1.243,1.243,0,0,0,83.649,342.052Z" fill="#fff" fill-rule="evenodd"/>
    </g>
    <g id="Group_47" data-name="Group 47">
      <path id="Path_182" data-name="Path 182" d="M133.827,345.348a6.225,6.225,0,1,0-6.225-6.225A6.237,6.237,0,0,0,133.827,345.348Z" fill="#1a1818" fill-rule="evenodd"/>
      <path id="Path_183" data-name="Path 183" d="M133.233,338.733a2,2,0,1,0-2-2A2,2,0,0,0,133.233,338.733Z" fill="#fff" fill-rule="evenodd"/>
      <path id="Path_184" data-name="Path 184" d="M131.135,342.052a1.24,1.24,0,1,0-1.241-1.241A1.243,1.243,0,0,0,131.135,342.052Z" fill="#fff" fill-rule="evenodd"/>
    </g>
    <path id="Path_185" data-name="Path 185" d="M91.736,355.68l-10.782,0a2.99,2.99,0,0,1-2.085-5.134,9.944,9.944,0,0,1,.839-.817,10.262,10.262,0,0,1,13.271,0,9.843,9.843,0,0,1,1.012,1.01,2.988,2.988,0,0,1-2.255,4.937Z" fill="#eb505e" fill-rule="evenodd"/>
    <path id="Path_186" data-name="Path 186" d="M81.89,330.3a1.419,1.419,0,1,1-2.146-1.856,8.322,8.322,0,0,1,.869-.872,8.879,8.879,0,0,1,11.451,0,8.267,8.267,0,0,1,.879.877A1.419,1.419,0,0,1,90.8,330.3a5.61,5.61,0,0,0-.578-.576l-.006-.006a6.033,6.033,0,0,0-7.743,0A5.592,5.592,0,0,0,81.89,330.3Z" fill="#1a1818" fill-rule="evenodd"/>
    <path id="Path_187" data-name="Path 187" d="M129.372,330.3a1.418,1.418,0,1,1-2.145-1.856,8.324,8.324,0,0,1,.869-.872,8.879,8.879,0,0,1,11.457,0,8.357,8.357,0,0,1,.873.872,1.419,1.419,0,0,1-2.146,1.856,5.527,5.527,0,0,0-.584-.582,6.033,6.033,0,0,0-7.743,0A5.6,5.6,0,0,0,129.372,330.3Z" fill="#1a1818" fill-rule="evenodd"/>
    <path id="Path_188" data-name="Path 188" d="M102.144,356.919c-.476,0-.862-.633-.862-1.413s.386-1.413.862-1.413h15.882c.476,0,.862.633.862,1.413s-.386,1.413-.862,1.413Z" fill="#1a1818" fill-rule="evenodd"/>
    <path id="Path_189" data-name="Path 189" d="M139.22,355.68l-10.781,0a2.991,2.991,0,0,1-2.086-5.134,10.238,10.238,0,0,1,14.11-.817,9.647,9.647,0,0,1,1.012,1.01,2.982,2.982,0,0,1-.3,4.2A3.014,3.014,0,0,1,139.22,355.68Z" fill="#eb505e" fill-rule="evenodd"/>
  </g>
</svg>
