<svg width="94.56px" height="94.56px" viewBox="0 -12.02 94.56 94.56" xmlns="http://www.w3.org/2000/svg">
  <g id="excited" transform="translate(-490.634 -446.908)">
    <path id="Path_112" data-name="Path 112" d="M492.056,481.676c.283-26.646,16.425-33.358,45.852-33.349,29.455.008,45.58,6.731,45.864,33.349.293,27.43-16.713,34.454-46.56,34.329C507.728,515.879,491.772,508.437,492.056,481.676Z" fill="#9b88bf" fill-rule="evenodd"/>
    <path id="Path_113" data-name="Path 113" d="M492.056,481.675c.016-1.427.079-2.794.184-4.109,1.853,22.4,17.568,28.837,44.972,28.954,27.8.116,44.455-5.971,46.375-28.967.106,1.32.17,2.69.185,4.122.293,27.431-16.713,34.454-46.56,34.33C507.728,515.879,491.772,508.438,492.056,481.675Z" fill="#1a1818" fill-rule="evenodd" opacity="0.15"/>
    <path id="Path_114" data-name="Path 114" d="M490.638,481.665c.147-13.861,4.476-22.575,12.647-27.855,8.007-5.174,19.645-6.906,34.623-6.9s26.626,1.745,34.639,6.925c8.17,5.281,12.495,13.989,12.643,27.832.152,14.259-4.251,23.253-12.623,28.7-8.208,5.34-20.172,7.122-35.361,7.059-15.018-.064-26.635-2.021-34.536-7.421-8.05-5.5-12.179-14.429-12.032-28.337ZM504.821,456.2c-7.327,4.734-11.211,12.7-11.347,25.485-.136,12.853,3.571,21.028,10.8,25.968,7.376,5.042,18.481,6.87,32.945,6.932,14.658.061,26.122-1.606,33.8-6.6,7.52-4.891,11.473-13.125,11.333-26.3-.136-12.774-4.016-20.738-11.343-25.474-7.484-4.838-18.636-6.464-33.1-6.468C523.46,449.741,512.312,451.361,504.821,456.2Z" fill="#1a1818" fill-rule="evenodd"/>
    <path id="Path_115" data-name="Path 115" d="M517.2,482.784l-6.057,0a1.679,1.679,0,0,1-1.171-2.883,5.833,5.833,0,0,1,.471-.46,5.769,5.769,0,0,1,7.455,0,5.538,5.538,0,0,1,.568.568,1.678,1.678,0,0,1-1.266,2.773Z" fill="#eb505e" fill-rule="evenodd"/>
    <path id="Path_116" data-name="Path 116" d="M564.683,482.785h-6.057a1.679,1.679,0,0,1-1.162-2.892,5.439,5.439,0,0,1,.462-.45,5.768,5.768,0,0,1,7.457,0,5.576,5.576,0,0,1,.567.56,1.678,1.678,0,0,1-1.267,2.781Z" fill="#eb505e" fill-rule="evenodd"/>
    <path id="Path_117" data-name="Path 117" d="M547.813,479.336l0,.217a12.315,12.315,0,0,1-2.862,8.03,9.012,9.012,0,0,1-14.079,0,12.323,12.323,0,0,1-2.865-8.03l.006-.279a.709.709,0,0,1,.709-.7l18.378,0a.713.713,0,0,1,.713.712Z" fill="#1a1818" fill-rule="evenodd"/>
    <path id="Path_118" data-name="Path 118" d="M514.169,457.235l2.972,6.155,6.772.924-4.935,4.728,1.213,6.726-6.022-3.233-6.022,3.233,1.213-6.726-4.935-4.728,6.772-.924Z" fill="#ffcd37" fill-rule="evenodd"/>
    <g id="Group_30" data-name="Group 30">
      <path id="Path_119" data-name="Path 119" d="M514.468,463.941a1.995,1.995,0,1,1-1.995,1.995A1.995,1.995,0,0,1,514.468,463.941Z" fill="#fff" fill-rule="evenodd"/>
      <path id="Path_120" data-name="Path 120" d="M512.37,471.251a1.241,1.241,0,1,0-1.24-1.241A1.243,1.243,0,0,0,512.37,471.251Z" fill="#fff" fill-rule="evenodd"/>
    </g>
    <g id="Group_32" data-name="Group 32">
      <path id="Path_121" data-name="Path 121" d="M561.655,457.235l2.972,6.155,6.772.924-4.935,4.728,1.213,6.726-6.022-3.233-6.022,3.233,1.213-6.726-4.935-4.728,6.773-.924Z" fill="#ffcd37" fill-rule="evenodd"/>
      <g id="Group_31" data-name="Group 31">
        <path id="Path_122" data-name="Path 122" d="M561.954,467.931a1.995,1.995,0,1,0-2-1.995A2,2,0,0,0,561.954,467.931Z" fill="#fff" fill-rule="evenodd"/>
        <path id="Path_123" data-name="Path 123" d="M559.856,471.251a1.241,1.241,0,1,0-1.24-1.241A1.243,1.243,0,0,0,559.856,471.251Z" fill="#fff" fill-rule="evenodd"/>
      </g>
    </g>
  </g>
</svg>
