<svg width="94.56px" height="94.56px" viewBox="0 -12.02 94.56 94.56" xmlns="http://www.w3.org/2000/svg">
  <g id="frustrated" transform="translate(-205.415 -446.908)">
    <path id="Path_125" data-name="Path 125" d="M206.837,481.675c.283-26.645,16.425-33.357,45.852-33.348,29.454.008,45.579,6.731,45.864,33.348.292,27.431-16.713,34.454-46.56,34.329C222.509,515.879,206.553,508.437,206.837,481.675Z" fill="#ef7a87" fill-rule="evenodd"/>
    <path id="Path_126" data-name="Path 126" d="M206.837,481.675c.016-1.427.078-2.794.184-4.109,1.853,22.4,17.568,28.837,44.972,28.954,27.8.115,44.454-5.971,46.374-28.967.107,1.319.17,2.69.186,4.122.292,27.431-16.713,34.454-46.56,34.33C222.509,515.879,206.553,508.437,206.837,481.675Z" fill="#1a1818" fill-rule="evenodd" opacity="0.15"/>
    <path id="Path_127" data-name="Path 127" d="M205.419,481.664c.147-13.86,4.476-22.574,12.647-27.854,8.007-5.174,19.645-6.906,34.623-6.9s26.626,1.745,34.638,6.924c8.171,5.282,12.5,13.99,12.644,27.832.152,14.26-4.251,23.254-12.623,28.7-8.209,5.341-20.172,7.123-35.361,7.06-15.019-.064-26.635-2.021-34.536-7.421-8.05-5.5-12.18-14.43-12.032-28.338ZM219.6,456.2c-7.327,4.734-11.211,12.7-11.347,25.484-.136,12.854,3.57,21.029,10.8,25.969,7.376,5.042,18.481,6.87,32.945,6.931,14.658.062,26.122-1.6,33.8-6.6,7.519-4.892,11.473-13.125,11.333-26.3-.137-12.773-4.017-20.737-11.343-25.473-7.485-4.838-18.637-6.464-33.1-6.468C238.241,449.741,227.093,451.361,219.6,456.2Z" fill="#1a1818" fill-rule="evenodd"/>
    <path id="Path_128" data-name="Path 128" d="M226.277,467.535a1.421,1.421,0,1,1,1.113-2.615l9.237,3.94a1.421,1.421,0,0,1,0,2.614l-9.237,3.92a1.421,1.421,0,0,1-1.113-2.615l6.164-2.615Z" fill="#1a1818" fill-rule="evenodd"/>
    <path id="Path_129" data-name="Path 129" d="M278.446,464.92a1.421,1.421,0,1,1,1.113,2.615l-6.163,2.629,6.163,2.615a1.421,1.421,0,0,1-1.113,2.615l-9.236-3.92a1.42,1.42,0,0,1,0-2.614Z" fill="#1a1818" fill-rule="evenodd"/>
    <path id="Path_130" data-name="Path 130" d="M222.75,461.567A1.418,1.418,0,1,1,224,459.02a7.734,7.734,0,0,0,8.874-2.377,1.42,1.42,0,1,1,2.359,1.58,10.512,10.512,0,0,1-12.479,3.344Z" fill="#1a1818" fill-rule="evenodd"/>
    <path id="Path_131" data-name="Path 131" d="M270.158,458.224a1.42,1.42,0,0,1,2.359-1.58,7.731,7.731,0,0,0,8.874,2.377,1.418,1.418,0,0,1,1.246,2.548,10.511,10.511,0,0,1-12.479-3.345Z" fill="#1a1818" fill-rule="evenodd"/>
    <path id="Path_132" data-name="Path 132" d="M240.634,486.106a1.424,1.424,0,0,1-2.158-1.857,17.905,17.905,0,0,1,1.874-1.872,19.15,19.15,0,0,1,24.681,0,18.029,18.029,0,0,1,1.876,1.873,1.419,1.419,0,1,1-2.146,1.857,15.213,15.213,0,0,0-1.587-1.584,16.307,16.307,0,0,0-20.967,0A15.188,15.188,0,0,0,240.634,486.106Z" fill="#1a1818" fill-rule="evenodd"/>
    <path id="Path_133" data-name="Path 133" d="M231.981,482.789l-6.057,0a1.68,1.68,0,0,1-1.171-2.884,5.508,5.508,0,0,1,.471-.459,5.766,5.766,0,0,1,7.455,0,5.625,5.625,0,0,1,.568.567,1.676,1.676,0,0,1-.171,2.363A1.7,1.7,0,0,1,231.981,482.789Z" fill="#eb505e" fill-rule="evenodd"/>
    <path id="Path_134" data-name="Path 134" d="M279.464,482.79h-6.057a1.68,1.68,0,0,1-1.162-2.893,5.753,5.753,0,0,1,7.918-.449,5.587,5.587,0,0,1,.568.56,1.679,1.679,0,0,1-1.267,2.781Z" fill="#eb505e" fill-rule="evenodd"/>
  </g>
</svg>
