<svg width="94.56px" height="94.56px" viewBox="0 -12.02 94.56 94.56" xmlns="http://www.w3.org/2000/svg">
  <g id="lonely" transform="translate(-348.025 -315.87)">
    <path id="Path_165" data-name="Path 165" d="M349.447,350.637c.283-26.645,16.425-33.358,45.852-33.349,29.454.009,45.579,6.732,45.863,33.349.293,27.431-16.712,34.454-46.56,34.329C365.119,384.84,349.163,377.4,349.447,350.637Z" fill="#b9e2f8" fill-rule="evenodd"/>
    <path id="Path_166" data-name="Path 166" d="M349.447,350.637c.016-1.427.079-2.794.184-4.109,1.853,22.4,17.568,28.836,44.971,28.953,27.8.116,44.455-5.97,46.375-28.966.106,1.319.17,2.69.185,4.122.293,27.43-16.712,34.454-46.56,34.329C365.119,384.84,349.163,377.4,349.447,350.637Z" fill="#1a1818" fill-rule="evenodd" opacity="0.15"/>
    <path id="Path_167" data-name="Path 167" d="M348.029,350.626c.147-13.861,4.477-22.574,12.647-27.855,8.007-5.174,19.644-6.9,34.623-6.9s26.626,1.745,34.638,6.924c8.17,5.282,12.5,13.99,12.644,27.832.151,14.259-4.252,23.253-12.623,28.7-8.209,5.34-20.173,7.123-35.361,7.059-15.019-.064-26.635-2.02-34.536-7.421-8.049-5.5-12.179-14.429-12.032-28.337Zm14.183-25.463c-7.327,4.735-11.211,12.7-11.346,25.485-.137,12.853,3.57,21.028,10.8,25.968,7.377,5.042,18.481,6.87,32.945,6.932,14.658.061,26.121-1.606,33.8-6.6,7.519-4.891,11.473-13.125,11.332-26.3-.136-12.774-4.016-20.737-11.342-25.473-7.484-4.838-18.636-6.464-33.1-6.468C380.851,318.7,369.7,320.322,362.212,325.163Z" fill="#1a1818" fill-rule="evenodd"/>
    <path id="Path_168" data-name="Path 168" d="M374.591,351.742l-6.057,0a1.679,1.679,0,0,1-1.171-2.883,5.687,5.687,0,0,1,8.494.108,1.678,1.678,0,0,1-1.266,2.773Z" fill="#eb505e" fill-rule="evenodd"/>
    <path id="Path_169" data-name="Path 169" d="M422.074,351.744h-6.057a1.68,1.68,0,0,1-1.163-2.892,5.587,5.587,0,0,1,.462-.45,5.768,5.768,0,0,1,7.457,0,5.587,5.587,0,0,1,.568.56,1.68,1.68,0,0,1-1.267,2.782Z" fill="#eb505e" fill-rule="evenodd"/>
    <path id="Path_170" data-name="Path 170" d="M363.387,341.376a1.417,1.417,0,1,1,2.159-1.836,7.7,7.7,0,0,0,.853.85,8.072,8.072,0,0,0,10.323,0,7.659,7.659,0,0,0,.852-.856,1.421,1.421,0,1,1,2.159,1.848,10.525,10.525,0,0,1-1.174,1.167,10.911,10.911,0,0,1-14.007,0A10.413,10.413,0,0,1,363.387,341.376Z" fill="#1a1818" fill-rule="evenodd"/>
    <path id="Path_171" data-name="Path 171" d="M365.36,334.415a1.418,1.418,0,1,1,1.246-2.547,7.734,7.734,0,0,0,8.874-2.377,1.42,1.42,0,1,1,2.359,1.58,10.512,10.512,0,0,1-12.479,3.344Z" fill="#1a1818" fill-rule="evenodd"/>
    <path id="Path_172" data-name="Path 172" d="M412.768,331.072a1.42,1.42,0,0,1,2.359-1.58A7.731,7.731,0,0,0,424,331.869a1.418,1.418,0,1,1,1.246,2.548,10.511,10.511,0,0,1-12.479-3.345Z" fill="#1a1818" fill-rule="evenodd"/>
    <path id="Path_173" data-name="Path 173" d="M410.872,341.376a1.417,1.417,0,1,1,2.159-1.836,7.514,7.514,0,0,0,.852.849,8.071,8.071,0,0,0,10.325,0,7.559,7.559,0,0,0,.851-.855,1.421,1.421,0,1,1,2.159,1.848,10.428,10.428,0,0,1-1.174,1.166,10.91,10.91,0,0,1-14.008,0A10.4,10.4,0,0,1,410.872,341.376Z" fill="#1a1818" fill-rule="evenodd"/>
    <path id="Path_174" data-name="Path 174" d="M387.363,355.544c-.476,0-.862-.633-.862-1.413s.386-1.413.862-1.413h15.882c.476,0,.862.633.862,1.413s-.386,1.413-.862,1.413Z" fill="#1a1818" fill-rule="evenodd"/>
  </g>
</svg>
