<svg width="94.571px" height="94.571px" viewBox="0 -12.02 94.571 94.571" xmlns="http://www.w3.org/2000/svg">
  <g id="loved" transform="translate(-490.629 -53.014)">
    <path id="Path_68" data-name="Path 68" d="M492.051,87.785c.283-26.649,16.427-33.362,45.857-33.353,29.458.009,45.585,6.732,45.87,33.353.292,27.433-16.715,34.458-46.566,34.333C507.725,121.992,491.767,114.549,492.051,87.785Z" fill="#ecc3dc" fill-rule="evenodd"/>
    <path id="Path_69" data-name="Path 69" d="M492.051,87.785c.016-1.428.079-2.8.184-4.11,1.853,22.4,17.57,28.84,44.977,28.957,27.8.116,44.46-5.971,46.38-28.97.107,1.319.17,2.69.186,4.123.292,27.433-16.715,34.458-46.566,34.333C507.725,121.992,491.767,114.55,492.051,87.785Z" fill="#1a1818" fill-rule="evenodd" opacity="0.15"/>
    <path id="Path_70" data-name="Path 70" d="M490.633,87.774c.147-13.863,4.476-22.577,12.649-27.858,8.008-5.175,19.647-6.907,34.626-6.9s26.629,1.745,34.643,6.925c8.171,5.282,12.5,13.991,12.645,27.835.152,14.26-4.252,23.255-12.624,28.7-8.21,5.341-20.175,7.124-35.366,7.06-15.02-.064-26.638-2.02-34.54-7.422-8.051-5.5-12.181-14.431-12.033-28.34Zm14.184-25.466c-7.328,4.735-11.212,12.7-11.347,25.488-.137,12.855,3.57,21.031,10.8,25.971,7.378,5.043,18.484,6.871,32.949,6.932,14.66.062,26.126-1.606,33.808-6.6,7.521-4.893,11.475-13.128,11.334-26.3-.136-12.776-4.016-20.74-11.343-25.477-7.486-4.838-18.639-6.464-33.108-6.469C523.458,55.846,512.309,57.467,504.817,62.308Z" fill="#1a1818" fill-rule="evenodd"/>
    <path id="Path_71" data-name="Path 71" d="M517.2,88.893l-6.057,0a1.68,1.68,0,0,1-1.171-2.884,5.534,5.534,0,0,1,.472-.46,5.765,5.765,0,0,1,7.455,0,5.435,5.435,0,0,1,.568.568,1.678,1.678,0,0,1-1.267,2.773Z" fill="#eb505e" fill-rule="evenodd"/>
    <path id="Path_72" data-name="Path 72" d="M564.687,88.895h-6.058A1.68,1.68,0,0,1,557.466,86a5.6,5.6,0,0,1,.462-.45,5.77,5.77,0,0,1,7.458,0,5.588,5.588,0,0,1,.568.56,1.68,1.68,0,0,1-1.267,2.782Z" fill="#eb505e" fill-rule="evenodd"/>
    <path id="Path_73" data-name="Path 73" d="M514.167,69.321c1.013-1.866,2.028-2.8,4.058-2.8a3.905,3.905,0,0,1,4.057,3.732c0,3.733-4.057,7.466-8.115,11.2-4.059-3.732-8.116-7.465-8.116-11.2a3.905,3.905,0,0,1,4.057-3.732C512.138,66.523,513.153,67.455,514.167,69.321Z" fill="#eb505e" stroke="#eb505e" stroke-linecap="round" stroke-linejoin="round" stroke-width="1.549" fill-rule="evenodd"/>
    <path id="Path_74" data-name="Path 74" d="M561.657,69.321c1.014-1.866,2.029-2.8,4.059-2.8a3.905,3.905,0,0,1,4.057,3.732c0,3.733-4.057,7.466-8.116,11.2-4.058-3.732-8.115-7.465-8.115-11.2a3.905,3.905,0,0,1,4.057-3.732C559.629,66.523,560.644,67.455,561.657,69.321Z" fill="#eb505e" stroke="#eb505e" stroke-linecap="round" stroke-linejoin="round" stroke-width="1.549" fill-rule="evenodd"/>
    <g id="Group_18" data-name="Group 18">
      <path id="Path_75" data-name="Path 75" d="M518.428,72.2a2,2,0,1,0-2-1.995A2,2,0,0,0,518.428,72.2Z" fill="#fff" fill-rule="evenodd"/>
      <path id="Path_76" data-name="Path 76" d="M516.33,75.518a1.24,1.24,0,1,0-1.241-1.241A1.243,1.243,0,0,0,516.33,75.518Z" fill="#fff" fill-rule="evenodd"/>
    </g>
    <g id="Group_19" data-name="Group 19">
      <path id="Path_77" data-name="Path 77" d="M565.952,72.2a2,2,0,1,0-2-1.995A2,2,0,0,0,565.952,72.2Z" fill="#fff" fill-rule="evenodd"/>
      <path id="Path_78" data-name="Path 78" d="M563.853,75.518a1.24,1.24,0,1,0-1.24-1.241A1.243,1.243,0,0,0,563.853,75.518Z" fill="#fff" fill-rule="evenodd"/>
    </g>
    <path id="Path_79" data-name="Path 79" d="M547.815,85.445l0,.217a12.308,12.308,0,0,1-2.862,8.031,9.014,9.014,0,0,1-14.081,0,12.325,12.325,0,0,1-2.865-8.031l.006-.279a.709.709,0,0,1,.709-.7l18.38,0a.713.713,0,0,1,.713.712Z" fill="#1a1818" fill-rule="evenodd"/>
  </g>
</svg>
