<svg width="94.572px" height="94.572px" viewBox="0 -12.02 94.572 94.572" xmlns="http://www.w3.org/2000/svg">
  <g id="nervous" transform="translate(-205.409 -184.357)">
    <path id="Path_81" data-name="Path 81" d="M206.832,219.128c.283-26.649,16.426-33.362,45.857-33.353,29.458.009,45.585,6.732,45.869,33.353.293,27.433-16.715,34.458-46.565,34.333C222.506,253.335,206.548,245.892,206.832,219.128Z" fill="#fff082" fill-rule="evenodd"/>
    <path id="Path_82" data-name="Path 82" d="M206.832,219.127c.015-1.427.078-2.794.184-4.109,1.853,22.4,17.57,28.84,44.977,28.957,27.8.116,44.46-5.971,46.38-28.97.106,1.319.17,2.69.185,4.122.293,27.434-16.714,34.458-46.565,34.334C222.506,253.335,206.548,245.893,206.832,219.127Z" fill="#1a1818" fill-rule="evenodd" opacity="0.15"/>
    <path id="Path_83" data-name="Path 83" d="M205.413,219.117c.148-13.863,4.477-22.577,12.649-27.858,8.008-5.175,19.647-6.907,34.627-6.9s26.629,1.745,34.643,6.925c8.171,5.282,12.5,13.991,12.645,27.835.152,14.26-4.252,23.255-12.624,28.7-8.211,5.341-20.176,7.124-35.366,7.06-15.021-.064-26.638-2.021-34.54-7.421-8.051-5.5-12.181-14.432-12.034-28.341ZM219.6,193.651c-7.328,4.735-11.212,12.7-11.348,25.488-.136,12.855,3.571,21.031,10.8,25.971,7.377,5.042,18.483,6.871,32.949,6.932,14.66.062,26.125-1.605,33.808-6.6,7.52-4.892,11.474-13.127,11.334-26.3C297,206.363,293.123,198.4,285.8,193.662c-7.485-4.838-18.638-6.465-33.107-6.468C238.239,187.189,227.089,188.81,219.6,193.651Z" fill="#1a1818" fill-rule="evenodd"/>
    <path id="Path_84" data-name="Path 84" d="M239.553,215.307h26.283a1.425,1.425,0,0,1,1,2.441,18.059,18.059,0,0,1-1.8,1.786,19.152,19.152,0,0,1-24.686,0,18.052,18.052,0,0,1-1.868-1.873,1.419,1.419,0,0,1,1.073-2.349Z" fill="#1a1818" fill-rule="evenodd"/>
    <path id="Path_85" data-name="Path 85" d="M231.978,220.236l-6.057,0a1.68,1.68,0,0,1-1.171-2.885,5.507,5.507,0,0,1,.471-.459,5.767,5.767,0,0,1,7.456,0,5.536,5.536,0,0,1,.568.568,1.678,1.678,0,0,1-1.267,2.773Z" fill="#eb505e" fill-rule="evenodd"/>
    <path id="Path_86" data-name="Path 86" d="M279.468,220.238H273.41a1.68,1.68,0,0,1-1.163-2.893,5.441,5.441,0,0,1,.462-.45,5.77,5.77,0,0,1,7.458,0,5.473,5.473,0,0,1,.567.56,1.68,1.68,0,0,1-1.266,2.782Z" fill="#eb505e" fill-rule="evenodd"/>
    <path id="Path_87" data-name="Path 87" d="M232.853,197.135a1.42,1.42,0,1,1,1.279,2.536l-13.965,7.074a1.42,1.42,0,0,1-1.28-2.536Z" fill="#1a1818" fill-rule="evenodd"/>
    <path id="Path_88" data-name="Path 88" d="M271.329,199.671a1.42,1.42,0,1,1,1.279-2.536l13.965,7.074a1.42,1.42,0,1,1-1.279,2.536Z" fill="#1a1818" fill-rule="evenodd"/>
    <g id="Group_22" data-name="Group 22">
      <path id="Path_89" data-name="Path 89" d="M228.949,213.923a6.226,6.226,0,1,0-6.226-6.226A6.238,6.238,0,0,0,228.949,213.923Z" fill="#1a1818" fill-rule="evenodd"/>
      <path id="Path_90" data-name="Path 90" d="M228.354,207.307a2,2,0,1,0-2-2A2,2,0,0,0,228.354,207.307Z" fill="#fff" fill-rule="evenodd"/>
      <path id="Path_91" data-name="Path 91" d="M226.255,210.626a1.241,1.241,0,1,0-1.24-1.24A1.243,1.243,0,0,0,226.255,210.626Z" fill="#fff" fill-rule="evenodd"/>
    </g>
    <g id="Group_23" data-name="Group 23">
      <path id="Path_92" data-name="Path 92" d="M276.44,213.923a6.226,6.226,0,1,0-6.226-6.226A6.238,6.238,0,0,0,276.44,213.923Z" fill="#1a1818" fill-rule="evenodd"/>
      <circle id="Ellipse_1" data-name="Ellipse 1" cx="1.996" cy="1.996" r="1.996" transform="translate(273.85 203.316)" fill="#fff"/>
      <path id="Path_93" data-name="Path 93" d="M273.747,210.626a1.241,1.241,0,1,0-1.24-1.24A1.243,1.243,0,0,0,273.747,210.626Z" fill="#fff" fill-rule="evenodd"/>
    </g>
    <path id="Path_94" data-name="Path 94" d="M215.837,209.918c.895,4.2,3.582,6.3,3.582,8.4s-.9,4.2-3.582,4.2-3.582-2.1-3.582-4.2S214.941,214.118,215.837,209.918Z" fill="#00a1ed" fill-rule="evenodd"/>
    <path id="Path_95" data-name="Path 95" d="M216.534,209.779a15.865,15.865,0,0,0,2.186,5.008,7.218,7.218,0,0,1,1.412,3.531A5.48,5.48,0,0,1,219,221.889a4.408,4.408,0,0,1-6.332,0,5.48,5.48,0,0,1-1.129-3.571,7.2,7.2,0,0,1,1.412-3.531,15.9,15.9,0,0,0,2.187-5.017.711.711,0,0,1,1.393.009Zm.968,5.737a22.229,22.229,0,0,1-1.665-3.185,22.435,22.435,0,0,1-1.665,3.185,6.378,6.378,0,0,0-1.205,2.8,4.108,4.108,0,0,0,.783,2.648,3.011,3.011,0,0,0,4.173,0,4.1,4.1,0,0,0,.784-2.648A6.383,6.383,0,0,0,217.5,215.516Z" fill="#00a1ed" fill-rule="evenodd"/>
  </g>
</svg>
