<svg width="94.571px" height="94.571px" viewBox="0 -12.02 94.571 94.571" xmlns="http://www.w3.org/2000/svg">
  <g id="scared" transform="translate(-490.629 -184.357)">
    <path id="Path_97" data-name="Path 97" d="M492.051,219.128c.283-26.649,16.427-33.362,45.857-33.353,29.458.009,45.585,6.732,45.87,33.353.292,27.433-16.715,34.458-46.566,34.333C507.725,253.335,491.767,245.892,492.051,219.128Z" fill="#e0e1e3" fill-rule="evenodd"/>
    <path id="Path_98" data-name="Path 98" d="M492.051,219.127c.016-1.427.079-2.794.184-4.109,1.853,22.4,17.57,28.84,44.977,28.957,27.8.116,44.46-5.971,46.38-28.97.107,1.319.17,2.69.186,4.122.292,27.434-16.715,34.458-46.566,34.334C507.725,253.335,491.767,245.893,492.051,219.127Z" fill="#1a1818" fill-rule="evenodd" opacity="0.15"/>
    <path id="Path_99" data-name="Path 99" d="M490.633,219.117c.147-13.863,4.476-22.577,12.649-27.858,8.008-5.175,19.647-6.907,34.626-6.9s26.629,1.745,34.643,6.925c8.171,5.282,12.5,13.991,12.645,27.835.152,14.26-4.251,23.255-12.624,28.7-8.21,5.341-20.175,7.124-35.366,7.06-15.02-.064-26.638-2.021-34.54-7.421-8.051-5.5-12.181-14.432-12.033-28.341Zm14.184-25.466c-7.328,4.735-11.212,12.7-11.347,25.488-.137,12.855,3.57,21.031,10.8,25.971,7.378,5.043,18.484,6.871,32.949,6.932,14.66.062,26.125-1.605,33.808-6.6,7.521-4.892,11.475-13.127,11.334-26.3-.136-12.776-4.016-20.741-11.343-25.477-7.486-4.838-18.639-6.465-33.108-6.468C523.458,187.189,512.309,188.81,504.817,193.651Z" fill="#1a1818" fill-rule="evenodd"/>
    <path id="Path_100" data-name="Path 100" d="M517.2,220.236l-6.057,0a1.68,1.68,0,0,1-1.171-2.885,5.519,5.519,0,0,1,.472-.459,5.765,5.765,0,0,1,7.455,0,5.436,5.436,0,0,1,.568.568,1.678,1.678,0,0,1-1.267,2.773Z" fill="#eb505e" fill-rule="evenodd"/>
    <path id="Path_101" data-name="Path 101" d="M564.687,220.238h-6.058a1.68,1.68,0,0,1-1.163-2.893,5.6,5.6,0,0,1,.462-.45,5.77,5.77,0,0,1,7.458,0,5.589,5.589,0,0,1,.568.56,1.68,1.68,0,0,1-1.267,2.782Z" fill="#eb505e" fill-rule="evenodd"/>
    <g id="Group_26" data-name="Group 26">
      <path id="Path_102" data-name="Path 102" d="M514.17,213.668a6.226,6.226,0,1,0-6.226-6.226A6.238,6.238,0,0,0,514.17,213.668Z" fill="#1a1818" fill-rule="evenodd"/>
      <circle id="Ellipse_2" data-name="Ellipse 2" cx="1.996" cy="1.996" r="1.996" transform="translate(511.58 203.061)" fill="#fff"/>
      <path id="Path_103" data-name="Path 103" d="M511.477,210.371a1.241,1.241,0,1,0-1.241-1.24A1.243,1.243,0,0,0,511.477,210.371Z" fill="#fff" fill-rule="evenodd"/>
    </g>
    <g id="Group_27" data-name="Group 27">
      <path id="Path_104" data-name="Path 104" d="M561.658,213.668a6.226,6.226,0,1,0-6.225-6.226A6.238,6.238,0,0,0,561.658,213.668Z" fill="#1a1818" fill-rule="evenodd"/>
      <path id="Path_105" data-name="Path 105" d="M561.064,207.052a2,2,0,1,0-2-2A2,2,0,0,0,561.064,207.052Z" fill="#fff" fill-rule="evenodd"/>
      <path id="Path_106" data-name="Path 106" d="M558.965,210.371a1.241,1.241,0,1,0-1.24-1.24A1.243,1.243,0,0,0,558.965,210.371Z" fill="#fff" fill-rule="evenodd"/>
    </g>
    <path id="Path_107" data-name="Path 107" d="M507.966,198.975a1.419,1.419,0,0,1,1.246-2.549,7.735,7.735,0,0,0,8.875-2.377,1.42,1.42,0,0,1,2.359,1.58,10.513,10.513,0,0,1-12.48,3.346Z" fill="#1a1818" fill-rule="evenodd"/>
    <path id="Path_108" data-name="Path 108" d="M551.056,223.7H524.773v-.005a1.419,1.419,0,0,1-1.074-2.349,18.054,18.054,0,0,1,1.868-1.873,19.155,19.155,0,0,1,24.686,0,18.061,18.061,0,0,1,1.8,1.786,1.425,1.425,0,0,1-1,2.441Z" fill="#1a1818" fill-rule="evenodd"/>
    <path id="Path_109" data-name="Path 109" d="M555.38,195.631a1.42,1.42,0,0,1,2.359-1.58,7.733,7.733,0,0,0,8.875,2.377,1.418,1.418,0,0,1,1.246,2.548,10.513,10.513,0,0,1-12.48-3.345Z" fill="#1a1818" fill-rule="evenodd"/>
  </g>
</svg>
