<svg width="94.559px" height="94.559px" viewBox="0 -12.02 94.559 94.559" xmlns="http://www.w3.org/2000/svg">
  <g id="sick" transform="translate(-62.806 -446.909)">
    <path id="Path_136" data-name="Path 136" d="M64.229,481.676c.282-26.645,16.424-33.358,45.85-33.349,29.455.009,45.58,6.731,45.864,33.349.292,27.43-16.713,34.453-46.56,34.328C79.9,515.878,63.944,508.437,64.229,481.676Z" fill="#e0e1e3" fill-rule="evenodd"/>
    <path id="Path_137" data-name="Path 137" d="M64.229,481.675c.015-1.427.078-2.794.184-4.109,1.852,22.4,17.567,28.837,44.97,28.954,27.8.115,44.455-5.971,46.374-28.966.107,1.319.171,2.689.186,4.121.292,27.43-16.713,34.454-46.56,34.33C79.9,515.879,63.944,508.437,64.229,481.675Z" fill="#1a1818" fill-rule="evenodd" opacity="0.15"/>
    <path id="Path_138" data-name="Path 138" d="M62.81,481.665c.147-13.861,4.477-22.575,12.647-27.855,8.007-5.173,19.644-6.9,34.622-6.9s26.626,1.745,34.638,6.924c8.171,5.282,12.5,13.989,12.644,27.832.152,14.259-4.251,23.253-12.623,28.7-8.208,5.34-20.172,7.123-35.36,7.059-15.019-.064-26.635-2.02-34.536-7.42-8.05-5.5-12.179-14.429-12.032-28.337ZM76.993,456.2c-7.327,4.735-11.211,12.7-11.346,25.485-.137,12.853,3.569,21.028,10.8,25.968,7.376,5.042,18.481,6.869,32.945,6.931,14.658.061,26.121-1.606,33.8-6.6,7.52-4.892,11.473-13.125,11.333-26.3-.137-12.774-4.017-20.738-11.343-25.473-7.484-4.838-18.636-6.464-33.1-6.469C95.632,449.742,84.484,451.362,76.993,456.2Z" fill="#1a1818" fill-rule="evenodd"/>
    <path id="Path_139" data-name="Path 139" d="M89.373,482.754l-6.056,0a1.68,1.68,0,0,1-1.172-2.884,5.753,5.753,0,0,1,7.926-.46,5.447,5.447,0,0,1,.569.568,1.678,1.678,0,0,1-1.267,2.773Z" fill="#eb505e" fill-rule="evenodd"/>
    <path id="Path_140" data-name="Path 140" d="M136.856,482.756H130.8a1.68,1.68,0,0,1-1.162-2.893,5.583,5.583,0,0,1,.461-.45,5.771,5.771,0,0,1,7.457,0,5.592,5.592,0,0,1,.568.561,1.68,1.68,0,0,1-1.267,2.781Z" fill="#eb505e" fill-rule="evenodd"/>
    <path id="Path_141" data-name="Path 141" d="M96.192,485.727a1.419,1.419,0,0,1-2.125-1.881l3.753-4.238a1.419,1.419,0,0,1,2-.123,1.625,1.625,0,0,1,.124.125l0,0,2.665,3.025,2.663-3.025a1.423,1.423,0,0,1,2.008-.128,1.391,1.391,0,0,1,.138.139l2.663,3.02,2.677-3.031a1.419,1.419,0,0,1,2-.123,1.64,1.64,0,0,1,.125.125l0,0,2.665,3.025,2.662-3.025a1.428,1.428,0,0,1,2.206.084l3.678,4.154a1.419,1.419,0,1,1-2.125,1.881L121.3,482.7l-2.656,3.019a1.422,1.422,0,0,1-2.148.013l-2.669-3.031-2.6,2.945a1.481,1.481,0,0,1-.2.214,1.423,1.423,0,0,1-2.008-.128l-2.669-3.026-2.652,3.013a1.421,1.421,0,0,1-2.147.013l-2.671-3.033Z" fill="#1a1818" fill-rule="evenodd"/>
    <path id="Path_142" data-name="Path 142" d="M135.7,464.665a1.419,1.419,0,1,1-.868,2.7.8.8,0,0,0-.869.118.644.644,0,0,0-.148.289.674.674,0,0,0,.016.344c.106.337.518.66,1.352.793a3.417,3.417,0,0,0,1.541-.122,2.252,2.252,0,0,0,1.039-.621,2.749,2.749,0,0,0,.732-1.979,3.134,3.134,0,0,0-.667-1.676,4.406,4.406,0,0,0-1.649-1.312l-.062-.03a4.318,4.318,0,0,0-3.226-.135,5.63,5.63,0,0,0-1.113.538,5.721,5.721,0,0,0-2.243,2.612,4.808,4.808,0,0,0-.076,3.507,5.8,5.8,0,0,0,4.5,3.8,7.511,7.511,0,0,0,5.1-.7,1.42,1.42,0,1,1,1.323,2.514,10.338,10.338,0,0,1-7.02.965,8.68,8.68,0,0,1-6.583-5.637,7.612,7.612,0,0,1,.132-5.544,8.663,8.663,0,0,1,5.036-4.741,7.126,7.126,0,0,1,5.353.231l.083.035a7.268,7.268,0,0,1,2.717,2.18,5.96,5.96,0,0,1,1.234,3.222,5.506,5.506,0,0,1-1.41,3.993,5.116,5.116,0,0,1-2.352,1.489,6.264,6.264,0,0,1-2.833.211,4.178,4.178,0,0,1-3.621-2.751,3.493,3.493,0,0,1,4.584-4.3Z" fill="#1a1818" fill-rule="evenodd"/>
    <path id="Path_143" data-name="Path 143" d="M88.211,464.665a1.419,1.419,0,1,1-.868,2.7.8.8,0,0,0-.869.118.642.642,0,0,0-.147.289.653.653,0,0,0,.016.344c.106.337.517.66,1.351.793a3.416,3.416,0,0,0,1.541-.122,2.261,2.261,0,0,0,1.04-.621,2.748,2.748,0,0,0,.731-1.979,3.14,3.14,0,0,0-.666-1.676,4.417,4.417,0,0,0-1.65-1.312l-.062-.03a4.317,4.317,0,0,0-3.226-.135,5.607,5.607,0,0,0-1.113.539,5.719,5.719,0,0,0-2.243,2.611,4.818,4.818,0,0,0-.077,3.507,6.222,6.222,0,0,0,.6,1.222,6.111,6.111,0,0,0,3.907,2.58,7.508,7.508,0,0,0,5.1-.7,1.421,1.421,0,0,1,1.324,2.514,10.339,10.339,0,0,1-7.02.965,8.953,8.953,0,0,1-5.709-3.848,9.052,9.052,0,0,1-.875-1.79,7.609,7.609,0,0,1,.132-5.543,8.672,8.672,0,0,1,5.037-4.741,7.126,7.126,0,0,1,5.353.231l.082.035a7.28,7.28,0,0,1,2.718,2.18,5.971,5.971,0,0,1,1.233,3.222,5.506,5.506,0,0,1-1.41,3.993,5.11,5.11,0,0,1-2.352,1.489,6.261,6.261,0,0,1-2.832.211,4.177,4.177,0,0,1-3.621-2.751,3.492,3.492,0,0,1,4.583-4.3Z" fill="#1a1818" fill-rule="evenodd"/>
  </g>
</svg>
