<svg width="94.572px" height="94.572px" viewBox="0 -12.02 94.572 94.572" xmlns="http://www.w3.org/2000/svg">
  <g id="stressed" transform="translate(-62.8 -184.357)">
    <path id="Path_29" data-name="Path 29" d="M64.223,219.128c.283-26.649,16.426-33.362,45.857-33.353,29.458.009,45.585,6.732,45.869,33.353.293,27.433-16.715,34.458-46.566,34.333C79.9,253.335,63.938,245.892,64.223,219.128Z" fill="#9b88bf" fill-rule="evenodd"/>
    <path id="Path_30" data-name="Path 30" d="M64.223,219.127c.015-1.427.078-2.794.184-4.109,1.853,22.4,17.569,28.84,44.977,28.957,27.8.116,44.46-5.971,46.379-28.97.107,1.319.171,2.69.186,4.122.292,27.434-16.714,34.458-46.565,34.334C79.9,253.335,63.939,245.893,64.223,219.127Z" fill="#1a1818" fill-rule="evenodd" opacity="0.15"/>
    <path id="Path_31" data-name="Path 31" d="M62.8,219.117c.147-13.863,4.477-22.577,12.649-27.858,8.008-5.175,19.647-6.907,34.627-6.9s26.629,1.745,34.642,6.925c8.172,5.282,12.5,13.991,12.646,27.835.152,14.26-4.252,23.255-12.625,28.7-8.21,5.341-20.175,7.124-35.365,7.06-15.021-.064-26.639-2.021-34.54-7.421-8.051-5.5-12.182-14.432-12.034-28.341Zm14.184-25.466c-7.327,4.735-11.212,12.7-11.347,25.488-.137,12.855,3.57,21.031,10.8,25.971,7.377,5.042,18.483,6.871,32.949,6.932,14.66.062,26.125-1.605,33.808-6.6,7.52-4.892,11.474-13.127,11.334-26.3-.137-12.776-4.017-20.741-11.344-25.477-7.485-4.838-18.638-6.465-33.107-6.468C95.63,187.189,84.48,188.81,76.988,193.651Z" fill="#1a1818" fill-rule="evenodd"/>
    <path id="Path_32" data-name="Path 32" d="M89.369,220.233l-6.057,0a1.68,1.68,0,0,1-1.172-2.884,5.754,5.754,0,0,1,7.928-.459,5.439,5.439,0,0,1,.568.568,1.678,1.678,0,0,1-1.267,2.773Z" fill="#eb505e" fill-rule="evenodd"/>
    <path id="Path_33" data-name="Path 33" d="M136.858,220.234H130.8a1.68,1.68,0,0,1-1.162-2.893,5.581,5.581,0,0,1,.462-.449,5.77,5.77,0,0,1,7.458,0,5.575,5.575,0,0,1,.567.56,1.679,1.679,0,0,1-1.267,2.781Z" fill="#eb505e" fill-rule="evenodd"/>
    <path id="Path_34" data-name="Path 34" d="M96.189,222.737a1.419,1.419,0,1,1-2.125-1.88l3.753-4.24a1.419,1.419,0,0,1,2-.123,1.637,1.637,0,0,1,.125.125l0,0,2.665,3.026,2.663-3.026a1.423,1.423,0,0,1,2.008-.128,1.46,1.46,0,0,1,.2.213l2.6,2.95,2.68-3.035a1.419,1.419,0,0,1,2-.123,1.637,1.637,0,0,1,.125.125l0,0,2.666,3.026,2.662-3.026a1.423,1.423,0,0,1,2.008-.128,1.39,1.39,0,0,1,.2.211l3.681,4.157a1.419,1.419,0,1,1-2.126,1.88l-2.685-3.032-2.657,3.019a1.232,1.232,0,0,1-.139.141,1.423,1.423,0,0,1-2.008-.128l-2.67-3.032-2.665,3.019a1.417,1.417,0,0,1-2.137.013l-2.672-3.03-2.655,3.017a1.422,1.422,0,0,1-2.148.013L98.874,219.7Z" fill="#1a1818" fill-rule="evenodd"/>
    <path id="Path_35" data-name="Path 35" d="M83.582,204.209a1.421,1.421,0,1,1,1.279-2.537l9.238,4.679a1.421,1.421,0,0,1,0,2.537l-9.238,4.657a1.421,1.421,0,0,1-1.279-2.537l6.727-3.391Z" fill="#1a1818" fill-rule="evenodd"/>
    <path id="Path_36" data-name="Path 36" d="M135.757,201.672a1.421,1.421,0,0,1,1.28,2.537l-6.728,3.408,6.728,3.391a1.421,1.421,0,0,1-1.28,2.537l-9.237-4.657a1.421,1.421,0,0,1,0-2.537Z" fill="#1a1818" fill-rule="evenodd"/>
  </g>
</svg>
