<svg width="94.572px" height="94.572px" viewBox="0 -12.02 94.572 94.572" xmlns="http://www.w3.org/2000/svg">
  <g id="surprised" transform="translate(-348.019 -53.014)">
    <path id="Path_53" data-name="Path 53" d="M349.442,87.785c.283-26.649,16.426-33.362,45.857-33.353,29.458.009,45.585,6.732,45.869,33.353.293,27.433-16.714,34.458-46.565,34.333C365.116,121.992,349.158,114.549,349.442,87.785Z" fill="#fdb991" fill-rule="evenodd"/>
    <path id="Path_54" data-name="Path 54" d="M349.442,87.785c.015-1.428.078-2.8.184-4.11,1.853,22.4,17.57,28.84,44.977,28.957,27.8.116,44.46-5.971,46.38-28.97.106,1.319.17,2.69.186,4.123.292,27.433-16.715,34.458-46.566,34.333C365.116,121.992,349.158,114.55,349.442,87.785Z" fill="#1a1818" fill-rule="evenodd" opacity="0.15"/>
    <path id="Path_55" data-name="Path 55" d="M348.023,87.774c.147-13.863,4.477-22.577,12.649-27.858,8.008-5.175,19.647-6.907,34.627-6.9s26.629,1.745,34.642,6.925c8.172,5.282,12.5,13.991,12.646,27.835.152,14.26-4.252,23.255-12.624,28.7-8.211,5.341-20.175,7.124-35.366,7.06-15.02-.064-26.638-2.02-34.54-7.422-8.051-5.5-12.181-14.431-12.034-28.34Zm14.185-25.466C354.88,67.043,351,75.01,350.86,87.8c-.136,12.855,3.571,21.031,10.8,25.971,7.377,5.043,18.483,6.871,32.949,6.932,14.66.062,26.125-1.606,33.808-6.6,7.52-4.893,11.474-13.128,11.334-26.3-.136-12.776-4.017-20.74-11.344-25.477-7.484-4.838-18.638-6.464-33.107-6.469C380.849,55.846,369.7,57.467,362.208,62.308Z" fill="#1a1818" fill-rule="evenodd"/>
    <path id="Path_56" data-name="Path 56" d="M371.561,82.775a6.226,6.226,0,1,0-6.226-6.226A6.238,6.238,0,0,0,371.561,82.775Z" fill="#1a1818" fill-rule="evenodd"/>
    <path id="Path_57" data-name="Path 57" d="M370.966,76.158a2,2,0,1,0-2-1.995A2,2,0,0,0,370.966,76.158Z" fill="#fff" fill-rule="evenodd"/>
    <path id="Path_58" data-name="Path 58" d="M368.868,79.478a1.24,1.24,0,1,0-1.241-1.241A1.243,1.243,0,0,0,368.868,79.478Z" fill="#fff" fill-rule="evenodd"/>
    <g id="Group_14" data-name="Group 14">
      <path id="Path_59" data-name="Path 59" d="M419.049,82.775a6.226,6.226,0,1,0-6.226-6.226A6.238,6.238,0,0,0,419.049,82.775Z" fill="#1a1818" fill-rule="evenodd"/>
      <path id="Path_60" data-name="Path 60" d="M418.455,76.158a2,2,0,1,0-2-1.995A2,2,0,0,0,418.455,76.158Z" fill="#fff" fill-rule="evenodd"/>
      <path id="Path_61" data-name="Path 61" d="M416.356,79.478a1.24,1.24,0,1,0-1.24-1.241A1.243,1.243,0,0,0,416.356,79.478Z" fill="#fff" fill-rule="evenodd"/>
    </g>
    <g id="Group_15" data-name="Group 15">
      <path id="Path_62" data-name="Path 62" d="M374.588,88.89l-6.057,0a1.68,1.68,0,0,1-1.171-2.884,5.753,5.753,0,0,1,7.927-.459,5.538,5.538,0,0,1,.568.568,1.678,1.678,0,0,1-1.267,2.773Z" fill="#eb505e" fill-rule="evenodd"/>
      <path id="Path_63" data-name="Path 63" d="M422.078,88.892H416.02A1.68,1.68,0,0,1,414.857,86a5.581,5.581,0,0,1,.462-.449,5.77,5.77,0,0,1,7.458,0,5.474,5.474,0,0,1,.567.56,1.68,1.68,0,0,1-1.266,2.782Z" fill="#eb505e" fill-rule="evenodd"/>
    </g>
    <path id="Path_64" data-name="Path 64" d="M395.3,97.191c4.19,0,7.608-3.979,7.608-8.857s-3.418-8.857-7.608-8.857-7.608,3.978-7.608,8.857S391.115,97.191,395.3,97.191Z" fill="#1a1818" fill-rule="evenodd"/>
    <path id="Path_65" data-name="Path 65" d="M367.106,68.335a1.419,1.419,0,0,1-2.146-1.857,8.407,8.407,0,0,1,.869-.871,8.879,8.879,0,0,1,11.458,0,8.455,8.455,0,0,1,.873.872,1.419,1.419,0,0,1-2.146,1.857,5.542,5.542,0,0,0-.584-.583,6.036,6.036,0,0,0-7.744,0A5.5,5.5,0,0,0,367.106,68.335Z" fill="#1a1818" fill-rule="evenodd"/>
    <path id="Path_66" data-name="Path 66" d="M414.594,68.335a1.419,1.419,0,0,1-2.146-1.857,8.321,8.321,0,0,1,.87-.871,8.879,8.879,0,0,1,11.458,0,8.552,8.552,0,0,1,.873.872,1.419,1.419,0,0,1-2.146,1.857,5.737,5.737,0,0,0-.584-.583,6.036,6.036,0,0,0-7.744,0A5.508,5.508,0,0,0,414.594,68.335Z" fill="#1a1818" fill-rule="evenodd"/>
  </g>
</svg>
