<svg width="96.588px" height="96.588px" viewBox="0 -11.94 96.588 96.588" xmlns="http://www.w3.org/2000/svg">
  <g id="tired" transform="translate(-348.025 -444.72)">
    <path id="Path_145" data-name="Path 145" d="M349.447,481.675c.283-26.645,16.425-33.357,45.852-33.348,29.454.008,45.58,6.731,45.864,33.348.292,27.431-16.713,34.454-46.56,34.329C365.119,515.879,349.163,508.437,349.447,481.675Z" fill="#fff082" fill-rule="evenodd"/>
    <path id="Path_146" data-name="Path 146" d="M349.447,481.675c.016-1.427.079-2.794.184-4.109,1.853,22.4,17.568,28.837,44.972,28.954,27.8.115,44.455-5.971,46.374-28.967.107,1.319.171,2.69.186,4.122.292,27.43-16.713,34.454-46.56,34.33C365.12,515.879,349.163,508.437,349.447,481.675Z" fill="#1a1818" fill-rule="evenodd" opacity="0.15"/>
    <path id="Path_147" data-name="Path 147" d="M348.029,481.664c.147-13.86,4.477-22.574,12.648-27.854,8.006-5.174,19.644-6.906,34.622-6.9s26.626,1.745,34.638,6.924c8.171,5.282,12.5,13.99,12.644,27.832.152,14.259-4.251,23.254-12.623,28.7-8.208,5.341-20.172,7.123-35.361,7.06-15.018-.064-26.635-2.021-34.536-7.421-8.049-5.5-12.179-14.43-12.032-28.338ZM362.212,456.2c-7.327,4.734-11.211,12.7-11.346,25.484-.137,12.854,3.57,21.029,10.8,25.969,7.377,5.042,18.481,6.87,32.945,6.931,14.658.062,26.122-1.606,33.8-6.6,7.52-4.892,11.473-13.126,11.333-26.3-.136-12.773-4.017-20.737-11.343-25.473-7.484-4.838-18.636-6.464-33.1-6.468C380.851,449.741,369.7,451.361,362.212,456.2Z" fill="#1a1818" fill-rule="evenodd"/>
    <g id="Group_39" data-name="Group 39">
      <path id="Path_148" data-name="Path 148" d="M374.591,482.78l-6.056,0a1.68,1.68,0,0,1-1.172-2.884,5.6,5.6,0,0,1,4.2-1.826,5.717,5.717,0,0,1,3.727,1.367,5.638,5.638,0,0,1,.569.567,1.678,1.678,0,0,1-1.267,2.773Z" fill="#eb505e" fill-rule="evenodd"/>
      <path id="Path_149" data-name="Path 149" d="M422.074,482.782h-6.057a1.68,1.68,0,0,1-1.162-2.893,5.425,5.425,0,0,1,.462-.449,5.767,5.767,0,0,1,7.456,0,5.485,5.485,0,0,1,.568.56,1.679,1.679,0,0,1-1.267,2.781Z" fill="#eb505e" fill-rule="evenodd"/>
    </g>
    <ellipse id="Ellipse_3" data-name="Ellipse 3" cx="7.607" cy="7.381" rx="7.607" ry="7.381" transform="translate(387.698 474.843)" fill="#1a1818"/>
    <path id="Path_150" data-name="Path 150" d="M367.109,472.426a1.419,1.419,0,0,1-2.146-1.857,8.316,8.316,0,0,1,.87-.871,8.878,8.878,0,0,1,11.45-.005,8.26,8.26,0,0,1,.879.876,1.419,1.419,0,1,1-2.145,1.857,5.529,5.529,0,0,0-.579-.577l0-.005a6.035,6.035,0,0,0-7.744,0A5.492,5.492,0,0,0,367.109,472.426Z" fill="#1a1818" fill-rule="evenodd"/>
    <path id="Path_151" data-name="Path 151" d="M414.592,472.426a1.419,1.419,0,0,1-2.146-1.857,8.316,8.316,0,0,1,.87-.871,8.878,8.878,0,0,1,11.45-.005,8.26,8.26,0,0,1,.879.876,1.419,1.419,0,0,1-2.146,1.857,5.424,5.424,0,0,0-.578-.577l-.006-.005a6.033,6.033,0,0,0-7.743,0A5.492,5.492,0,0,0,414.592,472.426Z" fill="#1a1818" fill-rule="evenodd"/>
    <path id="Path_152" data-name="Path 152" d="M433.692,467.013a2.863,2.863,0,0,1-.854-.123,2.246,2.246,0,0,1-.729-.377,1.736,1.736,0,0,1-.519-.647,1.976,1.976,0,0,1-.172-.829,2.177,2.177,0,0,1,.575-1.482l7.943-9.13h-6.6a1.748,1.748,0,0,1-.639-.117,1.641,1.641,0,0,1-.894-.891,1.744,1.744,0,0,1-.119-.642,1.647,1.647,0,0,1,.47-1.185,1.62,1.62,0,0,1,.536-.372,1.724,1.724,0,0,1,.646-.124h8.974a2.36,2.36,0,0,1,.841.145,1.985,1.985,0,0,1,.69.448,1.963,1.963,0,0,1,.446.681,2.247,2.247,0,0,1,.148.821,2.34,2.34,0,0,1-.127.771,2.208,2.208,0,0,1-.382.671l-7.725,9.05h6.731a1.7,1.7,0,0,1,.646.125,1.7,1.7,0,0,1,.91.91,1.71,1.71,0,0,1,.125.647,1.685,1.685,0,0,1-.125.645,1.6,1.6,0,0,1-.372.535,1.645,1.645,0,0,1-1.184.47Z" fill="#00a1ed" fill-rule="evenodd"/>
    <path id="Path_153" data-name="Path 153" d="M419.45,458.686a2.512,2.512,0,0,1-.749-.108,1.967,1.967,0,0,1-.64-.331,1.523,1.523,0,0,1-.455-.567,1.739,1.739,0,0,1-.151-.728,1.908,1.908,0,0,1,.505-1.3l6.968-8.01h-5.79a1.545,1.545,0,0,1-.561-.1,1.436,1.436,0,0,1-.784-.782,1.511,1.511,0,0,1-.1-.563,1.441,1.441,0,0,1,.412-1.039,1.415,1.415,0,0,1,.47-.327,1.513,1.513,0,0,1,.567-.108h7.873a2.075,2.075,0,0,1,.738.127,1.748,1.748,0,0,1,1,.99,2,2,0,0,1,.129.721,2.054,2.054,0,0,1-.111.677,1.946,1.946,0,0,1-.335.588l-6.777,7.94h5.9a1.494,1.494,0,0,1,.567.109,1.5,1.5,0,0,1,.8.8,1.5,1.5,0,0,1,.11.567,1.472,1.472,0,0,1-.11.566,1.407,1.407,0,0,1-.326.47,1.447,1.447,0,0,1-1.039.412Z" fill="#00a1ed" fill-rule="evenodd"/>
    <path id="Path_154" data-name="Path 154" d="M407.983,463.847a1.849,1.849,0,0,1-.547-.079,1.45,1.45,0,0,1-.467-.241,1.1,1.1,0,0,1-.331-.414,1.255,1.255,0,0,1-.11-.531,1.393,1.393,0,0,1,.367-.948l5.084-5.844h-4.224a1.122,1.122,0,0,1-.409-.075,1.028,1.028,0,0,1-.344-.228,1.011,1.011,0,0,1-.228-.342,1.112,1.112,0,0,1-.076-.411,1.051,1.051,0,0,1,.3-.758,1.022,1.022,0,0,1,.342-.238,1.1,1.1,0,0,1,.414-.08H413.5a1.522,1.522,0,0,1,.538.093,1.273,1.273,0,0,1,.441.287,1.256,1.256,0,0,1,.286.436,1.453,1.453,0,0,1,.094.525,1.5,1.5,0,0,1-.081.494,1.406,1.406,0,0,1-.244.429l-4.944,5.793H413.9a1.1,1.1,0,0,1,.414.079,1.086,1.086,0,0,1,.583.583,1.1,1.1,0,0,1,.08.414,1.089,1.089,0,0,1-.08.413,1.041,1.041,0,0,1-.238.342,1.053,1.053,0,0,1-.759.3Z" fill="#00a1ed" fill-rule="evenodd"/>
  </g>
</svg>
