<svg width="24px" height="24px" viewBox="0 0 24 24" id="magicoon-Filled" xmlns="http://www.w3.org/2000/svg"><defs><style>.cls-1{fill:#fff;}</style></defs><title>bell-slash</title><g id="bell-slash-Filled"><path id="bell-slash-Filled-2" data-name="bell-slash-Filled" class="cls-1" d="M10,20h4a2,2,0,0,1-4,0ZM4.52,15.98a.5.5,0,0,0,.354-.146l11.2-11.2a.5.5,0,0,0-.045-.747A6.512,6.512,0,0,0,5.5,8.99v2.63a4.492,4.492,0,0,1-.639,2.315l-.77,1.29a.5.5,0,0,0,.429.755ZM20.707,3.293a1,1,0,0,0-1.414,0l-16,16a1,1,0,1,0,1.414,1.414L6.914,18.5H18.7a1.8,1.8,0,0,0,1.539-2.727l-1.1-1.84A4.491,4.491,0,0,1,18.5,11.62V8.99a6.446,6.446,0,0,0-.265-1.811l2.472-2.472A1,1,0,0,0,20.707,3.293Z"/></g></svg>