<svg width="24px" height="24px" viewBox="0 0 24 24" id="magicoon-Filled" xmlns="http://www.w3.org/2000/svg"><defs><style>.cls-1{fill:#fff;}</style></defs><title>comments</title><g id="comments-Filled"><path id="comments-Filled-2" data-name="comments-Filled" class="cls-1" d="M21.5,11V21a.489.489,0,0,1-.31.46.433.433,0,0,1-.19.04.508.508,0,0,1-.36-.15L18.83,19.5H10A3.5,3.5,0,0,1,6.5,16H14a5,5,0,0,0,5-5V7.65A3.507,3.507,0,0,1,21.5,11Zm-4,0V6A3.5,3.5,0,0,0,14,2.5H6A3.5,3.5,0,0,0,2.5,6V16a.489.489,0,0,0,.31.46A.433.433,0,0,0,3,16.5a.508.508,0,0,0,.36-.15L5.17,14.5H14A3.5,3.5,0,0,0,17.5,11Z"/></g></svg>