<svg width="24px" height="24px" viewBox="0 0 24 24" id="magicoon-Filled" xmlns="http://www.w3.org/2000/svg"><defs><style>.cls-1{fill:#fff;}</style></defs><title>discount</title><g id="discount-Filled"><path id="discount-Filled-2" data-name="discount-Filled" class="cls-1" d="M20.62,9.869l-.58-.58a1.5,1.5,0,0,1-.44-1.06v-.82A3.013,3.013,0,0,0,16.59,4.4h-.82a1.458,1.458,0,0,1-1.06-.44l-.58-.58a3.024,3.024,0,0,0-4.26,0l-.58.58a1.458,1.458,0,0,1-1.06.44H7.41A3.013,3.013,0,0,0,4.4,7.409v.82a1.458,1.458,0,0,1-.44,1.06l-.58.58a3.018,3.018,0,0,0,0,4.26l.58.58a1.458,1.458,0,0,1,.44,1.06v.82A3.013,3.013,0,0,0,7.41,19.6h.82a1.458,1.458,0,0,1,1.06.44l.58.58a3.018,3.018,0,0,0,4.26,0l.58-.58a1.458,1.458,0,0,1,1.06-.44h.82a3.013,3.013,0,0,0,3.01-3.01v-.82a1.5,1.5,0,0,1,.44-1.06l.58-.58a3.018,3.018,0,0,0,0-4.26ZM9.5,8.249A1.25,1.25,0,1,1,8.25,9.5,1.25,1.25,0,0,1,9.5,8.249Zm5,7.5a1.25,1.25,0,1,1,1.25-1.25A1.25,1.25,0,0,1,14.5,15.749Zm1.21-6.04-6,6A1.024,1.024,0,0,1,9,16a1.042,1.042,0,0,1-.71-.29,1.008,1.008,0,0,1,0-1.42l6-6a1,1,0,1,1,1.42,1.42Z"/></g></svg>