<svg width="24px" height="24px" viewBox="0 0 24 24" id="magicoon-Filled" xmlns="http://www.w3.org/2000/svg"><defs><style>.cls-1{fill:#fff;}</style></defs><title>download</title><g id="download-Filled"><path id="download-Filled-2" data-name="download-Filled" class="cls-1" d="M17,10.48h-.92l-2.3,2.3a2.475,2.475,0,0,1-3.53,0l-2.3-2.3H7a4.5,4.5,0,0,0-4.5,4.5v1A4.494,4.494,0,0,0,7,20.48H17a4.5,4.5,0,0,0,4.5-4.5v-1A4.507,4.507,0,0,0,17,10.48Zm0,5.75a1.25,1.25,0,1,1,1.24-1.25A1.253,1.253,0,0,1,17,16.23ZM8.31,8.72a1,1,0,0,1,0-1.41,1,1,0,0,1,1.41,0L11.01,8.6V4.02a1,1,0,0,1,2,0V8.6l1.3-1.29a1,1,0,0,1,1.41,0,1,1,0,0,1,0,1.41l-1.76,1.76-1.24,1.24a.978.978,0,0,1-1.41,0Z"/></g></svg>