<svg width="24px" height="24px" viewBox="0 0 24 24" id="magicoon-Filled" xmlns="http://www.w3.org/2000/svg"><defs><style>.cls-1{fill:#fff;}</style></defs><title>filter</title><g id="filter-Filled"><path id="filter-Filled-2" data-name="filter-Filled" class="cls-1" d="M19.71,8l-4.77,4.77a1.5,1.5,0,0,0-.44,1.06V18a.479.479,0,0,1-.2.4l-4,3a.472.472,0,0,1-.3.1.545.545,0,0,1-.22-.05A.512.512,0,0,1,9.5,21V13.83a1.5,1.5,0,0,0-.44-1.06L4.29,8ZM18.5,2.5H5.5a2.006,2.006,0,0,0-2,2V6h17V4.5A2.006,2.006,0,0,0,18.5,2.5Z"/></g></svg>