<svg width="24px" height="24px" viewBox="0 0 24 24" id="magicoon-Filled" xmlns="http://www.w3.org/2000/svg"><defs><style>.cls-1{fill:#fff;}</style></defs><title>inbox</title><g id="inbox-Filled"><path id="inbox-Filled-2" data-name="inbox-Filled" class="cls-1" d="M7.25,10A.75.75,0,0,1,8,9.25h8a.75.75,0,0,1,0,1.5H8A.75.75,0,0,1,7.25,10ZM9,7.75h6a.75.75,0,0,0,0-1.5H9a.75.75,0,0,0,0,1.5Zm13,5.737V16a4.505,4.505,0,0,1-4.5,4.5H6.5A4.505,4.505,0,0,1,2,16V13.487a3.99,3.99,0,0,1,.205-1.265l1.935-5.8A4.993,4.993,0,0,1,8.883,3h6.234A4.993,4.993,0,0,1,19.86,6.419l1.935,5.8A3.99,3.99,0,0,1,22,13.487ZM4.221,12.5H9a.5.5,0,0,1,.5.5,2.5,2.5,0,0,0,5,0,.5.5,0,0,1,.5-.5h4.779L17.963,7.052A3,3,0,0,0,15.117,5H8.883A3,3,0,0,0,6.037,7.052Z"/></g></svg>