<svg width="24px" height="24px" viewBox="0 0 24 24" id="magicoon-Filled" xmlns="http://www.w3.org/2000/svg"><defs><style>.cls-1{fill:#fff;}</style></defs><title>map-pin</title><g id="map-pin-Filled"><path id="map-pin-Filled-2" data-name="map-pin-Filled" class="cls-1" d="M6.5,7.5A5.5,5.5,0,1,1,13,12.9V17a1,1,0,0,1-2,0V12.9A5.506,5.506,0,0,1,6.5,7.5Zm8.7,6.81a1,1,0,0,0-.4,1.961C16.983,16.712,18,17.563,18,18c0,.7-2.278,2-6,2s-6-1.3-6-2c0-.437,1.017-1.288,3.2-1.729a1,1,0,0,0-.4-1.961C5.8,14.918,4,16.3,4,18c0,2.626,4.024,4,8,4s8-1.374,8-4C20,16.3,18.2,14.918,15.2,14.31Z"/></g></svg>