<svg width="24px" height="24px" viewBox="0 0 24 24" id="magicoon-Filled" xmlns="http://www.w3.org/2000/svg"><defs><style>.cls-1{fill:#fff;}</style></defs><title>map</title><g id="map-Filled"><path id="map-Filled-2" data-name="map-Filled" class="cls-1" d="M7.88,2.77a2.388,2.388,0,0,1,.37-.15V19.11L6.12,20.2a2.42,2.42,0,0,1-2.4-.09A2.538,2.538,0,0,1,2.5,17.92V7.74a3.574,3.574,0,0,1,1.93-3.2Zm1.87-.15V19.11l4.13,2.12a2.388,2.388,0,0,0,.37.15V4.89L10.12,2.77A2.388,2.388,0,0,0,9.75,2.62ZM20.28,3.89a2.445,2.445,0,0,0-2.4-.09L15.75,4.89V21.38a2.388,2.388,0,0,0,.37-.15l3.45-1.77a3.574,3.574,0,0,0,1.93-3.2V6.08A2.538,2.538,0,0,0,20.28,3.89Z"/></g></svg>