<svg width="24px" height="24px" viewBox="0 0 24 24" id="magicoon-Filled" xmlns="http://www.w3.org/2000/svg"><defs><style>.cls-1{fill:#fff;}</style></defs><title>microphone-slash</title><g id="microphone-slash-Filled"><path id="microphone-slash-Filled-2" data-name="microphone-slash-Filled" class="cls-1" d="M10.275,15.139,9.146,16.268A5.986,5.986,0,0,0,18,11a1,1,0,0,1,2,0,8.008,8.008,0,0,1-7,7.931V20h3a1,1,0,0,1,0,2H8a1,1,0,0,1,0-2h3V18.93a7.972,7.972,0,0,1-3.313-1.2l-2.98,2.98a1,1,0,0,1-1.414-1.414l16-16a1,1,0,1,1,1.414,1.414L16.5,8.914V11A4.505,4.505,0,0,1,12,15.5,4.443,4.443,0,0,1,10.275,15.139ZM7.957,12.38a.507.507,0,0,0,.5-.126l7.179-7.181a.5.5,0,0,0,.058-.637A4.5,4.5,0,0,0,7.5,7v4a4.932,4.932,0,0,0,.11,1A.5.5,0,0,0,7.957,12.38ZM5.781,15.22a.985.985,0,0,0,.461-.114,1,1,0,0,0,.425-1.348A5.983,5.983,0,0,1,6,11a1,1,0,0,0-2,0,8,8,0,0,0,.893,3.682A1,1,0,0,0,5.781,15.22Z"/></g></svg>