<svg width="24px" height="24px" viewBox="0 0 24 24" id="magicoon-Filled" xmlns="http://www.w3.org/2000/svg"><defs><style>.cls-1{fill:#fff;}</style></defs><title>more-v-circle</title><g id="more-v-circle-Filled"><path id="more-v-circle-Filled-2" data-name="more-v-circle-Filled" class="cls-1" d="M12,2.5A9.5,9.5,0,1,0,21.5,12,9.509,9.509,0,0,0,12,2.5Zm0,15.25a1.25,1.25,0,1,1,1.25-1.25A1.25,1.25,0,0,1,12,17.75Zm0-4.5A1.25,1.25,0,1,1,13.25,12,1.25,1.25,0,0,1,12,13.25Zm0-4.5A1.25,1.25,0,1,1,13.25,7.5,1.25,1.25,0,0,1,12,8.75Z"/></g></svg>