<svg width="24px" height="24px" viewBox="0 0 24 24" id="magicoon-Filled" xmlns="http://www.w3.org/2000/svg"><defs><style>.cls-1{fill:#fff;}</style></defs><title>more-h-circle</title><g id="more-h-circle-Filled"><path id="more-h-circle-Filled-2" data-name="more-h-circle-Filled" class="cls-1" d="M12,2.5A9.5,9.5,0,1,0,21.5,12,9.509,9.509,0,0,0,12,2.5ZM7.5,13.25A1.25,1.25,0,1,1,8.75,12,1.25,1.25,0,0,1,7.5,13.25Zm4.5,0A1.25,1.25,0,1,1,13.25,12,1.25,1.25,0,0,1,12,13.25Zm4.5,0A1.25,1.25,0,1,1,17.75,12,1.25,1.25,0,0,1,16.5,13.25Z"/></g></svg>