<svg width="24px" height="24px" viewBox="0 0 24 24" id="magicoon-Filled" xmlns="http://www.w3.org/2000/svg"><defs><style>.cls-1{fill:#fff;}</style></defs><title>package</title><g id="package-Filled"><path id="package-Filled-2" data-name="package-Filled" class="cls-1" d="M6.27,4.524,15.73,8.9l-2.53,1.12a3.12,3.12,0,0,1-2.4.01L3.25,6.624a4.813,4.813,0,0,1,2.04-1.66Zm12.44.44-4.39-1.95a5.764,5.764,0,0,0-4.64,0l-1.59.7,9.45,4.37,3.21-1.46A4.813,4.813,0,0,0,18.71,4.964ZM2.63,7.984A3.856,3.856,0,0,0,2.5,9v6.04a4.452,4.452,0,0,0,2.79,4.04l4.4,1.95a5.258,5.258,0,0,0,1.56.44v-9.76a4.635,4.635,0,0,1-1.06-.31Zm18.74,0L13.81,11.4a4.635,4.635,0,0,1-1.06.31v9.76a5.406,5.406,0,0,0,1.57-.44l4.39-1.95a4.452,4.452,0,0,0,2.79-4.04V9A3.856,3.856,0,0,0,21.37,7.984Z"/></g></svg>