<svg width="24px" height="24px" viewBox="0 0 24 24" id="magicoon-Filled" xmlns="http://www.w3.org/2000/svg"><defs><style>.cls-1{fill:#fff;}</style></defs><title>paperclip</title><g id="paperclip-Filled"><path id="paperclip-Filled-2" data-name="paperclip-Filled" class="cls-1" d="M20.716,14.736l-5.028,5.042A7.638,7.638,0,0,1,10.313,22h0a7.264,7.264,0,0,1-5.185-2.127,7.507,7.507,0,0,1,.1-10.582L10.95,3.547a5.257,5.257,0,0,1,7.449,0,5.293,5.293,0,0,1,0,7.463l-5.755,5.77a3.2,3.2,0,0,1-4.433,0,3.146,3.146,0,0,1,0-4.436l5.055-5.07a1,1,0,1,1,1.416,1.413L9.627,13.756a1.136,1.136,0,1,0,1.6,1.612L16.983,9.6a3.291,3.291,0,0,0,0-4.639,3.338,3.338,0,0,0-4.617,0L6.638,10.7a5.572,5.572,0,0,0-.095,7.758A5.278,5.278,0,0,0,10.312,20h0a5.628,5.628,0,0,0,3.959-1.634L19.3,13.324a1,1,0,0,1,1.416,1.412Z"/></g></svg>