<svg width="24px" height="24px" viewBox="0 0 24 24" id="magicoon-Filled" xmlns="http://www.w3.org/2000/svg"><defs><style>.cls-1{fill:#fff;}</style></defs><title>phone</title><g id="phone-Filled"><path id="phone-Filled-2" data-name="phone-Filled" class="cls-1" d="M20.489,20.011A4.273,4.273,0,0,1,17.248,21.5h-.116A15.042,15.042,0,0,1,2.5,6.868,4.28,4.28,0,0,1,4,3.494a4.028,4.028,0,0,1,3.349-.931,3.549,3.549,0,0,1,.474.119,1.492,1.492,0,0,1,1,1.191l.67,4.254a1.515,1.515,0,0,1-.541,1.412c-.084.068-.171.132-.262.193a.538.538,0,0,0-.215.666A9.857,9.857,0,0,0,13.6,15.525a.542.542,0,0,0,.671-.222c.047-.068.1-.135.146-.2a1.513,1.513,0,0,1,1.431-.547l4.332.721a1.473,1.473,0,0,1,1.186,1.033c.027.1.052.207.074.332A4.072,4.072,0,0,1,20.489,20.011Z"/></g></svg>