<svg width="24px" height="24px" viewBox="0 0 24 24" id="magicoon-Filled" xmlns="http://www.w3.org/2000/svg"><defs><style>.cls-1{fill:#fff;}</style></defs><title>stopwatch</title><g id="stopwatch-Filled"><path id="stopwatch-Filled-2" data-name="stopwatch-Filled" class="cls-1" d="M18.209,8.21l1.5-1.5a1,1,0,1,0-1.42-1.42l-1.5,1.5a1.278,1.278,0,0,0-.14.21A8.008,8.008,0,0,0,13,5.57V4h1a1,1,0,1,0,0-2H10a1,1,0,0,0,0,2h1V5.57a8,8,0,1,0,7.07,2.73A1.1,1.1,0,0,0,18.209,8.21Zm-3.59,8.57A.961.961,0,0,1,14,17a1,1,0,0,1-.78-.38l-2-2.5A.977.977,0,0,1,11,13.5V10a1,1,0,0,1,2,0v3.15l1.78,2.23A.982.982,0,0,1,14.619,16.78Z"/></g></svg>