<svg width="24px" height="24px" viewBox="0 0 24 24" id="magicoon-Filled" xmlns="http://www.w3.org/2000/svg"><defs><style>.cls-1{fill:#fff;}</style></defs><title>times-square</title><g id="times-square-Filled"><path id="times-square-Filled-2" data-name="times-square-Filled" class="cls-1" d="M15,2.5H9A6.513,6.513,0,0,0,2.5,9v6A6.513,6.513,0,0,0,9,21.5h6A6.513,6.513,0,0,0,21.5,15V9A6.513,6.513,0,0,0,15,2.5Zm.71,11.79a1.008,1.008,0,0,1,0,1.42,1.014,1.014,0,0,1-1.42,0L12,13.42,9.71,15.71a1.014,1.014,0,0,1-1.42,0,1.008,1.008,0,0,1,0-1.42L10.58,12,8.29,9.71A1,1,0,0,1,9.71,8.29L12,10.58l2.29-2.29a1,1,0,0,1,1.42,1.42L13.42,12Z"/></g></svg>