<svg width="24px" height="24px" viewBox="0 0 24 24" id="magicoon-Filled" xmlns="http://www.w3.org/2000/svg"><defs><style>.cls-1{fill:#fff;}</style></defs><title>unlock</title><g id="unlock-Filled"><path id="unlock-Filled-2" data-name="unlock-Filled" class="cls-1" d="M15,9.5H9V7a3.009,3.009,0,0,1,3-3,3.162,3.162,0,0,1,3.03,2.25,1,1,0,0,0,1.94-.5A5.15,5.15,0,0,0,12,2,5,5,0,0,0,7,7V9.99A4.482,4.482,0,0,0,4.5,14v3A4.507,4.507,0,0,0,9,21.5h6A4.507,4.507,0,0,0,19.5,17V14A4.507,4.507,0,0,0,15,9.5ZM13,16a1,1,0,0,1-2,0V15a1,1,0,0,1,2,0Z"/></g></svg>