<svg width="24px" height="24px" viewBox="0 0 24 24" id="magicoon-Filled" xmlns="http://www.w3.org/2000/svg"><defs><style>.cls-1{fill:#fff;}</style></defs><title>users</title><g id="users-Filled"><path id="users-Filled-2" data-name="users-Filled" class="cls-1" d="M21,18.14v.51a3.208,3.208,0,0,1-.71,2.02.923.923,0,0,1-.74.33H16.87a4.7,4.7,0,0,0,.63-2.35v-.51a5.663,5.663,0,0,0-1.43-3.78,1.108,1.108,0,0,0,.19-.09,2.18,2.18,0,0,1,1.57-.21A4.2,4.2,0,0,1,21,18.14ZM14,4a4.078,4.078,0,0,0-.93.1,5.981,5.981,0,0,1,0,8.8A4.078,4.078,0,0,0,14,13a4.5,4.5,0,0,0,0-9ZM9,4a4.5,4.5,0,1,0,4.5,4.5A4.507,4.507,0,0,0,9,4Zm3.83,10.06A2.393,2.393,0,0,0,12.3,14a2.068,2.068,0,0,0-1.04.27,4.763,4.763,0,0,1-4.5.01A2.247,2.247,0,0,0,5.69,14a2.315,2.315,0,0,0-.46.05A4.177,4.177,0,0,0,2,18.14v.51a3.208,3.208,0,0,0,.71,2.02.923.923,0,0,0,.74.33h11.1a.923.923,0,0,0,.74-.33A3.208,3.208,0,0,0,16,18.65v-.51A4.2,4.2,0,0,0,12.83,14.06Z"/></g></svg>