<svg width="24px" height="24px" viewBox="0 0 24 24" id="magicoon-Filled" xmlns="http://www.w3.org/2000/svg"><defs><style>.cls-1{fill:#fff;}</style></defs><title>video-slash</title><g id="video-slash-Filled"><path id="video-slash-Filled-2" data-name="video-slash-Filled" class="cls-1" d="M3.134,16.579A4.451,4.451,0,0,1,2.312,14V10a4.505,4.505,0,0,1,4.5-4.5h5a4.278,4.278,0,0,1,1.867.42.5.5,0,0,1,.137.8L3.9,16.644a.505.505,0,0,1-.354.146l-.042,0A.5.5,0,0,1,3.134,16.579ZM20.853,7.85a1.561,1.561,0,0,0-1.608.078l-1.141.76A.377.377,0,0,0,17.937,9v6a.377.377,0,0,0,.167.312l1.14.759a1.572,1.572,0,0,0,2.443-1.311V9.24A1.57,1.57,0,0,0,20.853,7.85ZM20.52,4.707a1,1,0,0,0-1.415-1.414l-16,16A1,1,0,0,0,4.52,20.707l2.215-2.216c.028,0,.05.009.077.009h5a4.5,4.5,0,0,0,4.5-4.5V10a4.507,4.507,0,0,0-.108-.977Z"/></g></svg>