<?xml version="1.0" ?><svg width="512px" height="512px" viewBox="0 0 512 512" id="Layer_1" style="enable-background:new 0 0 512 512;" version="1.1" xml:space="preserve" xmlns="http://www.w3.org/2000/svg" xmlns:xlink="http://www.w3.org/1999/xlink"><style type="text/css">
	.st0{fill:#FFFFFF;}
	.st1{fill:#EDEDED;}
	.st2{fill:#7BDE9E;}
	.st3{fill:#A7E9BF;}
	.st4{fill:#333333;}
	.st5{fill:#A8B1B3;}
	.st6{fill:#D3D8D9;}
	.st7{fill:#7C8B8E;}
	.st8{fill:#FB8A8A;}
	.st9{fill:#FDDD8D;}
	.st10{fill:#F96363;}
	.st11{fill:#FDD267;}
</style><g><g><g><g><path class="st0" d="M399.8,114.6v366.9c0,10.2-8.3,18.5-18.5,18.5H22.5c-10.2,0-18.5-8.3-18.5-18.5V30.5      c0-10.2,8.3-18.5,18.5-18.5h274.6L399.8,114.6z"/></g><g><path class="st1" d="M399.8,114.6v366.9c0,10.2-8.3,18.5-18.5,18.5h-10.7V85.4L399.8,114.6z"/></g><g><path class="st2" d="M399.9,114.6h-84.2c-10.3,0-18.5-8.3-18.5-18.5V12L399.9,114.6z"/></g><g><path class="st3" d="M315.7,30.5v84.1c-5.1,0-9.8-2.1-13.1-5.5c-3.3-3.3-5.4-8-5.4-13.1V12L315.7,30.5z"/></g><path class="st4" d="M402.7,111.8L299.9,9.1c-0.8-0.8-1.8-1.2-2.8-1.2H22.5C10.1,7.9,0,18,0,30.5v451.1     c0,12.4,10.1,22.5,22.5,22.5h358.8c12.4,0,22.5-10.1,22.5-22.5V114.6C403.8,113.6,403.4,112.6,402.7,111.8z M301.2,21.6l89,89     h-74.5c-8,0-14.5-6.5-14.5-14.5V21.6z M381.3,496.1H22.5c-8,0-14.5-6.5-14.5-14.5V30.5c0-8,6.5-14.5,14.5-14.5h270.6v80.2     c0,12.4,10.1,22.5,22.5,22.5h80.1v362.9C395.8,489.5,389.3,496.1,381.3,496.1z"/><g><g><path class="st4" d="M315.7,155.8H46.9c-2.2,0-4-1.8-4-4s1.8-4,4-4h268.8c2.2,0,4,1.8,4,4S317.9,155.8,315.7,155.8z"/></g><g><path class="st4" d="M162.8,58.6h-116c-2.2,0-4-1.8-4-4s1.8-4,4-4h116c2.2,0,4,1.8,4,4S165,58.6,162.8,58.6z"/></g><g><path class="st4" d="M238.7,107.2H46.9c-2.2,0-4-1.8-4-4s1.8-4,4-4h191.9c2.2,0,4,1.8,4,4S240.9,107.2,238.7,107.2z"/></g></g></g><g><g><g><g><path class="st5" d="M271.7,342.4c-1.7,5.5-3.9,10.7-6.5,15.7l10.5,22.6l-27.9,27.9L225.2,398c-5,2.6-10.2,4.8-15.7,6.5        l-8.5,23.4h-39.5l-8.5-23.4c-5.5-1.7-10.7-3.9-15.7-6.5l-22.6,10.5l-27.9-27.9l10.5-22.6c-2.6-5-4.8-10.2-6.5-15.7l-23.4-8.5        v-39.4l23.4-8.5c1.7-5.5,3.9-10.7,6.5-15.7l-10.5-22.6l27.9-27.9l22.6,10.5c5-2.6,10.2-4.8,15.7-6.5l8.5-23.4H201l8.5,23.4        c5.4,1.7,10.7,3.9,15.7,6.5l22.6-10.5l27.9,27.9l-10.5,22.6c2.6,5,4.8,10.2,6.5,15.7l23.4,8.5v39.4L271.7,342.4z"/></g></g><g><path class="st6" d="M212.4,248.4c0,53.5-43.4,96.8-96.9,96.8c-10,0-19.7-1.5-28.8-4.4c0,0-0.1,0-0.1,0c-3-0.9-5.9-2-8.8-3.2       c0,0-0.1,0-0.1,0c-3.6-1.5-7-3.2-10.3-5.1v-38.1l23.4-8.5c1.7-5.5,3.9-10.7,6.5-15.7l-10.5-22.6l27.9-27.9l22.6,10.5       c5-2.6,10.2-4.8,15.7-6.5l8.5-23.4h38.1c2,3.5,3.8,7.2,5.4,10.9c1.1,2.6,2,5.2,2.9,7.8C210.8,228.4,212.4,238.2,212.4,248.4z"/></g><g><g><path class="st7" d="M271.6,342.4c-1.7,5.5-3.9,10.7-6.5,15.7l10.5,22.6l-27.9,27.9L225.2,398c-5,2.6-10.2,4.8-15.7,6.5        l-8.5,23.4h-39.5l-8.5-23.4c-4.1-1.3-8-2.8-11.9-4.6c0.6,0,1.1,0,1.7,0c68.6,0,124.2-55.6,124.2-124.2c0-0.6,0-1.2,0-1.8        c1.8,3.9,3.3,7.8,4.6,11.9l23.4,8.5v39.4L271.6,342.4z"/></g></g><g><path class="st0" d="M248.7,314.1c0,37.2-30.2,67.4-67.4,67.4c-37.2,0-67.4-30.2-67.4-67.4c0-37.2,30.2-67.4,67.4-67.4       C218.5,246.7,248.7,276.9,248.7,314.1z"/></g><g><path class="st1" d="M248.7,314.1c0,37.2-30.2,67.4-67.4,67.4c-23.4,0-44.1-12-56.1-30.1c10.7,7.1,23.5,11.3,37.3,11.3       c37.2,0,67.4-30.2,67.4-67.4c0-13.8-4.1-26.6-11.3-37.3C236.7,270,248.7,290.7,248.7,314.1z"/></g><g><g><path class="st4" d="M201,431.9h-39.5c-1.7,0-3.2-1.1-3.8-2.6l-7.9-21.6c-4.3-1.4-8.5-3.2-12.7-5.2l-20.8,9.7        c-1.5,0.7-3.3,0.4-4.5-0.8L84,383.5c-1.2-1.2-1.5-3-0.8-4.5l9.7-20.8c-2.1-4.1-3.8-8.4-5.3-12.7l-21.5-7.9        c-1.6-0.6-2.6-2.1-2.6-3.8v-39.4c0-1.7,1.1-3.2,2.6-3.8l21.6-7.9c1.4-4.3,3.2-8.6,5.2-12.7l-9.7-20.8        c-0.7-1.5-0.4-3.3,0.8-4.5l27.9-27.9c1.2-1.2,3-1.5,4.5-0.8l20.8,9.7c4.1-2.1,8.4-3.8,12.7-5.3l7.9-21.6        c0.6-1.6,2.1-2.6,3.8-2.6H201c1.7,0,3.2,1.1,3.8,2.6l7.9,21.6c4.4,1.5,8.6,3.2,12.6,5.2l20.8-9.7c1.5-0.7,3.3-0.4,4.5,0.8        l27.9,27.9c1.2,1.2,1.5,3,0.8,4.5l-9.7,20.8c2.1,4.1,3.8,8.4,5.3,12.7l21.6,7.9c1.6,0.6,2.6,2.1,2.6,3.8v39.4        c0,1.7-1.1,3.2-2.6,3.8l-21.6,7.9c-1.4,4.3-3.2,8.5-5.3,12.7l9.7,20.8c0.7,1.5,0.4,3.3-0.8,4.5l-27.9,27.9        c-1.2,1.2-3,1.5-4.5,0.8l-20.8-9.7c-4.1,2-8.3,3.8-12.7,5.2l-7.9,21.6C204.2,430.9,202.7,431.9,201,431.9z M164.4,423.9h33.9        l7.6-20.8c0.4-1.2,1.4-2.1,2.6-2.4c5.2-1.6,10.2-3.7,15-6.2c1.1-0.6,2.4-0.6,3.6-0.1l20,9.3l23.9-23.9l-9.3-20        c-0.5-1.1-0.5-2.4,0.1-3.6c2.6-4.9,4.6-9.9,6.2-15c0.4-1.2,1.3-2.2,2.5-2.6l20.8-7.6v-33.8l-20.8-7.6        c-1.2-0.4-2.1-1.4-2.5-2.6c-1.6-5.1-3.7-10.1-6.2-15c-0.6-1.1-0.6-2.4-0.1-3.6l9.3-20.1l-23.9-23.9l-20.1,9.3        c-1.1,0.5-2.5,0.5-3.6-0.1c-4.7-2.5-9.8-4.6-15-6.2c-1.2-0.4-2.1-1.3-2.6-2.4l-7.6-20.8h-33.9l-7.6,20.8        c-0.4,1.2-1.4,2.1-2.6,2.4c-5.1,1.6-10.1,3.7-15,6.2c-1.1,0.6-2.4,0.6-3.6,0.1l-20-9.3l-23.9,23.9l9.3,20        c0.5,1.1,0.5,2.4-0.1,3.6c-2.5,4.8-4.6,9.8-6.2,15c-0.4,1.2-1.3,2.1-2.4,2.6l-20.8,7.6v33.8l20.8,7.6c1.2,0.4,2.1,1.4,2.4,2.6        c1.6,5.1,3.7,10.2,6.2,15c0.6,1.1,0.6,2.4,0.1,3.5l-9.3,20l23.9,23.9l20-9.3c1.1-0.5,2.4-0.5,3.5,0.1c4.9,2.6,9.9,4.6,15,6.2        c1.2,0.4,2.2,1.3,2.6,2.5L164.4,423.9z"/></g></g></g><g><path class="st4" d="M181.3,385.6c-39.4,0-71.4-32-71.4-71.4c0-39.4,32-71.4,71.4-71.4c39.4,0,71.4,32,71.4,71.4      C252.7,353.5,220.7,385.6,181.3,385.6z M181.3,250.7c-35,0-63.4,28.4-63.4,63.4c0,35,28.4,63.4,63.4,63.4      c35,0,63.4-28.4,63.4-63.4C244.7,279.2,216.2,250.7,181.3,250.7z"/></g></g><g><g><g><path class="st4" d="M336.3,461.4H46.9c-2.2,0-4-1.8-4-4s1.8-4,4-4h289.5c2.2,0,4,1.8,4,4S338.5,461.4,336.3,461.4z"/></g></g></g></g><g><g><g><rect class="st1" height="287.3" width="48.3" x="436.4" y="146.1"/></g><g><polygon class="st8" points="484.7,433.3 460.5,500.1 436.4,433.3     "/></g><g><path class="st9" d="M484.7,118.4v27.7h-48.3v-27.7c0-6.6,2.7-12.7,7.1-17.1c4.4-4.4,10.4-7.1,17-7.1      C473.9,94.2,484.7,105,484.7,118.4z"/></g></g><g><g><rect class="st6" height="287.2" width="21.4" x="463.3" y="146.1"/></g><g><polygon class="st10" points="484.7,433.3 460.5,500.1 449.9,470.6 463.3,433.3     "/></g><g><path class="st11" d="M484.7,118.4v27.7h-21.4v-27.7c0-9.5-5.5-17.8-13.6-21.6c3.2-1.6,6.9-2.5,10.7-2.5      C473.9,94.2,484.7,105,484.7,118.4z"/></g></g><path class="st4" d="M508,142.1h-19.3v-23.7c0-15.5-12.6-28.2-28.2-28.2c-15.5,0-28.1,12.6-28.1,28.2c0,94.7,0,223.7,0,315    c0,0.3,0.1,1,0.2,1.4l24.1,66.7c0.6,1.6,2.1,2.6,3.8,2.6c1.7,0,3.2-1.1,3.8-2.6l24.2-66.7c0.1-0.4,0.2-1.1,0.2-1.4V150.1H504v91.7    c0,2.2,1.8,4,4,4s4-1.8,4-4v-95.7C512,143.9,510.2,142.1,508,142.1z M480.7,429.3h-40.3V150.1h40.3V429.3z M440.4,118.4    c0-11.3,9.2-20.2,20.1-20.2c11.1,0,20.2,9,20.2,20.2v23.7h-40.3V118.4z M460.5,488.3l-18.4-51H479L460.5,488.3z"/></g></g></svg>