<?xml version="1.0" ?><svg width="512px" height="512px" viewBox="0 0 512 512" id="Layer_1" style="enable-background:new 0 0 512 512;" version="1.1" xml:space="preserve" xmlns="http://www.w3.org/2000/svg" xmlns:xlink="http://www.w3.org/1999/xlink"><style type="text/css">
	.st0{fill:#7AD2FA;}
	.st1{fill:#4BC3F7;}
	.st2{fill:#A5E1FB;}
	.st3{fill:#7BDE9E;}
	.st4{fill:#51D27F;}
	.st5{fill:#A7EABF;}
	.st6{fill:#FBB381;}
	.st7{fill:#FA9957;}
	.st8{fill:#D3D8D9;}
	.st9{fill:#EDEDED;}
	.st10{fill:#A8B1B3;}
	.st11{fill:#FB8A8A;}
	.st12{fill:#333333;}
	.st13{opacity:0.4;}
	.st14{fill:#FFFFFF;}
</style><g><g><g><g><ellipse class="st0" cx="296.5" cy="215.3" rx="211.3" ry="211.3" transform="matrix(0.8871 -0.4616 0.4616 0.8871 -65.9149 161.1992)"/></g></g><g><g><path class="st1" d="M397.9,400.7c102.3-55.9,140-184.4,84-286.7c-22.3-40.7-56.1-71.3-95.2-89.7c14.7,14.4,27.7,31.2,38.1,50.2      c55.9,102.3,18.3,230.8-84,286.7c-61.6,33.6-132.5,33.4-191.5,5.6C214,429.8,314.5,446.2,397.9,400.7z"/></g></g><g><g><path class="st2" d="M206.3,406.3c-14.7-14.4-27.7-31.2-38.1-50.2c-55.9-102.3-18.3-230.8,84-286.7      c61.6-33.6,132.5-33.4,191.5-5.6C379,0.8,278.5-15.6,195.2,30c-102.3,55.9-140,184.4-84,286.7      C133.5,357.4,167.3,387.9,206.3,406.3z"/></g></g><g><g><path class="st3" d="M307.3,229.3c-14.1,15.9-13.3,43.3,2.3,58.5c7,7,16.6,11.2,23.7,18.5c7.2,7.2,11.2,19.4,5.3,27.3      c-6.6,8.1-19.7,6.5-29.3,2.3c-9.6-4.2-19.5-10.1-29.9-8.4c-13.8,2.3-21.6,19.2-18.1,32.8c3.4,13.4,15,23.4,27.8,29.7      c12.4,6.2,26.1,9.6,39,14.7c8.1,3.4,16.4,8.2,21,15.3c6.6-1.8,13.3-3.8,19.9-6.2c41.2-15.1,74.8-41.5,98.5-74.6      c-5.8-5.9-13.6-10.8-20.3-14.7c-10.1-6.4-21.4-11.2-32.8-14.5c-8.6-2.2-17.2-3.9-25.1-8.2c-15.9-8.7-24.4-29.4-18.8-46.8      c1.5-5.5,4.6-10.9,4-16.6c-0.6-5.7-4.4-10.5-9.1-14.2C348.8,210.8,321.6,213,307.3,229.3z"/></g></g><g><g><path class="st4" d="M349.2,420c6.6-1.8,13.3-3.8,19.9-6.2c41.2-15.1,74.8-41.5,98.5-74.6c-5.8-5.9-13.6-10.8-20.2-14.6      c-10.1-6.4-21.4-11.2-32.8-14.5c-3.3-0.8-6.5-1.6-9.7-2.5c-17,21.4-38.5,39.9-64,53.8c-20.1,11-41.1,18.3-62.4,22.3      c3.3,2.5,7,4.6,10.7,6.5c12.4,6.2,26.1,9.6,39,14.7C336.4,408.2,344.6,413,349.2,420z"/></g></g><g><g><path class="st3" d="M367.1,16.2c-0.5,2.7-1.2,5.5-2.3,8.1c-4.1,9.9-12.3,17.4-20.3,24.6c-7.9,7.1-16.2,14.7-20,24.7      c-3.8,10-1.7,23.1,7.5,28.7c15.5,9.2,36.5-8.7,52.8-0.9c5.8,12.5-11.5,28-4.3,39.8c4.3,7.1,14.5,7.3,22.7,5.9      c8.2-1.5,17.6-3.4,24.1,1.8c6.9,5.3,6.8,15.9,3.9,24.1c-3,8.2-8.3,15.6-9.9,24.2c-2.8,14.3,5.4,29.5,17.7,37.3      c12.3,7.9,27.9,9.5,42.4,7.3c8-1.2,16.6-3.1,25.3-5.8c0.2-1.3,0.3-2.6,0.4-4C514.8,134.5,455.1,47.3,367.1,16.2z"/></g></g><g><g><path class="st4" d="M481.5,241.8c8-1.3,16.6-3.1,25.3-5.8c0.2-1.3,0.3-2.7,0.4-4c5.2-65.3-20-126.1-63.6-168.4c0,0,0,0-0.1,0      c-10.8-5.1-22-9.2-33.4-12.3c5.4,7.4,10.4,15.1,14.8,23.3c28.2,51.5,32.6,109.5,17,161.7C453.7,242.7,468.1,243.9,481.5,241.8z"/></g></g><g><g><path class="st3" d="M263,6.8C184.7,19.3,117.8,75.7,94.2,154.5c2.7-0.7,5.4-1.4,8.1-1.7c20.3-3,42,6.9,52.9,24.4      c2.4,3.8,4.4,8,7.2,11.6c8.1,10.3,23.5,14.2,35.4,8.9c12-5.4,19.5-19.3,17.2-32.2c-1.5-9.1-7.1-16.8-11.2-25      c-4-8.2-6.3-18.5-1.4-26.2c4.5-7.1,13.9-9.8,22.3-9.5c8.4,0.4,16.6,3.1,25,4.2c8.4,1,17.7,0,23.8-5.9c6.5-6.3,7.5-16.6,5.3-25.4      c-2.1-8.7-6.8-16.7-10.2-25.1c-4.7-11.5-6.8-24-6.5-36.4C262.3,12.9,262.6,9.8,263,6.8z"/></g></g><g><g><path class="st5" d="M156.4,179.1c17.3-45.2,50.1-84.7,95.9-109.7c6.5-3.5,13-6.7,19.7-9.4c-1.1-2.5-2.3-4.9-3.3-7.5      c-4.7-11.5-6.7-24-6.4-36.4c0.1-3.1,0.3-6.3,0.8-9.3c-78.3,12.6-145.2,69-168.8,147.8c2.7-0.7,5.4-1.4,8.1-1.7      c20.3-3,42,7,52.9,24.4C155.6,177.8,156,178.4,156.4,179.1z"/></g></g></g><g><g><g><path class="st6" d="M116.7,407.1l-50.1,84.4c-10.2,17.1-32.9,21.7-48.9,9.8c-9-6.6-13.6-16.8-13.6-27c0-8.1,2.9-16.2,8.8-22.7      l66.2-72.4L116.7,407.1z"/></g><g><path class="st7" d="M116.7,407.1l-50.1,84.4c-10.2,17.1-32.9,21.7-48.9,9.8c-8-5.8-12.5-14.5-13.4-23.5      c0.8,0.7,1.7,1.5,2.6,2.1c16,11.9,38.7,7.3,48.9-9.8l44.6-75.1L116.7,407.1z"/></g><g><g><path class="st8" d="M93.4,333.5L70,365c-2.7,3.7-1.9,8.8,1.7,11.5l48.9,36.3c3.7,2.7,8.8,1.9,11.5-1.7l23.3-31.5L93.4,333.5z"/></g></g><g><g><path class="st9" d="M88.8,388.8l-0.2-0.1c-3.7-2.7-4.4-7.9-1.7-11.6l23.1-31.2l-16.8-12.4L70,365c-2.7,3.7-1.9,8.9,1.7,11.6       l16.9,12.5C88.7,389,88.8,388.9,88.8,388.8z"/></g></g><g><g><path class="st10" d="M102.9,398.8l0.2,0.1c3.5,2.9,8.7,2.4,11.6-1.1l24.8-29.9l16.1,13.3l-25,30.2c-2.9,3.5-8.2,4-11.6,1.1       l-16.2-13.4C102.8,399,102.8,398.9,102.9,398.8z"/></g></g><g><path class="st11" d="M261.7,171.1c-54.4-40.4-131.2-29-171.5,25.5C49.9,251,61.3,327.8,115.7,368.2      c54.4,40.3,131.2,28.9,171.5-25.5C327.6,288.2,316.1,211.5,261.7,171.1z M262.5,324.4c-30.2,40.7-87.8,49.2-128.5,19.1      c-40.7-30.2-49.3-87.8-19.1-128.5c30.2-40.7,87.9-49.2,128.5-19.1C284.1,226,292.7,283.6,262.5,324.4z"/><g><path class="st12" d="M485.4,112.1C428.3,7.7,297.7-30.6,193.3,26.4C127.3,62.5,86.4,128.6,81.7,202       c-27.2,43-25.4,97.4,1.8,138.1l-16.7,22.5c-4,5.4-2.9,13.1,2.5,17.1l2.3,1.7L10,449c-14.8,16.2-12.9,42,5.4,55.5       c17.8,13.3,43.3,8.2,54.7-11l46.7-78.7l1.5,1.1c5.4,4,13.1,2.9,17.1-2.5l16.8-22.6c8.9,2.7,18,4.4,27.1,5       c64.3,41.7,148.4,47.7,220.5,8.4c50.4-27.6,87.1-73.1,103.3-128.3C519.2,220.7,513,162.5,485.4,112.1z M197.1,33.5       c19.5-10.6,40.1-18,61.3-22c-1.1,13.7,1,28.9,6.5,42.5c3.4,8.5,8,16.3,10,24.6c4.2,17.4-4.9,28.9-24.7,26.4       c-8.2-1-16.5-3.8-25.3-4.2c-24.1-1.1-37.2,17.8-24,42.7c-21.9-2.1-44.6,1.6-65.3,11.1c-10.9-5.4-22.9-7.6-35.5-5.5       C116.8,99.6,151,58.7,197.1,33.5z M97.4,157.9c9.1-2.2,18.5-2.4,29.1,1.4c-13.5,7.6-25.5,17.6-35.5,29.9       C92.3,178.7,94.4,168.2,97.4,157.9z M63.2,489.5c-8.9,15-29,19.2-43.1,8.7C5.6,487.4,4.4,467,15.9,454.4l62.2-68.2l32.1,23.8       L63.2,489.5z M129,408.7c-1.4,1.9-4.1,2.3-6,0.9l-48.9-36.3c-1.9-1.4-2.3-4.1-0.9-6l15.2-20.5c7,9.1,15.3,17.3,24.9,24.5       c9.7,7.2,20.1,12.8,30.9,16.8L129,408.7z M118.1,364.9c-52.5-39-63.6-113.4-24.7-166c39-52.7,113.2-63.7,166-24.6c0,0,0,0,0,0       c25.4,18.9,42,46.5,46.7,77.8c4.7,31.3-3.2,62.6-22.1,88.1C245.1,392.8,170.6,403.9,118.1,364.9z M312.7,295.6       c2,1.5,4.1,3,6.2,4.4c4.2,2.9,8.3,5.6,11.7,9.1c5.9,5.9,9.4,16.1,5,22c-6.4,7.9-20,3.4-29.2-0.9c-1.7-0.8-3.4-1.6-5.2-2.3       C306.5,317.6,310.3,306.7,312.7,295.6z M195.3,396c23.9-1.3,47.3-9.3,67.2-23.5c5.2,8.2,13.7,15.5,24.9,21.1       c20.1,10.1,42,12.4,54.4,23.9C291.5,428.8,239.3,420.6,195.3,396z M395.9,397.2c-14.6,8-29.8,14-45.2,18.1       C337.8,399.2,312,397,291,386.4c-6.4-3.2-16.3-9.4-22.1-18.8c7.9-6.5,15.2-14,21.5-22.6c2.5-3.3,4.7-6.7,6.8-10.2       c1.9,0.8,3.8,1.6,5.7,2.5c13.3,6.2,29.6,9.9,38.9-1.4c7.5-9.9,2.7-24.2-5.6-32.5c-3.9-4-8.5-7.1-12.9-10.1       c-3.3-2.2-6.3-4.4-9.1-6.9c1.5-11.6,1.5-23.5-0.3-35.4c-0.9-6.3-2.3-12.5-4.2-18.5c0.2-0.2,0.3-0.4,0.5-0.6       c12.8-14.6,37.6-16.8,52.9-4.7c9.6,7.6,8.4,13.2,5.5,21.3c-9.2,25.7,1.9,47.4,19,56.7c16.5,9,31.2,5.8,57.7,22.6       c6,3.5,12,7.4,17,11.8C444.8,363.1,422.3,382.7,395.9,397.2z M495.4,273.6c-6.3,21.6-16,41.6-28.4,59.6       c-5.4-4.6-11.6-8.6-17.5-12.1c-27.2-17.3-43.2-14.8-58-22.8c-13.7-7.5-23.1-25.5-15.3-47c3.9-10.9,4.6-20.3-8-30.3       c-17.5-13.8-45.2-12.1-61.3,3.1c-8.5-22.2-23.1-41.6-42.7-56.1v0c-16.1-11.9-34.3-19.7-53.4-23c-1.1-2.1-2.3-4.1-3.3-6.2       c-9.3-19.2-0.4-30.6,17.1-29.9c7.9,0.4,16.3,3.1,24.7,4.2c25.7,3.2,38.9-13.7,33.5-36.2c-2.3-9.2-7-17.3-10.3-25.7       c-5-12.3-7.2-26.8-5.8-40.8c32.4-4.7,64.3-1.9,95.8,8.7c-3.1,11.2-11.7,19.1-20.5,27c-7.5,6.7-16.8,15-21.1,26.3       c-5.2,13.7-3.4,44.7,39,33.9c24.7-6.3,25-2.3,18.8,13.6c-10.2,26,4.2,35,25.3,31.4c0.5,0.1,33.8-7.7,23.5,20.6       c-3,8-8.3,15.5-10.1,24.8c-3,15.2,5,32.3,19.5,41.4c9.1,5.8,20.4,8.8,32.8,8.8c4,0,8.2-0.3,12.4-1c6.8-1,13.5-2.5,20-4.3       C500.7,252.3,498.5,263,495.4,273.6z M480.8,237.9c-15.2,2.3-29.3,0-39.7-6.7c-11.8-7.5-18.3-21.1-16-33.2       c1.5-7.9,6.6-15.2,9.7-23.6c14.6-40.5-32-31.1-32.4-31.2c-19.2,3.3-23.1-3.8-16.5-20.6c10.5-26.9-0.2-31.4-28.2-24.2       c-29.8,7.6-35-9.2-29.6-23.3c3.6-9.5,12.1-17.1,18.9-23.2C357,43,366.3,34.3,370,21.6c46.3,17.5,84.4,50.5,108.4,94.3       c19.8,36.3,28.2,76.7,24.7,117C495.8,235,488.4,236.7,480.8,237.9z"/><path class="st12" d="M265.7,326.7c15.2-20.5,21.5-45.8,17.8-71.2c-3.8-25.4-17.2-47.7-37.7-62.9       c-42.5-31.5-102.6-22.6-134.1,19.9c-15.2,20.5-21.5,45.8-17.8,71.2c3.8,25.4,17.2,47.7,37.7,62.9       C174,378,234.2,369.3,265.7,326.7z M136.4,340.2c-18.8-14-31.1-34.4-34.6-57.7c-3.5-23.2,2.3-46.4,16.3-65.2       c28.9-38.9,84-47.1,122.9-18.2c18.8,14,31.1,34.4,34.6,57.7c3.5,23.2-2.3,46.4-16.3,65.2C230.4,360.9,175.4,369.1,136.4,340.2z       "/></g></g></g><g><ellipse class="st0" cx="188.7" cy="269.6" rx="91.9" ry="91.9" transform="matrix(0.651 -0.759 0.759 0.651 -138.8157 237.3232)"/></g><g class="st13"><g><path class="st14" d="M258.7,210.1l-57.3,150.5c-12.8,1.8-26.1,0.9-38.7-2.9l65.2-171.2c5.4,2.5,10.6,5.6,15.6,9.3      C249.1,200.1,254.2,204.9,258.7,210.1z"/></g><g><path class="st14" d="M209.5,180.1l-64.8,170.1c-3.6-2-7.2-4.3-10.6-6.8c-40.7-30.2-49.3-87.8-19.1-128.5      C137.3,184.7,174.9,172.2,209.5,180.1z"/></g></g><g><path class="st12" d="M131.6,346.7L131.6,346.7c-42.5-31.5-51.4-91.7-19.9-134.1c31.5-42.4,91.5-51.5,134.1-19.9     c20.5,15.2,33.9,37.6,37.7,62.9s-2.5,50.6-17.8,71.2C234.2,369.2,174.1,378.2,131.6,346.7z M136.4,340.2     c38.9,28.9,94,20.7,122.9-18.3c14-18.8,19.7-42,16.3-65.2c-3.5-23.2-15.7-43.7-34.6-57.7c-38.9-28.9-94-20.7-122.9,18.3     C89.2,256.2,97.4,311.4,136.4,340.2L136.4,340.2z"/></g></g></g></svg>