<?xml version="1.0" ?><svg width="512px" height="512px" viewBox="0 0 512 512" id="Layer_1" style="enable-background:new 0 0 512 512;" version="1.1" xml:space="preserve" xmlns="http://www.w3.org/2000/svg" xmlns:xlink="http://www.w3.org/1999/xlink"><style type="text/css">
	.st0{fill:#D3D8D9;}
	.st1{fill:#EDEDED;}
	.st2{fill:#A8B1B3;}
	.st3{fill:#FB8A8A;}
	.st4{fill:#FCB1B1;}
	.st5{fill:#F96363;}
	.st6{fill:#FFFFFF;}
	.st7{fill:#333333;}
	.st8{fill:#7AD1F9;}
	.st9{fill:#A6E1FB;}
	.st10{fill:#4CC3F7;}
</style><g><g><path class="st0" d="M403.2,480.4c0,15.3-12.4,27.6-27.6,27.6H136.4c-15.3,0-27.6-12.3-27.6-27.6s12.3-27.6,27.6-27.6    c5.5,0,10.6,1.6,14.9,4.4c1.7-13.6,13.3-24.1,27.4-24.1c5.5,0,10.7,1.6,15,4.4c1.7-13.6,13.3-24.2,27.4-24.2v-35.4h69.7v35.4    c14.1,0,25.7,10.6,27.4,24.2c4.3-2.8,9.5-4.4,15-4.4c14.1,0,25.7,10.5,27.4,24.1c4.3-2.8,9.4-4.4,14.9-4.4    C390.8,452.8,403.2,465.1,403.2,480.4z"/></g><g><path class="st1" d="M237,377.8v51.2c-14.1,0-25.7,10.6-27.4,24.2c-4.3-2.8-9.4-4.4-15-4.4c-14.1,0-25.8,10.5-27.4,24.1    c-4.3-2.8-9.4-4.4-14.9-4.4c-15.3,0-27.6,12.4-27.6,27.6c0,3.5,0.6,6.8,1.9,9.9c-10.4-3.9-17.7-14-17.7-25.7    c0-15.2,12.4-27.6,27.6-27.6c5.5,0,10.6,1.6,15,4.4c1.7-13.6,13.3-24.1,27.4-24.1c5.5,0,10.7,1.6,15,4.4    c1.7-13.6,13.3-24.2,27.4-24.2v-35.4H237z"/></g><g><path class="st2" d="M275,377.8v51.2c14.1,0,25.7,10.6,27.4,24.2c4.3-2.8,9.4-4.4,15-4.4c14.1,0,25.8,10.5,27.4,24.1    c4.3-2.8,9.4-4.4,14.9-4.4c15.3,0,27.6,12.4,27.6,27.6c0,3.5-0.6,6.8-1.9,9.9c10.4-3.9,17.7-14,17.7-25.7    c0-15.2-12.4-27.6-27.6-27.6c-5.5,0-10.6,1.6-15,4.4c-1.7-13.6-13.3-24.1-27.4-24.1c-5.5,0-10.7,1.6-15,4.4    c-1.7-13.6-13.3-24.2-27.4-24.2v-35.4H275z"/></g><g><g><g><path class="st3" d="M403.8,354c0,9.8-1.7,19.3-4.7,28.2c-1.1,3.2-5.3,4-7.4,1.3c-16.6-22.2-42.9-36.7-72.6-37.2      c6.6-22.8,12.3-49.1,15.6-77.5C374.2,277.1,403.8,312.1,403.8,354z"/></g><g><path class="st3" d="M192.8,346.3c-29.6,0.6-56,15-72.6,37.2c-2,2.7-6.3,1.9-7.4-1.3c-3-8.9-4.6-18.4-4.6-28.2      c0-41.9,29.6-76.9,69-85.3C180.4,297.2,186.2,323.4,192.8,346.3z"/></g></g><g><g><path class="st4" d="M403.8,354c0,3.5-0.2,6.9-0.6,10.3c-4.4-37.3-32.3-67.4-68.4-75c-2.3,20.3-5.9,39.6-10.2,57.2      c-1.8-0.2-3.6-0.2-5.4-0.3c6.6-22.8,12.3-49.1,15.6-77.5C374.2,277.1,403.8,312.1,403.8,354z"/></g><g><path class="st4" d="M192.8,346.3c-1.8,0-3.6,0.1-5.4,0.3c-4.3-17.6-7.9-36.9-10.2-57.2c-36.2,7.6-64.1,37.7-68.4,75      c-0.4-3.4-0.6-6.8-0.6-10.3c0-41.9,29.6-76.9,69-85.3C180.4,297.2,186.2,323.4,192.8,346.3z"/></g></g><g><g><path class="st5" d="M403.8,354c0,9.8-1.7,19.3-4.7,28.2c-1.1,3.2-5.3,4-7.4,1.3c-16.6-22.2-42.9-36.7-72.6-37.2      c2-7,4-14.3,5.7-21.9c27.3,2.2,51.3,16.2,66.8,37c2,2.7,6.3,1.9,7.4-1.3c1.8-5.5,3.2-11.2,4-17.1      C403.6,346.6,403.8,350.3,403.8,354z"/></g><g><path class="st5" d="M192.8,346.3c-29.6,0.6-56,15-72.6,37.2c-2,2.7-6.3,1.9-7.4-1.3c-3-8.9-4.6-18.4-4.6-28.2      c0-3.8,0.2-7.4,0.7-11.1c0.7,5.9,2.1,11.6,3.9,17.1c1.1,3.2,5.4,4,7.4,1.3c15.5-20.8,39.6-34.8,66.8-37      C188.8,332,190.8,339.3,192.8,346.3z"/></g></g><g><polygon class="st3" points="305,369.5 296.6,393.7 215.4,393.7 207,369.5    "/></g><g><polygon class="st4" points="229.6,393.7 215.4,393.7 207,369.5 221.2,369.5    "/></g><g><polygon class="st5" points="305,369.5 296.6,393.7 282.4,393.7 290.8,369.5    "/></g><g><path class="st6" d="M311.8,369.5c13.5-38.8,25.8-91.6,25.8-149.8C337.6,100.6,256,3.9,256,3.9s-81.6,96.6-81.6,215.8     c0,58.2,12.3,111,25.8,149.8H311.8z"/></g><g><path class="st1" d="M195.3,219.7c0,58.2,12.3,111,25.8,149.8h-20.9c-13.5-38.8-25.8-91.6-25.8-149.8     C174.4,100.5,256,3.9,256,3.9s4.1,4.8,10.5,13.7C244.4,48.4,195.3,127.3,195.3,219.7z"/></g><g><path class="st1" d="M337.6,219.7c0,58.2-12.3,111-25.8,149.8h-20.9c13.5-38.8,25.8-91.6,25.8-149.8     c0-92.5-49.2-171.3-71.2-202.1C251.9,8.8,256,3.9,256,3.9S337.6,100.5,337.6,219.7z"/></g><g><path class="st3" d="M297.1,67.6C276.6,28.3,256,3.9,256,3.9s-20.6,24.4-41.1,63.7H297.1z"/></g><g><path class="st4" d="M258,6.5c-3.8,7.2-14.9,29.2-23.7,61.2h-19.4c20.5-39.3,41-63.7,41-63.7S256.7,4.8,258,6.5z"/></g><g><path class="st5" d="M254,6.5c3.8,7.2,14.9,29.2,23.7,61.2h19.4c-20.5-39.3-41-63.7-41-63.7S255.3,4.8,254,6.5z"/></g><path class="st7" d="M375.6,448.8c-4.2,0-8.3,0.8-12.2,2.4c-5.5-17.6-25.1-26.9-42.4-19.7c-3.6-11.7-13.9-20.4-26.2-22v-11.9h1.8    c1.7,0,3.2-1.1,3.8-2.7l7.4-21.4h4c1.7,0,3.2-1.1,3.8-2.7c2.1-6.2,4.4-13,6.6-20.4c26.4,1.4,50.5,14.2,66.4,35.5    c1.6,2.1,4,3.3,6.5,3.3c0.4,0,0.9,0,1.3-0.1c3.1-0.5,5.6-2.6,6.6-5.5c3.2-9.6,4.9-19.5,4.9-29.5c0-41.6-28.7-78.1-68.7-88.3    c1.6-14.6,2.5-30,2.5-46c0-119.3-81.7-217.4-82.6-218.4c-1.5-1.8-4.6-1.8-6.1,0c-0.8,1-82.6,99.1-82.6,218.4c0,16,0.9,31.4,2.5,46    c-40,10.2-68.7,46.7-68.7,88.3c0,10,1.6,20,4.8,29.5c1,2.9,3.5,5.1,6.6,5.5c0.4,0.1,0.9,0.1,1.3,0.1c2.5,0,5-1.2,6.5-3.3    c15.9-21.3,40-34.1,66.4-35.5c2.2,7.4,4.4,14.3,6.6,20.4c0.6,1.6,2.1,2.7,3.8,2.7h4l7.5,21.4c0.6,1.6,2.1,2.7,3.8,2.7h1.7v11.9    c-12.3,1.6-22.5,10.2-26.2,22c-17.2-7.2-36.9,2-42.4,19.7c-3.8-1.6-8-2.4-12.2-2.4c-17.5,0-31.6,14.2-31.6,31.6    c0,17.4,14.2,31.6,31.6,31.6h239.2c17.5,0,31.6-14.2,31.6-31.6C407.2,463,393,448.8,375.6,448.8z M399.8,354    c0,9.1-1.5,18.1-4.5,26.9c0,0-0.4,0.2-0.4,0.2c-17-22.7-42.5-36.6-70.6-38.6c5.5-19.7,10.6-42.9,13.8-68.7    C374.2,283.4,399.8,316.4,399.8,354z M256,10.3c6,7.7,19.9,26.6,34.3,53.3h-68.6C236.1,37,250,18.1,256,10.3z M117,381.1l-0.4-0.2    c-2.9-8.7-4.4-17.8-4.4-26.9c0-37.6,25.7-70.6,61.6-80.2c3.2,25.8,8.3,49,13.8,68.7C159.5,344.5,134,358.4,117,381.1z M203,365.5    c-11.5-33.7-24.6-85.6-24.6-145.8c0-57.3,19.4-109.6,39.1-148.1h77c19.8,38.5,39.1,90.8,39.1,148.1c0,60.2-13.2,112.1-24.6,145.8    C287.7,365.5,224.4,365.5,203,365.5z M212.6,373.5h86.8l-5.6,16.1h-75.6L212.6,373.5z M375.6,504H136.4c-13,0-23.6-10.6-23.6-23.6    c0-13,10.6-23.6,23.6-23.6c4.5,0,8.9,1.3,12.8,3.8c1.2,0.7,2.6,0.8,3.9,0.3c1.2-0.6,2.1-1.8,2.3-3.1c2.1-17.1,21.6-26.3,36.3-16.8    c1.2,0.7,2.6,0.8,3.9,0.3c1.2-0.6,2.1-1.8,2.3-3.1c1.5-11.8,11.5-20.7,23.4-20.7c2.2,0,4-1.8,4-4v-15.6h61.7v15.6c0,2.2,1.8,4,4,4    c11.9,0,22,8.9,23.4,20.7c0.2,1.4,1,2.6,2.3,3.1c1.2,0.6,2.7,0.5,3.9-0.3c14.7-9.5,34.1-0.2,36.3,16.9c0.2,1.4,1,2.5,2.3,3.1    c1.2,0.6,2.7,0.5,3.9-0.3c3.8-2.5,8.2-3.8,12.8-3.8c13,0,23.6,10.6,23.6,23.6C399.2,493.4,388.6,504,375.6,504z"/><g><circle class="st8" cx="256" cy="152.4" r="36.8"/></g><g><path class="st9" d="M261.6,124.3c0,18.6-15.1,33.8-33.8,33.8c-2.9,0-5.7-0.4-8.4-1.1c-0.2-1.5-0.3-3-0.3-4.6     c0-20.3,16.5-36.8,36.8-36.8c1.5,0,3.1,0.1,4.6,0.3C261.3,118.6,261.6,121.4,261.6,124.3z"/></g><g><path class="st10" d="M292.8,152.4c0,20.3-16.5,36.8-36.8,36.8c-14.2,0-26.6-8.1-32.7-20c5,2.6,10.8,4.1,16.8,4.1     c20.4,0,36.8-16.5,36.8-36.8c0-6.1-1.5-11.8-4.1-16.8C284.7,125.8,292.8,138.2,292.8,152.4z"/></g><g><path class="st7" d="M256,193.2c-22.5,0-40.8-18.3-40.8-40.8c0-22.5,18.3-40.8,40.8-40.8c22.5,0,40.8,18.3,40.8,40.8     C296.8,174.9,278.5,193.2,256,193.2z M256,119.6c-18.1,0-32.8,14.7-32.8,32.8c0,18.1,14.7,32.8,32.8,32.8     c18.1,0,32.8-14.7,32.8-32.8C288.8,134.3,274.1,119.6,256,119.6z"/></g></g></g></svg>