<?xml version="1.0" ?><svg width="512px" height="512px" viewBox="0 0 512 512" id="Layer_1" style="enable-background:new 0 0 512 512;" version="1.1" xml:space="preserve" xmlns="http://www.w3.org/2000/svg" xmlns:xlink="http://www.w3.org/1999/xlink"><style type="text/css">
	.st0{fill:#B18B73;}
	.st1{fill:#C4A896;}
	.st2{fill:#9D6E50;}
	.st3{fill:#FBB381;}
	.st4{fill:#FA9957;}
	.st5{fill:none;}
	.st6{fill:#7AD1F9;}
	.st7{fill:#A6E1FB;}
	.st8{fill:#4CC3F7;}
	.st9{fill:#D3F0FD;}
	.st10{fill:#FB8A8A;}
	.st11{fill:#FCB1B1;}
	.st12{fill:#F96363;}
	.st13{fill:#333333;}
	.st14{fill:#A8B1B3;}
	.st15{fill:#D3D8D9;}
	.st16{fill:#7C8B8E;}
	.st17{fill:#FFFFFF;}
	.st18{fill:#EDEDED;}
</style><g><g><g><path class="st0" d="M449.9,436.7L321.8,332.4L289.2,365l104.3,128.2c15,18.5,42.7,19.9,59.5,3.1l0,0     C469.8,479.4,468.4,451.7,449.9,436.7z"/></g><g><g><polygon class="st1" points="375.7,376.3 333.1,418.9 289.2,365 321.8,332.4     "/></g></g><g><path class="st2" d="M464.8,467.9c0,10.2-3.9,20.5-11.8,28.4c-16.8,16.8-44.5,15.4-59.5-3l-5.8-7.2c15.3,9.3,35.8,7.6,49.2-5.9     c7.9-7.9,11.7-18.2,11.7-28.4c0-7.2-1.9-14.4-5.7-20.7l7.1,5.8C459.8,444.7,464.8,456.2,464.8,467.9z"/></g><g><g><path class="st3" d="M332.3,323.8l26.2,26.2c3,3,3,8,0,11l-40.7,40.7c-3,3-8,3-11,0l-26.2-26.2L332.3,323.8z"/></g></g><g><g><path class="st4" d="M358.5,361l-40.7,40.8c-3.1,3-8,3-11.1,0l-10.5-10.5c3.1,3,8,3,11.1,0l40.7-40.8c3.1-3,3.1-8,0-11      l10.5,10.5C361.6,353,361.6,358,358.5,361z"/></g></g><g><g><path class="st5" d="M332.3,323.8l26.2,26.2c3,3,3,8,0,11l-40.7,40.7c-3,3-8,3-11,0l-26.2-26.2L332.3,323.8z"/></g></g><g><ellipse class="st6" cx="204.1" cy="247.3" rx="156.8" ry="156.8" transform="matrix(0.7071 -0.7071 0.7071 0.7071 -115.1103 216.7302)"/></g><g><path class="st7" d="M239,273.7c-51.7,51.7-135.5,51.7-187.2,0c-1-1-1.9-2-2.8-3c-7.2-47.5,7.6-97.7,44.2-134.3     c42-42,101.8-55.1,155-39.6C290.5,148.9,287.3,225.4,239,273.7z"/></g><g><path class="st8" d="M314.9,358.2c-61.2,61.3-160.5,61.3-221.7,0c-11.4-11.5-20.7-24.3-27.9-37.8c61.5,48.9,151.3,44.9,208.2-12     c49.8-49.8,59.1-124.6,28-183.7c4.6,3.6,9.1,7.6,13.3,11.9C376.2,197.7,376.2,296.9,314.9,358.2z"/></g><g><ellipse class="st9" cx="204.1" cy="247.3" rx="122.7" ry="122.7" transform="matrix(0.7071 -0.7071 0.7071 0.7071 -115.1104 216.7301)"/></g><g><path class="st10" d="M89.7,115.6c-1,76.4,113.4,180,113.4,180s114.3-100.5,115.3-177C319.2,56.2,268.7,4.9,205.5,4     S90.5,53.1,89.7,115.6z"/></g><g><path class="st11" d="M213.1,70.3c-0.7,49.2-48.2,108.4-82,144.3c-22.7-31.5-41.8-67.6-41.4-99C90.5,57.4,135.5,10,192.8,4.5     C205.9,23.2,213.4,45.9,213.1,70.3z"/></g><g><path class="st12" d="M318.4,118.7c-1,76.4-115.3,176.9-115.3,176.9s-15-13.6-34.1-34.6c28-26.7,104.3-105.1,105.1-167.5     c0.4-33.4-13.8-63.6-36.8-84.7C284.8,23.1,319.1,67.1,318.4,118.7z"/></g><path class="st13" d="M464,447.9c-2.8-5.4-6.7-10.3-11.5-14.3l-89.1-72.5c2.7-4.9,1.5-10.4-2-13.9l-18.5-18.5    c14.4-24.4,22-52.3,22-81.3c0-21.5-4.2-42.3-12.1-61.6c-7.5-18.1-18.5-34.8-32.4-49.4c1.2-6,2-11.8,2-17.6    C323.3,53.4,270.1,0,203.9,0C139.4,0,86.5,51.2,85.7,115.6c-0.1,6.7,0.7,13.7,2.2,20.7c-28.8,30.1-44.6,69.3-44.6,111    c0,42.9,16.7,83.3,47.1,113.7c53,53,133.7,60.9,195,25l18.6,18.6c3.5,3.5,9,4.6,13.9,2l72.5,89.1c16.5,20.2,46.9,21.9,65.5,3.4    C469.2,485.7,472.6,465,464,447.9z M204,8c61.9,0,111.2,50,110.4,110.7c-0.9,67.3-94.1,155.9-111.3,171.6    C186.1,274.2,92.8,183,93.7,115.7C94.5,55.9,143.6,8,204,8z M302.8,181.7c12.9,19.3,19.8,41.9,19.8,65.6    c0,31.7-12.3,61.5-34.7,83.9c-46.3,46.3-121.5,46.3-167.8,0c-40.6-40.6-45.5-103.5-14.8-149.6c31.9,59.3,91.6,113.8,95,117    c0.8,0.7,1.7,1,2.7,1c0.9,0,1.9-0.3,2.6-1C209.2,295.6,270.5,241.1,302.8,181.7z M96,355.3c-28.9-28.9-44.8-67.2-44.8-108    c0-37.9,13.8-73.8,38.9-101.8c2.7,9.3,6.5,18.7,11.1,28C65.7,223,70.1,292.4,114.5,336.9c49.4,49.4,129.7,49.4,179.1,0    c44.4-44.4,48.9-113.8,13.4-163.3c4.6-9.3,8.4-18.7,11-28c25.1,28,38.8,63.8,38.8,101.7c0,40.8-15.9,79.2-44.8,108    C252.5,415,155.8,415.1,96,355.3z M309.6,398.9l-17.2-17.2c9-5.9,17.5-12.8,25.4-20.7c7.8-7.9,14.8-16.4,20.7-25.4l17.2,17.2    c1.5,1.5,1.5,3.9,0,5.4L315,398.9C313.5,400.4,311,400.4,309.6,398.9z M450.2,493.4c-15.1,15.1-40.1,13.9-53.6-2.7l-72.7-89.4    l34.2-34.2l89.3,72.7C463.9,453.2,465.4,478.2,450.2,493.4z"/></g><g><g><g><g><path class="st14" d="M267,137.8c-1.2,3.8-2.7,7.4-4.5,10.9l7.3,15.7l-19.4,19.4l-15.7-7.3c-3.5,1.8-7.1,3.3-10.9,4.5       l-5.9,16.3h-27.5l-5.9-16.3c-3.8-1.2-7.4-2.7-10.9-4.5l-15.7,7.3l-19.4-19.4l7.3-15.7c-1.8-3.5-3.3-7.1-4.5-10.9l-16.3-5.9       v-27.5l16.3-5.9c1.2-3.8,2.7-7.4,4.5-10.9l-7.3-15.7l19.4-19.4l15.7,7.3c3.5-1.8,7.1-3.4,10.9-4.5l5.9-16.3h27.5l5.9,16.3       c3.8,1.2,7.4,2.7,10.9,4.5l15.8-7.3l19.4,19.4l-7.3,15.8c1.8,3.5,3.4,7.1,4.5,10.9l16.3,5.9v27.5L267,137.8z"/></g></g><g><path class="st15" d="M225.7,72.3c0,37.3-30.2,67.5-67.5,67.5c-7,0-13.7-1.1-20.1-3c0,0,0,0-0.1,0c-2.1-0.6-4.1-1.4-6.1-2.2      c0,0,0,0-0.1,0c-2.5-1-4.9-2.2-7.2-3.6v-26.5l16.3-5.9c1.2-3.8,2.7-7.4,4.5-10.9l-7.3-15.7l19.5-19.4l15.7,7.3      c3.5-1.8,7.1-3.3,10.9-4.5l5.9-16.3h26.5c1.4,2.5,2.7,5,3.7,7.6c0.7,1.8,1.4,3.6,2,5.5C224.6,58.4,225.7,65.2,225.7,72.3z"/></g><g><g><path class="st16" d="M267,137.8c-1.2,3.8-2.7,7.4-4.5,10.9l7.3,15.7L250.4,184l-15.7-7.3c-3.5,1.8-7.1,3.3-10.9,4.5l-5.9,16.3       h-27.5l-5.9-16.3c-2.8-0.9-5.6-2-8.3-3.2c0.4,0,0.8,0,1.2,0c47.8,0,86.6-38.7,86.6-86.6c0-0.4,0-0.8,0-1.2       c1.3,2.7,2.3,5.4,3.2,8.3l16.3,5.9v27.5L267,137.8z"/></g></g><g><path class="st17" d="M248.3,118.1c0,24.5-19.8,44.3-44.3,44.3c-24.5,0-44.3-19.8-44.3-44.3c0-24.5,19.8-44.3,44.3-44.3      C228.5,73.8,248.3,93.7,248.3,118.1z"/></g><g><path class="st18" d="M248.3,118.1c0,24.5-19.8,44.3-44.4,44.3c-15.4,0-29-7.9-36.9-19.8c7,4.7,15.4,7.4,24.5,7.4      c24.5,0,44.3-19.8,44.3-44.3c0-9.1-2.7-17.5-7.4-24.5C240.5,89.1,248.3,102.7,248.3,118.1z"/></g><g><g><path class="st13" d="M217.8,201.4h-27.5c-1.7,0-3.2-1-3.8-2.6l-5.3-14.5c-2.7-0.9-5.3-2-7.9-3.3l-14,6.5       c-1.5,0.7-3.3,0.4-4.5-0.8l-19.4-19.4c-1.2-1.2-1.5-3-0.8-4.5l6.5-14c-1.3-2.6-2.4-5.2-3.3-7.9l-14.5-5.3       c-1.6-0.6-2.6-2.1-2.6-3.8v-27.5c0-1.7,1-3.2,2.6-3.8l14.5-5.3c0.9-2.7,2-5.3,3.3-7.9l-6.5-14c-0.7-1.5-0.4-3.3,0.8-4.5       l19.4-19.4c1.2-1.2,3-1.5,4.5-0.8l14,6.5c2.6-1.3,5.2-2.4,7.9-3.3l5.3-14.5c0.6-1.6,2.1-2.6,3.8-2.6h27.5c1.7,0,3.2,1,3.8,2.6       l5.3,14.5c2.7,0.9,5.4,2,7.9,3.3l14-6.5c1.5-0.7,3.3-0.4,4.5,0.8L272.6,69c1.2,1.2,1.5,3,0.8,4.5l-6.5,14       c1.3,2.6,2.4,5.2,3.3,7.9l14.5,5.3c1.6,0.6,2.6,2.1,2.6,3.8v27.5c0,1.7-1,3.2-2.6,3.8l-14.5,5.3c-0.9,2.7-2,5.3-3.3,7.9l6.5,14       c0.7,1.5,0.4,3.3-0.8,4.5l-19.4,19.4c-1.2,1.2-3,1.5-4.5,0.8l-14-6.5c-2.6,1.3-5.2,2.3-7.9,3.3l-5.3,14.5       C220.9,200.4,219.4,201.4,217.8,201.4z M193.1,193.5H215l5-13.7c0.4-1.2,1.4-2.1,2.6-2.4c3.5-1.1,7-2.5,10.3-4.2       c1.1-0.6,2.4-0.6,3.5-0.1l13.2,6.2l15.5-15.5l-6.1-13.2c-0.5-1.1-0.5-2.4,0.1-3.5c1.7-3.3,3.2-6.8,4.2-10.2       c0.4-1.2,1.3-2.2,2.5-2.6l13.7-5v-21.9l-13.7-5c-1.2-0.4-2.1-1.4-2.5-2.6c-1.1-3.5-2.5-6.9-4.2-10.2c-0.6-1.1-0.6-2.4-0.1-3.5       l6.2-13.2l-15.5-15.5l-13.2,6.2c-1.1,0.5-2.5,0.5-3.6-0.1c-3.2-1.7-6.7-3.1-10.2-4.2c-1.2-0.4-2.1-1.3-2.6-2.4l-5-13.7h-21.9       l-5,13.7c-0.4,1.2-1.4,2.1-2.6,2.4c-3.5,1.1-6.9,2.5-10.2,4.2c-1.1,0.6-2.4,0.6-3.6,0.1l-13.2-6.2L143,72.6l6.2,13.2       c0.5,1.1,0.5,2.4-0.1,3.5c-1.7,3.3-3.1,6.7-4.2,10.3c-0.4,1.2-1.3,2.1-2.4,2.6l-13.7,5v21.9l13.7,5c1.2,0.4,2.1,1.4,2.4,2.6       c1.1,3.5,2.5,6.9,4.3,10.3c0.6,1.1,0.6,2.4,0.1,3.5l-6.1,13.2l15.5,15.5l13.2-6.1c1.1-0.5,2.4-0.5,3.5,0.1       c3.4,1.8,6.8,3.2,10.3,4.2c1.2,0.4,2.2,1.3,2.6,2.5L193.1,193.5z"/></g></g></g><g><path class="st13" d="M204,166.5c-26.6,0-48.3-21.7-48.3-48.3c0-26.7,21.7-48.3,48.3-48.3c26.7,0,48.3,21.7,48.3,48.3     C252.3,144.8,230.7,166.5,204,166.5z M204,77.8c-22.2,0-40.3,18.1-40.3,40.3c0,22.2,18.1,40.3,40.3,40.3     c22.2,0,40.3-18.1,40.3-40.3C244.3,95.9,226.2,77.8,204,77.8z"/></g></g></g></svg>