<?xml version="1.0" ?><svg width="512px" height="512px" viewBox="0 0 512 512" id="Layer_1" style="enable-background:new 0 0 512 512;" version="1.1" xml:space="preserve" xmlns="http://www.w3.org/2000/svg" xmlns:xlink="http://www.w3.org/1999/xlink"><style type="text/css">
	.st0{fill:#A5E1FB;}
	.st1{opacity:0.3;}
	.st2{fill:#FFFFFF;}
	.st3{fill:#D3D9D9;}
	.st4{fill:#E8EAEA;}
	.st5{fill:#A8B2B4;}
	.st6{fill:#333333;}
	.st7{fill:#FC8A8A;}
	.st8{fill:#F96364;}
	.st9{fill:#FCB0B0;}
	.st10{fill:#FEDD8E;}
	.st11{fill:#FDD367;}
	.st12{fill:#FEE9B4;}
	.st13{fill:#EDEDED;}
</style><g><g><g><g><g><g><path class="st0" d="M313.4,33.4v445.2c0,16.2-13.2,29.4-29.4,29.4H38.9c-16.2,0-29.4-13.2-29.4-29.4V33.4        C9.5,17.2,22.6,4,38.9,4H284C300.2,4,313.4,17.2,313.4,33.4z"/></g><g><rect class="st0" height="384.7" width="303.9" x="9.5" y="57.1"/></g><g class="st1"><polygon class="st2" points="313.4,97.5 313.4,132.2 9.5,380.3 9.5,345.6       "/></g><g class="st1"><path class="st2" d="M313.4,177.2v301.4c0,16.2-13.2,29.4-29.4,29.4H38.9c-16.2,0-29.4-13.2-29.4-29.4v-53.3L313.4,177.2z"/></g><g><path class="st3" d="M313.4,57.1V33.4C313.4,17.2,300.2,4,284,4H38.9C22.6,4,9.5,17.2,9.5,33.4v23.7H313.4z"/></g><g><path class="st3" d="M9.5,441.8l0,36.8c0,16.2,13.2,29.4,29.4,29.4l245.1,0c16.2,0,29.4-13.2,29.4-29.4v-36.8L9.5,441.8z"/></g><g><path class="st4" d="M83.4,4C67.3,4,54.1,17.1,54.1,33.4v23.7H9.5V33.4C9.5,17.1,22.6,4,38.9,4H83.4z"/></g><g><path class="st4" d="M83.4,508H38.9c-16.3,0-29.4-13.2-29.4-29.4v-36.9h44.5v36.9C54.1,494.8,67.3,508,83.4,508z"/></g><g><path class="st5" d="M313.4,33.4v23.7h-44.5V33.4c0-16.3-13.2-29.4-29.4-29.4H284C300.3,4,313.4,17.1,313.4,33.4z"/></g><g><path class="st5" d="M313.4,441.8v36.9c0,16.2-13.1,29.4-29.4,29.4h-44.5c16.2,0,29.4-13.2,29.4-29.4v-36.9H313.4z"/></g></g></g></g><g><path class="st6" d="M193.6,34.6h-64.3c-2.2,0-4-1.8-4-4s1.8-4,4-4h64.3c2.2,0,4,1.8,4,4S195.8,34.6,193.6,34.6z"/></g><g><path class="st6" d="M226.3,34.6h-4.3c-2.2,0-4-1.8-4-4s1.8-4,4-4h4.3c2.2,0,4,1.8,4,4S228.5,34.6,226.3,34.6z"/></g><g><g><path class="st2" d="M207.6,485.3h-92.3c-5.8,0-10.4-4.7-10.4-10.4c0-5.8,4.7-10.4,10.4-10.4h92.3c5.8,0,10.4,4.7,10.4,10.4      C218,480.6,213.4,485.3,207.6,485.3z"/><path class="st6" d="M207.6,489.3h-92.3c-7.9,0-14.4-6.5-14.4-14.4s6.5-14.4,14.4-14.4h92.3c7.9,0,14.4,6.5,14.4,14.4      S215.5,489.3,207.6,489.3z M115.3,468.5c-3.5,0-6.4,2.9-6.4,6.4c0,3.5,2.9,6.4,6.4,6.4h92.3c3.5,0,6.4-2.9,6.4-6.4      c0-3.5-2.9-6.4-6.4-6.4H115.3z"/></g></g></g><g><g><g><path class="st7" d="M219.8,182.5v96.9h-58.6c-4.2,0-7.6-3.4-7.6-7.6v-81.6c0-4.2,3.4-7.6,7.6-7.6H219.8z"/></g><g><path class="st8" d="M219.8,262.4v17h-58.6c-4.2,0-7.6-3.4-7.6-7.6v-17.1c0,4.2,3.4,7.7,7.6,7.7H219.8z"/></g><g><path class="st9" d="M219.8,182.5v17h-58.6c-4.2,0-7.6,3.4-7.6,7.6v-17c0-4.2,3.4-7.6,7.6-7.6H219.8z"/></g><g><path class="st3" d="M130.3,200.9V261c0,4.2,3.4,7.6,7.6,7.6h15.6v-75.3h-15.6C133.7,193.3,130.3,196.7,130.3,200.9z"/></g><g><path class="st4" d="M153.6,193.3v12.9h-15.7c-4.2,0-7.6,3.4-7.6,7.6v-12.9c0-4.2,3.4-7.6,7.6-7.6H153.6z"/></g><g><path class="st5" d="M153.6,255.7v12.9h-15.7c-4.2,0-7.6-3.4-7.6-7.6v-12.9c0,4.2,3.4,7.6,7.6,7.6H153.6z"/></g><g><path class="st10" d="M356.5,231c0,63.8,11.5,116.9,26.8,128.4l-163.5-80v-96.9l163.5-80C368,114.1,356.5,167.2,356.5,231z"/></g><g><path class="st11" d="M383.3,359.4l-163.5-80v-25l146.7,70.5C371.1,342.2,376.9,354.5,383.3,359.4z"/></g><g><path class="st12" d="M383.3,102.5c-6.4,4.9-12.2,17.1-16.8,34.5l-146.7,70.5v-25L383.3,102.5z"/></g><g><path class="st2" d="M422.6,231c0,72.2-14.8,130.7-33,130.7c-18.3,0-33.1-58.5-33.1-130.7c0-72.2,14.8-130.7,33.1-130.7      C407.8,100.2,422.6,158.8,422.6,231z"/></g><g><path class="st13" d="M422.6,231c0,72.2-14.8,130.7-33,130.7c-10.2,0-19.3-18.2-25.4-46.9c4.7,10.1,10.1,15.8,15.8,15.8      c18.2,0,33-58.5,33-130.7c0-31.9-2.9-61.1-7.7-83.8C415.6,138.2,422.6,181.4,422.6,231z"/></g><g><path class="st3" d="M406.6,231c0,22.9-18.6,41.5-41.5,41.5h-6.9c-1.1-13-1.7-27-1.7-41.5s0.6-28.5,1.7-41.5h6.9      C388,189.4,406.6,208,406.6,231z"/></g><g><path class="st5" d="M406.6,231c0,22.9-18.6,41.5-41.5,41.5h-6.9c-0.5-6.3-1-12.9-1.2-19.6c22.4-0.5,40.4-18.9,40.4-41.5      c0-2.4-0.2-4.9-0.6-7.2C402.9,211.4,406.6,220.7,406.6,231z"/></g></g><g><g><path class="st3" d="M212.1,319.2c0,9.9-7.6,9.9-7.6,19.8c0,10,7.6,10,7.6,19.9c0,10-7.6,10-7.6,19.8c0,10,7.6,10,7.6,19.9H170      c-4.8,0-8.7-3.9-8.7-8.7V279.4h50.8c0,10-7.6,10-7.6,19.9C204.5,309.2,212.1,309.2,212.1,319.2z"/></g><g><path class="st4" d="M204.5,299.3c0,0.2,0,0.4,0,0.6h-43.2v-20.5h50.8C212.1,289.3,204.5,289.3,204.5,299.3z"/></g><g><path class="st5" d="M212.1,398.6H170c-4.8,0-8.7-3.8-8.7-8.6v-20.5c0,4.8,3.9,8.6,8.7,8.6h34.6c0,0.2,0,0.4,0,0.6      C204.5,388.7,212.1,388.7,212.1,398.6z"/></g><path class="st6" d="M389.6,96.2c-3.1,0,2.2-2.4-72.1,34.1c0-29.3,0-67.6,0-96.9C317.4,15,302.4,0,284,0H38.9     C20.5,0,5.5,15,5.5,33.4v23.7v421.5c0,18.4,15,33.4,33.4,33.4H284c18.4,0,33.4-15,33.4-33.4v-147c71.8,35.3,68.9,34.1,72.1,34.1     c24.1,0,37-69.4,37-134.7S413.6,96.2,389.6,96.2z M205.1,351.4c4.1,5.3,4,9.8,0,15c-6.2,8.1-6.2,16.5,0,24.7     c0.9,1.2,1.7,2.2,2.2,3.5H170c-2.6,0-4.7-2.1-4.7-4.7V283.4h42.1c-0.5,1.3-1.3,2.3-2.3,3.5c-6.1,8.1-6.3,16.4,0,24.7     c4.1,5.3,4.1,9.7,0,15C199,334.7,198.8,343.1,205.1,351.4z M161.3,275.4h-0.1c-2,0-3.6-1.6-3.6-3.6v-78.5v-3.1     c0-2,1.6-3.6,3.6-3.6h54.6v88.9H161.3z M161.2,178.5c-6.1,0-11.1,4.8-11.5,10.8h-11.7c-6.4,0-11.6,5.2-11.6,11.6V261     c0,6.4,5.2,11.6,11.6,11.6h11.7c0.3,4.7,3.4,8.5,7.6,10v107.3c0,7,5.7,12.7,12.7,12.7h42.1c2.2,0,4-1.8,4-4     c0-6.3-2.6-9.7-4.6-12.3c-4-5.3-4.1-9.7,0-15c6.3-8.2,6.3-16.6,0-24.7c-4.1-5.3-4.1-9.7,0-15c6.2-8.1,6.3-16.5,0-24.7     c-4-5.3-4-9.7,0-15c1.6-2.1,3.4-4.5,4.2-8.4h3.2l90.5,44.3v110.1l-295.9,0V61.1h295.9v73.1l-90.5,44.3H161.2z M149.6,197.3v67.3     h-11.6c-2,0-3.6-1.6-3.6-3.6v-60.1c0-2,1.6-3.6,3.6-3.6H149.6z M13.5,33.4C13.5,19.4,24.9,8,38.9,8H284c14,0,25.4,11.4,25.4,25.4     v19.7H13.5V33.4z M309.4,478.6c0,14-11.4,25.4-25.4,25.4H38.9c-14,0-25.4-11.4-25.4-25.4v-32.8l295.9,0V478.6z M223.8,276.9V185     l147.1-72c-12.1,24.5-18.5,72.2-18.5,117.9s6.4,93.4,18.5,117.9L223.8,276.9z M361.9,193.4h3.2c20.7,0,37.5,16.8,37.5,37.5     c0,20.7-16.8,37.5-37.5,37.5h-3.2c-0.9-11.6-1.4-24.1-1.4-37.5C360.5,217.5,361,205,361.9,193.4z M389.6,357.7     c-9.6,0-22.1-30-27-81.2h2.5c25.1,0,45.5-20.4,45.5-45.5c0-25.1-20.4-45.5-45.5-45.5h-2.5c4.9-51.2,17.4-81.2,27-81.2     c12.1,0,29,48.2,29,126.7S401.7,357.7,389.6,357.7z"/></g></g><g><g><path class="st6" d="M463.2,326.6L444.4,309c-1.6-1.5-1.7-4-0.2-5.7c1.5-1.6,4-1.7,5.7-0.2l18.8,17.6c1.6,1.5,1.7,4,0.2,5.7     C467.3,328,464.8,328.1,463.2,326.6z"/></g><g><path class="st6" d="M491.9,283.8l-24-9.3c-2.1-0.8-3.1-3.1-2.3-5.2c0.8-2.1,3.1-3.1,5.2-2.3l24,9.3c2.1,0.8,3.1,3.1,2.3,5.2     C496.3,283.6,493.9,284.6,491.9,283.8z"/></g><g><path class="st6" d="M502.5,235h-25.8c-2.2,0-4-1.8-4-4c0-2.2,1.8-4,4-4h25.8c2.2,0,4,1.8,4,4C506.5,233.2,504.7,235,502.5,235z"/></g><g><path class="st6" d="M465.6,192.7c-0.8-2.1,0.2-4.4,2.3-5.2l24-9.3c2.1-0.8,4.4,0.2,5.2,2.3c0.8,2.1-0.2,4.4-2.3,5.2l-24,9.3     C468.7,195.7,466.4,194.7,465.6,192.7z"/></g><g><path class="st6" d="M444.2,158.6c-1.5-1.6-1.4-4.1,0.2-5.7l18.8-17.6c1.6-1.5,4.1-1.4,5.7,0.2c1.5,1.6,1.4,4.1-0.2,5.7     l-18.8,17.6C448.2,160.3,445.7,160.2,444.2,158.6z"/></g></g></g></svg>