<?xml version="1.0" ?><svg width="512px" height="512px" viewBox="0 0 512 512" id="Layer_1" style="enable-background:new 0 0 512 512;" version="1.1" xml:space="preserve" xmlns="http://www.w3.org/2000/svg" xmlns:xlink="http://www.w3.org/1999/xlink"><style type="text/css">
	.st0{fill:#FFFFFF;}
	.st1{fill:#EDEDED;}
	.st2{fill:#D3D9D9;}
	.st3{fill:#A8B2B4;}
	.st4{fill:#333333;}
	.st5{fill:#FC8A8A;}
	.st6{fill:#FEDD8E;}
	.st7{fill:#7BDE9E;}
	.st8{fill:#F96363;}
	.st9{fill:#FDD267;}
	.st10{fill:#50D27E;}
	.st11{fill:#A7E9BF;}
	.st12{fill:#A6E1FB;}
	.st13{fill:#7AD1F9;}
	.st14{fill:#D3F0FD;}
	.st15{fill:#FB8A8A;}
</style><g><g><g><g><g><path class="st0" d="M508.6,97v366.2c0,17-13.8,30.9-30.8,30.9H35.4c-17,0-30.8-13.8-30.8-30.9V97H508.6z"/></g><g><path class="st1" d="M508.6,97v366.2c0,17-13.8,30.9-30.8,30.9h-28.6c17,0,30.9-13.8,30.9-30.9V97H508.6z"/></g><g><path class="st2" d="M508.6,97v-48c0-17-13.8-30.8-30.8-30.8H35.4c-17,0-30.8,13.8-30.8,30.8v48H508.6z"/></g><g><path class="st1" d="M64.1,18.1c-17,0-30.9,13.8-30.9,30.8V97H4.6V48.9c0-17,13.8-30.8,30.8-30.8H64.1z"/></g><g><path class="st3" d="M508.6,48.9V97H480V48.9c0-17-13.8-30.8-30.9-30.8h28.7C494.8,18.1,508.6,31.9,508.6,48.9z"/></g><path class="st4" d="M512.6,48.9c0-19.2-15.6-34.8-34.8-34.8H35.4c-19.2,0-34.8,15.6-34.8,34.8l0,414.2      c0,19.2,15.6,34.9,34.8,34.9h442.3c19.2,0,34.8-15.6,34.8-34.9L512.6,48.9z M8.6,48.9c0-14.8,12-26.8,26.8-26.8h442.3      c14.8,0,26.8,12,26.8,26.8v44H8.6V48.9z M504.6,463.1c0,14.8-12,26.9-26.8,26.9H35.4c-14.8,0-26.8-12.1-26.8-26.9V101h496V463.1      z"/><g><g><g><circle class="st5" cx="51.2" cy="57.5" r="14"/></g><g><circle class="st6" cx="101" cy="57.5" r="14"/></g><g><circle class="st7" cx="150.9" cy="57.5" r="14"/></g></g><g><g><path class="st8" d="M65.2,57.5c0,7.8-6.3,14-14,14c-6,0-11.2-3.8-13.2-9.3c1.5,0.5,3.1,0.8,4.8,0.8c7.7,0,14-6.2,14-14         c0-1.7-0.3-3.3-0.8-4.8C61.3,46.3,65.2,51.5,65.2,57.5z"/></g><g><path class="st9" d="M115,57.5c0,7.8-6.3,14-14,14c-6,0-11.2-3.8-13.2-9.3c1.5,0.5,3.1,0.8,4.8,0.8c7.7,0,14-6.2,14-14         c0-1.7-0.3-3.3-0.8-4.8C111.2,46.3,115,51.5,115,57.5z"/></g><g><path class="st10" d="M164.9,57.5c0,7.8-6.3,14-14,14c-6,0-11.2-3.8-13.2-9.3c1.5,0.5,3.1,0.8,4.7,0.8c7.7,0,14-6.2,14-14         c0-1.7-0.3-3.3-0.9-4.8C161,46.3,164.9,51.5,164.9,57.5z"/></g></g><g><g><path class="st4" d="M51.2,75.5c-9.9,0-18-8.1-18-18s8.1-18,18-18s18,8.1,18,18S61.1,75.5,51.2,75.5z M51.2,47.5         c-5.5,0-10,4.5-10,10s4.5,10,10,10s10-4.5,10-10S56.7,47.5,51.2,47.5z"/></g><g><path class="st4" d="M101,75.5c-9.9,0-18-8.1-18-18s8.1-18,18-18s18,8.1,18,18S111,75.5,101,75.5z M101,47.5         c-5.5,0-10,4.5-10,10s4.5,10,10,10s10-4.5,10-10S106.5,47.5,101,47.5z"/></g><g><path class="st4" d="M150.9,75.5c-9.9,0-18-8.1-18-18s8.1-18,18-18s18,8.1,18,18S160.8,75.5,150.9,75.5z M150.9,47.5         c-5.5,0-10,4.5-10,10s4.5,10,10,10c5.5,0,10-4.5,10-10S156.4,47.5,150.9,47.5z"/></g></g><g><g><path class="st0" d="M476,57.5c0,7.8-6.3,14-14,14H230.3c-7.7,0-14-6.2-14-14c0-7.7,6.3-14,14-14H462         C469.7,43.5,476,49.8,476,57.5z"/></g></g><g><g><path class="st1" d="M476,57.5c0,7.8-6.3,14-14,14H230.3c-7.5,0-13.6-5.9-14-13.3c2,1.1,4.3,1.7,6.7,1.7h231.7         c7.7,0,14-6.2,14-14v-0.6C473,47.6,476,52.2,476,57.5z"/></g></g><g><g><path class="st4" d="M462,75.5H230.3c-9.9,0-18-8.1-18-18s8.1-18,18-18H462c9.9,0,18,8.1,18,18S471.9,75.5,462,75.5z          M230.3,47.5c-5.5,0-10,4.5-10,10s4.5,10,10,10H462c5.5,0,10-4.5,10-10s-4.5-10-10-10H230.3z"/></g></g></g></g></g></g><g><g><path class="st7" d="M451.9,347.8c0,31.6-7.7,62.8-22.4,90.7h-346c-14.6-27.8-22.4-59.1-22.4-90.7     c0-107.7,87.6-195.4,195.4-195.4C364.3,152.4,451.9,240.1,451.9,347.8z"/></g><g><path class="st10" d="M451.9,347.8c0,31.6-7.7,62.8-22.4,90.7h-18.1c14.6-27.9,22.4-59.1,22.4-90.7     c0-104.7-82.8-190.4-186.3-195.2c3-0.1,6-0.2,9-0.2C364.3,152.4,451.9,240.1,451.9,347.8z"/></g><g><path class="st11" d="M79.3,347.8c0,31.6,7.7,62.9,22.4,90.7H83.6c-14.6-27.8-22.4-59.1-22.4-90.7     c0-107.7,87.6-195.4,195.4-195.4c3,0,6.1,0.1,9.1,0.2C162.1,157.4,79.3,243.1,79.3,347.8z"/></g><g><path class="st12" d="M397.2,438.5c16.9-26.1,26.8-57.3,26.8-90.7c0-92.4-74.9-167.4-167.4-167.4S89.2,255.4,89.2,347.8     c0,33.5,9.9,64.6,26.8,90.7H397.2z"/></g><g><path class="st13" d="M423.9,347.8c0,33.4-9.8,64.6-26.8,90.7h-40.3c16.9-26.2,26.7-57.3,26.7-90.7     c0-85.6-64.2-156.2-147.2-166.1c6.6-0.8,13.3-1.2,20.1-1.2C349,180.4,423.9,255.4,423.9,347.8z"/></g><g><path class="st14" d="M129.5,347.8c0,33.4,9.8,64.6,26.8,90.7H116c-16.9-26.2-26.8-57.3-26.8-90.7c0-92.4,74.9-167.4,167.4-167.4     c6.8,0,13.6,0.4,20.2,1.2C193.8,191.6,129.5,262.2,129.5,347.8z"/></g><path class="st4" d="M470,434.5H436c13-26.9,20-56.8,20-86.7c0-109.9-89.4-199.4-199.4-199.4S57.2,237.9,57.2,347.8    c0,30,6.9,59.8,20,86.7H43.1c-2.2,0-4,1.8-4,4s1.8,4,4,4H470c2.2,0,4-1.8,4-4S472.3,434.5,470,434.5z M118.2,434.5    c-16.3-26-24.9-55.9-24.9-86.7c0-90.1,73.3-163.4,163.4-163.4s163.4,73.3,163.4,163.4c0,30.8-8.6,60.7-24.9,86.7H118.2z     M404.2,434.5c15.5-26.3,23.7-56.1,23.7-86.7c0-94.5-76.9-171.4-171.4-171.4S85.2,253.3,85.2,347.8c0,30.7,8.2,60.5,23.7,86.7H86    c-13.6-26.7-20.8-56.6-20.8-86.7c0-105.5,85.8-191.4,191.4-191.4s191.4,85.8,191.4,191.4c0,30-7.2,60-20.8,86.7H404.2z"/><g><g><g><path class="st4" d="M256.6,234.1c-2.2,0-4-1.8-4-4v-18.9c0-2.2,1.8-4,4-4s4,1.8,4,4v18.9C260.6,232.3,258.8,234.1,256.6,234.1       z"/></g></g><g><g><path class="st4" d="M193.6,248l-9.4-16.4c-1.1-1.9-0.4-4.4,1.5-5.5c1.9-1.1,4.4-0.5,5.5,1.5l9.4,16.4c1.1,1.9,0.4,4.4-1.5,5.5       C197.1,250.6,194.7,250,193.6,248z"/></g></g><g><g><path class="st4" d="M151.4,293.1l-16.4-9.4c-1.9-1.1-2.6-3.6-1.5-5.5c1.1-1.9,3.6-2.6,5.5-1.5l16.4,9.4       c1.9,1.1,2.6,3.6,1.5,5.5C155.8,293.6,153.3,294.2,151.4,293.1z"/></g></g><g><g><path class="st4" d="M137.5,353.2h-18.9c-2.2,0-4-1.8-4-4s1.8-4,4-4h18.9c2.2,0,4,1.8,4,4S139.7,353.2,137.5,353.2z"/></g><g><path class="st4" d="M394.5,353.2h-18.9c-2.2,0-4-1.8-4-4s1.8-4,4-4h18.9c2.2,0,4,1.8,4,4S396.7,353.2,394.5,353.2z"/></g></g><g><g><path class="st4" d="M356.2,291.6c-1.1-1.9-0.4-4.4,1.5-5.5l16.4-9.4c1.9-1.1,4.4-0.5,5.5,1.5c1.1,1.9,0.4,4.4-1.5,5.5       l-16.4,9.4C359.8,294.2,357.3,293.5,356.2,291.6z"/></g></g><g><g><path class="st4" d="M314.1,249.5c-1.9-1.1-2.6-3.6-1.5-5.5l9.4-16.4c1.1-1.9,3.6-2.6,5.5-1.5c1.9,1.1,2.6,3.6,1.5,5.5       l-9.4,16.4C318.5,250,316,250.6,314.1,249.5z"/></g></g></g><g><path class="st8" d="M243.4,386.4l102.4-128.1L269,404c-4.2,7.5-13.7,10.2-21.2,6c-7.5-4.2-10.2-13.7-6-21.2     C242.2,388,242.8,387.1,243.4,386.4z"/><g><path class="st15" d="M281.1,393.2c0,13.6-11,24.6-24.6,24.6c-13.6,0-24.6-11-24.6-24.6c0-13.6,11-24.6,24.6-24.6      C270.1,368.6,281.1,379.6,281.1,393.2z"/></g><g><path class="st8" d="M281.1,393.2c0,13.6-11,24.6-24.6,24.6c-10.4,0-19.4-6.5-22.9-15.7c3.5,2,7.5,3,11.8,3      c13.6,0,24.6-11,24.6-24.6c0-3.1-0.6-6.1-1.7-8.9C276,375.8,281.1,383.8,281.1,393.2z"/></g><path class="st4" d="M348,254.9c-1.7-1.1-4-0.8-5.3,0.8l-87,108.9c-15.3,0.5-27.7,13.1-27.7,28.5c0,15.7,12.8,28.6,28.6,28.6     s28.6-12.8,28.6-28.6c0-3-0.5-5.9-1.4-8.7l65.6-124.4C350.3,258.3,349.7,256,348,254.9z M256.6,413.7c-11.3,0-20.6-9.2-20.6-20.6     c0-11.3,9.2-20.6,20.6-20.6c11.3,0,20.6,9.2,20.6,20.6C277.1,404.5,267.9,413.7,256.6,413.7z M279.3,375.9     c-3.6-4.7-8.6-8.3-14.3-10.1l57.7-72.1L279.3,375.9z"/></g></g></g></svg>