<?xml version="1.0" ?><svg width="512px" height="512px" viewBox="0 0 512 512" id="Layer_1" style="enable-background:new 0 0 512 512;" version="1.1" xml:space="preserve" xmlns="http://www.w3.org/2000/svg" xmlns:xlink="http://www.w3.org/1999/xlink"><style type="text/css">
	.st0{fill:#A8B1B3;}
	.st1{fill:#7C8B8E;}
	.st2{fill:#FFFFFF;}
	.st3{opacity:0.15;}
	.st4{fill:#D3D8D9;}
	.st5{fill:#FDDD8D;}
	.st6{fill:#FEE8B3;}
	.st7{fill:#FDD267;}
	.st8{fill:#333333;}
</style><g><path class="st0" d="M503.7,357.4v72.5c0,42.4-34.4,76.8-76.8,76.8l0,0c-42.4,0-76.8-34.4-76.8-76.8v-72.5   c0-42.4,34.4-76.8,76.8-76.8l0,0C469.3,280.5,503.7,314.9,503.7,357.4z"/></g><g><path class="st1" d="M503.7,357.4v72.5c0,42.4-34.4,76.8-76.8,76.8c-4.4,0-8.8-0.4-13.1-1.2c36.2-6.2,63.8-37.7,63.8-75.7v-72.5   c0-21.2-8.6-40.5-22.5-54.3c-11-11-25.3-18.7-41.3-21.3c4.3-0.8,8.6-1.2,13.1-1.2c21.2,0,40.4,8.6,54.3,22.5   S503.7,336.2,503.7,357.4z"/></g><g><path class="st2" d="M503.7,357.4H350c0-42.2,34.2-74.5,69-76.4C462,275.8,503.7,310.4,503.7,357.4z"/></g><g class="st3"><path d="M503.7,357.4h-26.1c0-38.2-27.8-69.6-63.8-75.7C457.9,272.9,503.7,308.1,503.7,357.4z"/></g><g><path class="st4" d="M390.8,484.2c11.9,11.9,27.6,19.9,45.2,21.9c-3,0.4-6,0.6-9.1,0.6c-21.2,0-40.4-8.6-54.3-22.5   s-22.5-33.1-22.5-54.3v-72.5c0-42.5,34.4-76.8,76.8-76.8c3.1,0,6.1,0.2,9.1,0.6c-38.2,4.5-67.7,36.9-67.7,76.3V430   C368.2,451.1,376.8,470.3,390.8,484.2z"/></g><g><path class="st5" d="M220.3,111.3c0,58.6-47.4,106-106,106s-106-47.4-106-106s47.4-106,106-106C172.7,5.3,220.3,52.7,220.3,111.3z"/></g><g><path class="st5" d="M114.3,187.3c-42,0-76.1-34.1-76.1-76.1s34.1-76.1,76.1-76.1s76.1,34.1,76.1,76.1S156.3,187.3,114.3,187.3z"/></g><g><path class="st6" d="M124.4,186.5c-3.3,0.4-6.7,0.7-10.1,0.7c-42,0-76.1-34.1-76.1-76.1S72.3,35,114.3,35c3.4,0,6.8,0.3,10.1,0.7   c-37.2,5-66.1,36.9-66.1,75.4C58.2,149.8,87.1,181.7,124.4,186.5z"/></g><g><path class="st7" d="M190.4,111.1c0,42-34.1,76.1-76.1,76.1c-5.1,0-10.1-0.5-14.9-1.4c34.9-6.9,61.2-37.8,61.2-74.6   s-26.3-67.7-61.2-74.6c4.8-0.9,9.8-1.4,14.9-1.4C156.3,35.1,190.4,69.3,190.4,111.1z"/></g><g><path class="st8" d="M432.1,275.5V64.2C432.1,28.8,403.3,0,368,0s-64.2,28.8-64.2,64.2v321.7c0,12.3-10,22.3-22.3,22.3   s-22.3-10-22.3-22.3V285.4c0-22-17.9-39.9-39.9-39.9s-39.9,17.9-39.9,39.9v92.8c0,16.5-13.4,30-30,30c-16.6,0-30-13.4-30-30V222.3   c58.9-2.8,106-51.4,106-111C225.6,49.9,175.7,0,114.3,0S3,49.9,3,111.3c0,59.6,47.1,108.2,106,111v155.9   c0,22.3,18.2,40.5,40.5,40.5s40.5-18.2,40.5-40.5v-92.8c0-16.2,13.1-29.3,29.3-29.3c16.2,0,29.3,13.1,29.3,29.3v100.5   c0,18.1,14.7,32.8,32.8,32.8s32.8-14.7,32.8-32.8V64.2c0-29.6,24-53.6,53.6-53.6c29.6,0,53.6,24.1,53.6,53.6v211.4   c-43.7,2.8-76.8,39.4-76.8,81.8c0,0,0,0,0,0.1V430c0,45.3,36.8,82.1,82.1,82.1c45.3,0,82.1-36.8,82.1-82.1v-72.5   C509,313.9,474.9,278.3,432.1,275.5z M13.6,111.3c0-55.5,45.2-100.7,100.7-100.7S215,55.7,215,111.3c0,55.6-45.1,100.7-100.7,100.7   C58.7,212,13.6,166.8,13.6,111.3z M426.8,285.8c37.7,0,68.5,29.2,71.3,66.2H355.6C358.3,315.1,389.2,285.8,426.8,285.8z    M498.3,429.9c0.1,39.5-32,71.6-71.5,71.6s-71.6-32.1-71.6-71.6v-67.3h143.1V429.9z"/><path class="st8" d="M114.3,30C69.5,30,33,66.4,33,111.3c0,44.8,36.5,81.3,81.3,81.3c44.8,0,81.3-36.5,81.3-81.3   C195.6,66.4,159.1,30,114.3,30z M114.3,182.1c-39,0-70.8-31.8-70.8-70.8s31.8-70.8,70.8-70.8s70.8,31.8,70.8,70.8   S153.3,182.1,114.3,182.1z"/><path class="st8" d="M426.9,303.4c-2.9,0-5.3,2.4-5.3,5.3v20.5c0,2.9,2.4,5.3,5.3,5.3c2.9,0,5.3-2.4,5.3-5.3v-20.5   C432.1,305.8,429.8,303.4,426.9,303.4z"/><path class="st8" d="M118.9,108.1V80.2c3,0.2,8.4,0.6,15.2,2.9c2.9,1.5,5.5-1,5.5-3.8c0-1.9-0.8-3.3-2.7-3.9c-8-3-14.9-3.4-18-3.6   v-6.4c0-3-2.9-4.7-4.8-4.7c-2.3,0-4.6,2-4.6,4.7V72c-5.7,0.8-23,4.6-23,22c0,15.2,14.4,17.8,23,20.6v27.3   c-3.3-0.3-9.7-0.9-17.8-4.5c-1.4-0.7-3.5-0.6-4.8,0.8c-2.3,2.5-0.8,6.1,1.6,7c9.6,4,17.5,4.8,21,5.1v6.5c0,2.7,2.4,4.7,4.6,4.7   c2.7,0,4.8-2.1,4.8-4.7v-6.5c6-0.6,23.8-3.9,23.8-20.9C142.9,113.2,128.5,111.1,118.9,108.1z M95.8,93.5c0-9.2,9.4-11.8,13.7-12.6   v24.8C103,103.7,95.8,101.3,95.8,93.5z M118.9,141.9v-24.4c7,2,14.9,4.3,14.9,11.3C133.7,139.7,123.3,141.4,118.9,141.9z"/></g></svg>