<?xml version="1.0" ?><svg width="512px" height="512px" viewBox="0 0 512 512" id="Layer_1" style="enable-background:new 0 0 512 512;" version="1.1" xml:space="preserve" xmlns="http://www.w3.org/2000/svg" xmlns:xlink="http://www.w3.org/1999/xlink"><style type="text/css">
	.st0{fill:#D3D8D9;}
	.st1{fill:#EDEDED;}
	.st2{fill:#A8B1B3;}
	.st3{fill:#7BDE9E;}
	.st4{fill:#50D27E;}
	.st5{fill:#A7E9BF;}
	.st6{fill:#FFFFFF;}
	.st7{fill:#333333;}
	.st8{fill:#FBB381;}
	.st9{fill:#FA9957;}
	.st10{fill:#FCCCAB;}
</style><g><g><g><path class="st0" d="M443.1,202.1V245c0,7.5-6.2,13.7-13.8,13.7h-25c-4.8,24.7-14.5,47.7-28.1,67.8c0,0,0,0,0,0l17.7,17.7     c5.4,5.4,5.4,14.1,0,19.4L363.7,394c-5.4,5.4-14.1,5.3-19.5,0l-17.7-17.7c-20.1,13.6-43.1,23.3-67.8,28.1v25.1     c0,7.5-6.1,13.7-13.8,13.7l-42.8,0c-7.5,0-13.7-6.1-13.7-13.7v-25.1c-24.7-4.7-47.7-14.5-67.8-28.1c0,0,0,0-0.1,0l-17.7,17.7     c-5.4,5.4-14.1,5.4-19.4,0l-30.3-30.3c-5.3-5.3-5.4-14.1,0-19.4l17.7-17.7c-13.5-20.1-23.3-43.1-28-67.8H17.7     C10.1,258.7,4,252.5,4,245v-42.9c0-7.5,6.1-13.7,13.7-13.7l25.1,0c4.8-24.7,14.5-47.7,28.1-67.8l-17.7-17.7     c-5.4-5.4-5.4-14.1,0-19.4l30.3-30.3c5.4-5.4,14.1-5.4,19.5,0l17.7,17.8c0,0,0,0,0,0c20.1-13.6,43.1-23.3,67.8-28.1V17.7     c0-7.6,6.1-13.7,13.7-13.7H245c7.6,0,13.7,6.1,13.7,13.7l0,25.1c24.7,4.7,47.6,14.5,67.7,28.1l17.7-17.7c5.4-5.4,14.1-5.4,19.4,0     l30.3,30.2c5.4,5.4,5.4,14.1,0,19.5l-17.8,17.7c0.1,0,0.1,0,0.1,0c13.6,20.2,23.3,43.1,28,67.8h25.1     C437,188.4,443.1,194.6,443.1,202.1z"/></g><g><path class="st1" d="M287.2,94.8c0,105.5-85.5,191.1-191.1,191.1c-16.5,0-32.5-2.1-47.8-6c-2.2-6.9-4.1-14-5.4-21.2H17.7     C10.1,258.7,4,252.5,4,245v-42.9c0-7.5,6.1-13.7,13.8-13.7l25.1,0c4.8-24.8,14.5-47.7,28.1-67.8l-17.7-17.7     c-5.4-5.4-5.4-14,0-19.4l30.3-30.3c5.4-5.4,14-5.4,19.4,0l17.7,17.8c0,0,0,0,0,0c20.1-13.6,43.1-23.3,67.8-28V17.7     c0-7.6,6.1-13.7,13.7-13.7H245c7.6,0,13.7,6.2,13.7,13.7l0,25.1c7.8,1.5,15.4,3.5,22.9,5.9C285.3,63.5,287.2,78.9,287.2,94.8z"/></g><g><path class="st2" d="M443.2,202.1V245c0,7.5-6.2,13.6-13.8,13.6h-25c-4.8,24.7-14.5,47.7-28.1,67.8c0,0,0,0,0,0l17.8,17.7     c5.4,5.4,5.4,14,0,19.4L363.7,394c-5.4,5.4-14.1,5.3-19.5,0l-17.7-17.7c-20.1,13.6-43.1,23.4-67.8,28.1v25.1     c0,7.5-6.2,13.7-13.8,13.7l-42.8,0c-7.5,0-13.7-6.1-13.7-13.7v-25.1c-21.8-4.2-42.3-12.3-60.6-23.5     C259.4,364,363.8,260.4,381.7,129.2c10.8,18,18.5,38,22.6,59.2h25.1C437,188.4,443.2,194.6,443.2,202.1z"/></g></g><g><g><path class="st3" d="M223.6,83.6c77.3,0,140,62.7,140,140c0,77.3-62.7,140-140,140c-77.3,0-140-62.7-140-140     C83.6,146.2,146.2,83.6,223.6,83.6z"/></g><g><path class="st4" d="M363.6,223.6c0,77.3-62.7,140-140,140c-44.3,0-83.8-20.6-109.4-52.7c23.9,19.1,54.3,30.5,87.3,30.5     c77.3,0,140-62.7,140-140c0-33-11.4-63.4-30.6-87.4C343,139.7,363.6,179.2,363.6,223.6z"/></g><g><path class="st5" d="M333,136.2c-23.9-19.1-54.2-30.5-87.2-30.5c-77.4,0-140,62.7-140,140c0,33,11.4,63.4,30.6,87.3     c-32.1-25.6-52.7-65.2-52.7-109.4c0-77.4,62.7-140,140-140C267.9,83.6,307.3,104.1,333,136.2z"/></g><g><path class="st6" d="M223.6,120.3c57,0,103.2,46.2,103.2,103.3c0,57-46.2,103.2-103.2,103.2c-57,0-103.3-46.2-103.3-103.2     C120.3,166.5,166.5,120.3,223.6,120.3z"/></g><g><path class="st1" d="M326.8,223.6c0,57-46.2,103.2-103.2,103.2c-36.2,0-68-18.6-86.4-46.7c16.2,10.7,35.7,16.9,56.6,16.9     c57,0,103.2-46.2,103.2-103.2c0-20.9-6.2-40.4-16.9-56.6C308.3,155.6,326.8,187.4,326.8,223.6z"/></g><g><path class="st7" d="M223.6,330.8c-59.1,0-107.3-48.1-107.3-107.2c0-59.1,48.1-107.3,107.3-107.3c59.3,0,107.2,48,107.2,107.3     C330.8,282.7,282.7,330.8,223.6,330.8z M223.6,124.3c-54.7,0-99.3,44.5-99.3,99.3c0,54.7,44.5,99.2,99.3,99.2     c54.7,0,99.2-44.5,99.2-99.2c0-26.5-10.3-51.4-29.1-70.2S250.1,124.3,223.6,124.3z"/></g><path class="st6" d="M363.9,331.2c-0.3,0.2-0.5,0.4-0.8,0.7l-31.2,31.2c-0.3,0.3-0.5,0.6-0.7,0.8l-26.4-26.4    c12.6-9,23.7-20.1,32.8-32.7L363.9,331.2z"/><g><path class="st8" d="M504.5,468.3l-36.2,36.2c-4.8,4.7-12.4,4.7-17.2,0L331.9,385.2c-6.1-6.2-6.1-16,0-22.1l31.2-31.2     c6.1-6.1,16-6.1,22.1,0l119.3,119.3C509.2,455.9,509.2,463.5,504.5,468.3z"/></g><g><path class="st9" d="M504.5,468.3l-36.2,36.2c-4.8,4.7-12.4,4.7-17.2,0L428.7,482c4.7,4.7,12.4,4.7,17.2,0l36.2-36.2     c4.7-4.8,4.7-12.4,0-17.1l22.5,22.5C509.2,455.9,509.2,463.5,504.5,468.3z"/></g><g><path class="st10" d="M407.7,354.4c-6.1-6.1-16-6.1-22.1,0l-31.2,31.2c-6.1,6-6.1,15.9-0.1,22l-22.4-22.4c-6.1-6.2-6.1-16,0-22.1     l31.2-31.2c6.1-6.1,16-6.1,22.1,0L407.7,354.4z"/></g><path class="st7" d="M507.3,448.3L388,329.1c-1.8-1.8-3.8-3.1-6-4c12.2-19.1,20.9-40,25.6-62.3h21.8c9.8,0,17.8-7.9,17.8-17.7    v-42.9c0-9.8-8-17.8-17.8-17.8h-21.8c-4.8-22.6-13.6-43.9-26.2-63.3l15.4-15.4c7-7,6.9-18.2,0-25.2l-30.3-30.1    c-6.8-6.9-18.1-7-25.1,0L326,65.8c-19.5-12.7-40.7-21.5-63.2-26.2l0-21.9C262.7,8,254.8,0,245,0h-42.8c-9.8,0-17.7,8-17.7,17.7    v21.9c-22.6,4.7-43.9,13.6-63.3,26.2l-15.4-15.4c-6.9-6.9-18.2-6.9-25.1,0L50.3,80.6c-7.1,7.2-6.8,18.4,0,25.1l15.4,15.4    c-12.6,19.4-21.4,40.6-26.2,63.3l-21.8,0c-9.8,0-17.7,8-17.7,17.7V245c0,9.8,7.9,17.7,17.7,17.8h21.9    c4.7,22.5,13.5,43.8,26.2,63.3l-15.4,15.4c-7,6.8-7,18.1-0.1,25.1l30.3,30.3c6.8,6.9,18.1,6.8,25,0l15.4-15.4    c19.6,12.7,40.8,21.5,63.4,26.3v21.8c0,9.6,7.7,17.7,17.6,17.7c0,0,0,0,0.1,0l42.8,0c9.8,0,17.8-8,17.8-17.7v-21.8    c22.2-4.7,43-13.3,62.2-25.6c1,2.2,2.4,4.3,4.1,6.1l119.2,119.2c6.1,6.2,16.4,6.4,22.8,0l36.2-36.2c0,0,0,0,0,0    C513.6,464.8,513.6,454.6,507.3,448.3z M323.4,373.5c-20,13.4-42,22.4-65.4,26.9c-1.9,0.4-3.2,2-3.2,4v25.1c0,5.3-4.4,9.7-9.8,9.7    l-42.8,0c0,0,0,0-0.1,0c-5.2,0-9.6-4.2-9.6-9.7v-25.1c0-1.9-1.4-3.6-3.3-4c-24.9-4.7-46.6-14.3-66.8-27.7    c-1.6-0.8-3.4-0.5-4.6,0.7L100,391.1c-3.8,3.8-10,3.8-13.8,0.1L56,360.8c-3.8-3.8-3.8-10,0-13.8l17.7-17.7c1.4-1.4,1.6-3.5,0.5-5    C60.6,304,51.4,281.7,46.8,258c-0.4-1.9-2-3.2-3.9-3.2H17.7c-5.4,0-9.7-4.4-9.7-9.8v-42.9c0-5.4,4.4-9.7,9.7-9.7l25.1,0    c0,0,0,0,0,0c1.9,0,3.6-1.4,3.9-3.2c4.6-23.8,13.8-46.2,27.4-66.3c1.1-1.6,0.9-3.7-0.5-5.1L56,100c-3.9-3.8-3.8-10,0-13.7L86.2,56    c3.8-3.8,10-3.8,13.8,0l17.7,17.8c1.3,1.3,3.4,1.6,5.2,0.4c20.2-13.6,42.5-22.8,66.2-27.4c1.9-0.4,3.3-2,3.3-3.9V17.7    c0-5.3,4.3-9.7,9.7-9.7H245c5.4,0,9.8,4.4,9.8,9.7l0,25.1c0,1.9,1.4,3.6,3.2,3.9c23.8,4.6,46,13.8,66.3,27.4    c1.6,1.1,3.7,0.9,5-0.5L347.1,56c3.7-3.7,9.8-3.9,13.7,0l30.3,30.2c3.8,3.8,3.9,10,0,13.8l-17.8,17.7c-1.2,1.2-1.5,2.9-0.8,4.4    c0.2,0.4,0.4,0.8,0.6,1.1c13.5,20.1,22.6,42.3,27.2,66c0.4,1.9,2,3.2,4,3.2h25.1c5.4,0,9.8,4.4,9.8,9.8V245c0,5.3-4.4,9.7-9.8,9.7    h-25c-1.9,0-3.6,1.4-3.9,3.2c-4.6,23.5-13.6,45.6-26.9,65.4c-3.2,0.1-6.3,1-9.1,2.6l-21.7-21.7c15.7-23,24.8-50.8,24.8-80.7    c0-79.4-64.6-144-144-144c-79.4,0-144,64.6-144,144c0,79.4,64.6,144,144,144c29.9,0,57.7-9.2,80.7-24.8l21.7,21.7    C324.4,367.1,323.5,370.2,323.4,373.5z M223.6,359.5c-75,0-136-61-136-136c0-75,61-136,136-136c75,0,136,61,136,136    C359.6,298.6,298.6,359.5,223.6,359.5z M311,338c10.2-7.8,19.3-16.8,27.1-27.1l20.2,20.2l-27.1,27.1L311,338z M501.6,465.5    l-36.2,36.2c-3.2,3.2-8.3,3.2-11.5,0L334.8,382.4c-4.5-4.4-4.7-11.8,0-16.5l31.2-31.2c4.6-4.5,11.8-4.6,16.4,0L501.6,454    C504.8,457.1,504.8,462.3,501.6,465.5z"/></g></g></svg>