<?xml version="1.0" ?><svg width="512px" height="512px" viewBox="0 0 512 512" id="Layer_1" style="enable-background:new 0 0 512 512;" version="1.1" xml:space="preserve" xmlns="http://www.w3.org/2000/svg" xmlns:xlink="http://www.w3.org/1999/xlink"><style type="text/css">
	.st0{fill:#D3D8D9;}
	.st1{fill:#EDEDED;}
	.st2{fill:#A8B1B3;}
	.st3{fill:#FFFFFF;}
	.st4{fill:#FB8A8A;}
	.st5{fill:#FCB1B1;}
	.st6{fill:#F96363;}
	.st7{fill:#7AD1F9;}
	.st8{fill:#FDDD8D;}
	.st9{fill:#7BDE9E;}
	.st10{fill:#4CC3F7;}
	.st11{fill:#FDD267;}
	.st12{fill:#50D27E;}
	.st13{fill:#333333;}
</style><g><g><g><rect class="st0" height="151.8" width="35.9" x="238" y="356.2"/></g><g><g><polygon class="st0" points="464.4,508 428.5,508 357.8,356.2 393.8,356.2     "/></g><g><polygon class="st0" points="154.2,356.2 83.5,508 47.6,508 118.2,356.2     "/></g></g></g><g><g><rect class="st1" height="25.7" width="35.9" x="238" y="356.2"/></g><g><g><polygon class="st1" points="405.7,381.9 369.8,381.9 357.8,356.2 393.8,356.2     "/></g><g><polygon class="st2" points="464.4,508 428.5,508 416.5,482.3 452.4,482.3     "/></g><g><polygon class="st2" points="47.6,508 83.5,508 95.5,482.3 59.6,482.3     "/></g><g><polygon class="st1" points="154.2,356.2 142.2,381.9 106.3,381.9 118.2,356.2     "/></g></g></g><g><g><rect class="st2" height="25.7" width="35.9" x="238" y="482.3"/></g></g><rect class="st3" height="262.9" width="408.2" x="51.9" y="48.6"/><g><g><path class="st4" d="M486.2,11.8v29.1c0,4.3-3.5,7.8-7.8,7.8H33.6c-4.3,0-7.8-3.5-7.8-7.8V11.8c0-4.3,3.5-7.8,7.8-7.8h444.9     C482.8,4,486.2,7.5,486.2,11.8z"/></g><g><path class="st5" d="M486.2,11.8V26c0-4.3-3.5-7.8-7.8-7.8H33.6c-4.3,0-7.8,3.5-7.8,7.8V11.8c0-4.3,3.5-7.8,7.8-7.8h444.9     C482.8,4,486.2,7.5,486.2,11.8z"/></g><g><path class="st6" d="M486.2,26.6v14.2c0,4.3-3.5,7.8-7.8,7.8H33.6c-4.3,0-7.8-3.5-7.8-7.8V26.6c0,4.3,3.5,7.8,7.8,7.8h444.9     C482.8,34.4,486.2,30.9,486.2,26.6z"/></g></g><g><g><path class="st4" d="M486.2,319.4v29.1c0,4.3-3.5,7.8-7.8,7.8H33.6c-4.3,0-7.8-3.5-7.8-7.8v-29.1c0-4.3,3.5-7.8,7.8-7.8h444.9     C482.8,311.6,486.2,315,486.2,319.4z"/></g><g><path class="st5" d="M486.2,319.4v14.2c0-4.3-3.5-7.8-7.8-7.8H33.6c-4.3,0-7.8,3.5-7.8,7.8v-14.2c0-4.3,3.5-7.8,7.8-7.8h444.9     C482.8,311.6,486.2,315,486.2,319.4z"/></g><g><path class="st6" d="M486.2,334.2v14.2c0,4.3-3.5,7.8-7.8,7.8H33.6c-4.3,0-7.8-3.5-7.8-7.8v-14.2c0,4.3,3.5,7.8,7.8,7.8h444.9     C482.8,342,486.2,338.5,486.2,334.2z"/></g></g><g><g><g><path class="st7" d="M173.5,258.1c0,10.4-8.4,18.8-18.8,18.8c-10.4,0-18.9-8.4-18.9-18.8c0-10.4,8.4-18.8,18.9-18.8      C165.1,239.2,173.5,247.7,173.5,258.1z"/></g></g><g><g><path class="st8" d="M381,258.1c0,10.4-8.4,18.8-18.8,18.8c-10.4,0-18.9-8.4-18.9-18.8c0-10.4,8.4-18.8,18.9-18.8      C372.6,239.2,381,247.7,381,258.1z"/></g></g><g><g><path class="st9" d="M238,129.9c0,10.4-8.4,18.8-18.8,18.8c-10.4,0-18.9-8.4-18.9-18.8c0-10.4,8.4-18.8,18.9-18.8      C229.6,111,238,119.5,238,129.9z"/></g></g></g><g><g><g><path class="st10" d="M173.6,258c0,10.4-8.4,18.8-18.8,18.8c-8.1,0-15-5.1-17.7-12.2c2,0.8,4.3,1.2,6.6,1.2      c10.4,0,18.8-8.4,18.8-18.8c0-2.3-0.4-4.6-1.2-6.6C168.4,243,173.6,250,173.6,258z"/></g></g><g><g><path class="st11" d="M381,258c0,10.4-8.4,18.8-18.8,18.8c-8.1,0-15-5.1-17.7-12.2c2.1,0.8,4.3,1.2,6.6,1.2      c10.4,0,18.8-8.4,18.8-18.8c0-2.3-0.4-4.6-1.2-6.6C376,243.1,381,250,381,258z"/></g></g><g><g><path class="st12" d="M238,129.9c0,10.4-8.4,18.8-18.8,18.8c-8.1,0-15-5.1-17.7-12.2c2,0.8,4.3,1.2,6.6,1.2      c10.4,0,18.8-8.4,18.8-18.8c0-2.3-0.4-4.6-1.2-6.6C233,114.9,238,121.8,238,129.9z"/></g></g></g><g><path class="st13" d="M478.4,52.6c6.5,0,11.8-5.3,11.8-11.8V11.8c0-6.5-5.3-11.8-11.8-11.8H33.6c-6.5,0-11.8,5.3-11.8,11.8v29.1    c0,6.5,5.3,11.8,11.8,11.8h14.3v254.9H33.6c-6.5,0-11.8,5.3-11.8,11.8v29.1c0,6.5,5.3,11.8,11.8,11.8H112L44,506.3    c-0.6,1.2-0.5,2.7,0.2,3.8c0.8,1.1,2,1.8,3.4,1.8h35.9c1.6,0,3-0.9,3.6-2.3l69.6-149.5H234V508c0,2.2,1.8,4,4,4h35.9    c2.2,0,4-1.8,4-4V360.2h77.4l69.6,149.5c0.6,1.4,2.1,2.3,3.6,2.3h35.9c1.4,0,2.6-0.7,3.4-1.8c0.7-1.2,0.8-2.6,0.2-3.8l-68-146.1    h78.4c6.5,0,11.8-5.3,11.8-11.8v-29.1c0-6.5-5.3-11.8-11.8-11.8h-14.3V52.6H478.4z M29.8,40.9V11.8c0-2.1,1.7-3.8,3.8-3.8h444.9    c2.1,0,3.8,1.7,3.8,3.8v29.1c0,2.1-1.7,3.8-3.8,3.8H33.6C31.5,44.6,29.8,43,29.8,40.9z M81,504H53.9l66.9-143.8h27.1L81,504z     M269.9,504H242V360.2h27.9V504z M458.1,504H431l-66.9-143.8h27.1L458.1,504z M482.2,319.4v29.1c0,2.1-1.7,3.8-3.8,3.8H33.6    c-2.1,0-3.8-1.7-3.8-3.8v-29.1c0-2.1,1.7-3.8,3.8-3.8h444.9C480.5,315.6,482.2,317.3,482.2,319.4z M456.1,307.6H55.9V52.6h400.2    V307.6z"/><path class="st13" d="M133,119.6c1.6,1.6,4.1,1.6,5.7,0l11.2-11.2l11.2,11.2c1.6,1.6,4.1,1.6,5.7,0c1.6-1.6,1.6-4.1,0-5.7    l-11.2-11.2l11.2-11.2c1.6-1.6,1.6-4.1,0-5.7c-1.6-1.6-4.1-1.6-5.7,0l-11.2,11.2L138.7,86c-1.6-1.6-4.1-1.6-5.7,0    c-1.6,1.6-1.6,4.1,0,5.7l11.2,11.2L133,114C131.4,115.5,131.4,118.1,133,119.6z"/><path class="st13" d="M345.4,200c1.6,1.6,4.1,1.6,5.7,0l11.2-11.2l11.2,11.2c1.6,1.6,4.1,1.6,5.7,0c1.6-1.6,1.6-4.1,0-5.7    l-11.2-11.2L379,172c1.6-1.6,1.6-4.1,0-5.7c-1.6-1.6-4.1-1.6-5.7,0l-11.2,11.2L351,166.3c-1.6-1.6-4.1-1.6-5.7,0    c-1.6,1.6-1.6,4.1,0,5.7l11.2,11.2l-11.2,11.2C343.8,195.9,343.8,198.4,345.4,200z"/><path class="st13" d="M275.3,241.2c-1.6-1.6-4.1-1.6-5.7,0l-11.2,11.2l-11.2-11.2c-1.6-1.6-4.1-1.6-5.7,0c-1.6,1.6-1.6,4.1,0,5.7    l11.2,11.2l-11.2,11.2c-1.6,1.6-1.6,4.1,0,5.7c1.6,1.6,4.1,1.6,5.7,0l11.2-11.2l11.2,11.2c1.6,1.6,4.1,1.6,5.7,0    c1.6-1.6,1.6-4.1,0-5.7l-11.2-11.2l11.2-11.2C276.8,245.3,276.8,242.8,275.3,241.2z"/><path class="st13" d="M150.7,206.4v29.2c-10.7,1.9-18.9,11.2-18.9,22.5c0,12.6,10.3,22.8,22.9,22.8c12.6,0,22.8-10.2,22.8-22.8    c0-11.2-8.2-20.6-18.8-22.5v-29.2c0-12.3,10-22.4,22.4-22.4h64c16.8,0,30.4-13.6,30.4-30.4v-18.9c0-12.4,10.1-22.4,22.4-22.4h68.7    l-18.2,18.2c-1.6,1.6-1.6,4.1,0,5.7c1.6,1.6,4.1,1.6,5.7,0l25-25c0.8-0.8,1.2-1.8,1.2-2.8c0-1.1-0.4-2.1-1.2-2.8l-25-25    c-1.6-1.6-4.1-1.6-5.7,0c-1.6,1.6-1.6,4.1,0,5.7l18.2,18.2h-68.7c-16.8,0-30.4,13.6-30.4,30.4v18.9c0,12.3-10,22.4-22.4,22.4h-64    C164.3,176,150.7,189.6,150.7,206.4z M169.5,258.1c0,8.2-6.7,14.8-14.8,14.8c-8.2,0-14.9-6.7-14.9-14.8c0-8.2,6.7-14.8,14.9-14.8    C162.9,243.2,169.5,249.9,169.5,258.1z"/><path class="st13" d="M362.2,235.2c-12.6,0-22.9,10.2-22.9,22.8c0,12.6,10.3,22.8,22.9,22.8c12.6,0,22.8-10.2,22.8-22.8    C385,245.5,374.8,235.2,362.2,235.2z M362.2,272.9c-8.2,0-14.9-6.7-14.9-14.8c0-8.2,6.7-14.8,14.9-14.8c8.2,0,14.8,6.7,14.8,14.8    C377,266.2,370.4,272.9,362.2,272.9z"/><path class="st13" d="M219.2,152.7c12.6,0,22.8-10.2,22.8-22.8S231.8,107,219.2,107c-12.6,0-22.9,10.2-22.9,22.8    S206.6,152.7,219.2,152.7z M219.2,115c8.2,0,14.8,6.7,14.8,14.8c0,8.2-6.7,14.8-14.8,14.8c-8.2,0-14.9-6.7-14.9-14.8    C204.3,121.7,211,115,219.2,115z"/></g></g></svg>