<?xml version="1.0" ?><svg width="512px" height="512px" viewBox="0 0 512 512" id="Layer_1" style="enable-background:new 0 0 512 512;" version="1.1" xml:space="preserve" xmlns="http://www.w3.org/2000/svg" xmlns:xlink="http://www.w3.org/1999/xlink"><style type="text/css">
	.st0{fill:#7BDE9E;}
	.st1{fill:#50D27E;}
	.st2{fill:#A7E9BF;}
	.st3{fill:#FFFFFF;}
	.st4{fill:#EDEDED;}
	.st5{fill:#FB8A8A;}
	.st6{fill:#FCB1B1;}
	.st7{fill:#F96363;}
	.st8{fill:#333333;}
</style><g><g><g><path class="st0" d="M300.3,60.3l201.4,201.4c8.3,8.3,8.3,21.8,0,30.2l-39.8,39.8c8.3-8.3,8.4-21.9,0-30.2L260.6,100.1     c-4-4-9.4-6.2-15-6.2l-121-0.5c-5.9,0-11.3,2.4-15.2,6.3l39.8-39.8c3.9-3.9,9.2-6.3,15.2-6.3l121,0.5     C291,54,296.4,56.3,300.3,60.3z"/></g><g><path class="st1" d="M462,301.5l15.1,15.1l-15.1,15.1C470.3,323.3,470.3,309.8,462,301.5z"/></g><g><path class="st2" d="M300.4,60.3l24.5,24.5c-4-4-9.3-6.2-15-6.2l-121-0.5c-5.9,0-11.3,2.4-15.2,6.3l-9.2,9.2l-39.9-0.2     c-5.9,0-11.3,2.4-15.2,6.3l39.8-39.8c3.9-3.9,9.2-6.3,15.2-6.3L285.4,54C291,54,296.4,56.3,300.4,60.3z"/></g><g><path class="st1" d="M477.3,237.2l24.5,24.5c8.3,8.3,8.3,21.8,0,30.2l-39.8,39.8c8.3-8.3,8.3-21.9,0-30.2l-9.4-9.4l24.7-24.7     C485.6,259.1,485.6,245.6,477.3,237.2z"/></g><g><rect class="st3" height="219.5" transform="matrix(0.7071 -0.7071 0.7071 0.7071 -33.8893 335.2653)" width="26.5" x="374.5" y="98.8"/></g><g><rect class="st4" height="32.4" transform="matrix(0.7071 -0.7071 0.7071 0.7071 -61.2901 401.4168)" width="26.5" x="440.7" y="258.5"/></g><g><path class="st5" d="M260.6,100.1L462,301.5c8.3,8.3,8.3,21.9,0,30.2L341.4,452.2c-8.4,8.4-21.9,8.4-30.2,0L109.8,250.8     c-4-4-6.2-9.4-6.2-15l-0.5-121c0-11.9,9.6-21.5,21.5-21.5l121,0.5C251.2,93.9,256.6,96.1,260.6,100.1z"/></g><g><path class="st6" d="M260.6,100.1l24.5,24.5c-4-4-9.4-6.2-15-6.2l-121-0.5c-11.9,0-21.5,9.6-21.5,21.5l0.5,121     c0,5.7,2.3,11.1,6.2,15l-24.5-24.5c-4-4-6.2-9.4-6.2-15l-0.5-121c0-11.8,9.6-21.5,21.5-21.5l121,0.5     C251.2,93.8,256.6,96.1,260.6,100.1z"/></g><g><path class="st7" d="M437.5,277l24.5,24.5c8.3,8.3,8.3,21.8,0,30.2L341.4,452.2c-8.3,8.3-21.9,8.3-30.2,0l-24.5-24.5     c8.3,8.3,21.8,8.3,30.2,0l120.5-120.5C445.8,298.9,445.8,285.4,437.5,277z"/></g><g><rect class="st3" height="219.5" transform="matrix(0.7071 -0.7071 0.7071 0.7071 -118.6214 300.1619)" width="153.6" x="226.2" y="183.5"/></g><g><path class="st4" d="M279.7,161.4l155.2,155.2L326.3,425.2l-21.7-21.7l33-33c29.8-29.8,29.8-78,0-107.8L258,183.1L279.7,161.4z"/></g><g><path class="st8" d="M326.3,429.2L326.3,429.2c-1.1,0-2.1-0.4-2.8-1.2L168.3,272.8c-1.6-1.6-1.6-4.1,0-5.7l108.6-108.6     c0.7-0.7,1.8-1.2,2.8-1.2l0,0c1.1,0,2.1,0.4,2.8,1.2l155.2,155.2c1.6,1.6,1.6,4.1,0,5.7L329.2,428     C328.4,428.8,327.4,429.2,326.3,429.2z M176.8,270l149.6,149.6l103-103L279.7,167L176.8,270z"/></g><g><path class="st3" d="M184.6,132.8c11.6,11.6,11.6,30.4,0,42c-11.6,11.6-30.4,11.6-42,0c-11.6-11.6-11.6-30.4,0-42     C154.2,121.3,173,121.3,184.6,132.8z"/></g><g><path class="st4" d="M184.6,132.8c11.6,11.6,11.6,30.4,0,42c-8.4,8.4-20.7,10.7-31.2,6.9c3.9-1.4,7.6-3.7,10.8-6.9     c11.6-11.6,11.6-30.4,0-42c-3.1-3.1-6.8-5.4-10.7-6.8C163.9,122.1,176.1,124.4,184.6,132.8z"/></g></g><path class="st8" d="M504.6,258.9L303.2,57.5c-4.7-4.7-11.2-7.4-17.8-7.4l-121-0.5c-6.8,0-13.2,2.6-18,7.4l-39.8,39.8   c0,0,0,0,0,0.1c-4.8,4.8-7.4,11.2-7.4,18l0.2,38.6c-16.3,8.4-33.5,21-49.7,37.1C21.1,219-18.5,279.7,9.7,307.8   c27.4,27.4,85.9-9.6,114.4-37.2L308.4,455c9.8,9.8,25.9,10,35.9,0c6-6,151.9-151.9,160.3-160.3   C514.5,284.8,514.5,268.7,504.6,258.9z M15.3,302.2c-23.9-23.9,15.4-81.5,39.9-106c14.1-14.1,29.4-25.5,44.1-33.5l0.3,73.1   c0,6.7,2.7,13.1,7.4,17.8l11.4,11.4C94.4,288.2,38.6,325.4,15.3,302.2z M459.1,328.9L338.6,449.4c-6.8,6.8-17.7,6.8-24.6,0   L112.7,248c-3.3-3.3-5.1-7.6-5.1-12.2l-0.3-77.2c8-3.8,15.7-6.5,22.8-7.9c-0.1,1.1-0.2,2.1-0.2,3.2c0,9,3.5,17.5,9.8,23.8   c13.1,13.1,34.5,13.1,47.6,0c13.1-13.1,13.1-34.5,0-47.6c-13.1-13.1-34.4-13.2-47.6,0c-3.5,3.5-6.1,7.6-7.7,12.1   c-7.7,1.2-16.1,3.7-24.8,7.5l-0.1-34.8c0-4.7,1.8-9.1,5.1-12.3c3.3-3.3,7.7-5.1,12.3-5.1c0,0,0,0,0,0l121,0.5c4.6,0,9,1.8,12.2,5.1   l201.4,201.4C465.9,311.1,465.9,322.1,459.1,328.9z M166.8,150.6c-6.3-6.3-15.2-9.3-25.7-9.2c1.1-2.1,2.6-4,4.3-5.7   c10.1-10.1,26.3-10,36.3,0c10,10,10,26.3,0,36.3c-10.1,10.1-26.4,9.9-36.3,0c-4.8-4.8-7.5-11.3-7.5-18.1c0-1.4,0.1-2.9,0.4-4.3   c9.6-0.6,17.6,1.4,22.9,6.7c1.6,1.6,4.1,1.6,5.7,0C168.4,154.7,168.4,152.2,166.8,150.6z M306.4,140.3l13.1-13.1l149.6,149.5   L456,289.9L306.4,140.3z M498.9,289l-26.8,26.8c-0.2-6.2-2.6-12.4-7.4-17.2l-3.2-3.2l15.9-15.9c0.8-0.8,1.2-1.8,1.2-2.8   c0-1-0.4-2.1-1.2-2.8L322.4,118.7c-1.6-1.6-4.1-1.6-5.6,0l-15.9,15.9l-37.4-37.4c-4.8-4.8-11.1-7.4-17.8-7.4l-120.3-0.5L152,62.6   c3.3-3.3,7.7-5.1,12.4-5.1L285.4,58c4.5,0,8.9,1.9,12.2,5.1l201.4,201.4C505.7,271.3,505.7,282.3,498.9,289z"/></g></svg>