<?xml version="1.0" ?><svg width="512px" height="512px" viewBox="0 0 512 512" id="Layer_1" style="enable-background:new 0 0 512 512;" version="1.1" xml:space="preserve" xmlns="http://www.w3.org/2000/svg" xmlns:xlink="http://www.w3.org/1999/xlink"><style type="text/css">
	.st0{fill:#D3D9D9;}
	.st1{fill:#A8B2B4;}
	.st2{fill:#EDEDED;}
	.st3{fill:#D3F0FD;}
	.st4{fill:#333333;}
	.st5{fill:#7C8B8E;}
	.st6{fill:#D3D8D9;}
	.st7{fill:#A8B1B3;}
	.st8{fill:#7C8B8D;}
	.st9{fill:#FB8A8A;}
	.st10{fill:#FCB1B1;}
	.st11{fill:#F96363;}
</style><g><g><g><g><g><g><g><g><g><path class="st0" d="M4,371.9v34.5c0,8.6,6.9,15.5,15.5,15.5h472.9c8.6,0,15.6-6.9,15.6-15.5v-34.5H4z"/></g></g></g><g><g><g><path class="st1" d="M455.2,421.9h37.3c8.5,0,15.4-6.9,15.4-15.4v-34.6h-37.2v34.6C470.7,415,463.8,421.9,455.2,421.9z"/></g></g></g><g><g><g><path class="st2" d="M56.8,421.9H19.4C10.9,421.9,4,415,4,406.5v-34.6h37.2v34.6C41.2,415,48.1,421.9,56.8,421.9z"/></g></g></g><g><g><g><path class="st3" d="M508,49.8v322.1H4V49.8c0-8.5,6.9-15.5,15.4-15.5h472.9C500.9,34.3,508,41.3,508,49.8z"/></g></g></g><path class="st4" d="M492.4,30.3H19.5C8.8,30.3,0,39,0,49.8l0,356.6c0,10.8,8.8,19.5,19.5,19.5H200l-21.6,47.8h-13.1        c-2.2,0-4,1.8-4,4s1.8,4,4,4h181.6c2.2,0,4-1.8,4-4s-1.8-4-4-4h-13.1L312,425.9h180.4c10.8,0,19.6-8.8,19.6-19.5l0-356.6        C512,39,503.2,30.3,492.4,30.3z M324.8,473.7H187.1l21.6-47.8h94.4L324.8,473.7z M504,406.4c0,6.3-5.2,11.5-11.6,11.5H19.5        c-6.3,0-11.5-5.2-11.5-11.5v-30.5h496V406.4z M504,367.9H8V49.8c0-6.4,5.1-11.5,11.4-11.5h472.9c6.4,0,11.6,5.2,11.6,11.5        V367.9z"/></g></g><g><g><path class="st5" d="M238.6,396.9c0,4-3.2,7.1-7.1,7.1c-3.9,0-7.1-3.2-7.1-7.1c0-3.9,3.2-7.1,7.1-7.1        C235.4,389.8,238.6,393,238.6,396.9z"/></g><g><path class="st5" d="M263.1,396.9c0,4-3.2,7.1-7.1,7.1c-3.9,0-7.1-3.2-7.1-7.1c0-3.9,3.2-7.1,7.1-7.1        C259.9,389.8,263.1,393,263.1,396.9z"/></g><g><path class="st5" d="M287.7,396.9c0,4-3.2,7.1-7.1,7.1c-3.9,0-7.1-3.2-7.1-7.1c0-3.9,3.2-7.1,7.1-7.1        C284.5,389.8,287.7,393,287.7,396.9z"/></g></g></g></g></g><g><g><g><g><g><g><path class="st6" d="M381.9,147.9c-19.5,19.5-51.1,19.5-70.7,0c-19.5-19.5-19.5-51.2,0-70.7c13.8-13.8,33.6-17.8,50.9-12.1         l-37,37l6.6,25.3l25.3,6.6l37-37C399.7,114.2,395.7,134.1,381.9,147.9z"/></g></g><g><g><path class="st2" d="M362.2,65.1l-6.6,6.6c-12.8,0-25.5,4.9-35.2,14.6c-18,18-19.4,46.3-4.2,65.8c-1.7-1.3-3.3-2.7-4.9-4.3         c-19.5-19.5-19.5-51.1,0-70.7C325,63.4,344.9,59.4,362.2,65.1z"/></g></g><g><g><path class="st7" d="M381.9,147.9c-19.5,19.5-51.1,19.5-70.7,0c-1.5-1.5-3-3.1-4.2-4.8c19.6,15.1,47.8,13.7,65.8-4.3         c9.7-9.7,14.6-22.5,14.6-35.2l6.6-6.6C399.7,114.2,395.7,134.1,381.9,147.9z"/></g></g><g><g><path class="st6" d="M130.1,258.3c19.5-19.5,51.1-19.5,70.7,0c19.5,19.5,19.5,51.2,0,70.7c-13.8,13.8-33.6,17.8-50.9,12.1         l37-37l-6.6-25.3l-25.3-6.6l-37,37C112.3,291.9,116.3,272.1,130.1,258.3z"/></g></g><g><g><g><path class="st7" d="M149.9,341.1l6.6-6.6c12.8,0,25.5-4.9,35.2-14.6c18-18,19.4-46.3,4.2-65.8c1.7,1.3,3.3,2.7,4.9,4.3          c19.5,19.5,19.5,51.1,0,70.7C187,342.8,167.2,346.8,149.9,341.1z"/></g></g><g><g><path class="st2" d="M130.1,258.3c19.5-19.5,51.1-19.5,70.7,0c1.5,1.5,3,3.1,4.2,4.8c-19.6-15.1-47.8-13.7-65.8,4.3          c-9.7,9.7-14.6,22.5-14.6,35.2l-6.6,6.6C112.3,291.9,116.4,272.1,130.1,258.3z"/></g></g></g></g><g><g><path class="st7" d="M272.3,219.3c-19.3,19.3-39.6,37.8-60.6,55.2c-2.4-5.9-6.1-11.4-10.8-16.2c-4.8-4.8-10.3-8.4-16.2-10.8        c17.5-21.1,35.9-41.3,55.2-60.6c19.3-19.3,39.5-37.7,60.6-55.2c2.5,5.9,6.1,11.4,10.9,16.2c4.8,4.8,10.3,8.4,16.2,10.8        C310,179.8,291.6,200,272.3,219.3z"/></g></g><g><g><path class="st8" d="M327.5,158.7c-17.5,21.1-35.9,41.3-55.2,60.6c-19.3,19.3-39.5,37.8-60.6,55.2c-1.5-3.6-3.4-7.1-5.8-10.3        c20.2-16.8,39.6-34.6,58.1-53.2c18.5-18.5,36.3-37.9,53.2-58.1C320.4,155.3,323.9,157.2,327.5,158.7z"/></g></g><g><g><path class="st6" d="M300.4,131.7c1.5,3.6,3.4,7,5.8,10.3c-20.2,16.9-39.6,34.6-58.1,53.2s-36.3,38-53.2,58.1        c-3.2-2.4-6.7-4.3-10.3-5.8c17.5-21.1,35.9-41.3,55.2-60.6C259.1,167.5,279.3,149.1,300.4,131.7z"/></g></g></g></g><g><g><g><rect class="st6" height="155.7" transform="matrix(0.7071 -0.7071 0.7071 0.7071 -58.0665 214.8807)" width="26.8" x="216.9" y="99.7"/></g></g><g><g><rect class="st2" height="15.2" transform="matrix(0.7071 -0.7071 0.7071 0.7071 -37.4916 165.2083)" width="26.8" x="167.3" y="120.3"/></g></g><g><g><rect class="st7" height="15.2" transform="matrix(0.7071 -0.7071 0.7071 0.7071 -78.637 264.542)" width="26.8" x="266.6" y="219.6"/></g></g><g><g><polygon class="st6" points="184.8,113 165.8,132 155.7,124.9 139.3,113.5 125.7,91.9 144.7,72.9 166.3,86.5 177.7,102.9             "/></g></g><g><g><polygon class="st2" points="154.8,79.3 132.1,102 125.7,91.9 144.7,72.9      "/></g></g><g><g><polygon class="st7" points="184.8,113 165.8,132 155.7,124.9 177.7,102.9      "/></g></g><g><g><path class="st9" d="M268.4,261.3l72.3,72.3c12.1,12.1,31.8,13.5,44.7,2.3c7.4-6.5,11.1-15.4,11.1-24.4       c0-8.3-3.2-16.6-9.5-22.8l-73-73c-3.2-3.2-8.5-3.2-11.7,0l-33.9,33.9C265.2,252.8,265.2,258,268.4,261.3z"/></g></g><g><g><path class="st10" d="M382.9,337.7c0.8-0.6,1.7-1.3,2.5-1.9c7.4-6.5,11.1-15.4,11.1-24.4c0-8.3-3.2-16.6-9.5-22.8l-73-73       c-3.2-3.2-8.5-3.2-11.7,0l-7.6,7.6c3.2-3.2,8.5-3.2,11.7,0l73,73c6.3,6.3,9.4,14.6,9.5,22.8       C388.9,325.6,386.9,332.2,382.9,337.7z"/></g></g><g><g><path class="st11" d="M268.4,261.3l72.3,72.3c12.1,12.1,31.8,13.5,44.7,2.3c2-1.7,3.7-3.6,5.1-5.7c-12.9,9.1-30.9,7.1-42.2-4.2       L276,253.7c-3.2-3.2-3.2-8.5,0-11.7l-7.6,7.6C265.2,252.8,265.2,258,268.4,261.3z"/></g></g><g><path class="st4" d="M316.9,212.8c-4.8-4.8-12.6-4.8-17.4,0l-4.7,4.7l-7.7-7.7c14.4-15,28.3-30.5,41.6-46.4      c20.1,7.1,41.6,1.7,56-12.7c14.5-14.5,19.5-35.6,13.1-55c-0.4-1.3-1.5-2.3-2.9-2.6c-1.3-0.3-2.8,0.1-3.8,1.1l-35.4,35.4      l-20.8-5.4l-5.4-20.8L365,67.9c1-1,1.4-2.4,1.1-3.7c-0.3-1.4-1.3-2.4-2.6-2.9c-19.5-6.4-40.5-1.4-55,13.1      c-15.1,15.1-19.3,37-12.6,56c-15.9,13.2-31.4,27.2-46.4,41.6l-61.5-61.5l-18.4-26.3c-0.3-0.4-0.7-0.8-1.2-1.1l-21.6-13.6      c-1.6-1-3.6-0.8-5,0.6l-19,19c-1.3,1.3-1.6,3.4-0.6,5l13.6,21.6c0.3,0.4,0.6,0.8,1.1,1.1l26.2,18.3l61.5,61.5      c-14.4,15-28.3,30.4-41.5,46.2c-20.1-7.3-41.9-1.5-56,12.7c-14.5,14.5-19.5,35.6-13.1,55c0.4,1.3,1.5,2.3,2.9,2.6      c1.3,0.3,2.8-0.1,3.8-1.1l35.4-35.4l20.8,5.4l5.4,20.8L147,338.3c-1,1-1.4,2.4-1.1,3.8c0.3,1.4,1.3,2.4,2.6,2.9      c5.6,1.8,11.3,2.8,17,2.8c14,0,27.7-5.5,38-15.8c15.1-15.1,19.3-37,12.7-56c15.8-13.2,31.2-27.1,46.2-41.5l7.7,7.7l-4.7,4.7      c-4.8,4.8-4.8,12.6,0,17.4l72.3,72.3c13.8,13.8,35.8,14.9,50.2,2.4c15.9-13.9,16.8-38.2,1.9-53.1L316.9,212.8z M314.1,80      c8.8-8.8,20.4-13.5,32.4-13.5c2.6,0,5.3,0.2,7.9,0.7l-32,32c-1,1-1.4,2.5-1,3.8l6.6,25.3c0.4,1.4,1.5,2.5,2.9,2.9l25.2,6.6      c1.4,0.3,2.8,0,3.8-1l32-32c2.6,14.6-2.1,29.6-12.8,40.3c-17.9,17.9-47.1,17.9-65,0S296.2,98,314.1,80z M299,138      c2.5,4.7,5.6,8.9,9.4,12.7c3.8,3.8,8,6.9,12.6,9.4c-12.6,15-25.9,29.7-39.6,43.9l-26.5-26.5C269.3,163.9,284,150.6,299,138z       M142.3,110.7l-11.5-18.2L145.3,78l18.2,11.4l16.1,23.1l-14.2,14.2L142.3,110.7z M198,326.1c-10.7,10.7-25.7,15.4-40.3,12.8      l32-32c1-1,1.4-2.5,1-3.8l-6.6-25.3c-0.4-1.4-1.5-2.5-2.9-2.9l-25.2-6.6c-1.4-0.4-2.8,0-3.8,1l-32,32      c-2.6-14.6,2.1-29.6,12.8-40.3c17.7-17.7,46.7-18.3,65,0C215.9,279.1,215.9,308.2,198,326.1z M213,268.2      c-2.5-4.7-5.6-8.9-9.4-12.7c-3.8-3.8-8-6.9-12.6-9.4c12.6-15,25.8-29.6,39.5-43.8l26.4,26.4C242.7,242.3,228,255.6,213,268.2z       M171.5,132l13.3-13.3l104.4,104.4l-13.3,13.3L171.5,132z M382.8,332.8c-11.2,9.7-28.4,8.8-39.3-2.1l-72.3-72.3      c-0.8-0.8-1.3-1.9-1.3-3s0.4-2.2,1.3-3l33.9-33.9c0.8-0.8,1.9-1.3,3-1.3s2.2,0.4,3,1.3l73,73C395.9,303.1,395.1,322,382.8,332.8      z"/></g><g><g><path class="st4" d="M371.3,308.9l-64.5-64.5c-1.6-1.6-1.6-4.1,0-5.7s4.1-1.6,5.7,0l64.5,64.5c1.6,1.6,1.6,4.1,0,5.7       C375.4,310.5,372.9,310.5,371.3,308.9z"/></g></g><g><g><path class="st4" d="M355.5,323.5l-63.9-63.9c-1.6-1.6-1.6-4.1,0-5.7s4.1-1.6,5.7,0l63.9,63.9c1.6,1.6,1.6,4.1,0,5.7       C359.6,325.1,357,325.1,355.5,323.5z"/></g></g></g></g></g></svg>