<?xml version="1.0" ?><svg width="512px" height="512px" viewBox="0 0 512 512" id="Layer_1" style="enable-background:new 0 0 512 512;" version="1.1" xml:space="preserve" xmlns="http://www.w3.org/2000/svg" xmlns:xlink="http://www.w3.org/1999/xlink"><style type="text/css">
	.st0{fill:#FB8A8A;}
	.st1{fill:#FCB1B1;}
	.st2{fill:#F96363;}
	.st3{fill:#FFFFFF;}
	.st4{fill:#EDEDED;}
	.st5{fill:#BD90BE;}
	.st6{fill:#D3B5D3;}
	.st7{fill:none;stroke:#333333;stroke-width:2;stroke-linecap:round;stroke-linejoin:round;stroke-miterlimit:10;}
	.st8{fill:#FEE8B3;}
	.st9{fill:#FFF4D9;}
	.st10{fill:#516468;}
	.st11{fill:#7C8B8D;}
	.st12{fill:#333333;}
</style><g><g><g><path class="st0" d="M508,224.3v63.4c0,5.9-4.8,10.7-10.7,10.7h-39.8c-16.7,79.7-79.5,142.5-159.2,159.2v39.8     c0,5.9-4.8,10.7-10.7,10.7h-63.4c-5.9,0-10.7-4.8-10.7-10.7v-39.8c-79.7-16.7-142.5-79.5-159.2-159.2H14.7     c-5.9,0-10.7-4.8-10.7-10.7v-63.4c0-5.9,4.8-10.7,10.7-10.7h39.8c16.7-79.8,79.4-142.5,159.2-159.2V14.7     c0-5.9,4.8-10.7,10.7-10.7h63.4c5.9,0,10.7,4.8,10.7,10.7v39.7c79.7,16.7,142.5,79.4,159.2,159.2h39.8     C503.2,213.6,508,218.4,508,224.3z"/></g></g><g><path class="st1" d="M332.2,92.4c0,132.4-107.4,239.8-239.8,239.8c-9.6,0-19-0.6-28.4-1.7c-4-10.3-7.2-21-9.6-32.1H14.7    c-5.9,0-10.7-4.8-10.7-10.7v-63.4c0-5.9,4.8-10.7,10.7-10.7h39.8c16.6-79.8,79.4-142.5,159.1-159.2V14.7c0-5.9,4.8-10.7,10.7-10.7    h63.4c5.9,0,10.7,4.8,10.7,10.7v39.7c11.1,2.3,21.8,5.5,32.1,9.6C331.6,73.3,332.2,82.8,332.2,92.4z"/></g><g><g><path class="st2" d="M508,224.3v63.4c0,5.9-4.8,10.7-10.7,10.7h-39.8c-16.7,79.7-79.5,142.5-159.2,159.2v39.8     c0,5.9-4.8,10.7-10.7,10.7h-63.4c-5.9,0-10.7-4.8-10.7-10.7v-39.8c-39.9-8.4-75.6-28.2-103.3-56c10.3,1.2,20.8,1.9,31.4,1.9     c144.6,0,261.7-117.1,261.7-261.6c0-10.7-0.6-21.2-1.9-31.5c27.8,27.8,47.7,63.4,56,103.3h39.8C503.2,213.6,508,218.4,508,224.3z     "/></g></g><g><g><path class="st3" d="M417.9,256c0,89.4-72.5,161.9-161.9,161.9c-89.4,0-161.9-72.5-161.9-161.9c0-89.5,72.5-161.9,161.9-161.9     C345.4,94.1,417.9,166.6,417.9,256z"/></g><g><path class="st4" d="M417.9,256c0,89.5-72.5,161.9-162,161.9c-56.3,0-105.9-28.8-134.8-72.4c25.6,17.2,56.4,27,89.5,27     c89.5,0,161.9-72.5,161.9-161.9c0-33.1-9.9-63.9-27-89.6C389.2,150.1,417.9,199.7,417.9,256z"/></g><g><g><g><path class="st5" d="M358.1,334.9v46.7c-27.9,22.7-63.4,36.3-102.2,36.3c-38.7,0-74.3-13.6-102.1-36.3v-46.7       c0-36.1,29.2-65.4,65.3-65.4h73.8C329,269.6,358.1,298.8,358.1,334.9z"/></g><g><path class="st6" d="M358.1,334.9v25.1c0-36.1-29.2-65.3-65.3-65.3h-73.8c-36.1,0-65.3,29.3-65.3,65.3v-25.1       c0-36.1,29.2-65.4,65.3-65.4h73.8C328.9,269.6,358.1,298.8,358.1,334.9z"/></g><g><path class="st7" d="M314.7,351.9"/></g><g><path class="st7" d="M314.7,463.7"/></g></g><g><path class="st8" d="M302.2,193.3v44.8c0,23.6-19.2,42.8-42.8,42.8c-23.6,0-42.8-19.2-42.8-42.8v-44.8H302.2z"/></g><g><rect class="st9" height="17.3" width="85.6" x="216.6" y="193.3"/></g><g><path class="st10" d="M332.1,145.9l-30,47.5h-85.6V166c0-11.1,9.1-20.1,20.1-20.1H332.1z"/></g><g><path class="st11" d="M332.1,145.9l-12.3,19.6h-83.1c-11.1,0-20.1,9.1-20.1,20.1V166c0-11.1,9.1-20.1,20.1-20.1H332.1z"/></g></g><g><path class="st12" d="M497.3,209.6h-36.6c-17.8-79-79.4-140.7-158.4-158.4V14.7c0-8.1-6.6-14.7-14.7-14.7h-63.4     c-8.1,0-14.7,6.6-14.7,14.7v36.5C130.7,69,69,130.6,51.2,209.6H14.7c-8.1,0-14.7,6.6-14.7,14.7v63.4c0,8.1,6.6,14.7,14.7,14.7     h36.5c17.8,79,79.5,140.7,158.4,158.4v36.6c0,8.1,6.6,14.7,14.7,14.7h63.4c8.1,0,14.7-6.6,14.7-14.7v-36.6     c79-17.8,140.7-79.5,158.4-158.4h36.6c8.1,0,14.7-6.6,14.7-14.7v-63.4C512,216.2,505.4,209.6,497.3,209.6z M504,287.7     c0,3.7-3,6.7-6.7,6.7h-39.8c-1.9,0-3.5,1.3-3.9,3.2C437.2,376,376,437.2,297.5,453.6c-1.9,0.4-3.2,2-3.2,3.9v39.8     c0,3.7-3,6.7-6.7,6.7h-63.4c-3.7,0-6.7-3-6.7-6.7v-39.8c0-1.9-1.3-3.5-3.2-3.9C136,437.2,74.7,376,58.3,297.5     c-0.4-1.9-2-3.2-3.9-3.2H14.7c-3.7,0-6.7-3-6.7-6.7v-63.4c0-3.7,3-6.7,6.7-6.7h39.8c1.9,0,3.5-1.3,3.9-3.2     C74.8,136,136,74.7,214.4,58.3c1.9-0.4,3.2-2,3.2-3.9V14.7c0-3.7,3-6.7,6.7-6.7h63.4c3.7,0,6.7,3,6.7,6.7v39.7     c0,1.9,1.3,3.5,3.2,3.9c78.4,16.4,139.7,77.7,156.1,156.1c0.4,1.9,2,3.2,3.9,3.2h39.8c3.7,0,6.7,3,6.7,6.7V287.7z"/><path class="st12" d="M256,90.1c-91.5,0-165.9,74.4-165.9,165.9c0,91.5,74.4,165.9,165.9,165.9c91.5,0,165.9-74.4,165.9-165.9     C421.9,164.5,347.4,90.1,256,90.1z M207.3,406.2v-73.6c0-2.2-1.8-4-4-4c-2.2,0-4,1.8-4,4v70.8c-15-5.8-29-13.9-41.4-23.7v-44.6     c0-33.8,27.4-61.4,61.2-61.4h9.9c8.2,7,18.8,11.3,30.4,11.3c11.6,0,22.2-4.3,30.4-11.3h3c33.8,0,61.3,27.5,61.3,61.4v44.6     c-12.4,9.9-26.4,17.9-41.4,23.8v-70.8c0-2.2-1.8-4-4-4c-2.2,0-4,1.8-4,4v73.6c-15.4,5-31.8,7.7-48.8,7.7     C239,413.9,222.6,411.2,207.3,406.2z M298.2,197.3v40.8c0,21.4-17.4,38.8-38.8,38.8c-21.4,0-38.8-17.4-38.8-38.8v-40.8H298.2z      M220.6,189.3v-23.4c0-8.9,7.2-16.1,16.1-16.1h88.2L300,189.3H220.6z M362.1,372.8v-37.8c0-36.8-28.9-67-65.2-69.2     c5.8-7.8,9.2-17.3,9.2-27.7v-43.6l29.4-46.5c0.8-1.2,0.8-2.8,0.1-4c-0.7-1.3-2-2.1-3.5-2.1h-95.5c-13.3,0-24.1,10.8-24.1,24.1     v72.2c0,10.3,3.4,19.8,9,27.5h-2.5c-38.2,0-69.2,31.1-69.2,69.4v37.9c-31.8-28.9-51.8-70.6-51.8-116.8     c0-87.1,70.8-157.9,157.9-157.9c87.1,0,157.9,70.8,157.9,157.9C413.9,302.2,393.9,343.9,362.1,372.8z"/></g></g></g></svg>