<?xml version="1.0" ?><svg width="512px" height="512px" viewBox="0 0 512 512" id="Layer_1" style="enable-background:new 0 0 512 512;" version="1.1" xml:space="preserve" xmlns="http://www.w3.org/2000/svg" xmlns:xlink="http://www.w3.org/1999/xlink"><style type="text/css">
	.st0{fill:#D3D8D9;}
	.st1{fill:#A8B1B3;}
	.st2{fill:#FFFFFF;}
	.st3{fill:#EDEDED;}
	.st4{fill:#333333;}
	.st5{fill:#7C8B8D;}
	.st6{fill:#FB8A8A;}
	.st7{fill:#F96363;}
	.st8{fill:#FCB1B1;}
</style><g><g><path class="st0" d="M375.1,194c0,41.7-33.8,75.5-75.5,75.5c-14,0-27.1-3.8-38.3-10.4L54.6,465.7c-7.4,7.4-19.4,7.4-26.8,0    c-3.6-3.7-5.5-8.4-5.4-13.3c0-4.8,1.8-9.6,5.5-13.4l206.6-206.6c-6.6-11.2-10.4-24.3-10.4-38.4c0-41.6,33.8-75.5,75.5-75.5    C341.3,118.6,375.1,152.4,375.1,194z"/></g><g><path class="st1" d="M375.1,194c0,41.7-33.8,75.5-75.5,75.5c-14,0-27.1-3.8-38.3-10.4L54.6,465.7c-7.4,7.4-19.4,7.4-26.8,0    c-3.6-3.7-5.5-8.4-5.4-13.3c0-3.7,1.1-7.4,3.3-10.6c7.4,6.5,18.7,6.2,25.8-0.9l206.7-206.6c11.2,6.6,24.3,10.4,38.3,10.4    c40.7,0,73.8-32.2,75.4-72.5C373.9,179.1,375.1,186.4,375.1,194z"/></g><g><g><ellipse class="st2" cx="299.6" cy="194" rx="33.1" ry="33.1" transform="matrix(0.9484 -0.317 0.317 0.9484 -46.0623 104.975)"/></g><g><path class="st3" d="M332.7,194c0,18.3-14.8,33.1-33.1,33.1c-17.5,0-31.8-13.6-33-30.8c6.1,7.9,15.6,13,26.3,13     c18.3,0,33.1-14.8,33.1-33.1c0-0.8,0-1.5-0.1-2.2C330.1,179.5,332.7,186.5,332.7,194z"/></g><g><path class="st4" d="M299.6,231.1c-20.4,0-37.1-16.6-37.1-37.1c0-20.4,16.6-37.1,37.1-37.1c20.4,0,37.1,16.6,37.1,37.1     C336.7,214.5,320,231.1,299.6,231.1z M299.6,165c-16,0-29.1,13-29.1,29.1c0,16,13,29.1,29.1,29.1c16,0,29.1-13,29.1-29.1     C328.7,178,315.6,165,299.6,165z"/></g><g><g><polygon class="st1" points="133.2,438.9 110.4,461.7 133.8,485.2 110.9,508 61.7,458.5 130.1,390.2 190.6,450.7 167.7,473.5           "/></g></g><g><g><g><polygon class="st0" points="100.8,497.9 123.7,475.1 133.8,485.2 110.8,508      "/></g></g></g><g><rect class="st0" height="14.2" transform="matrix(0.7071 -0.7071 0.7071 0.7071 -272.1993 257.0097)" width="32.2" x="158" y="450"/></g><g><g><rect class="st5" height="14.2" transform="matrix(0.7071 -0.7071 0.7071 0.7071 -274.1046 197.2234)" width="96.8" x="52.6" y="422.4"/></g></g><g><path class="st6" d="M299.6,4c-105,0-190.1,85.2-190.1,190c0,105,85.1,190.1,190.1,190.1c104.9,0,190-85.1,190-190.1     C489.6,89.2,404.5,4,299.6,4z M318.9,348.1v-38.5c0-4.9-4-9-9-9h-20.7c-4.9,0-9,4-9,9v38.5c-70.3-8.7-126-64.4-134.7-134.7     l38.5,0c4.9,0,9-4,9-9v-20.7c0-4.9-4-9-9-9l-38.5,0c8.7-70.1,64.2-125.7,134.3-134.6v39.8c0,4.9,4,9,9,9h21.5c4.9,0,9-4,9-9V40.1     c69.9,8.9,125.4,64.3,134.3,134.3l-39.8,0c-4.9,0-9,4-9,9v21.5c0,4.9,4,9,9,9l39.8,0C444.7,283.9,389,339.4,318.9,348.1z"/></g><g><path class="st7" d="M423.5,50c28.6,33.2,45.8,76.5,45.8,123.7c0,105-85.2,190.1-190,190.1c-47.3,0-90.5-17.2-123.8-45.8     c34.8,40.5,86.5,66.1,144.1,66.1c104.8,0,190-85.1,190-190.1C489.6,136.5,464,84.9,423.5,50z"/></g><g><path class="st8" d="M299.6,4c-105,0-190.1,85.2-190.1,190c0,57.8,25.7,109.4,66.3,144.3c-28.7-33.3-46-76.6-46-124     c0-104.9,85.1-190,190.1-190c47.3,0,90.6,17.3,123.9,46C409,29.8,357.3,4,299.6,4z"/></g><g><path class="st4" d="M456.6,211.1c-0.8-0.9-1.9-1.4-3-1.4h-39.8c-2.7,0-5-2.2-5-5v-21.5c0-2.7,2.2-5,5-5h39.8     c1.1,0,2.2-0.5,3-1.4c0.8-0.9,1.1-2,1-3.1c-9.1-72-65.8-128.6-137.7-137.7c-2.5-0.3-4.5,1.6-4.5,4v39.8c0,2.7-2.2,5-5,5h-21.5     c-2.7,0-5-2.2-5-5V40.1c0-2.4-2-4.3-4.5-4c-72.2,9.2-128.8,66-137.8,138.1c-0.1,1.1,0.2,2.3,1,3.1c0.8,0.9,1.8,1.4,3,1.4l38.5,0     c2.7,0,5,2.2,5,5v20.7c0,2.7-2.2,5-5,5h-38.5c-1.1,0-2.2,0.5-3,1.4c-0.8,0.9-1.1,2-1,3.1c9,72.4,65.8,129.2,138.2,138.2     c2.4,0.3,4.5-1.6,4.5-4v-38.5c0-2.7,2.2-5,5-5h20.7c2.7,0,5,2.2,5,5v38.5c0,2.4,2,4.3,4.5,4c72.2-9,129-65.6,138.1-137.8     C457.7,213.1,457.3,212,456.6,211.1z M182.6,290l54.8-54.8c1.3-1.3,1.6-3.3,0.6-4.8c-6.5-11-9.9-23.5-9.9-36.3     c0-39.4,32-71.5,71.5-71.5c39.4,0,71.5,32,71.5,71.5c0,39.4-32.1,71.5-71.5,71.5c-12.8,0-25.4-3.4-36.3-9.9     c-1.6-0.9-3.6-0.7-4.9,0.6l-54.8,54.8C195.9,304.7,188.9,297.7,182.6,290z M322.9,343.5v-33.9c0-7.1-5.8-13-13-13h-20.7     c-7.1,0-13,5.8-13,13v33.9c-24.6-3.8-47.2-13.4-66.3-27.5l52-52c11.5,6.2,24.4,9.5,37.6,9.5c43.8,0,79.5-35.7,79.5-79.5     c0-43.8-35.7-79.5-79.5-79.5c-43.8,0-79.5,35.6-79.5,79.5c0,13.2,3.2,26.2,9.4,37.7l-51.9,51.9c-14-19.1-23.7-41.7-27.5-66.3     h33.9c7.1,0,13-5.8,13-13v-20.7c0-7.1-5.8-13-13-13l-33.9,0c10-64.9,60.8-115.8,125.7-126v35.2c0,7.1,5.8,13,13,13h21.5     c7.1,0,13-5.8,13-13V44.7c64.7,10.2,115.5,61,125.6,125.6h-35.2c-7.1,0-13,5.8-13,13v21.5c0,7.1,5.8,13,13,13H449     C438.8,282.7,387.8,333.5,322.9,343.5z"/><path class="st4" d="M299.6,0c-107,0-194.1,87-194.1,194c0,45.3,15.6,87,41.7,120L25,436.2c-8.6,8.9-9.2,23,0,32.3     c8.9,9,23.5,9,32.4,0l4.4-4.3l46.3,46.6c1.6,1.6,4,1.6,5.7,0l22.9-22.8c1.6-1.6,1.6-4.1,0-5.6L116,461.7l17.1-17.2l31.8,31.8     c1.6,1.5,4,1.5,5.7,0l22.8-22.8c1.6-1.6,1.6-4.1,0-5.6l-57.6-57.7l43.8-43.8c33.1,26.1,74.7,41.7,120,41.7     c107,0,194-87.1,194-194.1C493.6,87,406.6,0,299.6,0z M184.9,450.7l-17.2,17.2L136,436c-1.5-1.5-4.2-1.5-5.7,0l-22.8,22.8     c-1.6,1.6-1.6,4.1,0,5.6l20.6,20.7l-17.2,17.1l-43.5-43.8l62.7-62.7L184.9,450.7z M51.8,462.9c-5.6,5.7-15.5,5.7-21.1,0     c-6.1-6.3-5.3-15.5,0-21.1l121.6-121.6c6.5,7.5,13.5,14.6,21.1,21.1L51.8,462.9z M299.6,380.1c-102.6,0-186.1-83.5-186.1-186.1     C113.5,91.5,197,8,299.6,8c102.6,0,186,83.5,186,186C485.6,296.6,402.2,380.1,299.6,380.1z"/></g></g></g></svg>