<?xml version="1.0" ?><svg width="512px" height="512px" viewBox="0 0 512 512" id="Layer_1" style="enable-background:new 0 0 512 512;" version="1.1" xml:space="preserve" xmlns="http://www.w3.org/2000/svg" xmlns:xlink="http://www.w3.org/1999/xlink"><style type="text/css">
	.st0{fill:#A8B1B3;}
	.st1{fill:#D3D8D9;}
	.st2{fill:#7C8B8E;}
	.st3{fill:#FFFFFF;}
	.st4{fill:#EDEDED;}
	.st5{fill:#FB8A8A;}
	.st6{fill:#F96363;}
	.st7{fill:#FCB1B1;}
	.st8{fill:#333333;}
	.st9{fill:#7BDE9E;}
	.st10{fill:#A7E9BF;}
	.st11{fill:#50D27E;}
</style><g><g><g><g><path class="st0" d="M363.7,254.3c-3,9.6-6.8,18.8-11.4,27.6l18.5,39.8l-49.1,49.2l-39.8-18.5c-8.8,4.6-18,8.4-27.6,11.4      l-15,41.2h-69.5l-15-41.2c-9.6-3-18.8-6.8-27.6-11.4l-39.8,18.5l-49.2-49.2l18.5-39.8c-4.6-8.8-8.4-18-11.4-27.6L4,239.2v-69.5      l41.2-15c3-9.6,6.8-18.8,11.4-27.6L38.1,87.3l49.2-49.2l39.8,18.5c8.8-4.6,18-8.5,27.6-11.4l15-41.2h69.5l15,41.2      c9.6,3,18.8,6.8,27.6,11.4l39.8-18.5l49.2,49.1l-18.5,39.8c4.6,8.8,8.5,18,11.4,27.6l41.2,15v69.5L363.7,254.3z"/></g></g><g><path class="st1" d="M259.3,88.6c0,94.2-76.4,170.6-170.7,170.6c-17.7,0-34.7-2.7-50.7-7.7c0,0-0.1,0-0.1,0     c-5.2-1.6-10.4-3.5-15.4-5.6c0,0-0.1,0-0.1,0c-6.3-2.6-12.3-5.6-18.1-9v-67.1l41.2-15c3-9.6,6.8-18.8,11.4-27.6L38.1,87.3     l49.2-49.1l39.8,18.5c8.8-4.6,18-8.4,27.6-11.4l15-41.2h67.1c3.6,6.2,6.8,12.7,9.5,19.3c1.9,4.5,3.6,9.1,5.1,13.8     C256.5,53.3,259.3,70.6,259.3,88.6z"/></g><g><g><path class="st2" d="M363.7,254.3c-3,9.6-6.8,18.8-11.4,27.6l18.6,39.8l-49.1,49.2l-39.8-18.6c-8.8,4.6-18,8.4-27.6,11.4      l-15,41.2h-69.6l-15-41.2c-7.2-2.2-14.2-5-21-8.1c1,0,2,0,3,0c120.9,0,218.9-97.9,218.9-218.8c0-1,0-2.1,0-3.1      c3.2,6.8,5.9,13.8,8.1,21l41.3,15v69.5L363.7,254.3z"/></g></g><g><path class="st3" d="M334,204.5C334,276,276,334,204.5,334c-71.5,0-129.5-58-129.5-129.5c0-71.6,58-129.6,129.5-129.6     C276,74.9,334,132.9,334,204.5z"/></g><g><path class="st4" d="M334,204.5c0,71.6-58,129.6-129.6,129.6c-45.1,0-84.8-23-107.9-57.9c20.5,13.7,45.1,21.6,71.6,21.6     c71.6,0,129.6-58,129.6-129.5c0-26.5-8-51.1-21.6-71.7C311.1,119.7,334,159.4,334,204.5z"/></g></g><g><g><circle class="st5" cx="346.9" cy="346.9" r="161.1"/></g><g><path class="st6" d="M508,346.9c0,88.9-72.1,161.1-161.1,161.1c-50.1,0-94.9-22.9-124.4-58.8c27.8,22.8,63.3,36.5,102,36.5     c89,0,161.1-72.2,161.1-161.1c0-38.8-13.7-74.4-36.5-102.2C485.1,251.9,508,296.7,508,346.9z"/></g><g><path class="st7" d="M346.9,185.9c-88.9,0-161.1,72.1-161.1,161.1c0,50.1,22.9,94.9,58.8,124.4c-22.8-27.8-36.5-63.3-36.5-102     c0-89,72.2-161.1,161.1-161.1c38.8,0,74.4,13.7,102.2,36.5C441.9,208.8,397.1,185.9,346.9,185.9z"/></g><path class="st8" d="M409,194v-24.2c0-1.7-1-3.2-2.6-3.8L367,151.6c-2.7-8.4-6.1-16.6-10.2-24.6l17.7-38c0.7-1.5,0.4-3.3-0.8-4.5    l-49.2-49.1c-1.2-1.2-3-1.5-4.5-0.8l-38,17.7c-7.8-4-16.1-7.4-24.6-10.2L243,2.6C242.4,1,240.9,0,239.2,0h-69.5    c-1.7,0-3.2,1-3.8,2.6L151.6,42c-8.4,2.7-16.6,6.1-24.6,10.2L89,34.5c-1.5-0.7-3.3-0.4-4.5,0.8L35.3,84.4c-1.2,1.2-1.5,3-0.8,4.5    l17.7,38c-4,7.9-7.4,16.2-10.2,24.6L2.6,166C1,166.5,0,168,0,169.7v69.5c0,1.7,1,3.2,2.6,3.8L42,257.3c2.7,8.4,6.2,16.7,10.2,24.7    l-17.7,38c-0.7,1.5-0.4,3.3,0.8,4.5l49.2,49.2c1.2,1.2,3,1.5,4.5,0.8l38-17.7c8.1,4.1,16.4,7.5,24.6,10.2l14.4,39.4    c0.6,1.6,2.1,2.6,3.8,2.6H194c24.6,60.4,83.9,103,152.9,103c91,0,165.1-74.1,165.1-165.1C512,277.8,469.3,218.6,409,194z     M172.5,401l-14.1-38.6c-0.4-1.2-1.4-2.1-2.6-2.4c-9-2.8-18.1-6.6-26.9-11.2c-1.1-0.6-2.4-0.6-3.6,0L88.1,366l-45.2-45.2    l17.3-37.2c0.6-1.2,0.5-2.4-0.1-3.6c-4.5-8.7-8.3-17.8-11.2-27c-0.4-1.2-1.3-2.1-2.4-2.6L8,236.4v-63.9l38.6-14.1    c1.2-0.4,2.1-1.4,2.4-2.6c2.9-9.3,6.6-18.4,11.2-27c0.6-1.1,0.6-2.4,0.1-3.6L42.9,88.1l45.2-45.2l37.2,17.4    c1.2,0.5,2.4,0.5,3.6-0.1c8.8-4.6,17.8-8.4,26.9-11.2c1.2-0.4,2.2-1.3,2.6-2.4L172.5,8h63.9l14.1,38.6c0.4,1.2,1.4,2.1,2.6,2.4    c9.4,2.9,18.4,6.7,26.9,11.2c1.1,0.6,2.4,0.6,3.6,0.1L320.8,43L366,88.1l-17.4,37.3c-0.6,1.2-0.5,2.4,0.1,3.6    c4.6,8.8,8.3,17.8,11.2,26.9c0.4,1.2,1.3,2.2,2.4,2.6l38.6,14.1V191c-16.9-5.9-35.1-9.1-54.1-9.1c-3.6,0-7.2,0.2-10.8,0.4    c-10.6-63.1-65.5-111.3-131.6-111.3c-73.6,0-133.6,59.9-133.6,133.6c0,66.1,48.2,121.1,111.3,131.6c-0.2,3.6-0.4,7.2-0.4,10.8    c0,18.9,3.2,37.1,9.1,54.1H172.5z M182.9,328.2c-59-10.3-104-61.8-104-123.7c0-69.2,56.3-125.6,125.6-125.6    c61.9,0,113.4,45,123.6,104C252.1,191.6,191.6,252.1,182.9,328.2z M346.9,504c-86.6,0-157.1-70.5-157.1-157.1    s70.5-157.1,157.1-157.1S504,260.3,504,346.9S433.5,504,346.9,504z"/><g><circle class="st9" cx="346.9" cy="346.9" r="135.4"/></g><g><path class="st10" d="M377.7,266.2c0,61.6-49.9,111.5-111.5,111.5c-19.5,0-37.7-5-53.6-13.7c-0.7-5.6-1.1-11.2-1.1-17     c0-74.8,60.7-135.4,135.4-135.4c5.8,0,11.5,0.4,17,1.1C372.7,228.5,377.7,246.7,377.7,266.2z"/></g><g><path class="st11" d="M482.4,346.9c0,74.8-60.6,135.4-135.4,135.4c-48.9,0-91.7-26-115.6-64.8c20.6,12.6,44.7,19.9,70.6,19.9     c74.8,0,135.4-60.7,135.4-135.4c0-25.9-7.3-50.1-19.9-70.7C456.4,255.1,482.4,297.9,482.4,346.9z"/></g><g><path class="st8" d="M346.9,486.4c-76.9,0-139.4-62.6-139.4-139.4S270,207.5,346.9,207.5S486.4,270,486.4,346.9     S423.8,486.4,346.9,486.4z M346.9,215.5c-72.5,0-131.4,59-131.4,131.4s59,131.4,131.4,131.4s131.4-59,131.4-131.4     S419.4,215.5,346.9,215.5z"/></g><g><circle class="st3" cx="346.9" cy="346.9" r="16.1"/></g><g><path class="st4" d="M363,346.9c0,8.9-7.2,16.1-16.1,16.1c-6.7,0-12.4-4.1-14.8-9.9c1.9,0.8,4,1.3,6.1,1.3     c8.9,0,16.1-7.2,16.1-16.1c0-2.2-0.4-4.3-1.3-6.2C358.9,334.5,363,340.2,363,346.9z"/></g><path class="st8" d="M401.1,394.3l-37.3-36.5c2-3.1,3.2-6.9,3.2-10.9c0-9.7-6.9-17.8-16.1-19.7v-42.4c0-2.2-1.8-4-4-4    c-2.2,0-4,1.8-4,4v42.4c-9.2,1.9-16.1,10-16.1,19.7c0,11.1,9,20.1,20.1,20.1c4.2,0,8-1.3,11.3-3.5l37.3,36.5    c1.7,1.6,4.1,1.5,5.7,0C402.7,398.4,402.7,395.9,401.1,394.3z M334.9,346.9c0-6.7,5.4-12.1,12.1-12.1c6.7,0,12.1,5.4,12.1,12.1    c0,6.7-5.4,12.1-12.1,12.1C340.3,359,334.9,353.6,334.9,346.9z"/><g><g><path class="st8" d="M346.9,254.2c-2.2,0-4-1.8-4-4v-11.4c0-2.2,1.8-4,4-4c2.2,0,4,1.8,4,4v11.4      C350.9,252.4,349.1,254.2,346.9,254.2z"/></g><g><path class="st8" d="M346.9,459.1c-2.2,0-4-1.8-4-4v-11.4c0-2.2,1.8-4,4-4c2.2,0,4,1.8,4,4v11.4      C350.9,457.3,349.1,459.1,346.9,459.1z"/></g></g><g><g><path class="st8" d="M412.5,281.4c-1.6-1.6-1.6-4.1,0-5.7l8.1-8.1c1.6-1.6,4.1-1.6,5.7,0c1.6,1.6,1.6,4.1,0,5.7l-8.1,8.1      C416.6,282.9,414,282.9,412.5,281.4z"/></g><g><path class="st8" d="M267.6,426.2c-1.6-1.6-1.6-4.1,0-5.7l8.1-8.1c1.6-1.6,4.1-1.6,5.7,0c1.6,1.6,1.6,4.1,0,5.7l-8.1,8.1      C271.7,427.8,269.2,427.8,267.6,426.2z"/></g></g><g><g><path class="st8" d="M455.1,350.9h-11.4c-2.2,0-4-1.8-4-4c0-2.2,1.8-4,4-4h11.4c2.2,0,4,1.8,4,4      C459.1,349.1,457.3,350.9,455.1,350.9z"/></g><g><path class="st8" d="M250.2,350.9h-11.4c-2.2,0-4-1.8-4-4c0-2.2,1.8-4,4-4h11.4c2.2,0,4,1.8,4,4      C254.2,349.1,252.4,350.9,250.2,350.9z"/></g></g><g><g><path class="st8" d="M420.6,426.2l-8.1-8.1c-1.6-1.6-1.6-4.1,0-5.7s4.1-1.6,5.7,0l8.1,8.1c1.6,1.6,1.6,4.1,0,5.7      C424.7,427.8,422.1,427.8,420.6,426.2z"/></g><g><path class="st8" d="M275.7,281.4l-8.1-8.1c-1.6-1.6-1.6-4.1,0-5.7c1.6-1.6,4.1-1.6,5.7,0l8.1,8.1c1.6,1.6,1.6,4.1,0,5.7      C279.8,282.9,277.3,282.9,275.7,281.4z"/></g></g></g></g></svg>