<?xml version="1.0" ?><svg width="512px" height="512px" viewBox="0 0 512 512" id="Layer_1" style="enable-background:new 0 0 512 512;" version="1.1" xml:space="preserve" xmlns="http://www.w3.org/2000/svg" xmlns:xlink="http://www.w3.org/1999/xlink"><style type="text/css">
	.st0{fill:#D3D9D9;}
	.st1{fill:#A8B2B4;}
	.st2{fill:#EDEDED;}
	.st3{fill:#FB8A8A;}
	.st4{fill:#FCB1B1;}
	.st5{fill:#7C8B8E;}
	.st6{fill:#FFFFFF;}
	.st7{fill:#333333;}
</style><g><g><g><path class="st0" d="M485.5,88.1v315.7H26.5V88.1c0-16.1,13-29.2,29.2-29.2h400.7C472.5,58.9,485.5,72,485.5,88.1z"/></g><g><path class="st1" d="M485.5,88.1v315.7h-29.1V88.1c0-16.1-13.1-29.2-29.2-29.2h29.1C472.5,58.9,485.5,72,485.5,88.1z"/></g><g><path class="st2" d="M84.7,58.9c-16.1,0-29.2,13.1-29.2,29.2v315.7h-29V88.1c0-16.1,13-29.2,29.1-29.2H84.7z"/></g><g><path class="st3" d="M216.7,277.7l73-98.5l91.1,49.7l75.7-81.5V96.1c0-4.5-3.6-8.1-8-8.1H63.6c-4.4,0-8.1,3.6-8.1,8.1v219.2     l75.5-77.2L216.7,277.7z"/></g><g><g><polygon class="st4" points="380.8,229 289.7,179.3 216.7,277.7 131,238.1 55.5,315.3 55.5,374.7 456.5,374.7 456.5,147.5           "/></g></g><g><g><path class="st1" d="M508,403.8v19.5c0,16.4-13.3,29.8-29.8,29.8H33.8C17.3,453.1,4,439.8,4,423.3v-19.5H508z"/></g><g><path class="st0" d="M62.9,453.1H33.7C17.3,453.1,4,439.8,4,423.3v-19.5h29.2v19.5C33.2,439.8,46.5,453.1,62.9,453.1z"/></g><g><path class="st5" d="M508,403.8v19.5c0,16.4-13.3,29.8-29.8,29.8h-29.2c16.4,0,29.8-13.3,29.8-29.8v-19.5H508z"/></g><g><path class="st6" d="M328.4,403.8v14c0,4.9-4,8.8-8.8,8.8H192.5c-4.9,0-8.8-4-8.8-8.8v-14H328.4z"/></g><g><path class="st2" d="M328.4,403.8v14.1c0,4.9-4,8.8-8.8,8.8h-23.6c4.9,0,8.8-3.9,8.8-8.8v-14.1H328.4z"/></g></g></g><g><g><path class="st6" d="M148.5,238.2c0,10-8.2,18.2-18.2,18.2s-18.2-8.1-18.2-18.2c0-10.1,8.2-18.2,18.2-18.2     S148.5,228.2,148.5,238.2z"/></g><g><path class="st6" d="M308.3,179.2c0,10-8.1,18.2-18.2,18.2c-10.1,0-18.2-8.2-18.2-18.2s8.1-18.2,18.2-18.2     C300.2,161,308.3,169.2,308.3,179.2z"/></g><g><path class="st6" d="M399,229c0,10-8.1,18.2-18.2,18.2c-10.1,0-18.2-8.2-18.2-18.2c0-10,8.1-18.2,18.2-18.2     C390.9,210.8,399,219,399,229z"/></g><g><path class="st6" d="M235.1,277.6c0,10-8.2,18.2-18.2,18.2c-10.1,0-18.2-8.2-18.2-18.2c0-10,8.1-18.2,18.2-18.2     C226.9,259.4,235.1,267.6,235.1,277.6z"/></g></g><g><g><path class="st2" d="M148.5,238.2c0,10-8.2,18.2-18.2,18.2c-7.7,0-14.2-4.8-16.9-11.5c2.1,0.8,4.4,1.3,6.8,1.3     c10,0,18.2-8.1,18.2-18.2c0-2.4-0.4-4.6-1.3-6.7C143.8,224,148.5,230.6,148.5,238.2z"/></g><g><path class="st2" d="M308.3,179.2c0,10-8.1,18.2-18.2,18.2c-7.7,0-14.2-4.8-16.9-11.5c2.1,0.9,4.3,1.3,6.7,1.3     c10,0,18.2-8.2,18.2-18.2c0-2.4-0.5-4.7-1.3-6.8C303.6,165,308.3,171.6,308.3,179.2z"/></g><g><path class="st2" d="M399,229c0,10-8.1,18.2-18.2,18.2c-7.7,0-14.2-4.7-16.9-11.4c2.1,0.8,4.4,1.3,6.7,1.3     c10,0,18.2-8.2,18.2-18.2c0-2.4-0.5-4.7-1.3-6.8C394.2,214.8,399,221.4,399,229z"/></g><g><path class="st2" d="M235.1,277.6c0,10-8.2,18.2-18.2,18.2c-7.7,0-14.2-4.8-16.9-11.5c2.1,0.9,4.3,1.3,6.7,1.3     c10,0,18.2-8.2,18.2-18.2c0-2.4-0.4-4.6-1.3-6.7C230.3,263.4,235.1,269.9,235.1,277.6z"/></g></g><g><path class="st7" d="M508,399.9h-18.5V88.1c0-18.3-14.9-33.2-33.2-33.2H55.6c-18.3,0-33.2,14.9-33.2,33.2v311.7H4    c-2.2,0-4,1.8-4,4v19.5c0,18.6,15.1,33.8,33.8,33.8h444.5c18.6,0,33.8-15.1,33.8-33.8v-19.5C512,401.6,510.2,399.9,508,399.9z     M187.6,407.9h136.7v10c0,2.7-2.2,4.8-4.8,4.8H192.5c-2.7,0-4.8-2.2-4.8-4.8V407.9z M30.5,88.1c0-13.9,11.3-25.2,25.2-25.2h400.7    c13.9,0,25.2,11.3,25.2,25.2v311.7H30.5V88.1z M504,423.3c0,14.2-11.6,25.8-25.8,25.8H33.8C19.6,449.1,8,437.5,8,423.3v-15.5    h171.6v10c0,7.1,5.8,12.8,12.8,12.8h127.1c7.1,0,12.8-5.8,12.8-12.8v-10H504V423.3z"/><path class="st7" d="M448.4,84.1H63.6c-6.6,0-12.1,5.4-12.1,12.1v278.6c0,2.2,1.8,4,4,4h400.9c2.2,0,4-1.8,4-4V96.1    C460.5,89.5,455.1,84.1,448.4,84.1z M63.6,92.1h384.8c2.2,0,4,1.8,4,4.1v49.8l-59.8,64.4c-3.4-2.2-7.5-3.5-11.9-3.5    c-7,0-13.2,3.2-17.2,8.2l-52.5-28.7c0.8-2.3,1.2-4.7,1.2-7.2c0-12.2-9.9-22.2-22.2-22.2c-12.2,0-22.2,10-22.2,22.2    c0,5.7,2.2,10.9,5.8,14.9l-47.1,63.6c-2.9-1.4-6.2-2.3-9.7-2.3c-7.5,0-14.2,3.8-18.2,9.6l-46.7-21.6c0.4-1.6,0.6-3.3,0.6-5.1    c0-12.2-10-22.2-22.2-22.2s-22.2,10-22.2,22.2c0,4.9,1.6,9.4,4.3,13.1l-52.9,54.2V96.1C59.5,93.9,61.4,92.1,63.6,92.1z     M380.8,214.8c7.8,0,14.2,6.4,14.2,14.2c0,7.8-6.4,14.2-14.2,14.2c-7.8,0-14.2-6.4-14.2-14.2C366.6,221.2,373,214.8,380.8,214.8z     M276,179.2c0-7.8,6.4-14.2,14.2-14.2c7.8,0,14.2,6.4,14.2,14.2s-6.4,14.2-14.2,14.2C282.3,193.4,276,187.1,276,179.2z     M216.9,263.4c7.8,0,14.2,6.4,14.2,14.2s-6.4,14.2-14.2,14.2c-7.8,0-14.2-6.4-14.2-14.2S209,263.4,216.9,263.4z M116.1,238.2    c0-7.8,6.4-14.2,14.2-14.2s14.2,6.4,14.2,14.2c0,7.8-6.4,14.2-14.2,14.2S116.1,246.1,116.1,238.2z M59.5,370.7v-53.8l58.7-60.1    c3.5,2.3,7.6,3.6,12.1,3.6c7.6,0,14.4-3.9,18.4-9.7l46.7,21.6c-0.4,1.7-0.7,3.5-0.7,5.3c0,12.2,10,22.2,22.2,22.2    c12.2,0,22.2-10,22.2-22.2c0-5.9-2.3-11.2-6-15.2l47-63.4c3,1.5,6.4,2.4,10.1,2.4c6.9,0,13-3.1,17.1-8l52.5,28.7    c-0.7,2.2-1.1,4.5-1.1,6.9c0,12.2,10,22.2,22.2,22.2c12.2,0,22.2-10,22.2-22.2c0-5-1.7-9.6-4.4-13.3l53.9-58.1v213.1H59.5z"/></g></g></svg>