<svg width="32px" height="32px" viewBox="0 0 32 32" fill="none" xmlns="http://www.w3.org/2000/svg">
<path fill-rule="evenodd" clip-rule="evenodd" d="M2 16C2 8.26801 8.26801 2 16 2C23.732 2 30 8.26801 30 16C30 23.732 23.732 30 16 30C8.26801 30 2 23.732 2 16ZM17 11C17 10.4477 16.5523 10 16 10C15.4477 10 15 10.4477 15 11V15L11 15C10.4477 15 10 15.4477 10 16C10 16.5523 10.4477 17 11 17L15 17V21C15 21.5523 15.4477 22 16 22C16.5523 22 17 21.5523 17 21V17H21C21.5523 17 22 16.5523 22 16C22 15.4477 21.5523 15 21 15H17V11Z" fill="#fff"/>
</svg>
