<svg width="24px" height="24px" viewBox="0 0 24 24" fill="none" xmlns="http://www.w3.org/2000/svg">
<path d="M15.6779 12.7316C15.8226 12.0042 15.7484 11.2502 15.4646 10.5649C15.1807 9.87971 14.7001 9.29404 14.0834 8.88199C13.4667 8.46993 12.7417 8.25 12 8.25C11.2583 8.25 10.5333 8.46993 9.91661 8.88199C9.29993 9.29404 8.81928 9.87971 8.53545 10.5649C8.25162 11.2502 8.17736 12.0042 8.32206 12.7316M6 15.0923C5.71293 14.5353 5.50327 13.9381 5.3797 13.3169C5.11925 12.0075 5.25292 10.6503 5.76382 9.41689C6.27471 8.18349 7.13987 7.12928 8.2499 6.38758C9.35994 5.64588 10.665 5.25 12 5.25C13.335 5.25 14.6401 5.64588 15.7501 6.38758C16.8601 7.12928 17.7253 8.18349 18.2362 9.41689C18.7471 10.6503 18.8808 12.0075 18.6203 13.3169C18.4967 13.9381 18.2871 14.5353 18 15.0923M11.3762 12.9361L8.27761 17.584C7.94534 18.0824 8.30263 18.75 8.90165 18.75H15.0989C15.6979 18.75 16.0552 18.0824 15.7229 17.584L12.6243 12.9361C12.3274 12.4908 11.6731 12.4908 11.3762 12.9361Z" stroke="#fff" stroke-width="1.5" stroke-linecap="round" stroke-linejoin="round"/>
</svg>
