<svg width="32px" height="32px" viewBox="0 0 32 32" fill="none" xmlns="http://www.w3.org/2000/svg">
<path fill-rule="evenodd" clip-rule="evenodd" d="M1.99951 16C1.99951 8.26801 8.26753 2 15.9995 2C23.7315 2 29.9995 8.26801 29.9995 16C29.9995 23.732 23.7315 30 15.9995 30C8.26753 30 1.99951 23.732 1.99951 16ZM11.7066 15.2929C11.3161 14.9024 10.6829 14.9024 10.2924 15.2929C9.90188 15.6834 9.90188 16.3166 10.2924 16.7071L15.2924 21.7071C15.6829 22.0976 16.3161 22.0976 16.7066 21.7071L21.7066 16.7071C22.0971 16.3166 22.0971 15.6834 21.7066 15.2929C21.3161 14.9024 20.6829 14.9024 20.2924 15.2929L16.9995 18.5858V11C16.9995 10.4477 16.5518 10 15.9995 10C15.4472 10 14.9995 10.4477 14.9995 11V18.5858L11.7066 15.2929Z" fill="#fff"/>
</svg>
