<svg width="32px" height="32px" viewBox="0 0 32 32" fill="none" xmlns="http://www.w3.org/2000/svg">
<path fill-rule="evenodd" clip-rule="evenodd" d="M2.00049 16C2.00049 8.26801 8.2685 2 16.0005 2C23.7325 2 30.0005 8.26801 30.0005 16C30.0005 23.732 23.7325 30 16.0005 30C8.2685 30 2.00049 23.732 2.00049 16ZM12.7076 14.2929C12.3171 13.9024 11.6839 13.9024 11.2934 14.2929C10.9029 14.6834 10.9029 15.3166 11.2934 15.7071L15.2934 19.7071C15.6839 20.0976 16.3171 20.0976 16.7076 19.7071L20.7076 15.7071C21.0981 15.3166 21.0981 14.6834 20.7076 14.2929C20.3171 13.9024 19.6839 13.9024 19.2934 14.2929L16.0005 17.5858L12.7076 14.2929Z" fill="#fff"/>
</svg>
