<svg width="32px" height="32px" viewBox="0 0 32 32" fill="none" xmlns="http://www.w3.org/2000/svg">
<path fill-rule="evenodd" clip-rule="evenodd" d="M2.00049 16C2.00049 8.26801 8.2685 2 16.0005 2C23.7325 2 30.0005 8.26801 30.0005 16C30.0005 23.732 23.7325 30 16.0005 30C8.2685 30 2.00049 23.732 2.00049 16ZM17.7076 12.7071C18.0981 12.3166 18.0981 11.6834 17.7076 11.2929C17.3171 10.9024 16.6839 10.9024 16.2934 11.2929L12.2934 15.2929C11.9029 15.6834 11.9029 16.3166 12.2934 16.7071L16.2934 20.7071C16.6839 21.0976 17.3171 21.0976 17.7076 20.7071C18.0981 20.3166 18.0981 19.6834 17.7076 19.2929L14.4147 16L17.7076 12.7071Z" fill="#fff"/>
</svg>
