<svg width="32px" height="32px" viewBox="0 0 32 32" fill="none" xmlns="http://www.w3.org/2000/svg">
<path fill-rule="evenodd" clip-rule="evenodd" d="M1.99951 16C1.99951 8.26801 8.26753 2 15.9995 2C23.7315 2 29.9995 8.26801 29.9995 16C29.9995 23.732 23.7315 30 15.9995 30C8.26753 30 1.99951 23.732 1.99951 16ZM14.2924 12.7071C13.9019 12.3166 13.9019 11.6834 14.2924 11.2929C14.6829 10.9024 15.3161 10.9024 15.7066 11.2929L19.7066 15.2929C20.0971 15.6834 20.0971 16.3166 19.7066 16.7071L15.7066 20.7071C15.3161 21.0976 14.6829 21.0976 14.2924 20.7071C13.9019 20.3166 13.9019 19.6834 14.2924 19.2929L17.5853 16L14.2924 12.7071Z" fill="#fff"/>
</svg>
