<svg width="32px" height="32px" viewBox="0 0 32 32" fill="none" xmlns="http://www.w3.org/2000/svg">
<path fill-rule="evenodd" clip-rule="evenodd" d="M2 16C2 8.26801 8.26801 2 16 2C23.732 2 30 8.26801 30 16C30 23.732 23.732 30 16 30C8.26801 30 2 23.732 2 16ZM15.2929 11.7071C14.9024 11.3166 14.9024 10.6834 15.2929 10.2929C15.6834 9.90237 16.3166 9.90237 16.7071 10.2929L21.7071 15.2929C22.0976 15.6834 22.0976 16.3166 21.7071 16.7071L16.7071 21.7071C16.3166 22.0976 15.6834 22.0976 15.2929 21.7071C14.9024 21.3166 14.9024 20.6834 15.2929 20.2929L18.5858 17H11C10.4477 17 10 16.5523 10 16C10 15.4477 10.4477 15 11 15H18.5858L15.2929 11.7071Z" fill="#fff"/>
</svg>
