<svg width="32px" height="32px" viewBox="0 0 32 32" fill="none" xmlns="http://www.w3.org/2000/svg">
<path fill-rule="evenodd" clip-rule="evenodd" d="M1.99951 16C1.99951 8.26801 8.26753 2 15.9995 2C23.7315 2 29.9995 8.26801 29.9995 16C29.9995 23.732 23.7315 30 15.9995 30C8.26753 30 1.99951 23.732 1.99951 16ZM16.7066 11.7071C17.0971 11.3166 17.0971 10.6834 16.7066 10.2929C16.3161 9.90237 15.6829 9.90237 15.2924 10.2929L10.2924 15.2929C9.90188 15.6834 9.90188 16.3166 10.2924 16.7071L15.2924 21.7071C15.6829 22.0976 16.3161 22.0976 16.7066 21.7071C17.0971 21.3166 17.0971 20.6834 16.7066 20.2929L13.4137 17H20.9995C21.5518 17 21.9995 16.5523 21.9995 16C21.9995 15.4477 21.5518 15 20.9995 15H13.4137L16.7066 11.7071Z" fill="#fff"/>
</svg>
