<svg width="32px" height="32px" viewBox="0 0 32 32" fill="none" xmlns="http://www.w3.org/2000/svg">
<path fill-rule="evenodd" clip-rule="evenodd" d="M2.00049 16C2.00049 8.26801 8.2685 2 16.0005 2C23.7325 2 30.0005 8.26801 30.0005 16C30.0005 23.732 23.7325 30 16.0005 30C8.2685 30 2.00049 23.732 2.00049 16ZM20.2934 16.7071C20.6839 17.0976 21.3171 17.0976 21.7076 16.7071C22.0981 16.3166 22.0981 15.6834 21.7076 15.2929L16.7076 10.2929C16.3171 9.90237 15.6839 9.90237 15.2934 10.2929L10.2934 15.2929C9.90286 15.6834 9.90286 16.3166 10.2934 16.7071C10.6839 17.0976 11.3171 17.0976 11.7076 16.7071L15.0005 13.4142V21C15.0005 21.5523 15.4482 22 16.0005 22C16.5528 22 17.0005 21.5523 17.0005 21V13.4142L20.2934 16.7071Z" fill="#fff"/>
</svg>
