<svg width="32px" height="32px" viewBox="0 0 32 32" fill="none" xmlns="http://www.w3.org/2000/svg">
<path fill-rule="evenodd" clip-rule="evenodd" d="M2 16C2 8.26801 8.26801 2 16 2C23.732 2 30 8.26801 30 16C30 23.732 23.732 30 16 30C8.26801 30 2 23.732 2 16ZM12.7071 17.7071C12.3166 18.0976 11.6834 18.0976 11.2929 17.7071C10.9024 17.3166 10.9024 16.6834 11.2929 16.2929L15.2929 12.2929C15.6834 11.9024 16.3166 11.9024 16.7071 12.2929L20.7071 16.2929C21.0976 16.6834 21.0976 17.3166 20.7071 17.7071C20.3166 18.0976 19.6834 18.0976 19.2929 17.7071L16 14.4142L12.7071 17.7071Z" fill="#fff"/>
</svg>
