<svg width="24px" height="24px" viewBox="0 0 24 24" fill="none" xmlns="http://www.w3.org/2000/svg">
<path d="M11.9953 5.25C14.8948 5.25 17.2453 7.60051 17.2453 10.5V13.65L18.1951 14.7897C19.0092 15.7667 18.3145 17.25 17.0427 17.25H6.94787C5.67611 17.25 4.98138 15.7667 5.79553 14.7897L6.7453 13.65V10.5C6.7453 7.60051 9.09581 5.25 11.9953 5.25ZM11.9953 5.25V3.75M4.53424 7.95191C4.43027 7.26962 4.56474 6.57236 4.91496 5.97766C5.26518 5.38296 5.80973 4.9272 6.45683 4.68721M19.4658 7.95191C19.5697 7.26962 19.4353 6.57236 19.0851 5.97766C18.7348 5.38296 18.1903 4.9272 17.5432 4.68721M15 17.25C15 17.644 14.9224 18.0341 14.7716 18.398C14.6209 18.762 14.3999 19.0927 14.1213 19.3713C13.8427 19.6499 13.512 19.8709 13.148 20.0216C12.7841 20.1724 12.394 20.25 12 20.25C11.606 20.25 11.2159 20.1724 10.852 20.0216C10.488 19.8709 10.1573 19.6499 9.87868 19.3713C9.6001 19.0927 9.37913 18.762 9.22836 18.398C9.0776 18.0341 9 17.644 9 17.25H15Z" stroke="#fff" stroke-width="1.5" stroke-linecap="round" stroke-linejoin="round"/>
</svg>
