<svg width="32px" height="32px" viewBox="0 0 32 32" fill="none" xmlns="http://www.w3.org/2000/svg">
<path d="M15.9932 5C16.5454 5 16.9932 5.44772 16.9932 6V7.07084C20.3856 7.55592 22.9935 10.4734 22.9935 14V18.2L24.2599 19.7196C25.3454 21.0223 24.4191 23 22.7234 23H9.26359C7.56791 23 6.6416 21.0223 7.72715 19.7196L8.9935 18.2V14C8.9935 10.4736 11.601 7.55631 14.9932 7.07094V6C14.9932 5.44772 15.4409 5 15.9932 5Z" fill="#fff"/>
<path d="M12.464 26.5355C12.0219 26.0934 11.6669 25.5725 11.417 25H20.5821C20.3323 25.5725 19.9772 26.0934 19.5351 26.5355C19.0708 26.9998 18.5196 27.3681 17.913 27.6194C17.3064 27.8707 16.6562 28 15.9996 28C15.343 28 14.6928 27.8707 14.0862 27.6194C13.4795 27.3681 12.9283 26.9998 12.464 26.5355Z" fill="#fff"/>
</svg>
