<svg width="24px" height="24px" viewBox="0 0 24 24" fill="none" xmlns="http://www.w3.org/2000/svg">
<path d="M15 17.25C15 17.644 14.9224 18.0341 14.7716 18.398C14.6209 18.762 14.3999 19.0927 14.1213 19.3713C13.8427 19.6499 13.512 19.8709 13.148 20.0216C12.7841 20.1724 12.394 20.25 12 20.25C11.606 20.25 11.2159 20.1724 10.852 20.0216C10.488 19.8709 10.1573 19.6499 9.87868 19.3713C9.6001 19.0927 9.37913 18.762 9.22836 18.398C9.0776 18.0341 9 17.644 9 17.25H15ZM15 17.25H17.0426C18.3143 17.25 19.0091 15.7667 18.1949 14.7897L17.2451 13.65V10.5M11.9951 5.25C9.09563 5.25 6.74513 7.6005 6.74513 10.5V13.65L5.79536 14.7897C5.02201 15.7177 5.61008 17.1026 6.76093 17.2391M11.9951 5.25V3.75M11.9951 5.25C13.8297 5.25 15.4446 6.19104 16.3832 7.61675M5.25 18.75L6.76093 17.2391M6.76093 17.2391L16.3832 7.61675M16.3832 7.61675L18.75 5.25" stroke="#fff" stroke-width="1.5" stroke-linecap="round" stroke-linejoin="round"/>
</svg>
