<svg width="24px" height="24px" viewBox="0 0 24 24" fill="none" xmlns="http://www.w3.org/2000/svg">
<path d="M11.9951 5.25C14.8946 5.25 17.2451 7.60051 17.2451 10.5V13.65L18.1949 14.7897C19.0091 15.7667 18.3143 17.25 17.0426 17.25H6.94769C5.67593 17.25 4.9812 15.7667 5.79536 14.7897L6.74513 13.65V10.5C6.74513 7.60051 9.09563 5.25 11.9951 5.25ZM11.9951 5.25V3.75M14.9998 17.25C14.9998 17.644 14.9222 18.0341 14.7715 18.398C14.6207 18.762 14.3997 19.0927 14.1211 19.3713C13.8426 19.6499 13.5118 19.8709 13.1479 20.0216C12.7839 20.1724 12.3938 20.25 11.9998 20.25C11.6059 20.25 11.2158 20.1724 10.8518 20.0216C10.4878 19.8709 10.1571 19.6499 9.8785 19.3713C9.59993 19.0927 9.37895 18.762 9.22819 18.398C9.07742 18.0341 8.99982 17.644 8.99982 17.25H14.9998Z" stroke="#fff" stroke-width="1.5" stroke-linecap="round" stroke-linejoin="round"/>
</svg>
