<svg width="32px" height="32px" viewBox="0 0 32 32" fill="none" xmlns="http://www.w3.org/2000/svg">
<path d="M22.588 11.6479C21.673 11.1591 21.041 10.2099 21.0015 9.10967C21.0002 9.07328 20.9995 9.03671 20.9995 9C20.9995 8.2619 21.2648 7.58834 21.7064 7.06559C22.2582 6.41227 23.0802 6 23.9995 6C25.6564 6 26.9995 7.34315 26.9995 9C26.9995 10.3412 26.1186 11.4793 24.9014 11.8624C24.618 11.9515 24.3153 12 23.9995 12C23.4892 12 23.0087 11.8726 22.588 11.6479Z" fill="#fff"/>
<path d="M18.9995 9C18.9995 11.4164 20.7137 13.4325 22.9923 13.8985C22.9928 13.9323 22.993 13.9661 22.993 14V18.2L24.2594 19.7196C25.3449 21.0223 24.4186 23 22.7229 23H9.2631C7.56742 23 6.64111 21.0223 7.72666 19.7196L8.99302 18.2V14C8.99302 10.4736 11.6005 7.55631 14.9927 7.07094V6C14.9927 5.44772 15.4404 5 15.9927 5C16.545 5 16.9927 5.44772 16.9927 6V7.07084C17.7612 7.18073 18.4895 7.41545 19.1563 7.75381C19.054 8.15236 18.9995 8.56998 18.9995 9Z" fill="#fff"/>
<path d="M11.4165 25C11.6664 25.5725 12.0214 26.0934 12.4635 26.5355C12.9278 26.9998 13.479 27.3681 14.0857 27.6194C14.6923 27.8707 15.3425 28 15.9991 28C16.6557 28 17.3059 27.8707 17.9125 27.6194C18.5191 27.3681 19.0703 26.9998 19.5346 26.5355C19.9767 26.0934 20.3318 25.5725 20.5817 25H11.4165Z" fill="#fff"/>
</svg>
