<svg width="32px" height="32px" viewBox="0 0 32 32" fill="none" xmlns="http://www.w3.org/2000/svg">
<path d="M22.7239 23H13.2431L22.9579 13.2852C22.9818 13.5202 22.994 13.7587 22.994 14V18.2L24.2604 19.7196C25.3459 21.0223 24.4196 23 22.7239 23Z" fill="#fff"/>
<path d="M8.0173 22.569L6.29338 24.2929C5.90286 24.6834 5.90286 25.3166 6.29338 25.7071C6.68391 26.0976 7.31707 26.0976 7.7076 25.7071L25.7076 7.70711C26.0981 7.31658 26.0981 6.68342 25.7076 6.29289C25.3171 5.90237 24.6839 5.90237 24.2934 6.29289L21.2311 9.35521C20.1576 8.14577 18.6716 7.31077 16.9937 7.07084V6C16.9937 5.44772 16.5459 5 15.9937 5C15.4414 5 14.9937 5.44772 14.9937 6V7.07094C11.6015 7.55631 8.99399 10.4736 8.99399 14V18.2L7.72763 19.7196C6.95562 20.646 7.20115 21.9139 8.0173 22.569Z" fill="#fff"/>
<path d="M11.4175 25C11.6674 25.5725 12.0224 26.0934 12.4645 26.5355C12.9288 26.9998 13.48 27.3681 14.0866 27.6194C14.6933 27.8707 15.3434 28 16.0001 28C16.6567 28 17.3068 27.8707 17.9135 27.6194C18.5201 27.3681 19.0713 26.9998 19.5356 26.5355C19.9777 26.0934 20.3328 25.5725 20.5826 25H11.4175Z" fill="#fff"/>
</svg>
