<svg width="32px" height="32px" viewBox="0 0 32 32" fill="none" xmlns="http://www.w3.org/2000/svg">
<path d="M16.9932 6C16.9932 5.44772 16.5455 5 15.9932 5C15.4409 5 14.9932 5.44772 14.9932 6V7.07094C11.601 7.55631 8.9935 10.4736 8.9935 14V18.2L7.72715 19.7196C6.6416 21.0223 7.56791 23 9.26359 23H22.7234C24.4191 23 25.3454 21.0223 24.2599 19.7196L22.9935 18.2V14C22.9935 10.4734 20.3856 7.55592 16.9932 7.07084V6Z" fill="#fff"/>
<path d="M9.5467 5.90187C9.73874 6.41969 9.47465 6.99515 8.95683 7.1872C8.30974 7.42718 7.76518 7.88294 7.41496 8.47764C7.06474 9.07234 6.93028 9.76961 7.03424 10.4519C7.11744 10.9979 6.74227 11.5079 6.19629 11.5911C5.6503 11.6743 5.14026 11.2991 5.05706 10.7532C4.88379 9.61602 5.1079 8.45391 5.6916 7.46275C6.2753 6.47158 7.18289 5.71198 8.26138 5.312C8.7792 5.11996 9.35465 5.38405 9.5467 5.90187Z" fill="#fff"/>
<path d="M22.4533 5.90187C22.6454 5.38405 23.2208 5.11996 23.7386 5.312C24.8171 5.71198 25.7247 6.47158 26.3084 7.46275C26.8921 8.45391 27.1162 9.61602 26.943 10.7532C26.8598 11.2991 26.3497 11.6743 25.8037 11.5911C25.2578 11.5079 24.8826 10.9979 24.9658 10.4519C25.0697 9.76961 24.9353 9.07234 24.5851 8.47764C24.2348 7.88294 23.6903 7.42718 23.0432 7.1872C22.5254 6.99515 22.2613 6.41969 22.4533 5.90187Z" fill="#fff"/>
<path d="M12.464 26.5355C12.0219 26.0934 11.6669 25.5725 11.417 25H20.5821C20.3323 25.5725 19.9772 26.0934 19.5351 26.5355C19.0708 26.9998 18.5196 27.3681 17.913 27.6194C17.3064 27.8707 16.6562 28 15.9996 28C15.343 28 14.6928 27.8707 14.0862 27.6194C13.4795 27.3681 12.9283 26.9998 12.464 26.5355Z" fill="#fff"/>
</svg>
