<svg width="24px" height="24px" viewBox="0 0 24 24" fill="none" xmlns="http://www.w3.org/2000/svg">
<path d="M11.9951 5.25C9.09563 5.25 6.74513 7.60051 6.74513 10.5V13.65L5.79536 14.7897C4.9812 15.7667 5.67593 17.25 6.94769 17.25H17.0426C18.3143 17.25 19.0091 15.7667 18.1949 14.7897L17.2451 13.65V10.5C17.2451 10.2094 17.2215 9.92437 17.1761 9.64664M11.9951 5.25V3.75M11.9951 5.25C13.0183 5.25 13.9731 5.54269 14.7804 6.04891M14.7804 6.04891C14.4495 6.44067 14.25 6.94704 14.25 7.5C14.25 8.74264 15.2574 9.75 16.5 9.75C16.7356 9.75 16.9627 9.71379 17.1761 9.64664M14.7804 6.04891C15.1931 5.5603 15.8103 5.25 16.5 5.25C17.7426 5.25 18.75 6.25736 18.75 7.5C18.75 8.50706 18.0884 9.35959 17.1761 9.64664M14.9998 17.25C14.9998 17.644 14.9222 18.0341 14.7715 18.398C14.6207 18.762 14.3997 19.0927 14.1211 19.3713C13.8426 19.6499 13.5118 19.8709 13.1479 20.0216C12.7839 20.1724 12.3938 20.25 11.9998 20.25C11.6059 20.25 11.2158 20.1724 10.8518 20.0216C10.4878 19.8709 10.1571 19.6499 9.8785 19.3713C9.59993 19.0927 9.37895 18.762 9.22819 18.398C9.07742 18.0341 8.99982 17.644 8.99982 17.25H14.9998Z" stroke="#fff" stroke-width="1.5" stroke-linecap="round" stroke-linejoin="round"/>
</svg>
