<svg width="24px" height="24px" viewBox="0 0 24 24" fill="none" xmlns="http://www.w3.org/2000/svg">
<path d="M6.75 9.75H6.7575M20.25 8.25074V17.2493C20.25 18.0777 19.5784 18.75 18.75 18.75H5.25C4.42157 18.75 3.75 18.0784 3.75 17.25V8.25C3.75 7.42157 4.42157 6.75 5.25 6.75H7.62868C8.0265 6.75 8.40804 6.59196 8.68934 6.31066L9.31066 5.68934C9.59196 5.40804 9.9735 5.25 10.3713 5.25H12H13.6287C14.0265 5.25 14.408 5.40804 14.6893 5.68934L15.3107 6.31066C15.592 6.59196 15.9735 6.75 16.3713 6.75H18.75C19.5784 6.75 20.25 7.42231 20.25 8.25074ZM15.0232 12.75C15.0232 14.4069 13.6801 15.75 12.0232 15.75C10.3664 15.75 9.02321 14.4069 9.02321 12.75C9.02321 11.0931 10.3664 9.75 12.0232 9.75C13.6801 9.75 15.0232 11.0931 15.0232 12.75Z" stroke="#fff" stroke-width="1.5" stroke-linecap="round" stroke-linejoin="round"/>
</svg>
