<svg width="24px" height="24px" viewBox="0 0 24 24" fill="none" xmlns="http://www.w3.org/2000/svg">
<path d="M18.8943 18.8943C15.0867 22.7019 8.91332 22.7019 5.10571 18.8943C1.2981 15.0867 1.2981 8.91332 5.10571 5.10571C8.91332 1.2981 15.0867 1.2981 18.8943 5.10571C22.7019 8.91332 22.7019 15.0867 18.8943 18.8943Z" stroke="#fff" stroke-width="1.5" stroke-linecap="round" stroke-linejoin="round"/>
<path fill-rule="evenodd" clip-rule="evenodd" d="M15.8934 9.05518C15.9832 8.78568 15.9131 8.48856 15.7122 8.28768C15.5113 8.08681 15.2142 8.01667 14.9447 8.1065L10.1717 9.69749C9.94776 9.77214 9.77202 9.94788 9.69737 10.1718L8.10638 14.9448C8.01655 15.2143 8.08669 15.5114 8.28756 15.7123C8.48844 15.9132 8.78556 15.9833 9.05506 15.8935L13.828 14.3025C14.052 14.2278 14.2277 14.0521 14.3024 13.8282L15.8934 9.05518ZM11.9999 12.75C12.4141 12.75 12.7499 12.4142 12.7499 12C12.7499 11.5858 12.4141 11.25 11.9999 11.25C11.5857 11.25 11.2499 11.5858 11.2499 12C11.2499 12.4142 11.5857 12.75 11.9999 12.75Z" fill="#fff"/>
</svg>
