<svg width="32px" height="32px" viewBox="0 0 32 32" fill="none" xmlns="http://www.w3.org/2000/svg">
<path fill-rule="evenodd" clip-rule="evenodd" d="M11.7577 11.7574C12.1483 11.3669 12.7814 11.3669 13.172 11.7574L16.0004 14.5859L18.8288 11.7574C19.2193 11.3669 19.8525 11.3669 20.243 11.7574C20.6336 12.148 20.6336 12.7811 20.243 13.1716L17.4146 16.0001L20.243 18.8285C20.6335 19.219 20.6335 19.8522 20.243 20.2427C19.8525 20.6332 19.2193 20.6332 18.8288 20.2427L16.0004 17.4143L13.172 20.2427C12.7814 20.6332 12.1483 20.6332 11.7577 20.2427C11.3672 19.8522 11.3672 19.219 11.7577 18.8285L14.5862 16.0001L11.7577 13.1716C11.3672 12.7811 11.3672 12.148 11.7577 11.7574Z" fill="#fff"/>
</svg>
