<svg width="24px" height="24px" viewBox="0 0 24 24" fill="none" xmlns="http://www.w3.org/2000/svg">
<path d="M3.75 9.75L7.27512 5.51986C7.41761 5.34887 7.6287 5.25 7.85128 5.25L10.5 5.25M3.75 9.75L12 18.75M3.75 9.75L9 9.75M12 18.75L20.25 9.75M12 18.75L9 9.75M12 18.75L15 9.75M20.25 9.75L16.7249 5.51986C16.5824 5.34887 16.3713 5.25 16.1487 5.25L13.5 5.25M20.25 9.75L15 9.75M10.5 5.25L13.5 5.25M10.5 5.25L9 9.75M13.5 5.25L15 9.75M9 9.75L15 9.75" stroke="#fff" stroke-width="1.5" stroke-linecap="round" stroke-linejoin="round"/>
</svg>
