<svg width="32px" height="32px" viewBox="0 0 32 32" fill="none" xmlns="http://www.w3.org/2000/svg">
<path d="M4.55976 14H10.333L15.0285 25.2694C14.8455 25.1677 14.6752 25.0351 14.5253 24.8716L4.55976 14Z" fill="#fff"/>
<path d="M4.53125 12L8.93157 6.71963C9.31156 6.26365 9.87446 6 10.468 6H12.2789L10.2789 12H4.53125Z" fill="#fff"/>
<path d="M14.3871 6L12.3871 12H19.6122L17.6122 6H14.3871Z" fill="#fff"/>
<path d="M19.7204 6L21.7204 12H27.468L23.0677 6.71963C22.6877 6.26365 22.1248 6 21.5313 6H19.7204Z" fill="#fff"/>
<path d="M27.4395 14H21.6663L16.9707 25.2694C17.1537 25.1677 17.324 25.0351 17.4739 24.8716L27.4395 14Z" fill="#fff"/>
<path d="M15.9996 22.4L12.4996 14H19.4996L15.9996 22.4Z" fill="#fff"/>
</svg>
