<svg width="32px" height="32px" viewBox="0 0 32 32" fill="none" xmlns="http://www.w3.org/2000/svg">
<path fill-rule="evenodd" clip-rule="evenodd" d="M13.1456 3.44124C13.7936 2.84127 14.7609 2 16 2C17.2391 2 18.2064 2.84127 18.8544 3.44124C19.0003 3.57633 19.1308 3.70074 19.2544 3.81862C19.4534 4.0084 19.6348 4.18138 19.8341 4.35462C20.1373 4.61813 20.3785 4.78624 20.583 4.8761C20.8189 4.96834 21.1301 5.02544 21.5384 5.05782C21.8208 5.08021 22.0952 5.08819 22.3954 5.09692C22.5519 5.10147 22.7153 5.10622 22.8905 5.11332C23.7647 5.14876 25.0437 5.22945 25.9071 6.09289C26.7706 6.95634 26.8512 8.23529 26.8867 9.10949C26.8938 9.28461 26.8985 9.44798 26.9031 9.60437C26.9118 9.90451 26.9198 10.1792 26.9422 10.4616C26.9746 10.8698 27.0317 11.181 27.1239 11.417C27.2137 11.6215 27.3819 11.8627 27.6454 12.1659C27.8186 12.3652 27.9915 12.5465 28.1813 12.7455C28.2992 12.8691 28.4236 12.9996 28.5588 13.1456C29.1587 13.7936 30 14.7609 30 16C30 17.2391 29.1587 18.2064 28.5588 18.8544C28.4237 19.0002 28.2994 19.1307 28.1815 19.2542C27.9918 19.4533 27.8186 19.6348 27.6454 19.8341C27.3819 20.1373 27.2137 20.3785 27.1239 20.583C27.0317 20.819 26.9746 21.1302 26.9422 21.5384C26.9198 21.8208 26.9118 22.0952 26.9031 22.3954C26.8985 22.5518 26.8938 22.7154 26.8867 22.8905C26.8512 23.7647 26.7706 25.0437 25.9071 25.9071C25.0437 26.7706 23.7647 26.8512 22.8905 26.8867C22.7154 26.8938 22.552 26.8985 22.3956 26.9031C22.0955 26.9118 21.8208 26.9198 21.5384 26.9422C21.1302 26.9746 20.819 27.0317 20.583 27.1239C20.3785 27.2137 20.1373 27.3819 19.8341 27.6454C19.6348 27.8186 19.4535 27.9915 19.2545 28.1813C19.1309 28.2991 19.0002 28.4237 18.8544 28.5588C18.2064 29.1587 17.2391 30 16 30C14.7609 30 13.7936 29.1587 13.1456 28.5588C12.9996 28.4236 12.8691 28.2992 12.7455 28.1813C12.5465 27.9915 12.3652 27.8186 12.1659 27.6454C11.8627 27.3819 11.6215 27.2137 11.417 27.1239C11.181 27.0317 10.8698 26.9746 10.4616 26.9422C10.1792 26.9198 9.90476 26.9118 9.60461 26.9031C9.44823 26.8985 9.28461 26.8938 9.10949 26.8867C8.23529 26.8512 6.95634 26.7706 6.09289 25.9071C5.22945 25.0437 5.14876 23.7647 5.11332 22.8905C5.10622 22.7153 5.10147 22.5519 5.09692 22.3954C5.08819 22.0952 5.08021 21.8208 5.05782 21.5384C5.02544 21.1301 4.96834 20.8189 4.8761 20.583C4.78624 20.3785 4.61813 20.1373 4.35462 19.8341C4.18138 19.6348 4.00853 19.4535 3.81875 19.2545C3.70093 19.131 3.57626 19.0002 3.44124 18.8544C2.84127 18.2064 2 17.2391 2 16C2 14.7609 2.84127 13.7936 3.44124 13.1456C3.57638 12.9996 3.70083 12.8691 3.81874 12.7455C4.00851 12.5465 4.18138 12.3652 4.35462 12.1659C4.61813 11.8627 4.78625 11.6215 4.8761 11.417C4.96834 11.1811 5.02544 10.8698 5.05782 10.4616C5.08021 10.1792 5.08819 9.90476 5.09692 9.60461C5.10147 9.44817 5.10622 9.28468 5.11332 9.10949C5.14876 8.23529 5.22945 6.95634 6.09289 6.09289C6.95634 5.22945 8.23529 5.14876 9.10949 5.11332C9.28468 5.10622 9.44811 5.10147 9.60455 5.09692C9.90469 5.08819 10.1792 5.08021 10.4616 5.05782C10.8698 5.02544 11.1811 4.96834 11.417 4.8761C11.6215 4.78625 11.8627 4.61813 12.1659 4.35462C12.3652 4.18138 12.5464 4.00854 12.7455 3.81877C12.8691 3.70085 12.9996 3.57638 13.1456 3.44124ZM19.8 12.6C20.1314 12.1582 20.0418 11.5314 19.6 11.2C19.1582 10.8686 18.5314 10.9582 18.2 11.4L12.2 19.4C11.8686 19.8418 11.9582 20.4686 12.4 20.8C12.8418 21.1314 13.4686 21.0418 13.8 20.6L19.8 12.6ZM17 19C17 17.8954 17.8954 17 19 17C20.1046 17 21 17.8954 21 19C21 20.1046 20.1046 21 19 21C17.8954 21 17 20.1046 17 19ZM13 11C11.8954 11 11 11.8954 11 13C11 14.1046 11.8954 15 13 15C14.1046 15 15 14.1046 15 13C15 11.8954 14.1046 11 13 11Z" fill="#fff"/>
</svg>
