<svg width="24px" height="24px" viewBox="0 0 24 24" fill="none" xmlns="http://www.w3.org/2000/svg">
<path d="M14.25 9L9.75 15M15 14.25C15 14.6642 14.6642 15 14.25 15C13.8358 15 13.5 14.6642 13.5 14.25C13.5 13.8358 13.8358 13.5 14.25 13.5C14.6642 13.5 15 13.8358 15 14.25ZM10.5 9.75C10.5 10.1642 10.1642 10.5 9.75 10.5C9.33579 10.5 9 10.1642 9 9.75C9 9.33579 9.33579 9 9.75 9C10.1642 9 10.5 9.33579 10.5 9.75ZM21.75 12C21.75 13.2 20.1 14.1 19.65 15.15C19.2 16.275 19.725 18.075 18.9 18.9C18.075 19.725 16.275 19.2 15.15 19.65C14.1 20.1 13.2 21.75 12 21.75C10.8 21.75 9.9 20.1 8.85 19.65C7.725 19.2 5.925 19.725 5.1 18.9C4.275 18.075 4.8 16.275 4.35 15.15C3.9 14.1 2.25 13.2 2.25 12C2.25 10.8 3.9 9.9 4.35 8.85C4.8 7.725 4.275 5.925 5.1 5.1C5.925 4.275 7.725 4.8 8.85 4.35C9.9 3.9 10.8 2.25 12 2.25C13.2 2.25 14.1 3.9 15.15 4.35C16.275 4.8 18.075 4.275 18.9 5.1C19.725 5.925 19.2 7.725 19.65 8.85C20.1 9.9 21.75 10.8 21.75 12Z" stroke="#fff" stroke-width="1.5" stroke-linecap="round" stroke-linejoin="round"/>
</svg>
