<svg width="24px" height="24px" viewBox="0 0 24 24" fill="none" xmlns="http://www.w3.org/2000/svg">
<path d="M21.75 12C21.75 17.3848 17.3848 21.75 12 21.75M21.75 12C21.75 6.61522 17.3848 2.25 12 2.25M21.75 12H2.25M12 21.75C6.61522 21.75 2.25 17.3848 2.25 12M12 21.75C14.0711 21.75 15.75 17.3848 15.75 12C15.75 6.61522 14.0711 2.25 12 2.25M12 21.75C9.92893 21.75 8.25 17.3848 8.25 12C8.25 6.61522 9.92893 2.25 12 2.25M2.25 12C2.25 6.61522 6.61522 2.25 12 2.25" stroke="#fff" stroke-width="1.5" stroke-linecap="round" stroke-linejoin="round"/>
</svg>
