<svg width="24px" height="24px" viewBox="0 0 24 24" fill="none" xmlns="http://www.w3.org/2000/svg">
<path d="M4.33283 9.28591L11.0828 4.06346C11.623 3.64551 12.377 3.64551 12.9172 4.06347L19.6672 9.28591C20.0348 9.57031 20.25 10.0092 20.25 10.4743V18.7481C20.25 19.5776 19.5784 20.25 18.75 20.25H15.75C14.9216 20.25 14.25 19.5784 14.25 18.75V16.4953C14.25 15.2511 13.2426 14.2425 12 14.2425C10.7574 14.2425 9.75 15.2511 9.75 16.4953V18.75C9.75 19.5784 9.07843 20.25 8.25 20.25H5.25C4.42157 20.25 3.75 19.5776 3.75 18.7481V10.4743C3.75 10.0092 3.96524 9.57031 4.33283 9.28591Z" stroke="#fff" stroke-width="1.5" stroke-linecap="round" stroke-linejoin="round"/>
</svg>
