<svg width="24px" height="24px" viewBox="0 0 24 24" fill="none" xmlns="http://www.w3.org/2000/svg">
<path d="M15 14.25C14.7542 14.916 14.338 15.4852 13.804 15.8857C13.27 16.2862 12.6422 16.5 12 16.5C11.3578 16.5 10.73 16.2862 10.196 15.8857C9.66197 15.4852 9.24577 14.916 9 14.25M11.0828 4.06346L4.33283 9.28591C3.96524 9.57031 3.75 10.0092 3.75 10.4743V18.7481C3.75 19.5776 4.42157 20.25 5.25 20.25H18.75C19.5784 20.25 20.25 19.5776 20.25 18.7481V10.4743C20.25 10.0092 20.0348 9.57031 19.6672 9.28591L12.9172 4.06347C12.377 3.64551 11.623 3.64551 11.0828 4.06346Z" stroke="#fff" stroke-width="1.5" stroke-linecap="round" stroke-linejoin="round"/>
</svg>
