<svg width="24px" height="24px" viewBox="0 0 24 24" fill="none" xmlns="http://www.w3.org/2000/svg">
<path d="M3.75 12.75H7.61539C8.44381 12.75 9.0843 13.4595 9.47062 14.1923C9.60091 14.4395 9.76518 14.6684 9.96027 14.8713C10.5012 15.4339 11.235 15.75 12 15.75C12.765 15.75 13.4988 15.4339 14.0397 14.8713C14.2348 14.6684 14.3991 14.4395 14.5294 14.1923C14.9157 13.4595 15.5562 12.75 16.3846 12.75H20.25M20.0916 10.9333L17.6646 6.07918C17.4105 5.571 16.8911 5.25 16.3229 5.25H7.67705C7.10889 5.25 6.5895 5.571 6.33541 6.07918L3.90836 10.9333C3.80422 11.1416 3.75 11.3712 3.75 11.6041V18.75C3.75 19.5784 4.42157 20.25 5.25 20.25H18.75C19.5784 20.25 20.25 19.5784 20.25 18.75V11.6041C20.25 11.3712 20.1958 11.1416 20.0916 10.9333Z" stroke="#fff" stroke-width="1.5" stroke-linecap="round" stroke-linejoin="round"/>
</svg>
