<svg width="32px" height="32px" viewBox="0 0 32 32" fill="none" xmlns="http://www.w3.org/2000/svg">
<path fill-rule="evenodd" clip-rule="evenodd" d="M15.3492 6.24074C15.7237 5.91975 16.2763 5.91975 16.6508 6.24074L22.9524 11.6421C23.6173 12.212 24 13.0441 24 13.9199V23C24 24.6569 22.6569 26 21 26H11C9.34315 26 8 24.6569 8 23V13.9199C8 13.0441 8.38269 12.212 9.04763 11.6421L15.3492 6.24074ZM17 13C17 12.4477 16.5523 12 16 12C15.4477 12 15 12.4477 15 13V13.01C15 13.5623 15.4477 14.01 16 14.01C16.5523 14.01 17 13.5623 17 13.01V13Z" fill="#fff"/>
</svg>
