<svg width="24px" height="24px" viewBox="0 0 24 24" fill="none" xmlns="http://www.w3.org/2000/svg">
<path d="M10.2692 5.6504C10.2692 5.01505 10.7843 4.5 11.4196 4.5H12.5804C13.2157 4.5 13.7308 5.01505 13.7308 5.6504V5.98673C13.7308 6.28913 13.9307 6.55328 14.21 6.6692C14.4894 6.78518 14.8142 6.73814 15.0281 6.52421L15.2661 6.28628C15.7153 5.83704 16.4437 5.83704 16.8929 6.28628L17.7137 7.1071C18.163 7.55635 18.163 8.28472 17.7137 8.73397L17.4758 8.97193C17.2619 9.18584 17.2148 9.51062 17.3308 9.79004C17.4467 10.0693 17.7109 10.2692 18.0132 10.2692H18.3496C18.9849 10.2692 19.5 10.7843 19.5 11.4196V12.5804C19.5 13.2157 18.9849 13.7308 18.3496 13.7308H18.0133C17.7109 13.7308 17.4467 13.9307 17.3308 14.2101C17.2148 14.4895 17.2618 14.8144 17.4758 15.0284L17.7136 15.2662C18.1627 15.7153 18.1627 16.4436 17.7136 16.8928L16.8926 17.7138C16.4434 18.163 15.715 18.163 15.2658 17.7138L15.0279 17.4758C14.814 17.2619 14.4893 17.2149 14.2099 17.3308C13.9306 17.4467 13.7308 17.7108 13.7308 18.0132V18.3496C13.7308 18.9849 13.2157 19.5 12.5804 19.5H11.4196C10.7843 19.5 10.2692 18.9849 10.2692 18.3496V18.0133C10.2692 17.7109 10.0693 17.4467 9.78999 17.3308C9.51054 17.2148 9.18571 17.2618 8.97177 17.4758L8.73384 17.7137C8.2846 18.163 7.55622 18.163 7.10698 17.7137L6.2862 16.8929C5.83694 16.4437 5.83694 15.7153 6.2862 15.266L6.52421 15.028C6.73811 14.8141 6.78514 14.4893 6.66918 14.2099C6.55328 13.9307 6.28916 13.7308 5.98679 13.7308H5.6504C5.01505 13.7308 4.5 13.2157 4.5 12.5804V11.4196C4.5 10.7843 5.01505 10.2692 5.6504 10.2692H5.9867C6.28912 10.2692 6.55329 10.0693 6.66922 9.78998C6.7852 9.51053 6.73817 9.18571 6.52422 8.97176L6.28635 8.73389C5.83715 8.28469 5.83715 7.55638 6.28635 7.10717L7.10727 6.28625C7.5565 5.83703 8.28484 5.83703 8.73407 6.28625L8.97202 6.5242C9.18592 6.73811 9.51067 6.78514 9.79007 6.66918C10.0693 6.55328 10.2692 6.28916 10.2692 5.98679V5.6504Z" stroke="#fff" stroke-width="1.5" stroke-linecap="round" stroke-linejoin="round"/>
<path d="M14.25 12C14.25 13.2426 13.2426 14.25 12 14.25C10.7574 14.25 9.75 13.2426 9.75 12C9.75 10.7574 10.7574 9.75 12 9.75C13.2426 9.75 14.25 10.7574 14.25 12Z" stroke="#fff" stroke-width="1.5" stroke-linecap="round" stroke-linejoin="round"/>
</svg>
