<svg width="32px" height="32px" viewBox="0 0 32 32" fill="none" xmlns="http://www.w3.org/2000/svg">
<path d="M22.5935 11.2555L23.3006 11.9626L22.5935 11.2555C21.9893 11.8596 21.8924 12.7351 22.1836 13.4367C22.472 14.1314 23.1572 14.6923 24.0172 14.6923H24.4656C24.7605 14.6923 24.9995 14.9313 24.9995 15.2262V16.7738C24.9995 17.0687 24.7605 17.3077 24.4656 17.3077H24.0173C23.1573 17.3077 22.4719 17.8687 22.1836 18.5634C21.8924 19.2651 21.9892 20.1407 22.5934 20.7449L22.9105 21.062C23.1189 21.2704 23.1189 21.6082 22.9105 21.8166L21.8158 22.9112C21.6074 23.1197 21.2695 23.1197 21.0611 22.9112L20.7438 22.594C20.1397 21.9899 19.2643 21.893 18.5627 22.1842C17.8681 22.4724 17.3072 23.1577 17.3072 24.0176V24.4661C17.3072 24.761 17.0682 25 16.7733 25H15.2257C14.9308 25 14.6918 24.761 14.6918 24.4661V24.0177C14.6918 23.1577 14.1309 22.4724 13.4362 22.1841C12.7345 21.8929 11.859 21.9897 11.2548 22.5939L10.9375 22.9112L11.6446 23.6183L10.9375 22.9112C10.7291 23.1196 10.3911 23.1196 10.1826 22.9112L9.08822 21.8168L8.38112 22.5239L9.08822 21.8168C8.87972 21.6083 8.87972 21.2703 9.08822 21.0618L9.40556 20.7444L8.69845 20.0373L9.40556 20.7444C10.0097 20.1403 10.1065 19.2649 9.81537 18.5633C9.52706 17.8686 8.84181 17.3077 7.98189 17.3077H7.53338C7.23853 17.3077 6.99951 17.0687 6.99951 16.7738V15.2262C6.99951 14.9313 7.23853 14.6923 7.53338 14.6923H7.98177C8.84176 14.6923 9.52707 14.1314 9.81541 13.4366C10.1066 12.735 10.0098 11.8595 9.40558 11.2552L9.08842 10.9381C8.88001 10.7297 8.88001 10.3918 9.08842 10.1833L10.183 9.08878C10.3914 8.88033 10.7294 8.88033 10.9378 9.08878L11.2551 9.40605C11.8592 10.0102 12.7347 10.107 13.4363 9.81585C14.1309 9.52755 14.6918 8.8423 14.6918 7.98239V7.53387C14.6918 7.23902 14.9308 7 15.2257 7H16.7733C17.0682 7 17.3072 7.23902 17.3072 7.53386V7.98231C17.3072 8.84226 17.8681 9.52756 18.5628 9.81588C19.2645 10.1071 20.14 10.0102 20.7441 9.40606L20.0653 8.72724L20.7441 9.40606L21.0614 9.08881C21.2699 8.88035 21.6078 8.88035 21.8163 9.08881L22.9107 10.1832C23.1192 10.3917 23.1192 10.7297 22.9107 10.9382L22.5935 11.2555ZM14.9995 16C14.9995 15.4477 15.4472 15 15.9995 15C16.5518 15 16.9995 15.4477 16.9995 16C16.9995 16.5523 16.5518 17 15.9995 17C15.4472 17 14.9995 16.5523 14.9995 16ZM15.9995 11C13.2381 11 10.9995 13.2386 10.9995 16C10.9995 18.7614 13.2381 21 15.9995 21C18.7609 21 20.9995 18.7614 20.9995 16C20.9995 13.2386 18.7609 11 15.9995 11Z" fill="#fff" stroke="#fff" stroke-width="2" stroke-linecap="round" stroke-linejoin="round"/>
</svg>
