<svg width="32px" height="32px" viewBox="0 0 32 32" fill="none" xmlns="http://www.w3.org/2000/svg">
<path fill-rule="evenodd" clip-rule="evenodd" d="M12 6C11.5411 6 11.1411 6.3123 11.0299 6.75746L10.2192 10H5C4.44772 10 4 10.4477 4 11V15C4 15.5523 4.44772 16 5 16H5.43845C5.89731 16 6.2973 16.3123 6.40859 16.7575L8.02986 23.2425C8.14115 23.6877 8.54113 24 9 24H23C23.4589 24 23.8589 23.6877 23.9701 23.2425L25.5914 16.7575C25.7027 16.3123 26.1027 16 26.5616 16H27C27.5523 16 28 15.5523 28 15V11C28 10.4477 27.5523 10 27 10H21.7808L20.9701 6.75746C20.8589 6.3123 20.4589 6 20 6H12ZM19.2192 8L19.7192 10H12.2808L12.7808 8H19.2192ZM13 15C13.5523 15 14 15.4477 14 16V19C14 19.5523 13.5523 20 13 20C12.4477 20 12 19.5523 12 19V16C12 15.4477 12.4477 15 13 15ZM20 16C20 15.4477 19.5523 15 19 15C18.4477 15 18 15.4477 18 16V19C18 19.5523 18.4477 20 19 20C19.5523 20 20 19.5523 20 19V16Z" fill="#fff"/>
</svg>
