<svg width="32px" height="32px" viewBox="0 0 32 32" fill="none" xmlns="http://www.w3.org/2000/svg">
<path d="M5 6C4.44772 6 4 6.44772 4 7C4 7.55228 4.44772 8 5 8H7.10875L7.46813 11.1146C7.46957 11.1271 7.47125 11.1396 7.47317 11.1521L9.01163 21.1521C9.08668 21.6399 9.50643 22 10 22H23C23.4767 22 23.8871 21.6635 23.9806 21.1961L25.9806 11.1961C26.0393 10.9023 25.9633 10.5977 25.7733 10.366C25.5834 10.1343 25.2996 10 25 10H9.35279L8.99341 6.88538C8.93519 6.38079 8.50794 6 8 6H5Z" fill="#fff"/>
<path d="M10.5 25C10.5 24.1716 11.1716 23.5 12 23.5H12.01C12.8384 23.5 13.51 24.1716 13.51 25C13.51 25.8284 12.8384 26.5 12.01 26.5H12C11.1716 26.5 10.5 25.8284 10.5 25Z" fill="#fff"/>
<path d="M20 23.5C19.1716 23.5 18.5 24.1716 18.5 25C18.5 25.8284 19.1716 26.5 20 26.5H20.01C20.8384 26.5 21.51 25.8284 21.51 25C21.51 24.1716 20.8384 23.5 20.01 23.5H20Z" fill="#fff"/>
</svg>
