<svg width="24px" height="24px" viewBox="0 0 24 24" fill="none" xmlns="http://www.w3.org/2000/svg">
<path d="M3.75 5.25C3.75 4.42157 4.42157 3.75 5.25 3.75H18.75C19.5784 3.75 20.25 4.42157 20.25 5.25V18.75C20.25 19.5784 19.5784 20.25 18.75 20.25H5.25C4.42157 20.25 3.75 19.5784 3.75 18.75V5.25Z" stroke="#fff" stroke-width="1.5" stroke-miterlimit="10" stroke-linecap="round" stroke-linejoin="round"/>
<path d="M12 12C13.2426 12 14.25 10.9926 14.25 9.75C14.25 8.50736 13.2426 7.5 12 7.5C10.7574 7.5 9.75 8.50736 9.75 9.75C9.75 10.9926 10.7574 12 12 12Z" stroke="#fff" stroke-width="1.5" stroke-miterlimit="10" stroke-linecap="round" stroke-linejoin="round"/>
<path d="M15 14.25C16.6569 14.25 17.6341 15.6921 16.1401 16.4085C15.0548 16.9289 13.5885 17.25 12 17.25C10.4115 17.25 8.94524 16.9289 7.85989 16.4085C6.3659 15.6921 7.34315 14.25 9 14.25L15 14.25Z" stroke="#fff" stroke-width="1.5" stroke-miterlimit="10" stroke-linecap="round" stroke-linejoin="round"/>
</svg>
