<svg width="32px" height="32px" viewBox="0 0 32 32" fill="none" xmlns="http://www.w3.org/2000/svg">
<path fill-rule="evenodd" clip-rule="evenodd" d="M5.99951 15C5.99951 10.0294 10.0289 6 14.9995 6C19.9701 6 23.9995 10.0294 23.9995 15C23.9995 17.125 23.263 19.078 22.0314 20.6177L27.7066 26.2929C28.0971 26.6834 28.0971 27.3166 27.7066 27.7071C27.3161 28.0976 26.6829 28.0976 26.2924 27.7071L20.6172 22.0319C19.0775 23.2635 17.1245 24 14.9995 24C10.0289 24 5.99951 19.9706 5.99951 15ZM15.9995 12C15.9995 11.4477 15.5518 11 14.9995 11C14.4472 11 13.9995 11.4477 13.9995 12V14H11.9995C11.4472 14 10.9995 14.4477 10.9995 15C10.9995 15.5523 11.4472 16 11.9995 16H13.9995V18C13.9995 18.5523 14.4472 19 14.9995 19C15.5518 19 15.9995 18.5523 15.9995 18V16H17.9995C18.5518 16 18.9995 15.5523 18.9995 15C18.9995 14.4477 18.5518 14 17.9995 14H15.9995V12Z" fill="#fff"/>
</svg>
