<svg width="32px" height="32px" viewBox="0 0 32 32" fill="none" xmlns="http://www.w3.org/2000/svg">
<path fill-rule="evenodd" clip-rule="evenodd" d="M6 15C6 10.0294 10.0294 6 15 6C19.9706 6 24 10.0294 24 15C24 17.125 23.2635 19.078 22.0319 20.6177L27.7071 26.2929C28.0976 26.6834 28.0976 27.3166 27.7071 27.7071C27.3166 28.0976 26.6834 28.0976 26.2929 27.7071L20.6177 22.0319C19.078 23.2635 17.125 24 15 24C10.0294 24 6 19.9706 6 15ZM11 15C11 15.5523 11.4477 16 12 16H18C18.5523 16 19 15.5523 19 15C19 14.4477 18.5523 14 18 14H12C11.4477 14 11 14.4477 11 15Z" fill="#fff"/>
</svg>
