<svg width="24px" height="24px" viewBox="0 0 24 24" fill="none" xmlns="http://www.w3.org/2000/svg">
<g id="Iconly/Curved/Buy">
<g id="Buy">
<path id="Stroke 1" d="M5.69415 6.43034C15.5425 5.0931 17.9695 5.25722 19.5 7C21.0305 8.74278 20.6721 14.4881 18.8831 16.0871C17.0951 17.6861 9.33015 17.8381 6.87015 16.0871C4.27115 14.2361 5.77915 8.5421 5.69415 5.0931C5.74515 3.1631 3.65015 2.8501 3.65015 2.8501" stroke="#fff" stroke-width="1.5" stroke-linecap="round" stroke-linejoin="round"/>
<path id="Stroke 3" d="M14.156 10.7197H16.929" stroke="#fff" stroke-width="1.5" stroke-linecap="round" stroke-linejoin="round"/>
<path id="Stroke 5" fill-rule="evenodd" clip-rule="evenodd" d="M7.26399 20.1274C7.56399 20.1274 7.80799 20.3714 7.80799 20.6714C7.80799 20.9724 7.56399 21.2164 7.26399 21.2164C6.96299 21.2164 6.71899 20.9724 6.71899 20.6714C6.71899 20.3714 6.96299 20.1274 7.26399 20.1274Z" fill="#fff" stroke="#fff" stroke-width="1.5" stroke-linecap="round" stroke-linejoin="round"/>
<path id="Stroke 7" fill-rule="evenodd" clip-rule="evenodd" d="M17.5954 20.1274C17.8964 20.1274 18.1404 20.3714 18.1404 20.6714C18.1404 20.9724 17.8964 21.2164 17.5954 21.2164C17.2954 21.2164 17.0514 20.9724 17.0514 20.6714C17.0514 20.3714 17.2954 20.1274 17.5954 20.1274Z" fill="#fff" stroke="#fff" stroke-width="1.5" stroke-linecap="round" stroke-linejoin="round"/>
</g>
</g>
</svg>
