<svg width="24px" height="24px" viewBox="0 0 24 24" fill="" xmlns="http://www.w3.org/2000/svg">
<path fill-rule="evenodd" clip-rule="evenodd" d="M3.32704 4.66981C3.81548 4.4117 4.44057 4.43081 4.93562 4.84683L4.61394 5.22961L4.93562 4.84683L9.86592 8.99012C11.1244 10.0477 12.8756 10.0477 14.1341 8.99012L19.0644 4.84683C19.5594 4.43081 20.1845 4.4117 20.673 4.66981C21.1569 4.92556 21.5 5.44614 21.5 6.0825V17.9195C21.5 18.7553 20.8642 19.5 20 19.5L4 19.5C3.13584 19.5 2.5 18.7553 2.5 17.9195L2.5 16C2.5 15.7239 2.72386 15.5 3 15.5C3.27614 15.5 3.5 15.7239 3.5 16L3.5 17.9195C3.5 18.2773 3.7596 18.5 4 18.5L20 18.5C20.2404 18.5 20.5 18.2773 20.5 17.9195V6.0825C20.5 5.81974 20.3645 5.63787 20.2057 5.55395C20.0514 5.47241 19.8695 5.47642 19.7077 5.6124L14.7774 9.75568C13.147 11.1258 10.853 11.1258 9.22256 9.75569L4.29226 5.6124C4.13045 5.47642 3.94857 5.47241 3.79426 5.55395C3.63545 5.63787 3.5 5.81973 3.5 6.08249L3.5 13C3.5 13.2762 3.27614 13.5 3 13.5C2.72386 13.5 2.5 13.2762 2.5 13L2.5 6.08249C2.5 5.44614 2.84309 4.92555 3.32704 4.66981Z" fill="white"/>
</svg>
