<?xml version="1.0" ?><svg width="64px" height="64px" viewBox="0 0 64 64" id="Layer_1" style="enable-background:new 0 0 64 64;" version="1.1" xml:space="preserve" xmlns="http://www.w3.org/2000/svg" xmlns:xlink="http://www.w3.org/1999/xlink"><style type="text/css">
	.st0{fill:url(#SVGID_1_);}
	.st1{fill:url(#SVGID_2_);}
	.st2{fill:url(#SVGID_3_);}
	.st3{fill:url(#SVGID_4_);}
	.st4{fill:url(#SVGID_5_);}
	.st5{fill:#FFFFFF;}
	.st6{opacity:0.6;fill:#FFFFFF;}
	.st7{fill:url(#SVGID_6_);}
	.st8{fill:url(#SVGID_7_);}
	.st9{fill:url(#SVGID_8_);}
	.st10{fill:url(#SVGID_9_);}
	.st11{fill:url(#SVGID_10_);}
	.st12{fill:url(#SVGID_11_);}
	.st13{fill:url(#SVGID_12_);}
	.st14{fill:url(#SVGID_13_);}
	.st15{fill:url(#SVGID_14_);}
	.st16{fill:url(#SVGID_15_);}
	.st17{fill:url(#SVGID_16_);}
	.st18{fill:url(#SVGID_17_);}
	.st19{fill:url(#SVGID_18_);}
	.st20{fill:url(#SVGID_19_);}
	.st21{fill:url(#SVGID_20_);}
	.st22{opacity:0.2;}
	.st23{fill:none;stroke:#FFFFFF;stroke-width:2;stroke-linecap:round;stroke-miterlimit:10;}
	.st24{fill:none;stroke:#FFFFFF;stroke-width:3;stroke-linecap:round;stroke-miterlimit:10;}
	.st25{opacity:0.5;}
	.st26{fill:none;stroke:#FFFFFF;stroke-width:2;stroke-linecap:round;stroke-miterlimit:10;stroke-dasharray:0.1,5;}
	.st27{opacity:0.6;fill:none;stroke:#FFFFFF;stroke-width:4;stroke-miterlimit:10;}
	.st28{opacity:0.3;}
</style><linearGradient gradientUnits="userSpaceOnUse" id="SVGID_1_" x1="11.992" x2="52.2484" y1="11.9781" y2="52.2346"><stop offset="0" style="stop-color:#00FA4C"/><stop offset="1" style="stop-color:#009677"/></linearGradient><path class="st0" d="M57.2,60.5c-16.5,2-33.3,2-50.4,0c-1.7-0.2-3.1-1.6-3.3-3.3c-2-16.8-2-33.6,0-50.4c0.2-1.7,1.6-3.1,3.3-3.3  c16.8-2,33.7-2,50.5,0c1.7,0.2,3,1.5,3.3,3.2c2,16.5,2,33.3,0,50.5C60.3,58.9,58.9,60.3,57.2,60.5z"/><path class="st5" d="M49,13.8L49,13.8c-5.7-5.7-14.9-5.7-20.6,0c-5.4,5.4-5.8,14.2-0.7,19.9c3,3.3,6.5,6.3,10.4,9.1  c0.4,0.3,0.9,0.3,1.2,0c3.9-2.7,7.4-5.7,10.4-9C54.8,28,54.4,19.2,49,13.8z M38.7,30.1c-3.4,0-6.1-2.7-6.1-6.1s2.7-6.1,6.1-6.1  s6.1,2.7,6.1,6.1S42,30.1,38.7,30.1z"/><g class="st22"><line class="st23" x1="11" x2="45" y1="48" y2="48"/><line class="st23" x1="11" x2="43" y1="36" y2="36"/><line class="st23" x1="11" x2="29" y1="25" y2="25"/><line class="st23" x1="40" x2="40" y1="53" y2="34"/><line class="st23" x1="28" x2="28" y1="53" y2="21"/><line class="st23" x1="16" x2="16" y1="53" y2="19"/></g><ellipse class="st6" cx="38.7" cy="24" rx="3.8" ry="3.8" transform="matrix(0.7071 -0.7071 0.7071 0.7071 -5.6514 34.362)"/></svg>