<?xml version="1.0" ?><svg width="64px" height="64px" viewBox="0 0 64 64" id="Layer_1" style="enable-background:new 0 0 64 64;" version="1.1" xml:space="preserve" xmlns="http://www.w3.org/2000/svg" xmlns:xlink="http://www.w3.org/1999/xlink"><style type="text/css">
	.st0{fill:url(#SVGID_1_);}
	.st1{fill:url(#SVGID_2_);}
	.st2{fill:url(#SVGID_3_);}
	.st3{fill:url(#SVGID_4_);}
	.st4{fill:url(#SVGID_5_);}
	.st5{fill:#FFFFFF;}
	.st6{opacity:0.6;fill:#FFFFFF;}
	.st7{fill:url(#SVGID_6_);}
	.st8{fill:url(#SVGID_7_);}
	.st9{fill:url(#SVGID_8_);}
	.st10{fill:url(#SVGID_9_);}
	.st11{fill:url(#SVGID_10_);}
	.st12{fill:url(#SVGID_11_);}
	.st13{fill:url(#SVGID_12_);}
	.st14{fill:url(#SVGID_13_);}
	.st15{fill:url(#SVGID_14_);}
	.st16{fill:url(#SVGID_15_);}
	.st17{fill:url(#SVGID_16_);}
	.st18{fill:url(#SVGID_17_);}
	.st19{fill:url(#SVGID_18_);}
	.st20{fill:url(#SVGID_19_);}
	.st21{fill:url(#SVGID_20_);}
	.st22{opacity:0.2;}
	.st23{fill:none;stroke:#FFFFFF;stroke-width:2;stroke-linecap:round;stroke-miterlimit:10;}
	.st24{fill:none;stroke:#FFFFFF;stroke-width:3;stroke-linecap:round;stroke-miterlimit:10;}
	.st25{opacity:0.5;}
	.st26{fill:none;stroke:#FFFFFF;stroke-width:2;stroke-linecap:round;stroke-miterlimit:10;stroke-dasharray:0.1,5;}
	.st27{opacity:0.6;fill:none;stroke:#FFFFFF;stroke-width:4;stroke-miterlimit:10;}
	.st28{opacity:0.3;}
</style><linearGradient gradientUnits="userSpaceOnUse" id="SVGID_1_" x1="11.992" x2="52.2484" y1="11.9781" y2="52.2346"><stop offset="5.291006e-03" style="stop-color:#4BC1F3"/><stop offset="1" style="stop-color:#0049DB"/></linearGradient><path class="st0" d="M57.2,60.5c-16.5,2-33.3,2-50.4,0c-1.7-0.2-3.1-1.6-3.3-3.3c-2-16.8-2-33.6,0-50.4c0.2-1.7,1.6-3.1,3.3-3.3  c16.8-2,33.7-2,50.5,0c1.7,0.2,3,1.5,3.3,3.2c2,16.5,2,33.3,0,50.5C60.3,58.9,58.9,60.3,57.2,60.5z"/><circle class="st6" cx="48.5" cy="25.5" r="5.2"/><path class="st5" d="M48.5,33.2c-4.3,0-7.7-3.4-7.7-7.7c0-0.9,0.2-1.7,0.4-2.5c-5.8-0.4-11.8-0.1-17.8,0.8c-0.9,0.1-1.6,0.8-1.7,1.7  c-1.3,8.2-1.2,16.6,0,25.2c0.1,0.8,0.8,1.5,1.6,1.7c8.4,1.7,16.9,1.7,25.3,0c0.8-0.2,1.4-0.8,1.6-1.6c1-6,1.2-11.9,0.8-17.9  C50.3,33,49.4,33.2,48.5,33.2z"/><g class="st22"><g><polygon class="st5" points="32.5,11.3 29.5,16.3 28,14 33.8,14.2 36.6,14.2 35.2,16.4 31.5,22.1 31.1,22.7 30.1,22.2 30.3,21.6     32.4,15.1 33.8,17.3 28,17.4 26,17.5 26.4,15.1 27.4,9.4 27.8,6.7 33.9,8.9   "/></g><g><polygon class="st5" points="14.8,13.8 16.1,19.4 13.4,18.9 17.7,15 19.8,13.1 20.3,15.6 21.5,22.3 21.7,22.9 20.6,23.3     20.3,22.7 17.3,16.6 19.9,17.2 15.8,21.3 14.4,22.7 13.1,20.8 9.8,16 8.2,13.7 14.1,11.1   "/></g><g><polygon class="st5" points="11.9,29.8 14.6,33.6 12.4,34 14.5,29.8 15.4,27.8 16.5,29.5 19.5,34.1 19.7,34.5 19.1,35.1     18.7,34.8 14.6,31.1 16.7,30.8 14.9,35.1 14.3,36.5 12.7,35.5 8.9,32.9 7.1,31.6 10.7,28   "/></g></g></svg>