<?xml version="1.0" ?><svg width="64px" height="64px" viewBox="0 0 64 64" id="Layer_1" style="enable-background:new 0 0 64 64;" version="1.1" xml:space="preserve" xmlns="http://www.w3.org/2000/svg" xmlns:xlink="http://www.w3.org/1999/xlink"><style type="text/css">
	.st0{fill:url(#SVGID_1_);}
	.st1{fill:url(#SVGID_2_);}
	.st2{fill:url(#SVGID_3_);}
	.st3{fill:url(#SVGID_4_);}
	.st4{fill:url(#SVGID_5_);}
	.st5{fill:#FFFFFF;}
	.st6{opacity:0.6;fill:#FFFFFF;}
	.st7{fill:url(#SVGID_6_);}
	.st8{fill:url(#SVGID_7_);}
	.st9{fill:url(#SVGID_8_);}
	.st10{fill:url(#SVGID_9_);}
	.st11{fill:url(#SVGID_10_);}
	.st12{fill:url(#SVGID_11_);}
	.st13{fill:url(#SVGID_12_);}
	.st14{fill:url(#SVGID_13_);}
	.st15{fill:url(#SVGID_14_);}
	.st16{fill:url(#SVGID_15_);}
	.st17{fill:url(#SVGID_16_);}
	.st18{fill:url(#SVGID_17_);}
	.st19{fill:url(#SVGID_18_);}
	.st20{fill:url(#SVGID_19_);}
	.st21{fill:url(#SVGID_20_);}
	.st22{opacity:0.2;}
	.st23{fill:none;stroke:#FFFFFF;stroke-width:2;stroke-linecap:round;stroke-miterlimit:10;}
	.st24{fill:none;stroke:#FFFFFF;stroke-width:3;stroke-linecap:round;stroke-miterlimit:10;}
	.st25{opacity:0.5;}
	.st26{fill:none;stroke:#FFFFFF;stroke-width:2;stroke-linecap:round;stroke-miterlimit:10;stroke-dasharray:0.1,5;}
	.st27{opacity:0.6;fill:none;stroke:#FFFFFF;stroke-width:4;stroke-miterlimit:10;}
	.st28{opacity:0.3;}
</style><linearGradient gradientUnits="userSpaceOnUse" id="SVGID_1_" x1="11.992" x2="52.2484" y1="11.9781" y2="52.2346"><stop offset="0" style="stop-color:#4AFAB5"/><stop offset="1" style="stop-color:#107A96"/></linearGradient><path class="st0" d="M57.2,60.5c-16.5,2-33.3,2-50.4,0c-1.7-0.2-3.1-1.6-3.3-3.3c-2-16.8-2-33.6,0-50.4c0.2-1.7,1.6-3.1,3.3-3.3  c16.8-2,33.7-2,50.5,0c1.7,0.2,3,1.5,3.3,3.2c2,16.5,2,33.3,0,50.5C60.3,58.9,58.9,60.3,57.2,60.5z"/><path class="st6" d="M42.3,40H38v-4.3c0-0.9,0.3-1.7,1-2.3L49.3,23c1.6-1.6,4.1-1.6,5.7,0l0,0c1.6,1.6,1.6,4.1,0,5.7L44.6,39  C44,39.7,43.2,40,42.3,40z"/><path class="st5" d="M44.6,39c-0.6,0.6-1.4,1-2.3,1H38v-4.3c0-0.9,0.3-1.7,1-2.3l9.7-9.7c-8.1-1.2-16.1-1.1-24.2,0.1  c-0.9,0.1-1.6,0.8-1.7,1.7c-1,8.1-1,16.4,0,25c0.1,0.9,0.8,1.7,1.8,1.8c8.3,1,16.6,1,24.9,0c0.9-0.1,1.6-0.8,1.8-1.7  c0.8-6.2,1-12.4,0.6-18.7L44.6,39z"/><g class="st28"><line class="st23" x1="13" x2="44" y1="13" y2="13"/><line class="st23" x1="13" x2="44" y1="20" y2="20"/><line class="st23" x1="13" x2="40" y1="27" y2="27"/><line class="st23" x1="13" x2="36" y1="34" y2="34"/><line class="st23" x1="13" x2="36" y1="41" y2="41"/></g></svg>