<?xml version="1.0" ?><svg width="64px" height="64px" viewBox="0 0 64 64" id="Layer_1" style="enable-background:new 0 0 64 64;" version="1.1" xml:space="preserve" xmlns="http://www.w3.org/2000/svg" xmlns:xlink="http://www.w3.org/1999/xlink"><style type="text/css">
	.st0{fill:url(#SVGID_1_);}
	.st1{fill:url(#SVGID_2_);}
	.st2{fill:url(#SVGID_3_);}
	.st3{fill:url(#SVGID_4_);}
	.st4{fill:url(#SVGID_5_);}
	.st5{fill:#FFFFFF;}
	.st6{opacity:0.6;fill:#FFFFFF;}
	.st7{fill:url(#SVGID_6_);}
	.st8{fill:url(#SVGID_7_);}
	.st9{fill:url(#SVGID_8_);}
	.st10{fill:url(#SVGID_9_);}
	.st11{fill:url(#SVGID_10_);}
	.st12{fill:url(#SVGID_11_);}
	.st13{fill:url(#SVGID_12_);}
	.st14{fill:url(#SVGID_13_);}
	.st15{fill:url(#SVGID_14_);}
	.st16{fill:url(#SVGID_15_);}
	.st17{fill:url(#SVGID_16_);}
	.st18{fill:url(#SVGID_17_);}
	.st19{fill:url(#SVGID_18_);}
	.st20{fill:url(#SVGID_19_);}
	.st21{fill:url(#SVGID_20_);}
	.st22{opacity:0.2;}
	.st23{fill:none;stroke:#FFFFFF;stroke-width:2;stroke-linecap:round;stroke-miterlimit:10;}
	.st24{fill:none;stroke:#FFFFFF;stroke-width:3;stroke-linecap:round;stroke-miterlimit:10;}
	.st25{opacity:0.5;}
	.st26{fill:none;stroke:#FFFFFF;stroke-width:2;stroke-linecap:round;stroke-miterlimit:10;stroke-dasharray:0.1,5;}
	.st27{opacity:0.6;fill:none;stroke:#FFFFFF;stroke-width:4;stroke-miterlimit:10;}
	.st28{opacity:0.3;}
</style><linearGradient gradientUnits="userSpaceOnUse" id="SVGID_1_" x1="11.992" x2="52.2484" y1="11.9781" y2="52.2346"><stop offset="0" style="stop-color:#FFF914"/><stop offset="1" style="stop-color:#FFC600"/></linearGradient><path class="st0" d="M57.2,60.5c-16.5,2-33.3,2-50.4,0c-1.7-0.2-3.1-1.6-3.3-3.3c-2-16.8-2-33.6,0-50.4c0.2-1.7,1.6-3.1,3.3-3.3  c16.8-2,33.7-2,50.5,0c1.7,0.2,3,1.5,3.3,3.2c2,16.5,2,33.3,0,50.5C60.3,58.9,58.9,60.3,57.2,60.5z"/><path class="st5" d="M9.5,12.5c0,7.3,0,25.5,0,25.5C25.1,38,38,25.1,38,9.5H12.5C10.9,9.5,9.5,10.9,9.5,12.5z"/><path class="st6" d="M10.4,46.4c0.5-1,1.3-2.3,2-3.5c1.5-2.7,5.2-3.3,7.5-1.2l3.1,2.8c0.6,0.6,1.6,0.2,1.7-0.6l0.4-4.2  c0.3-3.1,3.4-5.2,6.4-4.2l4,1.3c0.8,0.3,1.5-0.5,1.3-1.3l-1.3-4c-1-3,1-6.1,4.2-6.4l4.2-0.4c0.8-0.1,1.2-1.1,0.6-1.7l-2.8-3.1  c-2.1-2.3-1.6-6,1.2-7.5l3.8-2.1c0.4-0.3,0.3-0.9-0.2-0.9l-28,0c-4.8,0-8.7,3.9-8.7,8.6c0,7.3,0,18.2,0,28  C9.5,46.7,10.2,46.9,10.4,46.4z"/><g class="st28"><line class="st26" x1="39.4" x2="54" y1="39" y2="54"/><line class="st26" x1="29.7" x2="39" y1="39" y2="54"/><line class="st26" x1="23.1" x2="25" y1="47.5" y2="54"/><line class="st26" x1="39.6" x2="54" y1="29.5" y2="39"/><line class="st26" x1="46.8" x2="54" y1="25.2" y2="28"/><line class="st26" x1="43.6" x2="54" y1="15" y2="16"/></g></svg>