<?xml version="1.0" ?><svg width="64px" height="64px" viewBox="0 0 64 64" id="Layer_1" style="enable-background:new 0 0 64 64;" version="1.1" xml:space="preserve" xmlns="http://www.w3.org/2000/svg" xmlns:xlink="http://www.w3.org/1999/xlink"><style type="text/css">
	.st0{fill:url(#SVGID_1_);}
	.st1{fill:url(#SVGID_2_);}
	.st2{fill:url(#SVGID_3_);}
	.st3{fill:url(#SVGID_4_);}
	.st4{fill:url(#SVGID_5_);}
	.st5{fill:#FFFFFF;}
	.st6{opacity:0.6;fill:#FFFFFF;}
	.st7{fill:url(#SVGID_6_);}
	.st8{fill:url(#SVGID_7_);}
	.st9{fill:url(#SVGID_8_);}
	.st10{fill:url(#SVGID_9_);}
	.st11{fill:url(#SVGID_10_);}
	.st12{fill:url(#SVGID_11_);}
	.st13{fill:url(#SVGID_12_);}
	.st14{fill:url(#SVGID_13_);}
	.st15{fill:url(#SVGID_14_);}
	.st16{fill:url(#SVGID_15_);}
	.st17{fill:url(#SVGID_16_);}
	.st18{fill:url(#SVGID_17_);}
	.st19{fill:url(#SVGID_18_);}
	.st20{fill:url(#SVGID_19_);}
	.st21{fill:url(#SVGID_20_);}
	.st22{opacity:0.2;}
	.st23{fill:none;stroke:#FFFFFF;stroke-width:2;stroke-linecap:round;stroke-miterlimit:10;}
	.st24{fill:none;stroke:#FFFFFF;stroke-width:3;stroke-linecap:round;stroke-miterlimit:10;}
	.st25{opacity:0.5;}
	.st26{fill:none;stroke:#FFFFFF;stroke-width:2;stroke-linecap:round;stroke-miterlimit:10;stroke-dasharray:0.1,5;}
	.st27{opacity:0.6;fill:none;stroke:#FFFFFF;stroke-width:4;stroke-miterlimit:10;}
	.st28{opacity:0.3;}
</style><linearGradient gradientUnits="userSpaceOnUse" id="SVGID_1_" x1="11.992" x2="52.2484" y1="11.9781" y2="52.2346"><stop offset="0" style="stop-color:#FFC000"/><stop offset="1" style="stop-color:#FF7C00"/></linearGradient><path class="st0" d="M57.2,60.5c-16.5,2-33.3,2-50.4,0c-1.7-0.2-3.1-1.6-3.3-3.3c-2-16.8-2-33.6,0-50.4c0.2-1.7,1.6-3.1,3.3-3.3  c16.8-2,33.7-2,50.5,0c1.7,0.2,3,1.5,3.3,3.2c2,16.5,2,33.3,0,50.5C60.3,58.9,58.9,60.3,57.2,60.5z"/><path class="st5" d="M42.4,51.2c-8.9,1.1-17.9,1.1-26.8,0c-0.9-0.1-1.6-0.8-1.7-1.8c-0.7-6.3-0.7-12.5,0-18.8  c0.1-0.9,0.9-1.7,1.8-1.8c8.9-0.9,17.8-0.9,26.8,0c0.9,0.1,1.7,0.9,1.8,1.8c0.6,6.3,0.6,12.5,0,18.8C44.1,50.3,43.3,51.1,42.4,51.2z  "/><path class="st6" d="M28.1,24.6c-3.3-0.2-6.8-0.1-10.4,0.4c-1,0.1-1.7,1-1.7,2.1l0.1,2.2l14-0.6L30,26.5  C29.9,25.5,29.1,24.6,28.1,24.6z"/><g class="st22"><circle class="st5" cx="28" cy="12" r="3"/><line class="st23" x1="52" x2="34" y1="12" y2="12"/><polyline class="st23" points="42,13 42,19 52,19  "/><polyline class="st23" points="42,20 42,26 52,26  "/><polyline class="st23" points="42,27 42,33 52,33  "/><polyline class="st23" points="42,34 42,40 52,40  "/><line class="st23" x1="37" x2="34" y1="19" y2="19"/><line class="st23" x1="37" x2="34" y1="26" y2="26"/></g></svg>