<?xml version="1.0" ?><svg width="64px" height="64px" viewBox="0 0 64 64" id="Layer_1" style="enable-background:new 0 0 64 64;" version="1.1" xml:space="preserve" xmlns="http://www.w3.org/2000/svg" xmlns:xlink="http://www.w3.org/1999/xlink"><style type="text/css">
	.st0{fill:url(#SVGID_1_);}
	.st1{fill:url(#SVGID_2_);}
	.st2{fill:url(#SVGID_3_);}
	.st3{fill:url(#SVGID_4_);}
	.st4{fill:url(#SVGID_5_);}
	.st5{fill:#FFFFFF;}
	.st6{opacity:0.6;fill:#FFFFFF;}
	.st7{fill:url(#SVGID_6_);}
	.st8{fill:url(#SVGID_7_);}
	.st9{fill:url(#SVGID_8_);}
	.st10{fill:url(#SVGID_9_);}
	.st11{fill:url(#SVGID_10_);}
	.st12{fill:url(#SVGID_11_);}
	.st13{fill:url(#SVGID_12_);}
	.st14{fill:url(#SVGID_13_);}
	.st15{fill:url(#SVGID_14_);}
	.st16{fill:url(#SVGID_15_);}
	.st17{fill:url(#SVGID_16_);}
	.st18{fill:url(#SVGID_17_);}
	.st19{fill:url(#SVGID_18_);}
	.st20{fill:url(#SVGID_19_);}
	.st21{fill:url(#SVGID_20_);}
	.st22{opacity:0.2;}
	.st23{fill:none;stroke:#FFFFFF;stroke-width:2;stroke-linecap:round;stroke-miterlimit:10;}
	.st24{fill:none;stroke:#FFFFFF;stroke-width:3;stroke-linecap:round;stroke-miterlimit:10;}
	.st25{opacity:0.5;}
	.st26{fill:none;stroke:#FFFFFF;stroke-width:2;stroke-linecap:round;stroke-miterlimit:10;stroke-dasharray:0.1,5;}
	.st27{opacity:0.6;fill:none;stroke:#FFFFFF;stroke-width:4;stroke-miterlimit:10;}
	.st28{opacity:0.3;}
</style><linearGradient gradientUnits="userSpaceOnUse" id="SVGID_1_" x1="11.992" x2="52.2484" y1="11.9781" y2="52.2346"><stop offset="0" style="stop-color:#F06F6D"/><stop offset="1" style="stop-color:#EB002B"/></linearGradient><path class="st0" d="M57.2,60.5c-16.5,2-33.3,2-50.4,0c-1.7-0.2-3.1-1.6-3.3-3.3c-2-16.8-2-33.6,0-50.4c0.2-1.7,1.6-3.1,3.3-3.3  c16.8-2,33.7-2,50.5,0c1.7,0.2,3,1.5,3.3,3.2c2,16.5,2,33.3,0,50.5C60.3,58.9,58.9,60.3,57.2,60.5z"/><path class="st27" d="M33.8,24v-5.5c0-4.3-3.5-7.9-7.9-7.9h0c-4.3,0-7.9,3.5-7.9,7.9V24"/><path class="st5" d="M40,22.2c-0.1-0.9-0.8-1.6-1.7-1.7c-8.3-0.9-16.6-0.9-24.9,0c-0.9,0.1-1.6,0.8-1.7,1.6  c-0.6,5.9-0.6,11.7,0,17.5c0.1,0.9,0.8,1.5,1.6,1.6c8.3,1,16.6,1,24.9,0c0.9-0.1,1.5-0.8,1.6-1.7C40.5,33.8,40.5,28,40,22.2z   M27.5,31.3v3.4c0,0.8-0.7,1.5-1.5,1.5s-1.5-0.7-1.5-1.5v-3.4c-0.9-0.5-1.5-1.5-1.5-2.6c0-1.7,1.3-3,3-3s3,1.3,3,3  C29,29.9,28.4,30.8,27.5,31.3z"/><g class="st22"><line class="st23" x1="51" x2="12" y1="51" y2="51"/><line class="st23" x1="53" x2="33" y1="30" y2="30"/><line class="st23" x1="55" x2="20" y1="44" y2="44"/><line class="st23" x1="55" x2="31" y1="37" y2="37"/><line class="st23" x1="43.2" x2="43.2" y1="44" y2="51"/><line class="st23" x1="50.2" x2="50.2" y1="37" y2="44"/><line class="st23" x1="49.2" x2="49.2" y1="25" y2="30"/><line class="st23" x1="26.2" x2="26.2" y1="44" y2="51"/><line class="st23" x1="35.2" x2="35.2" y1="51" y2="55"/><line class="st23" x1="35.2" x2="35.2" y1="40" y2="44"/><line class="st23" x1="18.2" x2="18.2" y1="51" y2="55"/><line class="st23" x1="43.2" x2="43.2" y1="31" y2="37"/></g></svg>