<?xml version="1.0" ?><svg width="64px" height="64px" viewBox="0 0 64 64" id="Layer_1" style="enable-background:new 0 0 64 64;" version="1.1" xml:space="preserve" xmlns="http://www.w3.org/2000/svg" xmlns:xlink="http://www.w3.org/1999/xlink"><style type="text/css">
	.st0{fill:url(#SVGID_1_);}
	.st1{fill:url(#SVGID_2_);}
	.st2{fill:url(#SVGID_3_);}
	.st3{fill:url(#SVGID_4_);}
	.st4{fill:url(#SVGID_5_);}
	.st5{fill:#FFFFFF;}
	.st6{opacity:0.6;fill:#FFFFFF;}
	.st7{fill:url(#SVGID_6_);}
	.st8{fill:url(#SVGID_7_);}
	.st9{fill:url(#SVGID_8_);}
	.st10{fill:url(#SVGID_9_);}
	.st11{fill:url(#SVGID_10_);}
	.st12{fill:url(#SVGID_11_);}
	.st13{fill:url(#SVGID_12_);}
	.st14{fill:url(#SVGID_13_);}
	.st15{fill:url(#SVGID_14_);}
	.st16{fill:url(#SVGID_15_);}
	.st17{fill:url(#SVGID_16_);}
	.st18{fill:url(#SVGID_17_);}
	.st19{fill:url(#SVGID_18_);}
	.st20{fill:url(#SVGID_19_);}
	.st21{fill:url(#SVGID_20_);}
	.st22{opacity:0.2;}
	.st23{fill:none;stroke:#FFFFFF;stroke-width:2;stroke-linecap:round;stroke-miterlimit:10;}
	.st24{fill:none;stroke:#FFFFFF;stroke-width:3;stroke-linecap:round;stroke-miterlimit:10;}
	.st25{opacity:0.5;}
	.st26{fill:none;stroke:#FFFFFF;stroke-width:2;stroke-linecap:round;stroke-miterlimit:10;stroke-dasharray:0.1,5;}
	.st27{opacity:0.6;fill:none;stroke:#FFFFFF;stroke-width:4;stroke-miterlimit:10;}
	.st28{opacity:0.3;}
</style><linearGradient gradientUnits="userSpaceOnUse" id="SVGID_1_" x1="11.992" x2="52.2484" y1="11.9781" y2="52.2346"><stop offset="0" style="stop-color:#8CB8F3"/><stop offset="1" style="stop-color:#263ED6"/></linearGradient><path class="st0" d="M57.2,60.5c-16.5,2-33.3,2-50.4,0c-1.7-0.2-3.1-1.6-3.3-3.3c-2-16.8-2-33.6,0-50.4c0.2-1.7,1.6-3.1,3.3-3.3  c16.8-2,33.7-2,50.5,0c1.7,0.2,3,1.5,3.3,3.2c2,16.5,2,33.3,0,50.5C60.3,58.9,58.9,60.3,57.2,60.5z"/><g><path class="st5" d="M36.5,15.2c4.2,0,8.5,0.2,12.8,0.6c0.7,7.1,0.7,14.3,0,21.5c-4.1,0.4-8.3,0.6-12.5,0.6   c-4.3,0-8.7-0.2-13.1-0.7c-0.7-7.1-0.7-14.4,0-21.5C28,15.4,32.3,15.2,36.5,15.2 M36.5,12.2c-4.6,0-9.3,0.2-13.9,0.7   c-0.9,0.1-1.7,0.8-1.8,1.8c-0.9,7.9-0.9,15.9,0,23.8c0.1,0.9,0.9,1.7,1.8,1.8c4.8,0.5,9.5,0.8,14.2,0.8c4.6,0,9.1-0.2,13.6-0.7   c0.9-0.1,1.7-0.8,1.8-1.8c0.8-7.7,0.9-15.7,0-23.8c-0.1-0.9-0.9-1.7-1.8-1.8C45.8,12.4,41.1,12.2,36.5,12.2L36.5,12.2z"/></g><path class="st5" d="M21.8,31.2l8.6-8.6c0.4-0.4,1-0.4,1.4,0l8.4,8.4l4.3-4.3c0.4-0.4,1-0.4,1.4,0l5.1,5.1v7.2H22.7L21.8,31.2z"/><circle class="st6" cx="40" cy="21.2" r="3.1"/><g class="st22"><path class="st23" d="M44.4,50.7c-1.7,0-3.2,0.7-4.2,1.8c-0.7,0.7-1.9,0.7-2.6,0c-1.1-1.1-2.6-1.8-4.2-1.8c-1.7,0-3.2,0.7-4.2,1.8   c-0.7,0.7-1.9,0.7-2.6,0c-1.1-1.1-2.6-1.8-4.2-1.8s-3.2,0.7-4.2,1.8c-0.7,0.7-1.9,0.7-2.6,0c-1.1-1.1-2.6-1.8-4.2-1.8"/><path class="st23" d="M44.4,43.9c-1.7,0-3.2,0.7-4.2,1.8c-0.7,0.7-1.9,0.7-2.6,0c-1.1-1.1-2.6-1.8-4.2-1.8c-1.7,0-3.2,0.7-4.2,1.8   c-0.7,0.7-1.9,0.7-2.6,0c-1.1-1.1-2.6-1.8-4.2-1.8s-3.2,0.7-4.2,1.8c-0.7,0.7-1.9,0.7-2.6,0c-1.1-1.1-2.6-1.8-4.2-1.8"/><path class="st23" d="M44.4,37c-1.7,0-3.2,0.7-4.2,1.8c-0.7,0.7-1.9,0.7-2.6,0c-1.1-1.1-2.6-1.8-4.2-1.8c-1.7,0-3.2,0.7-4.2,1.8   c-0.7,0.7-1.9,0.7-2.6,0c-1.1-1.1-2.6-1.8-4.2-1.8s-3.2,0.7-4.2,1.8c-0.7,0.7-1.9,0.7-2.6,0C14.2,37.7,12.7,37,11,37"/></g></svg>