<?xml version="1.0" ?><svg width="64px" height="64px" viewBox="0 0 64 64" id="Layer_1" style="enable-background:new 0 0 64 64;" version="1.1" xml:space="preserve" xmlns="http://www.w3.org/2000/svg" xmlns:xlink="http://www.w3.org/1999/xlink"><style type="text/css">
	.st0{fill:url(#SVGID_1_);}
	.st1{fill:url(#SVGID_2_);}
	.st2{fill:url(#SVGID_3_);}
	.st3{fill:url(#SVGID_4_);}
	.st4{fill:url(#SVGID_5_);}
	.st5{fill:#FFFFFF;}
	.st6{opacity:0.6;fill:#FFFFFF;}
	.st7{fill:url(#SVGID_6_);}
	.st8{fill:url(#SVGID_7_);}
	.st9{fill:url(#SVGID_8_);}
	.st10{fill:url(#SVGID_9_);}
	.st11{fill:url(#SVGID_10_);}
	.st12{fill:url(#SVGID_11_);}
	.st13{fill:url(#SVGID_12_);}
	.st14{fill:url(#SVGID_13_);}
	.st15{fill:url(#SVGID_14_);}
	.st16{fill:url(#SVGID_15_);}
	.st17{fill:url(#SVGID_16_);}
	.st18{fill:url(#SVGID_17_);}
	.st19{fill:url(#SVGID_18_);}
	.st20{fill:url(#SVGID_19_);}
	.st21{fill:url(#SVGID_20_);}
	.st22{opacity:0.2;}
	.st23{fill:none;stroke:#FFFFFF;stroke-width:2;stroke-linecap:round;stroke-miterlimit:10;}
	.st24{fill:none;stroke:#FFFFFF;stroke-width:3;stroke-linecap:round;stroke-miterlimit:10;}
	.st25{opacity:0.5;}
	.st26{fill:none;stroke:#FFFFFF;stroke-width:2;stroke-linecap:round;stroke-miterlimit:10;stroke-dasharray:0.1,5;}
	.st27{opacity:0.6;fill:none;stroke:#FFFFFF;stroke-width:4;stroke-miterlimit:10;}
	.st28{opacity:0.3;}
</style><linearGradient gradientUnits="userSpaceOnUse" id="SVGID_1_" x1="11.992" x2="52.2484" y1="11.9781" y2="52.2346"><stop offset="0" style="stop-color:#F084C1"/><stop offset="1" style="stop-color:#EB0099"/></linearGradient><path class="st0" d="M57.2,60.5c-16.5,2-33.3,2-50.4,0c-1.7-0.2-3.1-1.6-3.3-3.3c-2-16.8-2-33.6,0-50.4c0.2-1.7,1.6-3.1,3.3-3.3  c16.8-2,33.7-2,50.5,0c1.7,0.2,3,1.5,3.3,3.2c2,16.5,2,33.3,0,50.5C60.3,58.9,58.9,60.3,57.2,60.5z"/><path class="st5" d="M38.5,25l2.7-2.1c0.3-0.3,0.5-0.7,0.3-1.1c-1.1-2.7-2.4-5.1-4.1-7.1c-0.3-0.3-0.7-0.4-1.1-0.3l-3.2,1.3l-1.7-1  l-0.5-3.4c-0.1-0.4-0.4-0.7-0.8-0.8c-2.8-0.5-5.5-0.5-8.3,0c-0.4,0.1-0.7,0.4-0.8,0.8l-0.5,3.4l-1.7,1l-3.2-1.3  c-0.4-0.1-0.8-0.1-1.1,0.2c-1.9,2-3.2,4.5-4.2,7.2c-0.1,0.4,0,0.8,0.3,1.1l2.7,2.2v1.9l-2.8,2.2c-0.3,0.2-0.5,0.7-0.3,1  c0.8,2.7,2.2,5.1,4.2,7.2c0.3,0.3,0.7,0.4,1.1,0.2l3.2-1.3l1.7,1l0.5,3.5c0.1,0.4,0.3,0.7,0.7,0.8c2.8,0.7,5.6,0.7,8.4,0  c0.4-0.1,0.7-0.4,0.7-0.8l0.5-3.5l1.7-1l3.2,1.3c0.4,0.1,0.8,0.1,1.1-0.2c1.8-1.9,3.2-4.4,4.1-7.2c0.1-0.4,0-0.8-0.3-1.1l-2.7-2.2  V25z M26,33c-3.9,0-7.1-3.2-7.1-7.1s3.2-7.1,7.1-7.1s7.1,3.2,7.1,7.1S29.9,33,26,33z"/><circle class="st6" cx="26" cy="25.9" r="4.1"/><g class="st22"><path class="st5" d="M52.5,24.8l0.9-2.2c0.1-0.3,0-0.6-0.2-0.8c-1.6-1.3-3.2-2.3-4.9-3c-0.3-0.1-0.6,0-0.8,0.2l-1.5,1.9l-1.3,0   L43.3,19c-0.2-0.2-0.5-0.3-0.7-0.2c-1.9,0.6-3.5,1.5-5,2.8c-0.2,0.2-0.3,0.5-0.2,0.8l0.9,2.3l-0.7,1.1L35,26   c-0.3,0-0.5,0.2-0.6,0.5c-0.4,1.9-0.5,3.8-0.1,5.8c0.1,0.3,0.3,0.5,0.6,0.5l2.4,0.4l0.6,1.2l-1,2.3c-0.1,0.3-0.1,0.6,0.1,0.7   c1.4,1.4,3.1,2.4,5,3c0.3,0.1,0.6,0,0.7-0.2l1.5-1.9l1.3,0l1.5,2c0.2,0.2,0.5,0.3,0.7,0.2c1.9-0.5,3.6-1.5,5.1-2.8   c0.2-0.2,0.3-0.5,0.2-0.7l-0.9-2.3l0.7-1.1l2.4-0.3c0.3,0,0.5-0.2,0.6-0.5c0.4-1.8,0.5-3.7,0.1-5.8c0-0.3-0.3-0.5-0.6-0.5L53.2,26   L52.5,24.8z M47.2,33.1c-1.9,1.1-4.4,0.4-5.5-1.6s-0.4-4.4,1.6-5.5c1.9-1.1,4.4-0.4,5.5,1.6S49.1,32,47.2,33.1z"/><path class="st5" d="M49.5,48.5l1.2-0.8c0.1-0.1,0.2-0.3,0.2-0.5C50.5,46,50,45,49.3,44.1c-0.1-0.1-0.3-0.2-0.5-0.1l-1.4,0.5   L46.8,44l-0.1-1.5c0-0.2-0.1-0.3-0.3-0.4c-1.2-0.3-2.3-0.3-3.5-0.2c-0.2,0-0.3,0.2-0.3,0.3l-0.3,1.5l-0.7,0.4l-1.3-0.6   c-0.2-0.1-0.3,0-0.5,0.1c-0.8,0.8-1.5,1.8-1.9,3c-0.1,0.2,0,0.3,0.1,0.5l1.1,1l0,0.8l-1.2,0.9c-0.1,0.1-0.2,0.3-0.2,0.4   c0.3,1.2,0.8,2.2,1.6,3.2c0.1,0.1,0.3,0.2,0.4,0.1l1.4-0.5l0.7,0.4l0.1,1.5c0,0.2,0.1,0.3,0.3,0.4c1.2,0.3,2.4,0.4,3.5,0.2   c0.2,0,0.3-0.2,0.3-0.3l0.3-1.5l0.7-0.4l1.4,0.6c0.2,0.1,0.3,0,0.5-0.1c0.8-0.8,1.4-1.8,1.9-3c0.1-0.2,0-0.3-0.1-0.5l-1.1-1   L49.5,48.5z M44.1,51.1c-1.4-0.1-2.4-1.2-2.3-2.6s1.2-2.4,2.6-2.3c1.4,0.1,2.4,1.2,2.3,2.6C46.6,50.1,45.5,51.2,44.1,51.1z"/><path class="st5" d="M35.7,50.3l1.2-0.8c0.1-0.1,0.2-0.3,0.2-0.5c-0.4-1.2-0.9-2.2-1.6-3.1c-0.1-0.1-0.3-0.2-0.5-0.1l-1.4,0.5   l-0.7-0.4l-0.1-1.5c0-0.2-0.1-0.3-0.3-0.4c-1.2-0.3-2.3-0.3-3.5-0.2c-0.2,0-0.3,0.2-0.3,0.3l-0.3,1.5l-0.7,0.4l-1.3-0.6   c-0.2-0.1-0.3,0-0.5,0.1c-0.8,0.8-1.5,1.8-1.9,3c-0.1,0.2,0,0.3,0.1,0.5l1.1,1l0,0.8l-1.2,0.9c-0.1,0.1-0.2,0.3-0.2,0.4   c0.3,1.2,0.8,2.2,1.6,3.2c0.1,0.1,0.3,0.2,0.4,0.1l1.4-0.5l0.7,0.4l0.1,1.5c0,0.2,0.1,0.3,0.3,0.4c1.2,0.3,2.4,0.4,3.5,0.2   c0.2,0,0.3-0.2,0.3-0.3l0.3-1.5l0.7-0.4l1.4,0.6c0.2,0.1,0.3,0,0.5-0.1c0.8-0.8,1.4-1.8,1.9-3c0.1-0.2,0-0.3-0.1-0.5l-1.1-1   L35.7,50.3z M30.2,52.9c-1.4-0.1-2.4-1.2-2.3-2.6c0.1-1.4,1.2-2.4,2.6-2.3s2.4,1.2,2.3,2.6C32.8,51.9,31.6,52.9,30.2,52.9z"/></g></svg>