<svg width="64" height="63" viewBox="0 0 64 63" fill="none" xmlns="http://www.w3.org/2000/svg">
<g clip-path="url(#clip0_2_21)">
<path d="M31.6 61.8C48.6656 61.8 62.5 47.9656 62.5 30.9C62.5 13.8344 48.6656 0 31.6 0C14.5344 0 0.700012 13.8344 0.700012 30.9C0.700012 47.9656 14.5344 61.8 31.6 61.8Z" fill="#3DBC93"/>
<path fill-rule="evenodd" clip-rule="evenodd" d="M23.9 38.7L39.8 38.8V51.7L23.9 51.6V38.7Z" fill="#F9DCA4"/>
<path opacity="0.11" fill-rule="evenodd" clip-rule="evenodd" d="M39.8 38.8V42.4C39.8 42.8 39.8 43.2 39.7 43.6C39.6 44.1 39.5 44.6 39.3 45C34 49.1 25.4 45.7 24 38.6L39.8 38.8Z" fill="black"/>
<path fill-rule="evenodd" clip-rule="evenodd" d="M31.8 8.39999C53.1 8.39999 44.8 43.7 31.8 43.7C19.5 43.7 10.5 8.39999 31.8 8.39999Z" fill="#FFE8BE"/>
<path fill-rule="evenodd" clip-rule="evenodd" d="M19 24C15.9 25.3 18.5 31.7 20.5 31.7C19.7 29.2 19.2 26.6 19 24Z" fill="#F9DCA4"/>
<path fill-rule="evenodd" clip-rule="evenodd" d="M44.8 24C47.9 25.3 45.3 31.7 43.3 31.7C44.1 29.2 44.6 26.6 44.8 24Z" fill="#F9DCA4"/>
<path fill-rule="evenodd" clip-rule="evenodd" d="M44.8 24.2C44.8 24.2 52.8 12.4 42.2 7.9C39.5 3.6 34.3 1.5 29.3 2.7C23.5 3.9 21.3 6.8 21.3 6.8C21.3 6.8 15.8 11.8 10.9 11.9C12.7 13.2 14.9 13.8 17.2 13.7C16.5 15.4 15.2 20.9 19.2 24.6C23.6 21.7 27.2 16.1 27.2 16.1C27.2 16.1 28.2 19.4 27.4 21C30.3 20.5 33 19.2 35.3 17.5C37.8 15.5 39.2 13.2 40.6 13.2C43.8 12.9 44.8 22.7 44.8 24.2Z" fill="#ECBE6A"/>
<path fill-rule="evenodd" clip-rule="evenodd" d="M54.1 52C48.3 58.3 40.1 61.8 31.5 61.8C30.2 61.8 28.9 61.7 27.7 61.6C23.8 61 20 59.8 16.6 58C13.7 56.4 11 54.3 8.80002 51.8L10.1 48.7L24 42.5C24.6 46.2 31.8 50.7 31.8 50.7C31.8 50.7 39 47.3 39.9 42.5L52.7 48.8L54.1 52Z" fill="#498BD9"/>
<path fill-rule="evenodd" clip-rule="evenodd" d="M14.8 46.5L21.6 43.5L31.8 57.5L42.1 43.6L48 46.4V66.4H14.8V46.5Z" fill="#545F69"/>
<path fill-rule="evenodd" clip-rule="evenodd" d="M38.5 42.9H39.2V64.3H38.5V42.9ZM23.7 42.9H24.4V64.3H23.7V42.9ZM20.7 42.9H21.4V64.3H20.7V42.9ZM17.8 42.9H18.5V64.3H17.8V42.9ZM14.8 42.9H15.5V64.3H14.8V42.9ZM35.5 42.9H36.2V64.3H35.5V42.9ZM32.5 42.9H33.2V64.3H32.5V42.9ZM29.6 42.9H30.3V64.3H29.6V42.9ZM26.6 42.9H27.3V64.3H26.6V42.9ZM47.4 42.9H48.1V64.3H47.4V42.9ZM44.4 42.9H45.1V64.3H44.4V42.9ZM41.4 42.9H42.1V64.3H41.4V42.9Z" fill="#434955"/>
<path fill-rule="evenodd" clip-rule="evenodd" d="M23.9 41.3L31.7 50.6L25.4 54.2L20.6 43.6L23.9 41.3Z" fill="#58B0E0"/>
<path fill-rule="evenodd" clip-rule="evenodd" d="M39.8 41.5L31.7 50.6L38.2 54.2L43 43.4C43 43.4 39.8 41.4 39.8 41.5Z" fill="#58B0E0"/>
<path fill-rule="evenodd" clip-rule="evenodd" d="M22.3 23.2H28.7C29.1 23.2 29.5 23.4 29.8 23.7C30.1 24 30.3 24.4 30.3 24.8V27.7C30.3 28.6 29.6 29.3 28.7 29.3H22.3C21.9 29.3 21.5 29.1 21.2 28.8C20.9 28.5 20.7 28.1 20.7 27.7V24.8C20.7 24.4 20.9 24 21.2 23.7C21.5 23.3 21.9 23.2 22.3 23.2ZM28.7 24H22.3C22.1 24 21.9 24.1 21.8 24.2C21.7 24.3 21.6 24.5 21.6 24.7V27.6C21.6 27.8 21.7 28 21.8 28.1C21.9 28.2 22.1 28.3 22.3 28.3H28.7C29.1 28.3 29.4 28 29.4 27.6V24.7C29.4 24.5 29.3 24.3 29.2 24.2C29.1 24.1 28.9 24 28.7 24Z" fill="#464449"/>
<path fill-rule="evenodd" clip-rule="evenodd" d="M35.2 23.2H41.6C42 23.2 42.4 23.4 42.7 23.7C43 24 43.2 24.4 43.2 24.8V27.7C43.2 28.6 42.5 29.3 41.6 29.3H35.2C34.8 29.3 34.4 29.1 34.1 28.8C33.8 28.5 33.6 28.1 33.6 27.7V24.8C33.6 24.4 33.8 24 34.1 23.7C34.4 23.3 34.8 23.2 35.2 23.2ZM41.6 24H35.2C35 24 34.8 24.1 34.7 24.2C34.6 24.3 34.5 24.5 34.5 24.7V27.6C34.5 27.8 34.6 28 34.7 28.1C34.8 28.2 35 28.3 35.2 28.3H41.6C42 28.3 42.3 28 42.3 27.6V24.7C42.3 24.5 42.2 24.3 42.1 24.2C42 24.1 41.8 24 41.6 24Z" fill="#464449"/>
<path d="M30.1 24.5H33.9V25.4H30.1V24.5Z" fill="#464449"/>
</g>
<defs>
<clipPath id="clip0_2_21">
<rect width="63.3" height="62.6" fill="white"/>
</clipPath>
</defs>
</svg>
