<svg width="63" height="62" viewBox="0 0 63 62" fill="none" xmlns="http://www.w3.org/2000/svg">
<g clip-path="url(#clip0_4_64)">
<path d="M62.6 0H0.799988V61.8H62.6V0Z" fill="white"/>
<path d="M31.7 33.5555C40.1661 33.5555 47.0293 26.6923 47.0293 18.2262C47.0293 9.76004 40.1661 2.89688 31.7 2.89688C23.2339 2.89688 16.3707 9.76004 16.3707 18.2262C16.3707 26.6923 23.2339 33.5555 31.7 33.5555Z" fill="#463929"/>
<path d="M17.6984 55.6441C21.6982 55.6441 24.9406 52.4017 24.9406 48.4019C24.9406 44.4022 21.6982 41.1598 17.6984 41.1598C13.6987 41.1598 10.4562 44.4022 10.4562 48.4019C10.4562 52.4017 13.6987 55.6441 17.6984 55.6441Z" fill="#7E7E7E"/>
<path d="M18.6641 48.4019H10.4562V61.8H18.6641V48.4019Z" fill="#7E7E7E"/>
<path d="M45.8223 55.6441C49.822 55.6441 53.0645 52.4017 53.0645 48.4019C53.0645 44.4022 49.822 41.1598 45.8223 41.1598C41.8225 41.1598 38.5801 44.4022 38.5801 48.4019C38.5801 52.4017 41.8225 55.6441 45.8223 55.6441Z" fill="#7E7E7E"/>
<path d="M53.0645 48.4019H44.6152V61.8H53.0645V48.4019Z" fill="#7E7E7E"/>
<path d="M45.8223 41.1598H17.6984V61.8H45.8223V41.1598Z" fill="#141413"/>
<path d="M34.959 32.8313C34.959 31.0314 33.4999 29.5723 31.7 29.5723C29.9001 29.5723 28.441 31.0314 28.441 32.8313V44.0567C28.441 45.8565 29.9001 47.3156 31.7 47.3156C33.4999 47.3156 34.959 45.8565 34.959 44.0567V32.8313Z" fill="#F4AB90"/>
<path d="M21.6816 21.7869C21.6816 20.687 20.79 19.7953 19.69 19.7953C18.5901 19.7953 17.6984 20.687 17.6984 21.7869V26.9772C17.6984 28.0771 18.5901 28.9688 19.69 28.9688C20.79 28.9688 21.6816 28.0771 21.6816 26.9772V21.7869Z" fill="#F4AB90"/>
<path d="M45.8223 22.0283C45.8223 20.9284 44.9306 20.0367 43.8307 20.0367C42.7307 20.0367 41.8391 20.9284 41.8391 22.0283V27.2186C41.8391 28.3185 42.7307 29.2102 43.8307 29.2102C44.9306 29.2102 45.8223 28.3185 45.8223 27.2186V22.0283Z" fill="#F4AB90"/>
<path d="M43.7703 19.4332C43.7703 12.767 38.3662 7.3629 31.7 7.3629C25.0337 7.3629 19.6297 12.767 19.6297 19.4332V26.434C19.6297 33.1002 25.0337 38.5043 31.7 38.5043C38.3662 38.5043 43.7703 33.1002 43.7703 26.434V19.4332Z" fill="#FFC8B4"/>
<path d="M33.7519 20.2178C33.7519 19.1179 32.8603 18.2262 31.7603 18.2262C30.6604 18.2262 29.7687 19.1179 29.7687 20.2178V27.2186C29.7687 28.3185 30.6604 29.2102 31.7603 29.2102C32.8603 29.2102 33.7519 28.3185 33.7519 27.2186V20.2178Z" fill="#F4AB90"/>
<path d="M31.7 31.2461C33.7821 31.2461 35.9246 30.9467 35.9246 32.0467C35.9246 33.1467 33.9999 34.8185 31.7 34.8185C29.4001 34.8185 27.5961 33.1467 27.5961 32.0467C27.5961 30.9467 29.6178 31.2461 31.7 31.2461Z" fill="white"/>
<path d="M25.4066 22.7793C26.664 22.7793 27.6832 21.7601 27.6832 20.5027C27.6832 19.2454 26.664 18.2262 25.4066 18.2262C24.1493 18.2262 23.1301 19.2454 23.1301 20.5027C23.1301 21.7601 24.1493 22.7793 25.4066 22.7793Z" fill="#B2745D"/>
<path d="M25.4067 18.9546C25.8137 18.9546 25.5998 19.6704 25.9175 19.9667C26.1806 20.2098 26.9547 20.0546 26.9547 20.5026C26.9547 20.8088 26.8639 21.1081 26.6938 21.3627C26.5237 21.6172 26.2819 21.8156 25.9991 21.9328C25.7162 22.05 25.4049 22.0806 25.1047 22.0209C24.8044 21.9612 24.5285 21.8137 24.312 21.5972C24.0956 21.3807 23.9481 21.1049 23.8884 20.8046C23.8287 20.5043 23.8593 20.1931 23.9765 19.9102C24.0936 19.6274 24.2921 19.3856 24.5466 19.2155C24.8012 19.0454 25.1005 18.9546 25.4067 18.9546V18.9546Z" fill="#553326"/>
<path d="M38.0551 18.2262C38.5054 18.2262 38.9455 18.3597 39.3199 18.6098C39.6943 18.86 39.9861 19.2155 40.1584 19.6315C40.3307 20.0475 40.3758 20.5053 40.288 20.9469C40.2001 21.3885 39.9833 21.7941 39.6649 22.1125C39.3465 22.4309 38.9409 22.6477 38.4993 22.7356C38.0576 22.8234 37.5999 22.7783 37.1839 22.606C36.7679 22.4337 36.4124 22.1419 36.1622 21.7675C35.9121 21.3932 35.7785 20.953 35.7785 20.5027C35.7785 19.899 36.0184 19.3199 36.4453 18.893C36.8723 18.466 37.4513 18.2262 38.0551 18.2262V18.2262Z" fill="#B2745D"/>
<path d="M38.0551 18.9546C38.4621 18.9546 38.2482 19.6704 38.5659 19.9667C38.829 20.2098 39.6031 20.0546 39.6031 20.5026C39.6031 20.8088 39.5123 21.1081 39.3422 21.3627C39.1721 21.6172 38.9304 21.8156 38.6475 21.9328C38.3646 22.05 38.0534 22.0806 37.7531 22.0209C37.4528 21.9612 37.177 21.8137 36.9605 21.5972C36.744 21.3807 36.5966 21.1049 36.5368 20.8046C36.4771 20.5043 36.5078 20.1931 36.6249 19.9102C36.7421 19.6274 36.9405 19.3856 37.1951 19.2155C37.4496 19.0454 37.7489 18.9546 38.0551 18.9546V18.9546Z" fill="#553326"/>
<path d="M33.2007 0.0461122C41.6329 0.782664 42.4264 5.55599 46.6885 4.48577C48.7854 3.95919 47.4419 9.14463 43.2683 12.0419C41.328 13.389 39.0061 14.6746 33.2028 15.8224C26.2284 17.2018 16.1962 18.5929 16.5991 13.9804C16.9528 9.93112 18.9006 6.18816 22.014 3.57497C25.1274 0.961774 29.1514 -0.307593 33.2007 0.0461122V0.0461122Z" fill="#463929"/>
</g>
<defs>
<clipPath id="clip0_4_64">
<rect x="0.799988" width="61.8" height="61.8" rx="30.9" fill="white"/>
</clipPath>
</defs>
</svg>
