<svg width="63" height="62" viewBox="0 0 63 62" fill="none" xmlns="http://www.w3.org/2000/svg">
<g clip-path="url(#clip0_4_241)">
<path d="M62.4 0H0.599991V61.8H62.4V0Z" fill="white"/>
<path d="M18.464 34.7625C22.9304 34.7625 26.5512 31.1418 26.5512 26.6754C26.5512 22.209 22.9304 18.5883 18.464 18.5883C13.9977 18.5883 10.3769 22.209 10.3769 26.6754C10.3769 31.1418 13.9977 34.7625 18.464 34.7625Z" fill="#2F2419"/>
<path d="M44.7773 34.8832C49.2437 34.8832 52.8644 31.2625 52.8644 26.7961C52.8644 22.3297 49.2437 18.709 44.7773 18.709C40.3109 18.709 36.6902 22.3297 36.6902 26.7961C36.6902 31.2625 40.3109 34.8832 44.7773 34.8832Z" fill="#2F2419"/>
<path d="M31.5 33.5555C39.9661 33.5555 46.8293 26.6923 46.8293 18.2262C46.8293 9.76004 39.9661 2.89688 31.5 2.89688C23.0339 2.89688 16.1707 9.76004 16.1707 18.2262C16.1707 26.6923 23.0339 33.5555 31.5 33.5555Z" fill="#2F2419"/>
<path d="M17.4984 55.6441C21.4982 55.6441 24.7406 52.4017 24.7406 48.4019C24.7406 44.4022 21.4982 41.1598 17.4984 41.1598C13.4987 41.1598 10.2562 44.4022 10.2562 48.4019C10.2562 52.4017 13.4987 55.6441 17.4984 55.6441Z" fill="#E08AB8"/>
<path d="M18.4641 48.4019H10.2562V61.8H18.4641V48.4019Z" fill="#E08AB8"/>
<path d="M45.6223 55.6441C49.622 55.6441 52.8644 52.4017 52.8644 48.4019C52.8644 44.4022 49.622 41.1598 45.6223 41.1598C41.6225 41.1598 38.3801 44.4022 38.3801 48.4019C38.3801 52.4017 41.6225 55.6441 45.6223 55.6441Z" fill="#E08AB8"/>
<path d="M52.8644 48.4019H44.4152V61.8H52.8644V48.4019Z" fill="#E08AB8"/>
<path d="M45.6223 41.1598H17.4984V61.8H45.6223V41.1598Z" fill="#892159"/>
<path d="M34.759 32.8312C34.759 31.0314 33.2999 29.5723 31.5 29.5723C29.7001 29.5723 28.241 31.0314 28.241 32.8312V44.0566C28.241 45.8565 29.7001 47.3156 31.5 47.3156C33.2999 47.3156 34.759 45.8565 34.759 44.0566V32.8312Z" fill="#F4AB90"/>
<path d="M21.4816 21.7869C21.4816 20.687 20.59 19.7953 19.49 19.7953C18.3901 19.7953 17.4984 20.687 17.4984 21.7869V26.9771C17.4984 28.0771 18.3901 28.9687 19.49 28.9687C20.59 28.9687 21.4816 28.0771 21.4816 26.9771V21.7869Z" fill="#F4AB90"/>
<path d="M45.6222 22.0283C45.6222 20.9284 44.7306 20.0367 43.6306 20.0367C42.5307 20.0367 41.639 20.9284 41.639 22.0283V27.2185C41.639 28.3185 42.5307 29.2101 43.6306 29.2101C44.7306 29.2101 45.6222 28.3185 45.6222 27.2185V22.0283Z" fill="#F4AB90"/>
<path d="M43.5703 19.4332C43.5703 12.7669 38.1662 7.36288 31.5 7.36288C24.8337 7.36288 19.4297 12.7669 19.4297 19.4332V26.434C19.4297 33.1002 24.8337 38.5043 31.5 38.5043C38.1662 38.5043 43.5703 33.1002 43.5703 26.434V19.4332Z" fill="#FFC8B4"/>
<path d="M33.5519 20.2178C33.5519 19.1178 32.6603 18.2262 31.5603 18.2262C30.4604 18.2262 29.5687 19.1178 29.5687 20.2178V27.2185C29.5687 28.3185 30.4604 29.2101 31.5603 29.2101C32.6603 29.2101 33.5519 28.3185 33.5519 27.2185V20.2178Z" fill="#F4AB90"/>
<path d="M31.5 32.2769C33.5821 32.2769 35.7246 30.9467 35.7246 32.0467C35.7246 33.1466 33.7999 34.141 31.5 34.141C29.2001 34.141 27.3961 33.1466 27.3961 32.0467C27.3961 30.9467 29.4179 32.2769 31.5 32.2769Z" fill="white"/>
<path d="M34.759 44.0566C34.759 44.921 34.4156 45.7499 33.8044 46.3611C33.1933 46.9723 32.3643 47.3156 31.5 47.3156C30.6356 47.3156 29.8067 46.9723 29.1955 46.3611C28.5844 45.7499 28.241 44.921 28.241 44.0566H34.759Z" fill="#E08AB8"/>
<path d="M25.2067 22.7793C26.464 22.7793 27.4832 21.7601 27.4832 20.5027C27.4832 19.2454 26.464 18.2262 25.2067 18.2262C23.9493 18.2262 22.9301 19.2454 22.9301 20.5027C22.9301 21.7601 23.9493 22.7793 25.2067 22.7793Z" fill="#A5A1A0"/>
<path d="M25.2066 18.9546C25.6137 18.9546 25.3998 19.6704 25.7175 19.9667C25.9806 20.2098 26.7547 20.0546 26.7547 20.5026C26.7547 20.8088 26.6639 21.1081 26.4938 21.3627C26.3237 21.6172 26.0819 21.8156 25.799 21.9328C25.5162 22.05 25.2049 22.0806 24.9046 22.0209C24.6044 21.9612 24.3285 21.8137 24.112 21.5972C23.8955 21.3807 23.7481 21.1049 23.6884 20.8046C23.6286 20.5043 23.6593 20.1931 23.7765 19.9102C23.8936 19.6274 24.092 19.3856 24.3466 19.2155C24.6012 19.0454 24.9005 18.9546 25.2066 18.9546V18.9546Z" fill="#2F2419"/>
<path d="M37.8551 18.2262C38.3054 18.2262 38.7456 18.3597 39.1199 18.6098C39.4943 18.86 39.7861 19.2155 39.9584 19.6315C40.1307 20.0475 40.1758 20.5053 40.088 20.9469C40.0001 21.3885 39.7833 21.7941 39.4649 22.1125C39.1465 22.4309 38.7409 22.6477 38.2993 22.7356C37.8577 22.8234 37.3999 22.7783 36.9839 22.606C36.5679 22.4337 36.2124 22.1419 35.9622 21.7675C35.7121 21.3932 35.5786 20.953 35.5786 20.5027C35.5786 19.899 35.8184 19.3199 36.2453 18.893C36.6723 18.466 37.2513 18.2262 37.8551 18.2262V18.2262Z" fill="#A5A1A0"/>
<path d="M37.8551 18.9546C38.2621 18.9546 38.0482 19.6704 38.3659 19.9667C38.6291 20.2098 39.4031 20.0546 39.4031 20.5026C39.4031 20.8088 39.3123 21.1081 39.1422 21.3627C38.9721 21.6172 38.7304 21.8156 38.4475 21.9328C38.1647 22.05 37.8534 22.0806 37.5531 22.0209C37.2528 21.9612 36.977 21.8137 36.7605 21.5972C36.544 21.3807 36.3966 21.1049 36.3368 20.8046C36.2771 20.5043 36.3078 20.1931 36.4249 19.9102C36.5421 19.6274 36.7405 19.3856 36.9951 19.2155C37.2497 19.0454 37.5489 18.9546 37.8551 18.9546V18.9546Z" fill="#2F2419"/>
<path d="M31.5 0C35.5656 0 39.4646 1.61505 42.3394 4.48985C45.2142 7.36465 46.8293 11.2637 46.8293 15.3293C46.8293 23.7954 25.7183 11.853 25.7183 11.853C25.7183 11.853 16.1707 23.7954 16.1707 15.3293C16.1707 11.2637 17.7857 7.36465 20.6605 4.48985C23.5353 1.61505 27.4344 0 31.5 0V0Z" fill="#2F2419"/>
</g>
<defs>
<clipPath id="clip0_4_241">
<rect x="0.599991" width="61.8" height="61.8" rx="30.9" fill="white"/>
</clipPath>
</defs>
</svg>
