<svg width="62" height="62" viewBox="0 0 62 62" fill="none" xmlns="http://www.w3.org/2000/svg">
<g clip-path="url(#clip0_4_33)">
<path d="M61.8 0H0V61.8H61.8V0Z" fill="white"/>
<path d="M16.8984 55.6441C20.8982 55.6441 24.1406 52.4017 24.1406 48.4019C24.1406 44.4022 20.8982 41.1598 16.8984 41.1598C12.8987 41.1598 9.65625 44.4022 9.65625 48.4019C9.65625 52.4017 12.8987 55.6441 16.8984 55.6441Z" fill="#3B1616"/>
<path d="M17.8641 48.4019H9.65625V61.8H17.8641V48.4019Z" fill="#3B1616"/>
<path d="M45.0223 55.6441C49.022 55.6441 52.2645 52.4017 52.2645 48.4019C52.2645 44.4022 49.022 41.1598 45.0223 41.1598C41.0225 41.1598 37.7801 44.4022 37.7801 48.4019C37.7801 52.4017 41.0225 55.6441 45.0223 55.6441Z" fill="#3B1616"/>
<path d="M52.2645 48.4019H43.8152V61.8H52.2645V48.4019Z" fill="#3B1616"/>
<path d="M45.0223 41.1598H16.8984V61.8H45.0223V41.1598Z" fill="#3B1616"/>
<path d="M45.0223 50.3332H16.8984V53.7129H45.0223V50.3332Z" fill="#BA7014"/>
<path d="M45.0223 54.4371H16.8984V55.8855H45.0223V54.4371Z" fill="#FFC8B4"/>
<path d="M45.0223 56.6098H16.8984V57.0926H45.0223V56.6098Z" fill="#BA7014"/>
<path d="M30.9 33.5555C39.3661 33.5555 46.2293 26.6923 46.2293 18.2262C46.2293 9.76004 39.3661 2.89688 30.9 2.89688C22.4339 2.89688 15.5707 9.76004 15.5707 18.2262C15.5707 26.6923 22.4339 33.5555 30.9 33.5555Z" fill="#BA7014"/>
<path d="M34.159 32.8312C34.159 31.0314 32.6999 29.5723 30.9 29.5723C29.1001 29.5723 27.641 31.0314 27.641 32.8312V44.0566C27.641 45.8565 29.1001 47.3156 30.9 47.3156C32.6999 47.3156 34.159 45.8565 34.159 44.0566V32.8312Z" fill="#F4AB90"/>
<path d="M20.8816 21.7869C20.8816 20.687 19.99 19.7953 18.89 19.7953C17.7901 19.7953 16.8984 20.687 16.8984 21.7869V26.9771C16.8984 28.0771 17.7901 28.9687 18.89 28.9687C19.99 28.9687 20.8816 28.0771 20.8816 26.9771V21.7869Z" fill="#F4AB90"/>
<path d="M45.0223 22.0283C45.0223 20.9284 44.1306 20.0367 43.0307 20.0367C41.9307 20.0367 41.0391 20.9284 41.0391 22.0283V27.2185C41.0391 28.3185 41.9307 29.2101 43.0307 29.2101C44.1306 29.2101 45.0223 28.3185 45.0223 27.2185V22.0283Z" fill="#F4AB90"/>
<path d="M42.9703 19.4332C42.9703 12.7669 37.5662 7.36288 30.9 7.36288C24.2337 7.36288 18.8297 12.7669 18.8297 19.4332V26.434C18.8297 33.1002 24.2337 38.5043 30.9 38.5043C37.5662 38.5043 42.9703 33.1002 42.9703 26.434V19.4332Z" fill="#FFC8B4"/>
<path d="M32.952 20.2178C32.952 19.1178 32.0603 18.2262 30.9604 18.2262C29.8604 18.2262 28.9688 19.1178 28.9688 20.2178V27.2185C28.9688 28.3185 29.8604 29.2101 30.9604 29.2101C32.0603 29.2101 32.952 28.3185 32.952 27.2185V20.2178Z" fill="#F4AB90"/>
<path d="M28.8183 31.0655C29.9493 31.2352 30.9 30.6877 30.9 31.5792C30.9 32.4707 29.9515 33.826 28.8183 33.826C27.6852 33.826 26.3757 31.7916 26.3757 30.9C26.3757 30.0084 27.6872 30.8957 28.8183 31.0655Z" fill="white"/>
<path d="M24.6067 22.7793C25.864 22.7793 26.8832 21.7601 26.8832 20.5027C26.8832 19.2454 25.864 18.2262 24.6067 18.2262C23.3493 18.2262 22.3301 19.2454 22.3301 20.5027C22.3301 21.7601 23.3493 22.7793 24.6067 22.7793Z" fill="#A7A160"/>
<path d="M24.6067 18.9546C25.0137 18.9546 24.7998 19.6704 25.1175 19.9667C25.3806 20.2098 26.1547 20.0546 26.1547 20.5026C26.1547 20.8088 26.0639 21.1081 25.8938 21.3627C25.7237 21.6172 25.4819 21.8156 25.1991 21.9328C24.9162 22.05 24.605 22.0806 24.3047 22.0209C24.0044 21.9612 23.7286 21.8137 23.5121 21.5972C23.2956 21.3807 23.1481 21.1049 23.0884 20.8046C23.0287 20.5043 23.0593 20.1931 23.1765 19.9102C23.2937 19.6274 23.4921 19.3856 23.7466 19.2155C24.0012 19.0454 24.3005 18.9546 24.6067 18.9546V18.9546Z" fill="#393612"/>
<path d="M37.2551 22.7793C38.5124 22.7793 39.5317 21.7601 39.5317 20.5027C39.5317 19.2454 38.5124 18.2262 37.2551 18.2262C35.9978 18.2262 34.9785 19.2454 34.9785 20.5027C34.9785 21.7601 35.9978 22.7793 37.2551 22.7793Z" fill="#A7A160"/>
<path d="M37.2551 18.9546C37.6621 18.9546 37.4482 19.6704 37.7659 19.9667C38.0291 20.2098 38.8031 20.0546 38.8031 20.5026C38.8031 20.8088 38.7123 21.1081 38.5422 21.3627C38.3721 21.6172 38.1304 21.8156 37.8475 21.9328C37.5646 22.05 37.2534 22.0806 36.9531 22.0209C36.6528 21.9612 36.377 21.8137 36.1605 21.5972C35.944 21.3807 35.7966 21.1049 35.7368 20.8046C35.6771 20.5043 35.7078 20.1931 35.8249 19.9102C35.9421 19.6274 36.1405 19.3856 36.3951 19.2155C36.6496 19.0454 36.9489 18.9546 37.2551 18.9546V18.9546Z" fill="#393612"/>
<path d="M30.9 0C39.3661 0 48.3009 4.8542 48.3009 13.4771C48.2923 14.189 48.1628 14.8943 47.9179 15.5629C47.0497 18.0352 44.8038 20.1262 43.3674 20.0289C41.7315 19.9177 39.4216 18.6192 36.7071 16.6801C34.8308 16.0334 33.8827 16.7223 30.8994 16.6801C27.9161 16.6378 23.2806 11.7863 23.2806 11.7863C23.2806 11.7863 22.985 17.6738 21.0597 18.1673C19.1343 18.6607 15.5707 21.4293 15.5707 15.6132C15.5665 13.041 16.1907 10.5068 17.3891 8.23087C17.5797 7.86876 17.784 7.51522 18.02 7.14164C19.3882 4.95962 21.2873 3.16007 23.5398 1.91115C25.7922 0.662226 28.3245 0.00469598 30.9 0V0Z" fill="#BA7014"/>
</g>
<defs>
<clipPath id="clip0_4_33">
<rect width="61.8" height="61.8" rx="30.9" fill="white"/>
</clipPath>
</defs>
</svg>
