<svg width="62" height="62" viewBox="0 0 62 62" fill="none" xmlns="http://www.w3.org/2000/svg">
<g clip-path="url(#clip0_4_177)">
<path d="M61.8 0H-7.62939e-06V61.8H61.8V0Z" fill="white"/>
<path d="M17.2876 12.051C14.9951 12.051 15.8108 14.9928 14.3062 17.2179C12.9103 19.282 11.5195 19.1763 11.2609 21.0338C11.0022 22.8913 13.1628 23.5105 13.2712 24.6476C13.3595 25.5753 11.002 26.3606 11.2606 28.0984C11.5193 29.8361 13.9586 30.7793 14.306 31.5987C14.919 33.0455 13.8702 34.3839 14.306 35.5105C14.7417 36.6371 16.645 38.652 19.2484 38.8756C22.2879 39.1365 28.2206 38.7883 28.7874 37.4666C30.627 33.1773 21.9843 21.406 21.0658 15.9841C20.4851 12.5555 17.9347 12.051 17.2876 12.051Z" fill="#5D1C16"/>
<path d="M44.3596 12.051C46.6521 12.051 45.8364 14.9928 47.341 17.2179C48.7369 19.282 50.1276 19.1763 50.3863 21.0338C50.645 22.8913 48.4844 23.5105 48.376 24.6476C48.2876 25.5753 50.6452 26.3606 50.3865 28.0984C50.1279 29.8361 47.6886 30.7793 47.3412 31.5987C46.7282 33.0455 47.7769 34.3839 47.3412 35.5105C46.9055 36.6371 45.0023 38.6517 42.3987 38.8752C39.3591 39.1362 33.4264 38.7879 32.8596 37.4662C31.0207 33.1773 39.663 21.406 40.5813 15.9841C41.162 12.5555 43.7125 12.051 44.3596 12.051Z" fill="#5D1C16"/>
<path d="M30.9 33.5555C39.3661 33.5555 46.2293 26.6923 46.2293 18.2262C46.2293 9.76004 39.3661 2.89688 30.9 2.89688C22.4339 2.89688 15.5707 9.76004 15.5707 18.2262C15.5707 26.6923 22.4339 33.5555 30.9 33.5555Z" fill="#5D1C16"/>
<path d="M16.8984 55.6441C20.8982 55.6441 24.1406 52.4017 24.1406 48.4019C24.1406 44.4022 20.8982 41.1598 16.8984 41.1598C12.8987 41.1598 9.65624 44.4022 9.65624 48.4019C9.65624 52.4017 12.8987 55.6441 16.8984 55.6441Z" fill="#323219"/>
<path d="M17.8641 48.4019H9.65624V61.8H17.8641V48.4019Z" fill="#323219"/>
<path d="M45.0223 55.6441C49.022 55.6441 52.2644 52.4017 52.2644 48.4019C52.2644 44.4022 49.022 41.1598 45.0223 41.1598C41.0225 41.1598 37.7801 44.4022 37.7801 48.4019C37.7801 52.4017 41.0225 55.6441 45.0223 55.6441Z" fill="#323219"/>
<path d="M52.2644 48.4019H43.8152V61.8H52.2644V48.4019Z" fill="#323219"/>
<path d="M45.0223 41.1598H16.8984V61.8H45.0223V41.1598Z" fill="#323219"/>
<path d="M16.8984 41.1598H19.4332C19.4332 41.1598 19.3526 46.9173 20.2382 49.3829C21.1238 51.8485 30.9 54.4371 30.9 54.4371H16.8984V41.1598Z" fill="#A3A3A2"/>
<path d="M44.9016 54.3164H16.8984V61.8H44.9016V54.3164Z" fill="#A3A3A2"/>
<path d="M44.9016 41.1598H42.3668C42.3668 41.1598 42.4474 46.9173 41.5618 49.3829C40.6762 51.8485 30.9 54.4371 30.9 54.4371H44.9016V41.1598Z" fill="#A3A3A2"/>
<path d="M34.159 32.8312C34.159 31.0314 32.6999 29.5723 30.9 29.5723C29.1001 29.5723 27.641 31.0314 27.641 32.8312V44.0566C27.641 45.8565 29.1001 47.3156 30.9 47.3156C32.6999 47.3156 34.159 45.8565 34.159 44.0566V32.8312Z" fill="#F4AB90"/>
<path d="M20.8816 21.7869C20.8816 20.687 19.99 19.7953 18.89 19.7953C17.7901 19.7953 16.8984 20.687 16.8984 21.7869V26.9771C16.8984 28.0771 17.7901 28.9687 18.89 28.9687C19.99 28.9687 20.8816 28.0771 20.8816 26.9771V21.7869Z" fill="#F4AB90"/>
<path d="M45.0223 22.0283C45.0223 20.9284 44.1306 20.0367 43.0307 20.0367C41.9307 20.0367 41.0391 20.9284 41.0391 22.0283V27.2185C41.0391 28.3185 41.9307 29.2101 43.0307 29.2101C44.1306 29.2101 45.0223 28.3185 45.0223 27.2185V22.0283Z" fill="#F4AB90"/>
<path d="M42.9703 19.4332C42.9703 12.7669 37.5662 7.36288 30.9 7.36288C24.2337 7.36288 18.8297 12.7669 18.8297 19.4332V26.434C18.8297 33.1002 24.2337 38.5043 30.9 38.5043C37.5662 38.5043 42.9703 33.1002 42.9703 26.434V19.4332Z" fill="#FFC8B4"/>
<path d="M32.9519 20.2178C32.9519 19.1178 32.0603 18.2262 30.9603 18.2262C29.8604 18.2262 28.9687 19.1178 28.9687 20.2178V27.2185C28.9687 28.3185 29.8604 29.2101 30.9603 29.2101C32.0603 29.2101 32.9519 28.3185 32.9519 27.2185V20.2178Z" fill="#F4AB90"/>
<path d="M24.6067 22.7793C25.864 22.7793 26.8832 21.7601 26.8832 20.5027C26.8832 19.2454 25.864 18.2262 24.6067 18.2262C23.3493 18.2262 22.3301 19.2454 22.3301 20.5027C22.3301 21.7601 23.3493 22.7793 24.6067 22.7793Z" fill="#AC7D14"/>
<path d="M24.6067 18.9546C25.0137 18.9546 24.7998 19.6704 25.1175 19.9667C25.3806 20.2098 26.1547 20.0546 26.1547 20.5026C26.1547 20.8088 26.0639 21.1081 25.8938 21.3627C25.7237 21.6172 25.4819 21.8156 25.1991 21.9328C24.9162 22.05 24.6049 22.0806 24.3046 22.0209C24.0044 21.9612 23.7285 21.8137 23.512 21.5972C23.2955 21.3807 23.1481 21.1049 23.0884 20.8046C23.0286 20.5043 23.0593 20.1931 23.1765 19.9102C23.2936 19.6274 23.492 19.3856 23.7466 19.2155C24.0012 19.0454 24.3005 18.9546 24.6067 18.9546V18.9546Z" fill="#342607"/>
<path d="M37.2551 18.2262C37.7054 18.2262 38.1456 18.3597 38.5199 18.6098C38.8943 18.86 39.1861 19.2155 39.3584 19.6315C39.5307 20.0475 39.5758 20.5053 39.488 20.9469C39.4001 21.3885 39.1833 21.7941 38.8649 22.1125C38.5465 22.4309 38.1409 22.6477 37.6993 22.7356C37.2577 22.8234 36.7999 22.7783 36.3839 22.606C35.9679 22.4337 35.6124 22.1419 35.3622 21.7675C35.1121 21.3932 34.9786 20.953 34.9786 20.5027C34.9786 19.899 35.2184 19.3199 35.6453 18.893C36.0723 18.466 36.6513 18.2262 37.2551 18.2262V18.2262Z" fill="#AC7D14"/>
<path d="M37.2551 18.9546C37.6621 18.9546 37.4483 19.6704 37.7659 19.9667C38.0291 20.2098 38.8032 20.0546 38.8032 20.5026C38.8032 20.8088 38.7124 21.1081 38.5423 21.3627C38.3722 21.6172 38.1304 21.8156 37.8475 21.9328C37.5647 22.05 37.2534 22.0806 36.9531 22.0209C36.6528 21.9612 36.377 21.8137 36.1605 21.5972C35.944 21.3807 35.7966 21.1049 35.7369 20.8046C35.6771 20.5043 35.7078 20.1931 35.825 19.9102C35.9421 19.6274 36.1405 19.3856 36.3951 19.2155C36.6497 19.0454 36.949 18.9546 37.2551 18.9546V18.9546Z" fill="#342607"/>
<path d="M31.015 0C27.5016 0 23.9976 1.10142 21.2935 3.10207C17.5275 5.88874 17.3862 9.99543 14.8768 13.1231C12.3674 16.2507 11.0103 14.9136 11.2557 15.6127C11.3423 15.8594 15.9947 17.8316 21.2932 17.8367C27.7417 17.8429 34.0774 15.5192 34.9487 14.7282C37.7326 12.1997 37.968 10.8053 37.968 10.8053C37.968 10.8053 37.8766 14.0686 38.9618 16.2128C40.0469 18.3571 42.6801 20.7356 44.5262 20.5854C46.3722 20.4353 46.2896 17.4189 46.2896 16.1043C46.2896 13.4398 45.6891 10.4401 44.526 8.23075C44.3355 7.86864 44.1311 7.5151 43.8951 7.14152C42.5269 4.95951 40.6278 3.15997 38.3753 1.91107C36.1228 0.662165 33.5905 0.00466276 31.015 0V0Z" fill="#5D1C16"/>
<path d="M33.6917 32.1622C36.6993 31.1439 37.2991 29.3991 37.639 30.4451C37.9789 31.4912 36.6651 33.6759 34.4779 34.3865C32.2907 35.0972 30.0585 34.0647 29.7186 33.0186C29.3787 31.9726 30.6835 33.1804 33.6917 32.1622Z" fill="white"/>
</g>
<defs>
<clipPath id="clip0_4_177">
<rect x="-7.62939e-06" width="61.8" height="61.8" rx="30.9" fill="white"/>
</clipPath>
</defs>
</svg>
