<svg width="62" height="62" viewBox="0 0 62 62" fill="none" xmlns="http://www.w3.org/2000/svg">
<g clip-path="url(#clip0_4_146)">
<path d="M62 0H0.199993V61.8H62V0Z" fill="white"/>
<path d="M14.8077 13.4312C12.1292 13.4312 9.95001 14.5831 8.9868 17.5388C8.02359 20.4944 10.7459 23.5065 10.9552 25.254C11.1645 27.0015 11.898 31.4527 9.84475 33.577C7.79147 35.7012 4.51213 35.5645 5.92773 36.393C6.61296 36.7939 8.56169 37.783 10.5607 37.857C12.2259 37.8989 13.8899 37.7363 15.5156 37.373C16.9456 37.0133 19.8708 35.6154 20.4343 31.3552C21.2707 25.0331 20.4343 17.9429 20.4343 17.9429C20.4343 17.9429 17.4865 13.4312 14.8077 13.4312Z" fill="#4D4D4D"/>
<path d="M31.1 33.5555C39.5661 33.5555 46.4293 26.6923 46.4293 18.2262C46.4293 9.76004 39.5661 2.89688 31.1 2.89688C22.6339 2.89688 15.7707 9.76004 15.7707 18.2262C15.7707 26.6923 22.6339 33.5555 31.1 33.5555Z" fill="#4D4D4D"/>
<path d="M17.0984 55.6441C21.0982 55.6441 24.3406 52.4017 24.3406 48.4019C24.3406 44.4022 21.0982 41.1598 17.0984 41.1598C13.0987 41.1598 9.85624 44.4022 9.85624 48.4019C9.85624 52.4017 13.0987 55.6441 17.0984 55.6441Z" fill="#5D1C16"/>
<path d="M18.0641 48.4019H9.85624V61.8H18.0641V48.4019Z" fill="#5D1C16"/>
<path d="M45.2223 55.6441C49.222 55.6441 52.4644 52.4017 52.4644 48.4019C52.4644 44.4022 49.222 41.1598 45.2223 41.1598C41.2225 41.1598 37.9801 44.4022 37.9801 48.4019C37.9801 52.4017 41.2225 55.6441 45.2223 55.6441Z" fill="#5D1C16"/>
<path d="M52.4644 48.4019H44.0152V61.8H52.4644V48.4019Z" fill="#5D1C16"/>
<path d="M45.2223 41.1598H17.0984V61.8H45.2223V41.1598Z" fill="#5D1C16"/>
<path d="M17.0984 41.1598H19.6332L31.1 54.4371H17.0984V41.1598Z" fill="#AC7D14"/>
<path d="M45.2223 54.4371H17.0984V61.8H45.2223V54.4371Z" fill="#AC7D14"/>
<path d="M42.5668 41.1598H45.2223V54.4371H31.1L42.5668 41.1598Z" fill="#AC7D14"/>
<path d="M34.359 32.8312C34.359 31.0314 32.8999 29.5723 31.1 29.5723C29.3001 29.5723 27.841 31.0314 27.841 32.8312V44.0566C27.841 45.8565 29.3001 47.3156 31.1 47.3156C32.8999 47.3156 34.359 45.8565 34.359 44.0566V32.8312Z" fill="#F4AB90"/>
<path d="M21.0816 21.7869C21.0816 20.687 20.19 19.7953 19.09 19.7953C17.9901 19.7953 17.0984 20.687 17.0984 21.7869V26.9771C17.0984 28.0771 17.9901 28.9687 19.09 28.9687C20.19 28.9687 21.0816 28.0771 21.0816 26.9771V21.7869Z" fill="#F4AB90"/>
<path d="M45.2223 22.0283C45.2223 20.9284 44.3306 20.0367 43.2307 20.0367C42.1307 20.0367 41.2391 20.9284 41.2391 22.0283V27.2185C41.2391 28.3185 42.1307 29.2101 43.2307 29.2101C44.3306 29.2101 45.2223 28.3185 45.2223 27.2185V22.0283Z" fill="#F4AB90"/>
<path d="M43.1703 19.4332C43.1703 12.7669 37.7662 7.36288 31.1 7.36288C24.4337 7.36288 19.0297 12.7669 19.0297 19.4332V26.434C19.0297 33.1002 24.4337 38.5043 31.1 38.5043C37.7662 38.5043 43.1703 33.1002 43.1703 26.434V19.4332Z" fill="#FFC8B4"/>
<path d="M33.1519 20.2178C33.1519 19.1178 32.2603 18.2262 31.1603 18.2262C30.0604 18.2262 29.1687 19.1178 29.1687 20.2178V27.2185C29.1687 28.3185 30.0604 29.2101 31.1603 29.2101C32.2603 29.2101 33.1519 28.3185 33.1519 27.2185V20.2178Z" fill="#F4AB90"/>
<path d="M31.1 30.9C33.5272 30.8946 35.9392 30.0084 35.9392 30.9C35.9392 31.7916 33.5178 33.716 31.1 33.716C28.6822 33.716 26.2136 31.7916 26.2136 30.9C26.2136 30.0084 28.6728 30.9049 31.1 30.9Z" fill="white"/>
<path d="M24.8067 22.7793C26.064 22.7793 27.0832 21.7601 27.0832 20.5027C27.0832 19.2454 26.064 18.2262 24.8067 18.2262C23.5493 18.2262 22.5301 19.2454 22.5301 20.5027C22.5301 21.7601 23.5493 22.7793 24.8067 22.7793Z" fill="#7591AA"/>
<path d="M24.8067 18.9546C25.2137 18.9546 24.9998 19.6704 25.3175 19.9667C25.5806 20.2098 26.3547 20.0546 26.3547 20.5026C26.3547 20.8088 26.2639 21.1081 26.0938 21.3627C25.9237 21.6172 25.6819 21.8156 25.3991 21.9328C25.1162 22.05 24.8049 22.0806 24.5046 22.0209C24.2044 21.9612 23.9285 21.8137 23.712 21.5972C23.4955 21.3807 23.3481 21.1049 23.2884 20.8046C23.2286 20.5043 23.2593 20.1931 23.3765 19.9102C23.4936 19.6274 23.692 19.3856 23.9466 19.2155C24.2012 19.0454 24.5005 18.9546 24.8067 18.9546V18.9546Z" fill="#1B3141"/>
<path d="M37.4551 18.2262C37.9054 18.2262 38.3456 18.3597 38.7199 18.6098C39.0943 18.86 39.3861 19.2155 39.5584 19.6315C39.7307 20.0475 39.7758 20.5053 39.688 20.9469C39.6001 21.3885 39.3833 21.7941 39.0649 22.1125C38.7465 22.4309 38.3409 22.6477 37.8993 22.7356C37.4577 22.8234 36.9999 22.7783 36.5839 22.606C36.1679 22.4337 35.8124 22.1419 35.5622 21.7675C35.3121 21.3932 35.1786 20.953 35.1786 20.5027C35.1786 19.899 35.4184 19.3199 35.8453 18.893C36.2723 18.466 36.8513 18.2262 37.4551 18.2262V18.2262Z" fill="#7591AA"/>
<path d="M37.4551 18.9546C37.8621 18.9546 37.6483 19.6704 37.9659 19.9667C38.2291 20.2098 39.0031 20.0546 39.0031 20.5026C39.0031 20.8088 38.9124 21.1081 38.7423 21.3627C38.5722 21.6172 38.3304 21.8156 38.0475 21.9328C37.7647 22.05 37.4534 22.0806 37.1531 22.0209C36.8528 21.9612 36.577 21.8137 36.3605 21.5972C36.144 21.3807 35.9966 21.1049 35.9369 20.8046C35.8771 20.5043 35.9078 20.1931 36.025 19.9102C36.1421 19.6274 36.3405 19.3856 36.5951 19.2155C36.8497 19.0454 37.149 18.9546 37.4551 18.9546V18.9546Z" fill="#1B3141"/>
<path d="M31.215 0C22.7488 0 15.2879 5.52736 15.2879 14.1503C15.2879 14.8415 15.3214 15.9075 15.5671 16.6066C15.7602 17.1559 18.2235 21.8273 23.1278 17.3001C28.0321 12.7729 34.6271 16.4336 36.2084 14.9975C38.9924 12.4686 38.7419 10.5374 38.7419 10.5374C38.7419 10.5374 38.0769 14.0698 39.162 16.2142C40.2471 18.3586 42.9976 17.9449 43.2257 19.7941C45.5842 19.2287 46.5443 16.9281 46.5443 15.6137C46.5485 13.0415 45.9243 10.5073 44.7259 8.23135C44.5353 7.86924 44.331 7.5157 44.095 7.14212C42.7268 4.96002 40.8278 3.16037 38.5753 1.91136C36.3229 0.662351 33.7906 0.0047473 31.215 0V0Z" fill="#4D4D4D"/>
</g>
<defs>
<clipPath id="clip0_4_146">
<rect x="0.199993" width="61.8" height="61.8" rx="30.9" fill="white"/>
</clipPath>
</defs>
</svg>
