<svg width="62" height="62" viewBox="0 0 62 62" fill="none" xmlns="http://www.w3.org/2000/svg">
<path d="M0 30.9C0 47.9656 13.8344 61.8 30.9 61.8C47.9656 61.8 61.8 47.9656 61.8 30.9C61.8 13.8344 47.9656 0 30.9 0C13.8344 0 0 13.8344 0 30.9Z" fill="white"/>
<path d="M30.9 33.5554C39.3661 33.5554 46.2293 26.6923 46.2293 18.2261C46.2293 9.76001 39.3661 2.89685 30.9 2.89685C22.4339 2.89685 15.5707 9.76001 15.5707 18.2261C15.5707 26.6923 22.4339 33.5554 30.9 33.5554Z" fill="#4D4D4D"/>
<path d="M16.8984 55.6441C20.8982 55.6441 24.1406 52.4017 24.1406 48.4019C24.1406 44.4022 20.8982 41.1598 16.8984 41.1598C12.8987 41.1598 9.65625 44.4022 9.65625 48.4019C9.65625 52.4017 12.8987 55.6441 16.8984 55.6441Z" fill="#5D1C16"/>
<path d="M14.5 48H13.5C11.567 48 10 49.567 10 51.5C10 53.433 11.567 55 13.5 55H14.5C16.433 55 18 53.433 18 51.5C18 49.567 16.433 48 14.5 48Z" fill="#5D1C16"/>
<path d="M45.0223 55.6441C49.022 55.6441 52.2645 52.4017 52.2645 48.4019C52.2645 44.4022 49.022 41.1598 45.0223 41.1598C41.0225 41.1598 37.7801 44.4022 37.7801 48.4019C37.7801 52.4017 41.0225 55.6441 45.0223 55.6441Z" fill="#5D1C16"/>
<path d="M44 52C44 54.2091 45.7909 56 48 56C50.2091 56 52 54.2091 52 52C52 49.7909 50.2091 48 48 48C45.7909 48 44 49.7909 44 52Z" fill="#5D1C16"/>
<path d="M34.5 39H27.5C21.701 39 17 43.701 17 49.5C17 55.299 21.701 60 27.5 60H34.5C40.299 60 45 55.299 45 49.5C45 43.701 40.299 39 34.5 39Z" fill="#5D1C16"/>
<path d="M44.0979 51H18.026C17.4593 51 17 51.4593 17 52.026C17 52.5926 17.4593 53.052 18.026 53.052H44.0979C44.6645 53.052 45.1238 52.5926 45.1238 52.026C45.1238 51.4593 44.6645 51 44.0979 51Z" fill="#AC7D14"/>
<path d="M44.7014 54H17.4225C17.1891 54 17 54.1891 17 54.4225C17 54.6558 17.1891 54.8449 17.4225 54.8449H44.7014C44.9347 54.8449 45.1238 54.6558 45.1238 54.4225C45.1238 54.1891 44.9347 54 44.7014 54Z" fill="#AC7D14"/>
<path d="M39.1081 46.8581C40.8104 44.4721 39.1048 41.1598 36.1737 41.1598V41.1598C34.5363 41.1598 33.1046 42.2634 32.6877 43.8469L32.2381 45.5552C31.9659 46.5892 32.2146 47.6911 32.9047 48.5079V48.5079C34.2863 50.1433 36.8386 50.0388 38.0821 48.2961L39.1081 46.8581Z" fill="#AC7D14"/>
<path d="M22.5921 46.858C20.8897 44.472 22.5953 41.1598 25.5264 41.1598V41.1598C27.1637 41.1598 28.5954 42.2633 29.0122 43.8467L29.462 45.5552C29.7342 46.5893 29.4855 47.6911 28.7954 48.5079V48.5079C27.4139 50.1432 24.8616 50.0389 23.6182 48.2961L22.5921 46.858Z" fill="#AC7D14"/>
<path d="M34.159 32.8312C34.159 31.0314 32.6999 29.5723 30.9 29.5723C29.1001 29.5723 27.641 31.0314 27.641 32.8312V44.0566C27.641 45.8565 29.1001 47.3156 30.9 47.3156C32.6999 47.3156 34.159 45.8565 34.159 44.0566V32.8312Z" fill="#F4AB90"/>
<path d="M20.8816 21.7869C20.8816 20.687 19.99 19.7953 18.89 19.7953C17.7901 19.7953 16.8984 20.687 16.8984 21.7869V26.9772C16.8984 28.0771 17.7901 28.9688 18.89 28.9688C19.99 28.9688 20.8816 28.0771 20.8816 26.9772V21.7869Z" fill="#F4AB90"/>
<path d="M45.0223 22.0283C45.0223 20.9284 44.1306 20.0367 43.0307 20.0367C41.9307 20.0367 41.0391 20.9284 41.0391 22.0283V27.2185C41.0391 28.3185 41.9307 29.2101 43.0307 29.2101C44.1306 29.2101 45.0223 28.3185 45.0223 27.2185V22.0283Z" fill="#F4AB90"/>
<path d="M42.9703 19.4332C42.9703 12.767 37.5662 7.36292 30.9 7.36292C24.2337 7.36292 18.8297 12.767 18.8297 19.4332V26.434C18.8297 33.1003 24.2337 38.5043 30.9 38.5043C37.5662 38.5043 42.9703 33.1003 42.9703 26.434V19.4332Z" fill="#FFC8B4"/>
<path d="M32.952 20.2178C32.952 19.1178 32.0603 18.2262 30.9604 18.2262C29.8604 18.2262 28.9688 19.1178 28.9688 20.2178V27.2185C28.9688 28.3185 29.8604 29.2101 30.9604 29.2101C32.0603 29.2101 32.952 28.3185 32.952 27.2185V20.2178Z" fill="#F4AB90"/>
<path d="M30.9 30.9C33.3272 30.8946 35.7392 30.0084 35.7392 30.9C35.7392 31.7916 33.3178 33.716 30.9 33.716C28.4822 33.716 26.0136 31.7916 26.0136 30.9C26.0136 30.0084 28.4728 30.9049 30.9 30.9Z" fill="white"/>
<path d="M24.6067 22.7793C25.864 22.7793 26.8832 21.7601 26.8832 20.5027C26.8832 19.2454 25.864 18.2262 24.6067 18.2262C23.3493 18.2262 22.3301 19.2454 22.3301 20.5027C22.3301 21.7601 23.3493 22.7793 24.6067 22.7793Z" fill="#7591AA"/>
<path d="M24.6067 18.9546C24.6067 18.9546 24.6067 18.9546 24.6067 18.9546C25.0137 18.9546 24.7998 19.6704 25.1175 19.9667C25.3806 20.2098 26.1547 20.0546 26.1547 20.5026C26.1547 20.8088 26.0639 21.1081 25.8938 21.3627C25.7237 21.6172 25.4819 21.8157 25.1991 21.9328C24.9162 22.05 24.605 22.0806 24.3047 22.0209C24.0044 21.9612 23.7286 21.8137 23.5121 21.5973C23.2956 21.3808 23.1481 21.1049 23.0884 20.8046C23.0287 20.5044 23.0593 20.1931 23.1765 19.9102C23.2937 19.6274 23.4921 19.3856 23.7466 19.2155C24.0012 19.0454 24.3005 18.9546 24.6067 18.9546C24.6067 18.9546 24.6067 18.9546 24.6067 18.9546V18.9546Z" fill="#1B3141"/>
<path d="M37.2551 18.2262C37.2551 18.2262 37.2551 18.2262 37.2551 18.2262C37.7054 18.2262 38.1455 18.3597 38.5199 18.6098C38.8943 18.86 39.1861 19.2155 39.3584 19.6315C39.5307 20.0475 39.5758 20.5053 39.488 20.9469C39.4001 21.3885 39.1833 21.7941 38.8649 22.1125C38.5465 22.4309 38.1409 22.6477 37.6993 22.7356C37.2577 22.8234 36.7999 22.7783 36.3839 22.606C35.9679 22.4337 35.6124 22.1419 35.3622 21.7675C35.1121 21.3932 34.9785 20.953 34.9785 20.5027C34.9785 19.899 35.2184 19.3199 35.6453 18.893C36.0723 18.466 36.6513 18.2262 37.2551 18.2262C37.2551 18.2262 37.2551 18.2262 37.2551 18.2262V18.2262Z" fill="#7591AA"/>
<path d="M37.2551 18.9546C37.2551 18.9546 37.2551 18.9546 37.2551 18.9546C37.6621 18.9546 37.4482 19.6704 37.7659 19.9667C38.0291 20.2098 38.8031 20.0546 38.8031 20.5026C38.8031 20.8088 38.7123 21.1081 38.5422 21.3627C38.3721 21.6172 38.1304 21.8157 37.8475 21.9328C37.5646 22.05 37.2534 22.0806 36.9531 22.0209C36.6528 21.9612 36.377 21.8137 36.1605 21.5973C35.944 21.3808 35.7966 21.1049 35.7368 20.8046C35.6771 20.5044 35.7078 20.1931 35.8249 19.9102C35.9421 19.6274 36.1405 19.3856 36.3951 19.2155C36.6496 19.0454 36.9489 18.9546 37.2551 18.9546C37.2551 18.9546 37.2551 18.9546 37.2551 18.9546V18.9546Z" fill="#1B3141"/>
<path d="M31.015 0C31.015 0 31.015 0 31.015 0C22.5488 0 15.0879 5.52736 15.0879 14.1503C15.0879 14.8415 15.1214 15.9075 15.3671 16.6066C15.5602 17.1559 18.0235 21.8273 22.9278 17.3001C27.8321 12.7729 34.4271 16.4336 36.0084 14.9975V14.9975C36.7147 14.3559 38.4317 14.8632 38.7637 15.7578C38.8222 15.9153 38.888 16.068 38.962 16.2142V16.2142C40.3136 18.8853 46.2266 18.7149 46.3422 15.7235C46.3436 15.6862 46.3443 15.6496 46.3443 15.6137C46.3485 13.0415 45.7243 10.5073 44.5259 8.23135C44.3353 7.86924 44.131 7.5157 43.895 7.14212C42.5268 4.96002 40.6278 3.16037 38.3754 1.91136C36.1229 0.662351 33.5906 0.0047473 31.015 0C31.015 0 31.015 0 31.015 0V0Z" fill="#4D4D4D"/>
</svg>
