<svg width="63" height="62" viewBox="0 0 63 62" fill="none" xmlns="http://www.w3.org/2000/svg">
<g clip-path="url(#clip0_4_271)">
<path d="M62.2 0H0.399994V61.8H62.2V0Z" fill="white"/>
<path d="M46.6293 14.7258H15.9707V49.3676H46.6293V14.7258Z" fill="#463929"/>
<path d="M31.3 33.5555C39.7661 33.5555 46.6293 26.6923 46.6293 18.2262C46.6293 9.76004 39.7661 2.89688 31.3 2.89688C22.8339 2.89688 15.9707 9.76004 15.9707 18.2262C15.9707 26.6923 22.8339 33.5555 31.3 33.5555Z" fill="#463929"/>
<path d="M17.2984 55.6441C21.2982 55.6441 24.5406 52.4017 24.5406 48.4019C24.5406 44.4022 21.2982 41.1598 17.2984 41.1598C13.2987 41.1598 10.0562 44.4022 10.0562 48.4019C10.0562 52.4017 13.2987 55.6441 17.2984 55.6441Z" fill="#887F11"/>
<path d="M18.2641 48.4019H10.0562V61.8H18.2641V48.4019Z" fill="#887F11"/>
<path d="M45.4223 55.6441C49.422 55.6441 52.6645 52.4017 52.6645 48.4019C52.6645 44.4022 49.422 41.1598 45.4223 41.1598C41.4225 41.1598 38.1801 44.4022 38.1801 48.4019C38.1801 52.4017 41.4225 55.6441 45.4223 55.6441Z" fill="#887F11"/>
<path d="M52.6645 48.4019H44.2152V61.8H52.6645V48.4019Z" fill="#887F11"/>
<path d="M45.4223 41.1598H17.2984V61.8H45.4223V41.1598Z" fill="#887F11"/>
<path d="M34.559 32.8312C34.559 31.0314 33.0999 29.5723 31.3 29.5723C29.5001 29.5723 28.041 31.0314 28.041 32.8312V44.0566C28.041 45.8565 29.5001 47.3156 31.3 47.3156C33.0999 47.3156 34.559 45.8565 34.559 44.0566V32.8312Z" fill="#F4AB90"/>
<path d="M21.2816 21.7869C21.2816 20.687 20.39 19.7953 19.29 19.7953C18.1901 19.7953 17.2984 20.687 17.2984 21.7869V26.9771C17.2984 28.0771 18.1901 28.9687 19.29 28.9687C20.39 28.9687 21.2816 28.0771 21.2816 26.9771V21.7869Z" fill="#F4AB90"/>
<path d="M45.4223 22.0283C45.4223 20.9284 44.5306 20.0367 43.4307 20.0367C42.3307 20.0367 41.4391 20.9284 41.4391 22.0283V27.2185C41.4391 28.3185 42.3307 29.2101 43.4307 29.2101C44.5306 29.2101 45.4223 28.3185 45.4223 27.2185V22.0283Z" fill="#F4AB90"/>
<path d="M43.3703 19.4332C43.3703 12.7669 37.9662 7.36288 31.3 7.36288C24.6337 7.36288 19.2297 12.7669 19.2297 19.4332V26.434C19.2297 33.1002 24.6337 38.5043 31.3 38.5043C37.9662 38.5043 43.3703 33.1002 43.3703 26.434V19.4332Z" fill="#FFC8B4"/>
<path d="M33.3519 20.2178C33.3519 19.1178 32.4603 18.2262 31.3603 18.2262C30.2604 18.2262 29.3687 19.1178 29.3687 20.2178V27.2185C29.3687 28.3185 30.2604 29.2101 31.3603 29.2101C32.4603 29.2101 33.3519 28.3185 33.3519 27.2185V20.2178Z" fill="#F4AB90"/>
<path d="M31.3 31.246C33.3821 31.246 35.5246 30.9467 35.5246 32.0467C35.5246 33.1466 33.5999 34.8185 31.3 34.8185C29.0001 34.8185 27.1961 33.1466 27.1961 32.0467C27.1961 30.9467 29.2179 31.246 31.3 31.246Z" fill="white"/>
<path d="M25.0067 22.7793C26.264 22.7793 27.2832 21.7601 27.2832 20.5027C27.2832 19.2454 26.264 18.2262 25.0067 18.2262C23.7493 18.2262 22.7301 19.2454 22.7301 20.5027C22.7301 21.7601 23.7493 22.7793 25.0067 22.7793Z" fill="#B2745D"/>
<path d="M25.0067 18.9546C25.4137 18.9546 25.1998 19.6704 25.5175 19.9667C25.7806 20.2098 26.5547 20.0546 26.5547 20.5026C26.5547 20.8088 26.4639 21.1081 26.2938 21.3627C26.1237 21.6172 25.8819 21.8156 25.5991 21.9328C25.3162 22.05 25.0049 22.0806 24.7047 22.0209C24.4044 21.9612 24.1285 21.8137 23.9121 21.5972C23.6956 21.3807 23.5481 21.1049 23.4884 20.8046C23.4287 20.5043 23.4593 20.1931 23.5765 19.9102C23.6937 19.6274 23.8921 19.3856 24.1466 19.2155C24.4012 19.0454 24.7005 18.9546 25.0067 18.9546V18.9546Z" fill="#553326"/>
<path d="M37.6551 18.2262C38.1054 18.2262 38.5455 18.3597 38.9199 18.6098C39.2943 18.86 39.5861 19.2155 39.7584 19.6315C39.9307 20.0475 39.9758 20.5053 39.888 20.9469C39.8001 21.3885 39.5833 21.7941 39.2649 22.1125C38.9465 22.4309 38.5409 22.6477 38.0993 22.7356C37.6576 22.8234 37.1999 22.7783 36.7839 22.606C36.3679 22.4337 36.0124 22.1419 35.7622 21.7675C35.5121 21.3932 35.3785 20.953 35.3785 20.5027C35.3785 19.899 35.6184 19.3199 36.0453 18.893C36.4723 18.466 37.0513 18.2262 37.6551 18.2262V18.2262Z" fill="#B2745D"/>
<path d="M37.6551 18.9546C38.0621 18.9546 37.8482 19.6704 38.1659 19.9667C38.4291 20.2098 39.2031 20.0546 39.2031 20.5026C39.2031 20.8088 39.1123 21.1081 38.9422 21.3627C38.7721 21.6172 38.5304 21.8156 38.2475 21.9328C37.9646 22.05 37.6534 22.0806 37.3531 22.0209C37.0528 21.9612 36.777 21.8137 36.5605 21.5972C36.344 21.3807 36.1966 21.1049 36.1368 20.8046C36.0771 20.5043 36.1078 20.1931 36.2249 19.9102C36.3421 19.6274 36.5405 19.3856 36.7951 19.2155C37.0496 19.0454 37.3489 18.9546 37.6551 18.9546V18.9546Z" fill="#553326"/>
<path d="M31.3 0C35.3656 0 39.2646 1.61505 42.1395 4.48985C45.0143 7.36465 46.6293 11.2637 46.6293 15.3293C46.6293 23.7954 39.7661 15.9483 31.3 15.9483C22.8339 15.9483 15.9707 23.7954 15.9707 15.3293C15.9707 11.2637 17.5857 7.36465 20.4605 4.48985C23.3354 1.61505 27.2344 0 31.3 0V0Z" fill="#463929"/>
</g>
<defs>
<clipPath id="clip0_4_271">
<rect x="0.399994" width="61.8" height="61.8" rx="30.9" fill="white"/>
</clipPath>
</defs>
</svg>
