<svg width="62" height="62" viewBox="0 0 62 62" fill="none" xmlns="http://www.w3.org/2000/svg">
<g clip-path="url(#clip0_2_2)">
<path d="M30.9 61.8C47.9656 61.8 61.8 47.9656 61.8 30.9C61.8 13.8344 47.9656 0 30.9 0C13.8344 0 0 13.8344 0 30.9C0 47.9656 13.8344 61.8 30.9 61.8Z" fill="#3DBC93"/>
<path fill-rule="evenodd" clip-rule="evenodd" d="M53.5 52C47.7 58.3 39.5 61.8 30.9 61.8C29.6 61.8 28.3 61.7 27.1 61.6C23.2 61 19.4 59.8 15.9 58C13 56.4 10.3 54.3 8 51.8L9.3 48.7L23.2 42.5C23.2 47 24.5 52.5 30.6 52.6C38.2 52.7 39.1 47.1 39.1 42.4L52 48.6L53.5 52Z" fill="#E9573E"/>
<path opacity="0.18" fill-rule="evenodd" clip-rule="evenodd" d="M0.700012 74.7V73.9H66.5V74.7H0.700012ZM10.1 33.7V35.9H12.3V33.7H10.1ZM10.1 36.7V38.9H12.3V36.7H10.1ZM10.1 39.7V41.6H12.3V39.7H10.1ZM10.1 42.3V44.5H12.3V42.3H10.1ZM10.1 45.3V47.5H12.3V45.3H10.1ZM10.1 48.3V50.5H12.3V48.3H10.1ZM10.1 51.3V53.3H12.3V51.3H10.1ZM10.1 54V56.2H12.3V54H10.1ZM10.1 57V59.2H12.3V57H10.1ZM10.1 60V62.2H12.3V60H10.1ZM10.1 63V64.9H12.3V63H10.1ZM10.1 65.7V67.9H9.30001V65.7H0.700012V64.9H9.30001V63H0.700012V62.2H9.30001V60H0.700012V59.2H9.30001V57H0.700012V56.2H9.30001V54H0.700012V53.2H9.30001V51.2H0.700012V50.4H9.30001V48.2H0.700012V47.4H9.30001V45.2H0.700012V44.4H9.30001V42.2H0.700012V41.4H9.30001V39.5H0.700012V38.7H9.30001V36.5H0.700012V35.7H9.30001V33.5H0.700012V32.7H66.5V33.5H53.6V35.7H66.5V36.5H53.6V38.7H66.5V39.5H53.6V41.4H66.5V42.2H53.6V44.4H66.5V45.2H53.6V47.4H66.5V48.2H53.6V50.4H66.5V51.2H53.6V53.2H66.5V54H53.6V56.2H66.5V57H53.6V59.2H66.5V60H53.6V62.2H66.5V63H53.6V64.9H66.5V65.7H53.6V67.9H52.8V65.7H50.6V67.9H49.8V65.7H47.6V67.9H46.8V65.7H44.6V67.9H43.8V65.7H42V67.9H41.2V65.7H39V67.9H38.2V65.7H36V67.9H35.2V65.7H33V67.9H32.2V65.7H30.3V67.9H29.5V65.7H27.3V67.9H26.5V65.7H24.3V67.9H23.5V65.7H21.3V67.9H20.5V65.7H19V67.9H18.2V65.7H16V67.9H15.2V65.7H13V67.9H12.2V65.7H10.1ZM34.7 29.9H66.5V30.7H0.700012V29.9H34.7ZM52.8 33.7H50.6V35.9H52.8V33.7ZM49.9 33.7H47.7V35.9H49.9V33.7ZM46.9 33.7H44.7V35.9H46.9V33.7ZM43.9 33.7H42.1V35.9H43.9V33.7ZM41.3 33.7H39.1V35.9H41.3V33.7ZM38.4 33.7H36.2V35.9H38.4C38.4 35.9 38.4 33.7 38.4 33.7ZM35.4 33.7H33.2V35.9H35.4V33.7ZM32.4 33.7H30.5V35.9H32.4V33.7ZM29.7 33.7H27.5V35.9H29.7V33.7ZM26.8 33.7H24.6V35.9H26.8V33.7ZM23.8 33.7H21.6V35.9H23.8V33.7ZM20.8 33.7H19V35.9H20.8V33.7ZM18.2 33.7H16V35.9H18.2C18.2 35.9 18.2 33.7 18.2 33.7ZM15.3 33.7H13.1V35.9H15.3V33.7ZM52.8 36.7H50.6V38.9H52.8V36.7ZM49.9 36.7H47.7V38.9H49.9V36.7ZM46.9 36.7H44.7V38.9H46.9V36.7ZM43.9 36.7H42.1V38.9H43.9V36.7ZM41.3 36.7H39.1V38.9H41.3V36.7ZM38.4 36.7H36.2V38.9H38.4V36.7ZM35.4 36.7H33.2V38.9H35.4V36.7ZM32.4 36.7H30.5V38.9H32.4V36.7ZM29.7 36.7H27.5V38.9H29.7V36.7ZM26.8 36.7H24.6V38.9H26.8V36.7ZM23.8 36.7H21.6V38.9H23.8V36.7ZM20.8 36.7H19V38.9H20.8V36.7ZM18.2 36.7H16V38.9H18.2V36.7ZM15.3 36.7H13.1V38.9H15.3V36.7ZM52.8 39.7H50.6V41.6H52.8V39.7ZM49.9 39.7H47.7V41.6H49.9V39.7ZM46.9 39.7H44.7V41.6H46.9V39.7ZM43.9 39.7H42.1V41.6H43.9V39.7ZM41.3 39.7H39.1V41.6H41.3V39.7ZM38.4 39.7H36.2V41.6H38.4V39.7ZM35.4 39.7H33.2V41.6H35.4V39.7ZM32.4 39.7H30.5V41.6H32.4V39.7ZM29.7 39.7H27.5V41.6H29.7V39.7ZM26.8 39.7H24.6V41.6H26.8V39.7ZM23.8 39.7H21.6V41.6H23.8V39.7ZM20.8 39.7H19V41.6H20.8V39.7ZM18.2 39.7H16V41.6H18.2V39.7ZM15.3 39.7H13.1V41.6H15.3V39.7ZM52.8 42.3H50.6V44.5H52.8V42.3ZM49.9 42.3H47.7V44.5H49.9V42.3ZM46.9 42.3H44.7V44.5H46.9V42.3ZM43.9 42.3H42.1V44.5H43.9V42.3ZM41.3 42.3H39.1V44.5H41.3V42.3ZM38.4 42.3H36.2V44.5H38.4V42.3ZM35.4 42.3H33.2V44.5H35.4V42.3ZM32.4 42.3H30.5V44.5H32.4V42.3ZM29.7 42.3H27.5V44.5H29.7V42.3ZM26.8 42.3H24.6V44.5H26.8V42.3ZM23.8 42.3H21.6V44.5H23.8V42.3ZM20.8 42.3H19V44.5H20.8V42.3ZM18.2 42.3H16V44.5H18.2V42.3ZM15.3 42.3H13.1V44.5H15.3V42.3ZM52.8 45.3H50.6V47.5H52.8V45.3ZM49.9 45.3H47.7V47.5H49.9V45.3ZM46.9 45.3H44.7V47.5H46.9V45.3ZM43.9 45.3H42.1V47.5H43.9V45.3ZM41.3 45.3H39.1V47.5H41.3V45.3ZM38.4 45.3H36.2V47.5H38.4V45.3ZM35.4 45.3H33.2V47.5H35.4V45.3ZM32.4 45.3H30.5V47.5H32.4V45.3ZM29.7 45.3H27.5V47.5H29.7V45.3ZM26.8 45.3H24.6V47.5H26.8V45.3ZM23.8 45.3H21.6V47.5H23.8V45.3ZM20.8 45.3H19V47.5H20.8V45.3ZM18.2 45.3H16V47.5H18.2V45.3ZM15.3 45.3H13.1V47.5H15.3V45.3ZM52.8 48.3H50.6V50.5H52.8V48.3ZM49.9 48.3H47.7V50.5H49.9V48.3ZM46.9 48.3H44.7V50.5H46.9V48.3ZM43.9 48.3H42.1V50.5H43.9V48.3ZM41.3 48.3H39.1V50.5H41.3V48.3ZM38.4 48.3H36.2V50.5H38.4V48.3ZM35.4 48.3H33.2V50.5H35.4V48.3ZM32.4 48.3H30.5V50.5H32.4V48.3ZM29.7 48.3H27.5V50.5H29.7V48.3ZM26.8 48.3H24.6V50.5H26.8V48.3ZM23.8 48.3H21.6V50.5H23.8V48.3ZM20.8 48.3H19V50.5H20.8V48.3ZM18.2 48.3H16V50.5H18.2V48.3ZM15.3 48.3H13.1V50.5H15.3V48.3ZM52.8 51.3H50.6V53.3H52.8V51.3ZM49.9 51.3H47.7V53.3H49.9V51.3ZM46.9 51.3H44.7V53.3H46.9V51.3ZM43.9 51.3H42.1V53.3H43.9V51.3ZM41.3 51.3H39.1V53.3H41.3V51.3ZM38.4 51.3H36.2V53.3H38.4V51.3ZM35.4 51.3H33.2V53.3H35.4V51.3ZM32.4 51.3H30.5V53.3H32.4V51.3ZM29.7 51.3H27.5V53.3H29.7V51.3ZM26.8 51.3H24.6V53.3H26.8V51.3ZM23.8 51.3H21.6V53.3H23.8V51.3ZM20.8 51.3H19V53.3H20.8V51.3ZM18.2 51.3H16V53.3H18.2V51.3ZM15.3 51.3H13.1V53.3H15.3V51.3ZM52.8 54H50.6V56.2H52.8V54ZM49.9 54H47.7V56.2H49.9V54ZM46.9 54H44.7V56.2H46.9V54ZM43.9 54H42.1V56.2H43.9V54ZM41.3 54H39.1V56.2H41.3V54ZM38.4 54H36.2V56.2H38.4V54ZM35.4 54H33.2V56.2H35.4V54ZM32.4 54H30.5V56.2H32.4V54ZM29.7 54H27.5V56.2H29.7V54ZM26.8 54H24.6V56.2H26.8V54ZM23.8 54H21.6V56.2H23.8V54ZM20.8 54H19V56.2H20.8V54ZM18.2 54H16V56.2H18.2V54ZM15.3 54H13.1V56.2H15.3V54ZM52.8 57H50.6V59.2H52.8V57ZM49.9 57H47.7V59.2H49.9V57ZM46.9 57H44.7V59.2H46.9V57ZM43.9 57H42.1V59.2H43.9V57ZM41.3 57H39.1V59.2H41.3V57ZM38.4 57H36.2V59.2H38.4V57ZM35.4 57H33.2V59.2H35.4V57ZM32.4 57H30.5V59.2H32.4V57ZM29.7 57H27.5V59.2H29.7V57ZM26.8 57H24.6V59.2H26.8V57ZM23.8 57H21.6V59.2H23.8V57ZM20.8 57H19V59.2H20.8V57ZM18.2 57H16V59.2H18.2V57ZM15.3 57H13.1V59.2H15.3V57ZM52.8 60H50.6V62.2H52.8V60ZM49.9 60H47.7V62.2H49.9V60ZM46.9 60H44.7V62.2H46.9V60ZM43.9 60H42.1V62.2H43.9V60ZM41.3 60H39.1V62.2H41.3V60ZM38.4 60H36.2V62.2H38.4V60ZM35.4 60H33.2V62.2H35.4V60ZM32.4 60H30.5V62.2H32.4V60ZM29.7 60H27.5V62.2H29.7V60ZM26.8 60H24.6V62.2H26.8V60ZM23.8 60H21.6V62.2H23.8V60ZM20.8 60H19V62.2H20.8V60ZM18.2 60H16V62.2H18.2V60ZM15.3 60H13.1V62.2H15.3V60ZM52.8 63H50.6V64.9H52.8V63ZM49.9 63H47.7V64.9H49.9V63ZM46.9 63H44.7V64.9H46.9V63ZM43.9 63H42.1V64.9H43.9V63ZM41.3 63H39.1V64.9H41.3V63ZM38.4 63H36.2V64.9H38.4V63ZM35.4 63H33.2V64.9H35.4V63ZM32.4 63H30.5V64.9H32.4V63ZM29.7 63H27.5V64.9H29.7V63ZM26.8 63H24.6V64.9H26.8V63ZM23.8 63H21.6V64.9H23.8V63ZM20.8 63H19V64.9H20.8V63ZM18.2 63H16V64.9H18.2V63ZM15.3 63H13.1V64.9H15.3V63ZM34.7 67.9H66.5V68.7H0.700012V67.9H34.7ZM34.7 70.9H66.5V71.7H0.700012V70.9H34.7Z" fill="black"/>
<path fill-rule="evenodd" clip-rule="evenodd" d="M23.3 38.7L39.2 38.8V51.7L23.3 51.6V38.7V38.7Z" fill="#F9DCA4"/>
<path fill-rule="evenodd" clip-rule="evenodd" d="M39.2 60.7C34 62.1 28.5 62.2 23.3 60.9V47.6C27.2 52.3 35.1 52.3 39.2 47.7V60.7Z" fill="#677079"/>
<path opacity="0.11" fill-rule="evenodd" clip-rule="evenodd" d="M39.2 43.5V45.8C39.2 46 39.2 47.3 39.2 47.3C34.4 50.8 24.7 48.7 23.3 44.2L39.2 43.5Z" fill="black"/>
<path fill-rule="evenodd" clip-rule="evenodd" d="M31.1 8.4C52.4 8.4 44.1 43.7 31.1 43.7C18.9 43.7 9.79999 8.4 31.1 8.4Z" fill="#FFE8BE"/>
<path fill-rule="evenodd" clip-rule="evenodd" d="M18.4 24C15.3 25.3 17.9 31.7 19.9 31.7C19 29.2 18.5 26.6 18.4 24Z" fill="#F9DCA4"/>
<path fill-rule="evenodd" clip-rule="evenodd" d="M44.1 24C47.2 25.3 44.6 31.7 42.6 31.7C43.5 29.2 44 26.6 44.1 24Z" fill="#F9DCA4"/>
<path fill-rule="evenodd" clip-rule="evenodd" d="M23.3 53.2L20.9 51L16.1 53.4L23.3 39.7C23.3 39.7 23.3 53.2 23.3 53.2Z" fill="#434955"/>
<path fill-rule="evenodd" clip-rule="evenodd" d="M39.2 53.2L41.6 51L46.4 53.4L39.2 39.7V53.2Z" fill="#434955"/>
<path fill-rule="evenodd" clip-rule="evenodd" d="M18.4 23.9C15.6 18.9 14.7 15.7 16.1 13.2C18.1 9.7 22.7 10.1 23.1 9.3C27.1 0.800001 47.9 7.3 47.1 20.4C46.7 19.5 46.2 18.7 45.6 17.9C45.6 17.9 45.5 22.9 44.2 24.9C42.5 22 37.8 19.2 37.8 19.2C37.8 19.2 39.1 23.5 39.9 24.4C38.8 24.3 26.7 20.9 23.6 10.9C19.5 13.1 18.2 20.2 18.4 23.9Z" fill="#60350A"/>
<path fill-rule="evenodd" clip-rule="evenodd" d="M31.1 46.5C28.4 46.5 16 46.6 18.3 23.8C18.3 23.8 19.1 30.4 21.3 33.3C22 34.5 23.6 35 24.8 34.3C24.9 34.2 25 34.2 25.1 34.1C26.3 33.3 26.5 31.7 27.9 31.2C29 30.7 30.4 31 31.1 32C31.9 31 33.2 30.7 34.3 31.2C35.7 31.7 36 33.3 37.1 34.1C38.2 35 39.8 34.8 40.7 33.7C40.8 33.6 40.9 33.5 40.9 33.4C43 30.5 43.9 23.9 43.9 23.9C46.3 46.7 33.8 46.6 31.1 46.5Z" fill="#60350A"/>
<path fill-rule="evenodd" clip-rule="evenodd" d="M23.9 35.9C23.9 35.9 29.5 37.6 31.1 32.4V32.3V32.4C32.7 37.6 38.3 35.9 38.3 35.9C35.3 38.4 33.1 35.7 31 35.7C28.9 35.8 26.8 38.2 23.9 35.9Z" fill="#362008"/>
</g>
<defs>
<clipPath id="clip0_2_2">
<rect width="61.8" height="61.8" fill="white"/>
</clipPath>
</defs>
</svg>
