<svg width="63" height="62" viewBox="0 0 63 62" fill="none" xmlns="http://www.w3.org/2000/svg">
<g clip-path="url(#clip0_4_209)">
<path d="M62.6 0H0.799988V61.8H62.6V0Z" fill="white"/>
<path d="M16.4111 15.2086H47.0287C47.0287 15.2086 43.3364 25.5273 43.3364 34.0674C43.3364 42.6075 47.0287 49.3693 47.0287 49.3693L10.6148 49.4938C10.6148 49.4938 6.63671 45.8795 8.18871 41.0218C9.74071 36.1641 16.8239 34.9827 16.8239 30.0635C16.8239 21.5233 16.4111 15.2086 16.4111 15.2086Z" fill="#BA7014"/>
<path d="M31.7 33.5555C40.1661 33.5555 47.0293 26.6923 47.0293 18.2262C47.0293 9.76004 40.1661 2.89688 31.7 2.89688C23.2339 2.89688 16.3707 9.76004 16.3707 18.2262C16.3707 26.6923 23.2339 33.5555 31.7 33.5555Z" fill="#BA7014"/>
<path d="M17.6984 55.6441C21.6982 55.6441 24.9406 52.4017 24.9406 48.4019C24.9406 44.4022 21.6982 41.1598 17.6984 41.1598C13.6987 41.1598 10.4562 44.4022 10.4562 48.4019C10.4562 52.4017 13.6987 55.6441 17.6984 55.6441Z" fill="#221D45"/>
<path d="M18.6641 48.4019H10.4562V61.8H18.6641V48.4019Z" fill="#221D45"/>
<path d="M45.8223 55.6441C49.822 55.6441 53.0644 52.4017 53.0644 48.4019C53.0644 44.4022 49.822 41.1598 45.8223 41.1598C41.8225 41.1598 38.5801 44.4022 38.5801 48.4019C38.5801 52.4017 41.8225 55.6441 45.8223 55.6441Z" fill="#221D45"/>
<path d="M53.0644 48.4019H44.6152V61.8H53.0644V48.4019Z" fill="#221D45"/>
<path d="M45.8223 41.1598H17.6984V61.8H45.8223V41.1598Z" fill="#221D45"/>
<path d="M20.2332 41.1598H17.6984V54.4371H20.2332V41.1598Z" fill="#7B7BB5"/>
<path d="M45.8223 54.4371H17.6984V61.8H45.8223V54.4371Z" fill="#B4B4E8"/>
<path d="M45.8223 56.6098H17.6984V57.5754H45.8223V56.6098Z" fill="#7B7BB5"/>
<path d="M45.8222 41.1598H43.1668V54.4371H45.8222V41.1598Z" fill="#7B7BB5"/>
<path d="M34.959 32.8312C34.959 31.0314 33.4999 29.5723 31.7 29.5723C29.9001 29.5723 28.441 31.0314 28.441 32.8312V44.0566C28.441 45.8565 29.9001 47.3156 31.7 47.3156C33.4999 47.3156 34.959 45.8565 34.959 44.0566V32.8312Z" fill="#F4AB90"/>
<path d="M21.6816 21.7869C21.6816 20.687 20.79 19.7953 19.69 19.7953C18.5901 19.7953 17.6984 20.687 17.6984 21.7869V26.9771C17.6984 28.0771 18.5901 28.9687 19.69 28.9687C20.79 28.9687 21.6816 28.0771 21.6816 26.9771V21.7869Z" fill="#F4AB90"/>
<path d="M45.8223 22.0283C45.8223 20.9284 44.9306 20.0367 43.8307 20.0367C42.7307 20.0367 41.8391 20.9284 41.8391 22.0283V27.2185C41.8391 28.3185 42.7307 29.2101 43.8307 29.2101C44.9306 29.2101 45.8223 28.3185 45.8223 27.2185V22.0283Z" fill="#F4AB90"/>
<path d="M43.7703 19.4332C43.7703 12.7669 38.3662 7.36288 31.7 7.36288C25.0337 7.36288 19.6297 12.7669 19.6297 19.4332V26.434C19.6297 33.1002 25.0337 38.5043 31.7 38.5043C38.3662 38.5043 43.7703 33.1002 43.7703 26.434V19.4332Z" fill="#FFC8B4"/>
<path d="M33.7519 20.2178C33.7519 19.1178 32.8603 18.2262 31.7603 18.2262C30.6604 18.2262 29.7687 19.1178 29.7687 20.2178V27.2185C29.7687 28.3185 30.6604 29.2101 31.7603 29.2101C32.8603 29.2101 33.7519 28.3185 33.7519 27.2185V20.2178Z" fill="#F4AB90"/>
<path d="M29.6183 31.0655C30.7493 31.2352 31.7 30.6877 31.7 31.5792C31.7 32.4707 30.7515 33.826 29.6183 33.826C28.4852 33.826 27.1757 31.7916 27.1757 30.9C27.1757 30.0084 28.4872 30.8957 29.6183 31.0655Z" fill="white"/>
<path d="M25.4066 22.7793C26.664 22.7793 27.6832 21.7601 27.6832 20.5027C27.6832 19.2454 26.664 18.2262 25.4066 18.2262C24.1493 18.2262 23.1301 19.2454 23.1301 20.5027C23.1301 21.7601 24.1493 22.7793 25.4066 22.7793Z" fill="#A7A160"/>
<path d="M25.4066 18.9546C25.8137 18.9546 25.5998 19.6704 25.9175 19.9667C26.1806 20.2098 26.9547 20.0546 26.9547 20.5026C26.9547 20.8088 26.8639 21.1081 26.6938 21.3627C26.5237 21.6172 26.2819 21.8156 25.999 21.9328C25.7162 22.05 25.4049 22.0806 25.1046 22.0209C24.8044 21.9612 24.5285 21.8137 24.312 21.5972C24.0955 21.3807 23.9481 21.1049 23.8884 20.8046C23.8286 20.5043 23.8593 20.1931 23.9765 19.9102C24.0936 19.6274 24.292 19.3856 24.5466 19.2155C24.8012 19.0454 25.1005 18.9546 25.4066 18.9546V18.9546Z" fill="#393612"/>
<path d="M38.0551 22.7793C39.3125 22.7793 40.3317 21.7601 40.3317 20.5027C40.3317 19.2454 39.3125 18.2262 38.0551 18.2262C36.7978 18.2262 35.7785 19.2454 35.7785 20.5027C35.7785 21.7601 36.7978 22.7793 38.0551 22.7793Z" fill="#A7A160"/>
<path d="M38.0551 18.9546C38.4621 18.9546 38.2483 19.6704 38.5659 19.9667C38.8291 20.2098 39.6031 20.0546 39.6031 20.5026C39.6031 20.8088 39.5124 21.1081 39.3423 21.3627C39.1722 21.6172 38.9304 21.8156 38.6475 21.9328C38.3647 22.05 38.0534 22.0806 37.7531 22.0209C37.4528 21.9612 37.177 21.8137 36.9605 21.5972C36.744 21.3807 36.5966 21.1049 36.5369 20.8046C36.4771 20.5043 36.5078 20.1931 36.6249 19.9102C36.7421 19.6274 36.9405 19.3856 37.1951 19.2155C37.4497 19.0454 37.749 18.9546 38.0551 18.9546V18.9546Z" fill="#393612"/>
<path d="M31.7 0C40.1661 0 49.1009 4.8542 49.1009 13.4771C49.0923 14.189 48.9628 14.8943 48.7179 15.5629C47.8497 18.0352 45.6038 20.1262 44.1674 20.0289C42.5315 19.9177 40.2216 18.6192 37.5071 16.6801C35.6308 16.0334 34.6827 16.7223 31.6994 16.6801C28.7161 16.6378 24.0806 11.7863 24.0806 11.7863C24.0806 11.7863 23.785 17.6738 21.8597 18.1673C19.9343 18.6607 16.3707 21.4293 16.3707 15.6132C16.3665 13.041 16.9907 10.5068 18.1891 8.23087C18.3797 7.86876 18.584 7.51522 18.82 7.14164C20.1882 4.95962 22.0873 3.16007 24.3397 1.91115C26.5922 0.662226 29.1245 0.00469598 31.7 0V0Z" fill="#BA7014"/>
</g>
<defs>
<clipPath id="clip0_4_209">
<rect x="0.799988" width="61.8" height="61.8" rx="30.9" fill="white"/>
</clipPath>
</defs>
</svg>
