<svg width="24px" height="24px" viewBox="0 0 24 24" fill="none" xmlns="http://www.w3.org/2000/svg">
<path fill-rule="evenodd" clip-rule="evenodd" d="M6.5092 8.82896C6.66274 8.97092 6.75005 9.17054 6.75005 9.37966L6.75005 14.6044C6.75005 14.8139 6.66242 15.0139 6.50837 15.1559C6.35432 15.2979 6.1479 15.369 5.93909 15.352L5.70355 15.3325C5.26576 15.2964 4.90244 14.9799 4.80626 14.5516C4.42781 12.8662 4.42767 11.1172 4.80614 9.43165C4.90261 9.00202 5.2677 8.68534 5.70665 8.65054M6.5092 8.82896C6.35565 8.687 5.91513 8.63417 5.70665 8.65054L6.5092 8.82896Z" fill="white"/>
<path fill-rule="evenodd" clip-rule="evenodd" d="M20.7501 14V9.99997C20.7501 9.8619 20.6381 9.74997 20.5001 9.74997H19.1001C18.6858 9.74997 18.3501 9.41418 18.3501 8.99997V8.18964C18.3501 7.7018 17.9747 7.29608 17.4884 7.25816L16.2199 7.15925C12.7453 6.88832 9.25484 6.88832 5.78023 7.15925L4.43263 7.26432C3.9098 7.30509 3.48195 7.69674 3.39524 8.21395C2.97503 10.7205 2.97503 13.2795 3.39524 15.786C3.48194 16.3032 3.9098 16.6948 4.43263 16.7356L5.78023 16.8407C9.25484 17.1116 12.7453 17.1116 16.2199 16.8407L17.4884 16.7418C17.9747 16.7039 18.3501 16.2981 18.3501 15.8103V15C18.3501 14.5858 18.6858 14.25 19.1001 14.25H20.5001C20.6381 14.25 20.7501 14.138 20.7501 14ZM22.2501 9.99997V14C22.2501 14.9665 21.4666 15.75 20.5001 15.75H19.8501V15.8103C19.8501 17.0813 18.8722 18.1384 17.605 18.2372L16.3365 18.3361C12.7843 18.6131 9.21586 18.6131 5.66363 18.3361L4.31602 18.2311C3.10638 18.1368 2.11649 17.2306 1.91588 16.034C1.46814 13.3633 1.46814 10.6367 1.91588 7.96594C2.11649 6.76932 3.10638 5.86318 4.31603 5.76886L5.66363 5.66379C9.21585 5.38681 12.7843 5.38681 16.3365 5.66379L17.605 5.7627C18.8722 5.8615 19.8501 6.9186 19.8501 8.18964V8.24997H20.5001C21.4666 8.24997 22.2501 9.03347 22.2501 9.99997Z" fill="white"/>
</svg>
