<svg width="24px" height="24px" viewBox="0 0 24 24" fill="none" xmlns="http://www.w3.org/2000/svg">
<path d="M13.067 8.4838C10.6763 8.39582 8.2817 8.44641 5.89533 8.63558L5.7066 8.65054C5.26765 8.68534 4.90256 9.00202 4.80609 9.43165C4.42762 11.1172 4.42776 12.8662 4.80621 14.5516C4.90239 14.9799 5.2657 15.2964 5.7035 15.3325L5.87777 15.3469C8.26997 15.5445 10.6711 15.5974 13.0681 15.5059C13.4709 15.4905 13.7895 15.1595 13.7895 14.7564V9.23329C13.7895 8.82981 13.4703 8.49863 13.067 8.4838Z" fill="white"/>
<path fill-rule="evenodd" clip-rule="evenodd" d="M22.25 14V9.99997C22.25 9.03347 21.4665 8.24997 20.5 8.24997H19.85V8.18964C19.85 6.9186 18.8721 5.8615 17.6049 5.7627L16.3364 5.66379C12.7842 5.38681 9.21579 5.38681 5.66357 5.66379L4.31597 5.76886C3.10632 5.86318 2.11643 6.76932 1.91582 7.96594C1.46808 10.6367 1.46808 13.3633 1.91582 16.034C2.11643 17.2306 3.10632 18.1368 4.31596 18.2311L5.66357 18.3361C9.2158 18.6131 12.7842 18.6131 16.3364 18.3361L17.6049 18.2372C18.8721 18.1384 19.85 17.0813 19.85 15.8103V15.75H20.5C21.4665 15.75 22.25 14.9665 22.25 14ZM20.75 9.99997V14C20.75 14.138 20.6381 14.25 20.5 14.25L19.1 14.25C18.6858 14.25 18.35 14.5858 18.35 15V15.8103C18.35 16.2981 17.9747 16.7039 17.4883 16.7418L16.2198 16.8407C12.7452 17.1116 9.25478 17.1116 5.78017 16.8407L4.43257 16.7356C3.90973 16.6948 3.48188 16.3032 3.39518 15.786C2.97496 13.2795 2.97496 10.7205 3.39518 8.21395C3.48188 7.69674 3.90973 7.30509 4.43257 7.26432L5.78017 7.15925C9.25478 6.88832 12.7452 6.88832 16.2198 7.15925L17.4883 7.25816C17.9747 7.29608 18.35 7.7018 18.35 8.18964V8.99997C18.35 9.41418 18.6858 9.74997 19.1 9.74997H20.5C20.6381 9.74997 20.75 9.8619 20.75 9.99997Z" fill="white"/>
</svg>
