<svg width="24px" height="24px" viewBox="0 0 24 24" fill="none" xmlns="http://www.w3.org/2000/svg">
<path fill-rule="evenodd" clip-rule="evenodd" d="M11.9999 3.74976L19.2736 3.95541C20.5588 3.99175 21.6218 4.9674 21.7679 6.2448C22.0915 9.07241 22.0915 11.9277 21.7679 14.7553C21.6218 16.0327 20.5588 17.0084 19.2736 17.0447L13.7499 17.2009V19.2501H16.9999C17.4142 19.2501 17.7499 19.5858 17.7499 20.0001C17.7499 20.4143 17.4142 20.7501 16.9999 20.7501H6.99994C6.58573 20.7501 6.24994 20.4143 6.24994 20.0001C6.24994 19.5858 6.58573 19.2501 6.99994 19.2501H10.2499V17.2009L4.72629 17.0447C3.44108 17.0084 2.37806 16.0327 2.2319 14.7553C1.90838 11.9277 1.90838 9.07241 2.2319 6.2448C2.37806 4.9674 3.44108 3.99175 4.7263 3.95541L11.9999 3.74976ZM11.9999 5.25036L4.76869 5.45481C4.22948 5.47006 3.7835 5.87939 3.72218 6.41531C3.41162 9.12962 3.41162 11.8705 3.72218 14.5848C3.7835 15.1207 4.22948 15.5301 4.76869 15.5453L11.9999 15.7498L19.2312 15.5453C19.7704 15.5301 20.2164 15.1207 20.2777 14.5848C20.5882 11.8705 20.5882 9.12962 20.2777 6.41531C20.2164 5.87939 19.7704 5.47006 19.2312 5.45481L11.9999 5.25036Z" fill="white"/>
</svg>
