<svg width="24px" height="24px" viewBox="0 0 24 24" fill="none" xmlns="http://www.w3.org/2000/svg">
<path fill-rule="evenodd" clip-rule="evenodd" d="M6.94581 1.35113C6.32191 1.2814 5.67812 1.2814 5.05422 1.35113C4.43473 1.42036 3.93115 1.90761 3.85738 2.53839C3.78265 3.17735 3.78265 3.82283 3.85738 4.46179C3.93115 5.09256 4.43473 5.57981 5.05422 5.64905C5.67812 5.71878 6.32191 5.71878 6.94581 5.64905C7.56529 5.57981 8.06887 5.09256 8.14265 4.46179C8.21738 3.82283 8.21738 3.17734 8.14265 2.53839C8.06887 1.90761 7.56529 1.42036 6.94581 1.35113ZM5.33452 4.17007C5.29027 3.72451 5.29027 3.27566 5.33452 2.8301C5.77429 2.7884 6.22574 2.7884 6.6655 2.8301C6.70976 3.27566 6.70976 3.72451 6.6655 4.17007C6.22574 4.21178 5.77429 4.21178 5.33452 4.17007Z" fill="white"/>
<path fill-rule="evenodd" clip-rule="evenodd" d="M12.9458 1.35113C12.3219 1.2814 11.6781 1.2814 11.0542 1.35113C10.4347 1.42036 9.93115 1.90761 9.85738 2.53839C9.78265 3.17735 9.78265 3.82283 9.85738 4.46179C9.93115 5.09256 10.4347 5.57981 11.0542 5.64905C11.6781 5.71878 12.3219 5.71878 12.9458 5.64905C13.5653 5.57981 14.0689 5.09256 14.1426 4.46179C14.2174 3.82283 14.2174 3.17734 14.1426 2.53839C14.0689 1.90761 13.5653 1.42036 12.9458 1.35113ZM11.3345 4.17007C11.2903 3.72451 11.2903 3.27566 11.3345 2.8301C11.7743 2.7884 12.2257 2.7884 12.6655 2.8301C12.7098 3.27566 12.7098 3.72451 12.6655 4.17007C12.2257 4.21178 11.7743 4.21178 11.3345 4.17007Z" fill="white"/>
<path fill-rule="evenodd" clip-rule="evenodd" d="M17.0542 1.35113C17.6781 1.2814 18.3219 1.2814 18.9458 1.35113C19.5653 1.42036 20.0689 1.90761 20.1426 2.53839C20.2174 3.17734 20.2174 3.82283 20.1426 4.46179C20.0689 5.09256 19.5653 5.57981 18.9458 5.64905C18.3219 5.71878 17.6781 5.71878 17.0542 5.64905C16.4347 5.57981 15.9312 5.09256 15.8574 4.46179C15.7826 3.82283 15.7826 3.17735 15.8574 2.53839C15.9312 1.90761 16.4347 1.42036 17.0542 1.35113ZM17.3345 2.8301C17.2903 3.27566 17.2903 3.72451 17.3345 4.17007C17.7743 4.21178 18.2257 4.21178 18.6655 4.17007C18.7098 3.72451 18.7098 3.27566 18.6655 2.8301C18.2257 2.7884 17.7743 2.7884 17.3345 2.8301Z" fill="white"/>
<path fill-rule="evenodd" clip-rule="evenodd" d="M6.94581 6.85113C6.32191 6.7814 5.67812 6.7814 5.05422 6.85113C4.43473 6.92036 3.93115 7.40761 3.85738 8.03839C3.78265 8.67735 3.78265 9.32283 3.85738 9.96179C3.93115 10.5926 4.43473 11.0798 5.05422 11.1491C5.67812 11.2188 6.32191 11.2188 6.94581 11.1491C7.56529 11.0798 8.06887 10.5926 8.14265 9.96179C8.21738 9.32283 8.21738 8.67734 8.14265 8.03839C8.06887 7.40761 7.56529 6.92036 6.94581 6.85113ZM5.33452 9.67007C5.29027 9.22451 5.29027 8.77566 5.33452 8.3301C5.77429 8.2884 6.22574 8.2884 6.6655 8.3301C6.70976 8.77566 6.70976 9.22451 6.6655 9.67007C6.22574 9.71177 5.77429 9.71177 5.33452 9.67007Z" fill="white"/>
<path fill-rule="evenodd" clip-rule="evenodd" d="M11.0542 6.85113C11.6781 6.7814 12.3219 6.7814 12.9458 6.85113C13.5653 6.92036 14.0689 7.40761 14.1426 8.03839C14.2174 8.67734 14.2174 9.32283 14.1426 9.96179C14.0689 10.5926 13.5653 11.0798 12.9458 11.1491C12.3219 11.2188 11.6781 11.2188 11.0542 11.1491C10.4347 11.0798 9.93115 10.5926 9.85738 9.96179C9.78265 9.32283 9.78265 8.67735 9.85738 8.03839C9.93115 7.40761 10.4347 6.92036 11.0542 6.85113ZM11.3345 8.3301C11.2903 8.77566 11.2903 9.22451 11.3345 9.67007C11.7743 9.71177 12.2257 9.71177 12.6655 9.67007C12.7098 9.22451 12.7098 8.77566 12.6655 8.3301C12.2257 8.2884 11.7743 8.2884 11.3345 8.3301Z" fill="white"/>
<path fill-rule="evenodd" clip-rule="evenodd" d="M18.9458 6.85113C18.3219 6.7814 17.6781 6.7814 17.0542 6.85113C16.4347 6.92036 15.9312 7.40761 15.8574 8.03839C15.7826 8.67735 15.7826 9.32283 15.8574 9.96179C15.9312 10.5926 16.4347 11.0798 17.0542 11.1491C17.6781 11.2188 18.3219 11.2188 18.9458 11.1491C19.5653 11.0798 20.0689 10.5926 20.1426 9.96179C20.2174 9.32283 20.2174 8.67734 20.1426 8.03839C20.0689 7.40761 19.5653 6.92036 18.9458 6.85113ZM17.3345 9.67007C17.2903 9.22451 17.2903 8.77566 17.3345 8.3301C17.7743 8.2884 18.2257 8.2884 18.6655 8.3301C18.7098 8.77566 18.7098 9.22451 18.6655 9.67007C18.2257 9.71177 17.7743 9.71177 17.3345 9.67007Z" fill="white"/>
<path fill-rule="evenodd" clip-rule="evenodd" d="M5.05422 12.3511C5.67812 12.2814 6.32191 12.2814 6.94581 12.3511C7.56529 12.4204 8.06887 12.9076 8.14265 13.5384C8.21738 14.1773 8.21738 14.8228 8.14265 15.4618C8.06887 16.0926 7.56529 16.5798 6.94581 16.6491C6.32191 16.7188 5.67812 16.7188 5.05422 16.6491C4.43473 16.5798 3.93115 16.0926 3.85738 15.4618C3.78265 14.8228 3.78265 14.1773 3.85738 13.5384C3.93115 12.9076 4.43473 12.4204 5.05422 12.3511ZM5.33452 13.8301C5.29027 14.2757 5.29027 14.7245 5.33452 15.1701C5.77429 15.2118 6.22574 15.2118 6.6655 15.1701C6.70976 14.7245 6.70976 14.2757 6.6655 13.8301C6.22574 13.7884 5.77429 13.7884 5.33452 13.8301Z" fill="white"/>
<path fill-rule="evenodd" clip-rule="evenodd" d="M12.9458 12.3511C12.3219 12.2814 11.6781 12.2814 11.0542 12.3511C10.4347 12.4204 9.93115 12.9076 9.85738 13.5384C9.78265 14.1773 9.78265 14.8228 9.85738 15.4618C9.93115 16.0926 10.4347 16.5798 11.0542 16.6491C11.6781 16.7188 12.3219 16.7188 12.9458 16.6491C13.5653 16.5798 14.0689 16.0926 14.1426 15.4618C14.2174 14.8228 14.2174 14.1773 14.1426 13.5384C14.0689 12.9076 13.5653 12.4204 12.9458 12.3511ZM11.3345 15.1701C11.2903 14.7245 11.2903 14.2757 11.3345 13.8301C11.7743 13.7884 12.2257 13.7884 12.6655 13.8301C12.7098 14.2757 12.7098 14.7245 12.6655 15.1701C12.2257 15.2118 11.7743 15.2118 11.3345 15.1701Z" fill="white"/>
<path fill-rule="evenodd" clip-rule="evenodd" d="M11.0542 17.8511C11.6781 17.7814 12.3219 17.7814 12.9458 17.8511C13.5653 17.9204 14.0689 18.4076 14.1426 19.0384C14.2174 19.6773 14.2174 20.3228 14.1426 20.9618C14.0689 21.5926 13.5653 22.0798 12.9458 22.1491C12.3219 22.2188 11.6781 22.2188 11.0542 22.1491C10.4347 22.0798 9.93115 21.5926 9.85738 20.9618C9.78265 20.3228 9.78265 19.6773 9.85738 19.0384C9.93115 18.4076 10.4347 17.9204 11.0542 17.8511ZM11.3345 19.3301C11.2903 19.7757 11.2903 20.2245 11.3345 20.6701C11.7743 20.7118 12.2257 20.7118 12.6655 20.6701C12.7098 20.2245 12.7098 19.7757 12.6655 19.3301C12.2257 19.2884 11.7743 19.2884 11.3345 19.3301Z" fill="white"/>
<path fill-rule="evenodd" clip-rule="evenodd" d="M18.9458 12.3511C18.3219 12.2814 17.6781 12.2814 17.0542 12.3511C16.4347 12.4204 15.9312 12.9076 15.8574 13.5384C15.7826 14.1773 15.7826 14.8228 15.8574 15.4618C15.9312 16.0926 16.4347 16.5798 17.0542 16.6491C17.6781 16.7188 18.3219 16.7188 18.9458 16.6491C19.5653 16.5798 20.0689 16.0926 20.1426 15.4618C20.2174 14.8228 20.2174 14.1773 20.1426 13.5384C20.0689 12.9076 19.5653 12.4204 18.9458 12.3511ZM17.3345 15.1701C17.2903 14.7245 17.2903 14.2757 17.3345 13.8301C17.7743 13.7884 18.2257 13.7884 18.6655 13.8301C18.7098 14.2757 18.7098 14.7245 18.6655 15.1701C18.2257 15.2118 17.7743 15.2118 17.3345 15.1701Z" fill="white"/>
</svg>
