<svg width="24px" height="24px" viewBox="0 0 24 24" fill="none" xmlns="http://www.w3.org/2000/svg">
<path fill-rule="evenodd" clip-rule="evenodd" d="M13.2976 18.7499C13.4639 18.7499 13.6173 18.6608 13.6996 18.5163L17.0456 12.6431C17.4891 11.8646 17.6752 10.9657 17.5774 10.0751L17.2242 6.86142C17.1614 6.28964 16.7125 5.83673 16.1413 5.76878L14.0243 5.51694C12.6267 5.35069 11.2097 5.4948 9.8742 5.939C9.21466 6.15837 8.68639 6.65896 8.43188 7.30575L6.72779 11.6363C6.68613 11.7422 6.65733 11.8527 6.64203 11.9654C6.51279 12.9175 7.34626 13.7207 8.29293 13.5563L11.7087 12.963C12.7877 12.7756 13.7196 13.7278 13.5091 14.8025L12.8437 18.1984C12.7877 18.4841 13.0064 18.7499 13.2976 18.7499ZM15.0029 19.2588C14.6539 19.8716 14.0029 20.2499 13.2977 20.2499C12.0623 20.25 11.1341 19.1223 11.3716 17.9099L12.0371 14.5141C12.0399 14.4995 12.0384 14.4906 12.0364 14.4843C12.0339 14.4764 12.0288 14.4672 12.0205 14.4586C12.0121 14.4501 12.003 14.4448 11.9952 14.4422C11.9889 14.4401 11.98 14.4383 11.9654 14.4409L8.54961 15.0342C6.60343 15.3722 4.88996 13.721 5.15566 11.7637C5.18713 11.5319 5.24632 11.3047 5.33197 11.0871L7.03606 6.75649C7.45334 5.69606 8.31945 4.87532 9.40078 4.51566C10.9456 4.00183 12.5848 3.83513 14.2015 4.02744L16.3185 4.27928C17.5827 4.42967 18.5762 5.43207 18.7153 6.69757L19.0684 9.91125C19.2008 11.1163 18.949 12.3323 18.3489 13.3856L15.0029 19.2588Z" fill="white"/>
</svg>
