<svg width="24px" height="24px" viewBox="0 0 24 24" fill="none" xmlns="http://www.w3.org/2000/svg">
<path fill-rule="evenodd" clip-rule="evenodd" d="M18.7503 10.5001L18.7438 10.743L18.7503 11.0002L18.7441 11.2434L18.7503 11.5002L18.7444 11.745L18.7502 12.0002L18.5879 19.1032C18.5493 20.7884 17.2676 22.1841 15.5916 22.3656C13.2042 22.6241 10.7959 22.6241 8.40843 22.3656C6.73252 22.1841 5.45075 20.7884 5.41223 19.1032L5.24985 12.0002L5.25572 11.7434L5.24986 11.5002L5.25602 11.2444L5.24981 11.0002L5.25632 10.7441L5.24976 10.5001L5.41376 4.40223C5.41605 4.31715 5.42203 4.23296 5.43155 4.1498L5.43528 4.11464L5.43824 4.0863C5.51885 3.2622 5.97553 2.54344 6.64105 2.11211C6.69071 2.07909 6.74152 2.04764 6.79344 2.01784C6.84422 1.98779 6.89605 1.95929 6.94887 1.9324C7.27547 1.76004 7.63996 1.64832 8.02796 1.61261C10.6704 1.36937 13.3296 1.36937 15.9721 1.61261C16.3595 1.64827 16.7234 1.75968 17.0496 1.93158C17.1024 1.95843 17.1543 1.98689 17.2051 2.0169C17.2586 2.04759 17.311 2.08004 17.3622 2.11415C18.0242 2.54452 18.4788 3.25955 18.5612 4.0795L18.569 4.1538C18.5782 4.23566 18.584 4.31852 18.5863 4.40223L18.7503 10.5001ZM17.0743 4.32085L17.2313 11.1875L17.104 15.9177C17.0754 16.9811 16.2563 17.8552 15.1971 17.9527C13.0702 18.1485 10.9298 18.1485 8.80298 17.9527C7.74371 17.8552 6.92461 16.9811 6.89601 15.9177L6.7688 11.1881L6.92579 4.32085C6.92613 4.30607 6.92675 4.29136 6.92763 4.27672C6.98711 3.87444 7.22025 3.5272 7.55079 3.31633C7.67601 3.25105 7.81495 3.20776 7.96275 3.19176C10.6464 2.90113 13.3536 2.90113 16.0373 3.19176C16.1851 3.20776 16.324 3.25102 16.4491 3.31626C16.7798 3.52717 17.0131 3.87458 17.0725 4.27706C17.0733 4.29159 17.074 4.30619 17.0743 4.32085ZM12.0001 21.7002C12.8285 21.7002 13.5001 21.0286 13.5001 20.2002C13.5001 19.3717 12.8285 18.7002 12.0001 18.7002C11.1716 18.7002 10.5001 19.3717 10.5001 20.2002C10.5001 21.0286 11.1716 21.7002 12.0001 21.7002Z" fill="white"/>
</svg>
