<svg width="24px" height="24px" viewBox="0 0 24 24" fill="none" xmlns="http://www.w3.org/2000/svg">
<path fill-rule="evenodd" clip-rule="evenodd" d="M6.6642 4.41418C6.6642 3.99997 6.99998 3.66418 7.4142 3.66418H10.2426C10.6568 3.66418 10.9926 3.99997 10.9926 4.41418C10.9926 4.8284 10.6568 5.16418 10.2426 5.16418H9.22486L11.8232 7.76253C11.9208 7.86017 12.0791 7.86016 12.1768 7.76253L16.0554 3.88385C16.3483 3.59096 16.8232 3.59096 17.1161 3.88385C17.409 4.17675 17.409 4.65162 17.1161 4.94451L13.2374 8.82319C12.554 9.50661 11.446 9.50661 10.7625 8.82319L8.1642 6.22484V7.24261C8.1642 7.65683 7.82841 7.99261 7.4142 7.99261C6.99998 7.99261 6.6642 7.65683 6.6642 7.24261V4.41418Z" fill="white"/>
<path fill-rule="evenodd" clip-rule="evenodd" d="M17.9718 13.5721C13.956 12.084 9.51917 12.145 5.53791 13.7552L5.52534 13.7603L4.7445 14.0596C3.75033 14.441 3.15958 15.467 3.32891 16.5182L3.67495 18.6665C3.69609 18.7977 3.81621 18.8895 3.94836 18.8753L6.7906 18.5713C6.93189 18.5562 7.03219 18.4265 7.01129 18.286L6.79738 16.8475C6.74543 16.4982 6.94423 16.1599 7.27472 16.0354C10.3113 14.891 13.671 14.891 16.7076 16.0354C17.0381 16.16 17.2369 16.4982 17.1849 16.8475L16.971 18.286C16.9501 18.4265 17.0504 18.5562 17.1917 18.5713L20.0343 18.8754C20.1665 18.8895 20.2865 18.7978 20.3077 18.6666L20.6564 16.5075C20.8273 15.4497 20.2284 14.4182 19.2251 14.042L17.9732 13.5726L17.9718 13.5721ZM4.98185 12.3621C9.30907 10.6138 14.1304 10.5485 18.4945 12.1661L18.4971 12.1671L19.7517 12.6375C21.4239 13.2644 22.422 14.9837 22.1372 16.7467L21.7885 18.9058C21.6402 19.824 20.7996 20.4658 19.8748 20.3669L17.0322 20.0628C16.0431 19.957 15.341 19.0492 15.4873 18.0653L15.6099 17.2411C13.2586 16.4891 10.7237 16.4891 8.3724 17.2411L8.49498 18.0653C8.64129 19.0492 7.93918 19.957 6.95013 20.0628L4.1079 20.3668C3.1828 20.4658 2.342 19.8236 2.19404 18.9051L1.848 16.7568C1.56578 15.0047 2.55036 13.2947 4.20732 12.6591L4.98185 12.3621Z" fill="white"/>
</svg>
