<svg width="24px" height="24px" viewBox="0 0 24 24" fill="none" xmlns="http://www.w3.org/2000/svg">
<path d="M6.00003 7.5C6.00003 6.94772 6.44775 6.5 7.00003 6.5C7.55232 6.5 8.00003 6.94772 8.00003 7.5C8.00003 8.05228 7.55232 8.5 7.00003 8.5C6.44775 8.5 6.00003 8.05228 6.00003 7.5Z" fill="white"/>
<path d="M9.00003 7.5C9.00003 6.94772 9.44775 6.5 10 6.5C10.5523 6.5 11 6.94772 11 7.5C11 8.05228 10.5523 8.5 10 8.5C9.44775 8.5 9.00003 8.05228 9.00003 7.5Z" fill="white"/>
<path d="M7.00003 13.5C6.44775 13.5 6.00003 13.9477 6.00003 14.5C6.00003 15.0523 6.44775 15.5 7.00003 15.5C7.55232 15.5 8.00003 15.0523 8.00003 14.5C8.00003 13.9477 7.55232 13.5 7.00003 13.5Z" fill="white"/>
<path d="M10 13.5C9.44775 13.5 9.00003 13.9477 9.00003 14.5C9.00003 15.0523 9.44775 15.5 10 15.5C10.5523 15.5 11 15.0523 11 14.5C11 13.9477 10.5523 13.5 10 13.5Z" fill="white"/>
<path fill-rule="evenodd" clip-rule="evenodd" d="M5.94739 3.25C4.4286 3.25 3.19739 4.48122 3.19739 6V9C3.19739 9.78801 3.52883 10.4986 4.05992 11C3.52883 11.5014 3.19739 12.212 3.19739 13V16C3.19739 17.5188 4.4286 18.75 5.94739 18.75H11.25V20.25H5.00003C4.58582 20.25 4.25003 20.5858 4.25003 21C4.25003 21.4142 4.58582 21.75 5.00003 21.75H19C19.4142 21.75 19.75 21.4142 19.75 21C19.75 20.5858 19.4142 20.25 19 20.25H12.75V18.75H17.9474C19.4662 18.75 20.6974 17.5188 20.6974 16V13C20.6974 12.212 20.3659 11.5014 19.8349 11C20.3659 10.4986 20.6974 9.78802 20.6974 9V6C20.6974 4.48122 19.4662 3.25 17.9474 3.25H5.94739ZM5.94739 10.25H17.9474C18.6377 10.25 19.1974 9.69036 19.1974 9V6C19.1974 5.30964 18.6377 4.75 17.9474 4.75H5.94739C5.25703 4.75 4.69739 5.30964 4.69739 6V9C4.69739 9.69036 5.25703 10.25 5.94739 10.25ZM5.94739 11.75C5.25703 11.75 4.69739 12.3096 4.69739 13V16C4.69739 16.6904 5.25703 17.25 5.94739 17.25H17.9474C18.6377 17.25 19.1974 16.6904 19.1974 16V13C19.1974 12.3096 18.6377 11.75 17.9474 11.75H5.94739Z" fill="white"/>
</svg>
